G75*
G70*
%OFA0B0*%
%FSLAX24Y24*%
%IPPOS*%
%LPD*%
%AMOC8*
5,1,8,0,0,1.08239X$1,22.5*
%
%ADD10C,0.0000*%
%ADD11R,0.0590X0.0590*%
%ADD12C,0.0590*%
%ADD13OC8,0.0520*%
%ADD14R,0.0520X0.0220*%
%ADD15C,0.0520*%
%ADD16C,0.0660*%
%ADD17C,0.1240*%
%ADD18C,0.2550*%
%ADD19R,0.0900X0.0900*%
%ADD20C,0.0740*%
%ADD21C,0.0600*%
%ADD22C,0.0760*%
%ADD23C,0.0440*%
%ADD24OC8,0.0600*%
%ADD25C,0.0650*%
%ADD26OC8,0.0630*%
%ADD27C,0.0750*%
%ADD28OC8,0.0750*%
%ADD29C,0.0160*%
%ADD30C,0.0460*%
%ADD31C,0.1266*%
D10*
X008831Y010180D02*
X008831Y029050D01*
X117323Y029050D01*
X117323Y010180D01*
X008831Y010180D01*
X011620Y019055D02*
X011622Y019085D01*
X011628Y019115D01*
X011637Y019144D01*
X011650Y019171D01*
X011667Y019196D01*
X011686Y019219D01*
X011709Y019240D01*
X011734Y019257D01*
X011760Y019271D01*
X011789Y019281D01*
X011818Y019288D01*
X011848Y019291D01*
X011879Y019290D01*
X011909Y019285D01*
X011938Y019276D01*
X011965Y019264D01*
X011991Y019249D01*
X012015Y019230D01*
X012036Y019208D01*
X012054Y019184D01*
X012069Y019157D01*
X012080Y019129D01*
X012088Y019100D01*
X012092Y019070D01*
X012092Y019040D01*
X012088Y019010D01*
X012080Y018981D01*
X012069Y018953D01*
X012054Y018926D01*
X012036Y018902D01*
X012015Y018880D01*
X011991Y018861D01*
X011965Y018846D01*
X011938Y018834D01*
X011909Y018825D01*
X011879Y018820D01*
X011848Y018819D01*
X011818Y018822D01*
X011789Y018829D01*
X011760Y018839D01*
X011734Y018853D01*
X011709Y018870D01*
X011686Y018891D01*
X011667Y018914D01*
X011650Y018939D01*
X011637Y018966D01*
X011628Y018995D01*
X011622Y019025D01*
X011620Y019055D01*
X063681Y023180D02*
X063683Y023230D01*
X063689Y023280D01*
X063699Y023330D01*
X063712Y023378D01*
X063729Y023426D01*
X063750Y023472D01*
X063774Y023516D01*
X063802Y023558D01*
X063833Y023598D01*
X063867Y023635D01*
X063904Y023670D01*
X063943Y023701D01*
X063984Y023730D01*
X064028Y023755D01*
X064074Y023777D01*
X064121Y023795D01*
X064169Y023809D01*
X064218Y023820D01*
X064268Y023827D01*
X064318Y023830D01*
X064369Y023829D01*
X064419Y023824D01*
X064469Y023815D01*
X064517Y023803D01*
X064565Y023786D01*
X064611Y023766D01*
X064656Y023743D01*
X064699Y023716D01*
X064739Y023686D01*
X064777Y023653D01*
X064812Y023617D01*
X064845Y023578D01*
X064874Y023537D01*
X064900Y023494D01*
X064923Y023449D01*
X064942Y023402D01*
X064957Y023354D01*
X064969Y023305D01*
X064977Y023255D01*
X064981Y023205D01*
X064981Y023155D01*
X064977Y023105D01*
X064969Y023055D01*
X064957Y023006D01*
X064942Y022958D01*
X064923Y022911D01*
X064900Y022866D01*
X064874Y022823D01*
X064845Y022782D01*
X064812Y022743D01*
X064777Y022707D01*
X064739Y022674D01*
X064699Y022644D01*
X064656Y022617D01*
X064611Y022594D01*
X064565Y022574D01*
X064517Y022557D01*
X064469Y022545D01*
X064419Y022536D01*
X064369Y022531D01*
X064318Y022530D01*
X064268Y022533D01*
X064218Y022540D01*
X064169Y022551D01*
X064121Y022565D01*
X064074Y022583D01*
X064028Y022605D01*
X063984Y022630D01*
X063943Y022659D01*
X063904Y022690D01*
X063867Y022725D01*
X063833Y022762D01*
X063802Y022802D01*
X063774Y022844D01*
X063750Y022888D01*
X063729Y022934D01*
X063712Y022982D01*
X063699Y023030D01*
X063689Y023080D01*
X063683Y023130D01*
X063681Y023180D01*
X085181Y027180D02*
X085183Y027230D01*
X085189Y027280D01*
X085199Y027330D01*
X085212Y027378D01*
X085229Y027426D01*
X085250Y027472D01*
X085274Y027516D01*
X085302Y027558D01*
X085333Y027598D01*
X085367Y027635D01*
X085404Y027670D01*
X085443Y027701D01*
X085484Y027730D01*
X085528Y027755D01*
X085574Y027777D01*
X085621Y027795D01*
X085669Y027809D01*
X085718Y027820D01*
X085768Y027827D01*
X085818Y027830D01*
X085869Y027829D01*
X085919Y027824D01*
X085969Y027815D01*
X086017Y027803D01*
X086065Y027786D01*
X086111Y027766D01*
X086156Y027743D01*
X086199Y027716D01*
X086239Y027686D01*
X086277Y027653D01*
X086312Y027617D01*
X086345Y027578D01*
X086374Y027537D01*
X086400Y027494D01*
X086423Y027449D01*
X086442Y027402D01*
X086457Y027354D01*
X086469Y027305D01*
X086477Y027255D01*
X086481Y027205D01*
X086481Y027155D01*
X086477Y027105D01*
X086469Y027055D01*
X086457Y027006D01*
X086442Y026958D01*
X086423Y026911D01*
X086400Y026866D01*
X086374Y026823D01*
X086345Y026782D01*
X086312Y026743D01*
X086277Y026707D01*
X086239Y026674D01*
X086199Y026644D01*
X086156Y026617D01*
X086111Y026594D01*
X086065Y026574D01*
X086017Y026557D01*
X085969Y026545D01*
X085919Y026536D01*
X085869Y026531D01*
X085818Y026530D01*
X085768Y026533D01*
X085718Y026540D01*
X085669Y026551D01*
X085621Y026565D01*
X085574Y026583D01*
X085528Y026605D01*
X085484Y026630D01*
X085443Y026659D01*
X085404Y026690D01*
X085367Y026725D01*
X085333Y026762D01*
X085302Y026802D01*
X085274Y026844D01*
X085250Y026888D01*
X085229Y026934D01*
X085212Y026982D01*
X085199Y027030D01*
X085189Y027080D01*
X085183Y027130D01*
X085181Y027180D01*
X114570Y019855D02*
X114572Y019885D01*
X114578Y019915D01*
X114587Y019944D01*
X114600Y019971D01*
X114617Y019996D01*
X114636Y020019D01*
X114659Y020040D01*
X114684Y020057D01*
X114710Y020071D01*
X114739Y020081D01*
X114768Y020088D01*
X114798Y020091D01*
X114829Y020090D01*
X114859Y020085D01*
X114888Y020076D01*
X114915Y020064D01*
X114941Y020049D01*
X114965Y020030D01*
X114986Y020008D01*
X115004Y019984D01*
X115019Y019957D01*
X115030Y019929D01*
X115038Y019900D01*
X115042Y019870D01*
X115042Y019840D01*
X115038Y019810D01*
X115030Y019781D01*
X115019Y019753D01*
X115004Y019726D01*
X114986Y019702D01*
X114965Y019680D01*
X114941Y019661D01*
X114915Y019646D01*
X114888Y019634D01*
X114859Y019625D01*
X114829Y019620D01*
X114798Y019619D01*
X114768Y019622D01*
X114739Y019629D01*
X114710Y019639D01*
X114684Y019653D01*
X114659Y019670D01*
X114636Y019691D01*
X114617Y019714D01*
X114600Y019739D01*
X114587Y019766D01*
X114578Y019795D01*
X114572Y019825D01*
X114570Y019855D01*
D11*
X074331Y011180D03*
X053831Y011680D03*
X049331Y011680D03*
X031831Y014680D03*
X031331Y018680D03*
X045831Y023180D03*
X016331Y026180D03*
X011831Y026180D03*
X010331Y012680D03*
X015331Y012180D03*
D12*
X016331Y012180D03*
X015831Y013180D03*
X011331Y012680D03*
X010831Y013680D03*
X032331Y015680D03*
X032831Y014680D03*
X032331Y018680D03*
X031831Y019680D03*
X046331Y024180D03*
X046831Y023180D03*
X017331Y026180D03*
X016831Y027180D03*
X012831Y026180D03*
X012331Y027180D03*
X049831Y012680D03*
X050331Y011680D03*
X054331Y012680D03*
X054831Y011680D03*
X074831Y012180D03*
X075331Y011180D03*
D13*
X026831Y016680D03*
X025831Y016680D03*
X025831Y020180D03*
X026831Y020180D03*
D14*
X049431Y026800D03*
X050231Y027180D03*
X049431Y027560D03*
X059431Y017060D03*
X060231Y016680D03*
X059431Y016300D03*
D15*
X056591Y016680D02*
X056071Y016680D01*
X052591Y016680D02*
X052071Y016680D01*
X057571Y011680D02*
X058091Y011680D01*
X061571Y011680D02*
X062091Y011680D01*
X059091Y023680D02*
X058571Y023680D01*
X055091Y023680D02*
X054571Y023680D01*
X057571Y027180D02*
X058091Y027180D01*
X061571Y027180D02*
X062091Y027180D01*
D16*
X084931Y023510D02*
X084931Y022850D01*
X085831Y022850D02*
X085831Y023510D01*
X086731Y023510D02*
X086731Y022850D01*
X065231Y019510D02*
X065231Y018850D01*
X064331Y018850D02*
X064331Y019510D01*
X063431Y019510D02*
X063431Y018850D01*
D17*
X074011Y021530D02*
X075251Y021530D01*
X089011Y019330D02*
X090251Y019330D01*
X090251Y015030D02*
X089011Y015030D01*
X075251Y025830D02*
X074011Y025830D01*
D18*
X069381Y023680D03*
X081281Y023680D03*
X084381Y017180D03*
X096281Y017180D03*
D19*
X109831Y027180D03*
X115831Y027180D03*
D20*
X106331Y027180D03*
X098331Y027180D03*
X096831Y027180D03*
X088831Y027180D03*
X088831Y023680D03*
X096831Y023680D03*
X098831Y023680D03*
X106831Y023680D03*
X106831Y020680D03*
X098831Y020680D03*
X098831Y018180D03*
X106831Y018180D03*
X106831Y015180D03*
X098831Y015180D03*
X086331Y012180D03*
X078331Y012180D03*
X071831Y011680D03*
X063831Y011680D03*
X063331Y015680D03*
X071331Y015680D03*
X072831Y015680D03*
X080831Y015680D03*
X062331Y020180D03*
X054331Y020180D03*
X052331Y020180D03*
X044331Y020180D03*
X042331Y020180D03*
X034331Y020180D03*
X033831Y023180D03*
X031831Y023180D03*
X023831Y023180D03*
X022331Y023180D03*
X022331Y021680D03*
X014331Y023180D03*
X018331Y026680D03*
X026331Y026680D03*
X028331Y026680D03*
X036331Y026680D03*
X038331Y026680D03*
X046331Y026680D03*
X041831Y023180D03*
X040831Y016930D03*
X032831Y016930D03*
X022331Y013680D03*
X018831Y011680D03*
X026831Y011680D03*
X028831Y011680D03*
X036831Y011680D03*
X038331Y012180D03*
X046331Y012180D03*
D21*
X112531Y012180D02*
X113131Y012180D01*
X113131Y013180D02*
X112531Y013180D01*
X112531Y016180D02*
X113131Y016180D01*
X113131Y017180D02*
X112531Y017180D01*
X112531Y021680D02*
X113131Y021680D01*
X113131Y022680D02*
X112531Y022680D01*
X112531Y023680D02*
X113131Y023680D01*
D22*
X113822Y020583D03*
X113034Y019855D03*
X113822Y019127D03*
X115751Y019855D03*
X013628Y019055D03*
X012840Y018327D03*
X010911Y019055D03*
X012840Y019783D03*
D23*
X049847Y023188D03*
X051815Y023188D03*
X050831Y024172D03*
D24*
X016081Y020430D03*
X015081Y020430D03*
X015081Y019430D03*
X016081Y019430D03*
X016081Y018430D03*
X015081Y018430D03*
D25*
X015347Y015680D03*
X017315Y015680D03*
X012690Y022430D03*
X010722Y022430D03*
D26*
X046331Y016680D03*
X048331Y016680D03*
X053331Y027180D03*
X055331Y027180D03*
X094331Y011680D03*
X096331Y011680D03*
D27*
X099831Y011680D03*
X064331Y027180D03*
D28*
X066331Y027180D03*
X101831Y011680D03*
D29*
X006331Y004680D02*
X006331Y034180D01*
X119331Y034180D01*
X119331Y004680D01*
X006331Y004680D01*
X006331Y004728D02*
X119331Y004728D01*
X119331Y004886D02*
X006331Y004886D01*
X006331Y005045D02*
X119331Y005045D01*
X119331Y005203D02*
X006331Y005203D01*
X006331Y005362D02*
X119331Y005362D01*
X119331Y005520D02*
X006331Y005520D01*
X006331Y005679D02*
X119331Y005679D01*
X119331Y005837D02*
X006331Y005837D01*
X006331Y005996D02*
X119331Y005996D01*
X119331Y006154D02*
X006331Y006154D01*
X006331Y006313D02*
X119331Y006313D01*
X119331Y006471D02*
X006331Y006471D01*
X006331Y006630D02*
X119331Y006630D01*
X119331Y006788D02*
X006331Y006788D01*
X006331Y006947D02*
X119331Y006947D01*
X119331Y007105D02*
X006331Y007105D01*
X006331Y007264D02*
X119331Y007264D01*
X119331Y007422D02*
X006331Y007422D01*
X006331Y007581D02*
X119331Y007581D01*
X119331Y007739D02*
X006331Y007739D01*
X006331Y007898D02*
X119331Y007898D01*
X119331Y008056D02*
X006331Y008056D01*
X006331Y008215D02*
X119331Y008215D01*
X119331Y008373D02*
X006331Y008373D01*
X006331Y008532D02*
X119331Y008532D01*
X119331Y008690D02*
X006331Y008690D01*
X006331Y008849D02*
X119331Y008849D01*
X119331Y009007D02*
X006331Y009007D01*
X006331Y009166D02*
X119331Y009166D01*
X119331Y009324D02*
X006331Y009324D01*
X006331Y009483D02*
X119331Y009483D01*
X119331Y009641D02*
X006331Y009641D01*
X006331Y009800D02*
X008533Y009800D01*
X008559Y009773D02*
X008735Y009700D01*
X008926Y009700D01*
X117228Y009700D01*
X117419Y009700D01*
X117595Y009773D01*
X117730Y009908D01*
X117803Y010085D01*
X117803Y029146D01*
X117730Y029322D01*
X117595Y029457D01*
X117419Y029530D01*
X008735Y029530D01*
X008559Y029457D01*
X008424Y029322D01*
X008351Y029146D01*
X008351Y010085D01*
X008424Y009908D01*
X008559Y009773D01*
X008403Y009958D02*
X006331Y009958D01*
X006331Y010117D02*
X008351Y010117D01*
X008351Y010275D02*
X006331Y010275D01*
X006331Y010434D02*
X008351Y010434D01*
X008351Y010592D02*
X006331Y010592D01*
X006331Y010751D02*
X008351Y010751D01*
X008351Y010909D02*
X006331Y010909D01*
X006331Y011068D02*
X008351Y011068D01*
X008351Y011226D02*
X006331Y011226D01*
X006331Y011385D02*
X008351Y011385D01*
X008351Y011543D02*
X006331Y011543D01*
X006331Y011702D02*
X008351Y011702D01*
X008351Y011860D02*
X006331Y011860D01*
X006331Y012019D02*
X008351Y012019D01*
X008351Y012177D02*
X006331Y012177D01*
X006331Y012336D02*
X008351Y012336D01*
X008351Y012494D02*
X006331Y012494D01*
X006331Y012653D02*
X008351Y012653D01*
X008351Y012811D02*
X006331Y012811D01*
X006331Y012970D02*
X008351Y012970D01*
X008351Y013128D02*
X006331Y013128D01*
X006331Y013287D02*
X008351Y013287D01*
X008351Y013445D02*
X006331Y013445D01*
X006331Y013604D02*
X008351Y013604D01*
X008351Y013762D02*
X006331Y013762D01*
X006331Y013921D02*
X008351Y013921D01*
X008351Y014079D02*
X006331Y014079D01*
X006331Y014238D02*
X008351Y014238D01*
X008351Y014396D02*
X006331Y014396D01*
X006331Y014555D02*
X008351Y014555D01*
X008351Y014713D02*
X006331Y014713D01*
X006331Y014872D02*
X008351Y014872D01*
X008351Y015030D02*
X006331Y015030D01*
X006331Y015189D02*
X008351Y015189D01*
X008351Y015347D02*
X006331Y015347D01*
X006331Y015506D02*
X008351Y015506D01*
X008351Y015664D02*
X006331Y015664D01*
X006331Y015823D02*
X008351Y015823D01*
X008351Y015981D02*
X006331Y015981D01*
X006331Y016140D02*
X008351Y016140D01*
X008351Y016298D02*
X006331Y016298D01*
X006331Y016457D02*
X008351Y016457D01*
X008351Y016615D02*
X006331Y016615D01*
X006331Y016774D02*
X008351Y016774D01*
X008351Y016932D02*
X006331Y016932D01*
X006331Y017091D02*
X008351Y017091D01*
X008351Y017249D02*
X006331Y017249D01*
X006331Y017408D02*
X008351Y017408D01*
X008351Y017566D02*
X006331Y017566D01*
X006331Y017725D02*
X008351Y017725D01*
X008351Y017883D02*
X006331Y017883D01*
X006331Y018042D02*
X008351Y018042D01*
X008351Y018200D02*
X006331Y018200D01*
X006331Y018359D02*
X008351Y018359D01*
X008351Y018517D02*
X006331Y018517D01*
X006331Y018676D02*
X008351Y018676D01*
X008351Y018834D02*
X006331Y018834D01*
X006331Y018993D02*
X008351Y018993D01*
X008351Y019151D02*
X006331Y019151D01*
X006331Y019310D02*
X008351Y019310D01*
X008351Y019468D02*
X006331Y019468D01*
X006331Y019627D02*
X008351Y019627D01*
X008351Y019785D02*
X006331Y019785D01*
X006331Y019944D02*
X008351Y019944D01*
X008351Y020102D02*
X006331Y020102D01*
X006331Y020261D02*
X008351Y020261D01*
X008351Y020419D02*
X006331Y020419D01*
X006331Y020578D02*
X008351Y020578D01*
X008351Y020736D02*
X006331Y020736D01*
X006331Y020895D02*
X008351Y020895D01*
X008351Y021053D02*
X006331Y021053D01*
X006331Y021212D02*
X008351Y021212D01*
X008351Y021370D02*
X006331Y021370D01*
X006331Y021529D02*
X008351Y021529D01*
X008351Y021687D02*
X006331Y021687D01*
X006331Y021846D02*
X008351Y021846D01*
X008351Y022004D02*
X006331Y022004D01*
X006331Y022163D02*
X008351Y022163D01*
X008351Y022321D02*
X006331Y022321D01*
X006331Y022480D02*
X008351Y022480D01*
X008351Y022638D02*
X006331Y022638D01*
X006331Y022797D02*
X008351Y022797D01*
X008351Y022955D02*
X006331Y022955D01*
X006331Y023114D02*
X008351Y023114D01*
X008351Y023272D02*
X006331Y023272D01*
X006331Y023431D02*
X008351Y023431D01*
X008351Y023589D02*
X006331Y023589D01*
X006331Y023748D02*
X008351Y023748D01*
X008351Y023906D02*
X006331Y023906D01*
X006331Y024065D02*
X008351Y024065D01*
X008351Y024223D02*
X006331Y024223D01*
X006331Y024382D02*
X008351Y024382D01*
X008351Y024540D02*
X006331Y024540D01*
X006331Y024699D02*
X008351Y024699D01*
X008351Y024857D02*
X006331Y024857D01*
X006331Y025016D02*
X008351Y025016D01*
X008351Y025174D02*
X006331Y025174D01*
X006331Y025333D02*
X008351Y025333D01*
X008351Y025491D02*
X006331Y025491D01*
X006331Y025650D02*
X008351Y025650D01*
X008351Y025808D02*
X006331Y025808D01*
X006331Y025967D02*
X008351Y025967D01*
X008351Y026125D02*
X006331Y026125D01*
X006331Y026284D02*
X008351Y026284D01*
X008351Y026442D02*
X006331Y026442D01*
X006331Y026601D02*
X008351Y026601D01*
X008351Y026759D02*
X006331Y026759D01*
X006331Y026918D02*
X008351Y026918D01*
X008351Y027076D02*
X006331Y027076D01*
X006331Y027235D02*
X008351Y027235D01*
X008351Y027393D02*
X006331Y027393D01*
X006331Y027552D02*
X008351Y027552D01*
X008351Y027710D02*
X006331Y027710D01*
X006331Y027869D02*
X008351Y027869D01*
X008351Y028027D02*
X006331Y028027D01*
X006331Y028186D02*
X008351Y028186D01*
X008351Y028344D02*
X006331Y028344D01*
X006331Y028503D02*
X008351Y028503D01*
X008351Y028661D02*
X006331Y028661D01*
X006331Y028820D02*
X008351Y028820D01*
X008351Y028978D02*
X006331Y028978D01*
X006331Y029137D02*
X008351Y029137D01*
X008413Y029295D02*
X006331Y029295D01*
X006331Y029454D02*
X008556Y029454D01*
X009311Y028570D02*
X116843Y028570D01*
X116843Y010660D01*
X075526Y010660D01*
X075645Y010709D01*
X075801Y010866D01*
X075886Y011070D01*
X075886Y011254D01*
X076024Y011392D01*
X076119Y011487D01*
X076171Y011612D01*
X076171Y015748D01*
X076119Y015873D01*
X075119Y016873D01*
X075024Y016968D01*
X074899Y017020D01*
X073763Y017020D01*
X073638Y016968D01*
X073543Y016873D01*
X073491Y016748D01*
X073491Y015821D01*
X073461Y015791D01*
X073461Y015805D01*
X073365Y016037D01*
X073188Y016214D01*
X073171Y016221D01*
X073171Y016748D01*
X073119Y016873D01*
X073024Y016968D01*
X072899Y017020D01*
X069472Y017020D01*
X069302Y017190D01*
X069428Y017190D01*
X069609Y017265D01*
X069746Y017402D01*
X069821Y017583D01*
X069821Y017777D01*
X069746Y017958D01*
X069671Y018033D01*
X069671Y022169D01*
X069973Y022250D01*
X070323Y022452D01*
X070609Y022737D01*
X070811Y023088D01*
X070916Y023478D01*
X070916Y023882D01*
X070811Y024272D01*
X070609Y024623D01*
X070323Y024908D01*
X069973Y025110D01*
X069583Y025215D01*
X069179Y025215D01*
X068788Y025110D01*
X068438Y024908D01*
X068153Y024623D01*
X067951Y024272D01*
X067846Y023882D01*
X067846Y023478D01*
X067951Y023088D01*
X068153Y022737D01*
X068438Y022452D01*
X068788Y022250D01*
X068991Y022195D01*
X068991Y020482D01*
X068899Y020520D01*
X062872Y020520D01*
X062865Y020537D01*
X062688Y020714D01*
X062456Y020810D01*
X062442Y020810D01*
X062472Y020840D01*
X066399Y020840D01*
X066524Y020892D01*
X066619Y020987D01*
X066671Y021112D01*
X066671Y025039D01*
X066972Y025340D01*
X073261Y025340D01*
X073265Y025332D01*
X073512Y025084D01*
X073836Y024950D01*
X075426Y024950D01*
X075749Y025084D01*
X075997Y025332D01*
X076131Y025655D01*
X076131Y026005D01*
X075997Y026328D01*
X075749Y026576D01*
X075426Y026710D01*
X073836Y026710D01*
X073512Y026576D01*
X073265Y026328D01*
X073137Y026020D01*
X066763Y026020D01*
X066638Y025968D01*
X066543Y025873D01*
X066138Y025468D01*
X066043Y025373D01*
X065991Y025248D01*
X065991Y021520D01*
X062263Y021520D01*
X062138Y021468D01*
X062043Y021373D01*
X061171Y020501D01*
X061171Y021748D01*
X061119Y021873D01*
X059554Y023438D01*
X059611Y023577D01*
X059611Y023783D01*
X059532Y023975D01*
X059386Y024121D01*
X059194Y024200D01*
X058468Y024200D01*
X058276Y024121D01*
X058171Y024015D01*
X058171Y026660D01*
X058194Y026660D01*
X058386Y026739D01*
X058532Y026885D01*
X058611Y027077D01*
X058611Y027283D01*
X058532Y027475D01*
X058386Y027621D01*
X058194Y027700D01*
X057468Y027700D01*
X057276Y027621D01*
X057130Y027475D01*
X057051Y027283D01*
X057051Y027077D01*
X057130Y026885D01*
X057276Y026739D01*
X057468Y026660D01*
X057491Y026660D01*
X057491Y016612D01*
X057543Y016487D01*
X057638Y016392D01*
X061341Y012689D01*
X061341Y012583D01*
X061416Y012402D01*
X061553Y012265D01*
X061709Y012200D01*
X061468Y012200D01*
X061276Y012121D01*
X061130Y011975D01*
X061051Y011783D01*
X061051Y011577D01*
X061130Y011385D01*
X061276Y011239D01*
X061468Y011160D01*
X062194Y011160D01*
X062386Y011239D01*
X062532Y011385D01*
X062611Y011577D01*
X062611Y011783D01*
X062532Y011975D01*
X062386Y012121D01*
X062194Y012200D01*
X061953Y012200D01*
X062109Y012265D01*
X062246Y012402D01*
X062321Y012583D01*
X062321Y012777D01*
X062246Y012958D01*
X062109Y013095D01*
X061928Y013170D01*
X061822Y013170D01*
X058480Y016511D01*
X058609Y016565D01*
X058684Y016640D01*
X059047Y016640D01*
X059024Y016630D01*
X058951Y016557D01*
X058911Y016462D01*
X058911Y016138D01*
X058951Y016043D01*
X059024Y015970D01*
X059119Y015930D01*
X059300Y015930D01*
X063267Y011964D01*
X063201Y011805D01*
X063201Y011555D01*
X063297Y011323D01*
X063474Y011146D01*
X063706Y011050D01*
X063956Y011050D01*
X064188Y011146D01*
X064365Y011323D01*
X064461Y011555D01*
X064461Y011805D01*
X064365Y012037D01*
X064188Y012214D01*
X063956Y012310D01*
X063882Y012310D01*
X059951Y016241D01*
X059951Y016310D01*
X060220Y016310D01*
X062043Y014487D01*
X062138Y014392D01*
X062263Y014340D01*
X065399Y014340D01*
X065524Y014392D01*
X065619Y014487D01*
X065671Y014612D01*
X065671Y018456D01*
X065731Y018516D01*
X065821Y018733D01*
X065821Y019627D01*
X065733Y019840D01*
X068491Y019840D01*
X068491Y017112D01*
X068543Y016987D01*
X069043Y016487D01*
X069138Y016392D01*
X069263Y016340D01*
X072491Y016340D01*
X072491Y016221D01*
X072474Y016214D01*
X072297Y016037D01*
X072201Y015805D01*
X072201Y015555D01*
X072297Y015323D01*
X072474Y015146D01*
X072706Y015050D01*
X072720Y015050D01*
X072690Y015020D01*
X071671Y015020D01*
X071671Y015139D01*
X071688Y015146D01*
X071865Y015323D01*
X071961Y015555D01*
X071961Y015805D01*
X071865Y016037D01*
X071688Y016214D01*
X071456Y016310D01*
X071206Y016310D01*
X070974Y016214D01*
X070797Y016037D01*
X070701Y015805D01*
X070701Y015555D01*
X070797Y015323D01*
X070974Y015146D01*
X070991Y015139D01*
X070991Y014612D01*
X071043Y014487D01*
X071138Y014392D01*
X071263Y014340D01*
X072899Y014340D01*
X073024Y014392D01*
X073119Y014487D01*
X073991Y015359D01*
X073991Y014821D01*
X073840Y014670D01*
X073734Y014670D01*
X073553Y014595D01*
X073416Y014458D01*
X073341Y014277D01*
X073341Y014083D01*
X073416Y013902D01*
X073491Y013827D01*
X073491Y012112D01*
X073543Y011987D01*
X073638Y011892D01*
X073862Y011668D01*
X073816Y011622D01*
X073776Y011527D01*
X073776Y010833D01*
X073816Y010738D01*
X073889Y010665D01*
X073900Y010660D01*
X030171Y010660D01*
X030171Y012859D01*
X031543Y011487D01*
X031638Y011392D01*
X031763Y011340D01*
X036290Y011340D01*
X036297Y011323D01*
X036474Y011146D01*
X036706Y011050D01*
X036956Y011050D01*
X037188Y011146D01*
X037365Y011323D01*
X037461Y011555D01*
X037461Y011805D01*
X037365Y012037D01*
X037188Y012214D01*
X036956Y012310D01*
X036706Y012310D01*
X036474Y012214D01*
X036297Y012037D01*
X036290Y012020D01*
X031972Y012020D01*
X030119Y013873D01*
X030024Y013968D01*
X030024Y013968D01*
X027351Y016641D01*
X027351Y016895D01*
X027046Y017200D01*
X026616Y017200D01*
X026331Y016915D01*
X026046Y017200D01*
X025616Y017200D01*
X025311Y016895D01*
X025311Y016465D01*
X025616Y016160D01*
X026046Y016160D01*
X026331Y016445D01*
X026616Y016160D01*
X026870Y016160D01*
X029491Y013539D01*
X029491Y011020D01*
X026972Y011020D01*
X026942Y011050D01*
X026956Y011050D01*
X027188Y011146D01*
X027365Y011323D01*
X027461Y011555D01*
X027461Y011805D01*
X027365Y012037D01*
X027188Y012214D01*
X026956Y012310D01*
X026706Y012310D01*
X026474Y012214D01*
X026297Y012037D01*
X026201Y011805D01*
X026201Y011791D01*
X026024Y011968D01*
X025899Y012020D01*
X019372Y012020D01*
X019365Y012037D01*
X019188Y012214D01*
X018956Y012310D01*
X018942Y012310D01*
X018972Y012340D01*
X028491Y012340D01*
X028491Y012221D01*
X028474Y012214D01*
X028297Y012037D01*
X028201Y011805D01*
X028201Y011555D01*
X028297Y011323D01*
X028474Y011146D01*
X028706Y011050D01*
X028956Y011050D01*
X029188Y011146D01*
X029365Y011323D01*
X029461Y011555D01*
X029461Y011805D01*
X029365Y012037D01*
X029188Y012214D01*
X029171Y012221D01*
X029171Y012748D01*
X029119Y012873D01*
X029024Y012968D01*
X028899Y013020D01*
X018763Y013020D01*
X018638Y012968D01*
X018543Y012873D01*
X017543Y011873D01*
X017491Y011748D01*
X017491Y011520D01*
X016472Y011520D01*
X016367Y011625D01*
X016441Y011625D01*
X016645Y011709D01*
X016801Y011866D01*
X016886Y012070D01*
X016886Y012290D01*
X016801Y012494D01*
X016645Y012651D01*
X016441Y012735D01*
X016221Y012735D01*
X016017Y012651D01*
X015886Y012520D01*
X015886Y012527D01*
X015846Y012622D01*
X015844Y012625D01*
X015941Y012625D01*
X016145Y012709D01*
X016301Y012866D01*
X016386Y013070D01*
X016386Y013254D01*
X016524Y013392D01*
X016619Y013487D01*
X016671Y013612D01*
X016671Y017539D01*
X017024Y017892D01*
X017119Y017987D01*
X017171Y018112D01*
X017171Y024716D01*
X017234Y024690D01*
X017428Y024690D01*
X017491Y024716D01*
X017491Y019112D01*
X017543Y018987D01*
X017638Y018892D01*
X017763Y018840D01*
X027190Y018840D01*
X031276Y014754D01*
X031276Y014333D01*
X031316Y014238D01*
X031389Y014165D01*
X031484Y014125D01*
X032178Y014125D01*
X032273Y014165D01*
X032346Y014238D01*
X032386Y014333D01*
X032386Y014340D01*
X032517Y014209D01*
X032721Y014125D01*
X032941Y014125D01*
X033145Y014209D01*
X033276Y014340D01*
X042991Y014340D01*
X042991Y013612D01*
X043043Y013487D01*
X044543Y011987D01*
X044638Y011892D01*
X044763Y011840D01*
X045790Y011840D01*
X045797Y011823D01*
X045974Y011646D01*
X046206Y011550D01*
X046456Y011550D01*
X046688Y011646D01*
X046865Y011823D01*
X046961Y012055D01*
X046961Y012305D01*
X046865Y012537D01*
X046688Y012714D01*
X046456Y012810D01*
X046206Y012810D01*
X045974Y012714D01*
X045797Y012537D01*
X045790Y012520D01*
X044972Y012520D01*
X043802Y013690D01*
X043928Y013690D01*
X044109Y013765D01*
X044246Y013902D01*
X044321Y014083D01*
X044321Y014277D01*
X044246Y014458D01*
X044171Y014533D01*
X044171Y019564D01*
X044206Y019550D01*
X044456Y019550D01*
X044688Y019646D01*
X044865Y019823D01*
X044961Y020055D01*
X044961Y020305D01*
X044865Y020537D01*
X044688Y020714D01*
X044456Y020810D01*
X044206Y020810D01*
X043974Y020714D01*
X043797Y020537D01*
X043755Y020436D01*
X043746Y020458D01*
X043609Y020595D01*
X043428Y020670D01*
X043234Y020670D01*
X043053Y020595D01*
X042916Y020458D01*
X042907Y020436D01*
X042865Y020537D01*
X042688Y020714D01*
X042671Y020721D01*
X042671Y020748D01*
X042619Y020873D01*
X042524Y020968D01*
X042171Y021321D01*
X042171Y022639D01*
X042188Y022646D01*
X042191Y022649D01*
X042191Y022512D01*
X042243Y022387D01*
X042338Y022292D01*
X042463Y022240D01*
X049999Y022240D01*
X050124Y022292D01*
X050219Y022387D01*
X050219Y022387D01*
X050619Y022787D01*
X050671Y022912D01*
X050671Y023719D01*
X050735Y023692D01*
X050838Y023692D01*
X051335Y023195D01*
X051335Y023092D01*
X051408Y022916D01*
X051491Y022833D01*
X051491Y022612D01*
X051543Y022487D01*
X051638Y022392D01*
X053708Y020322D01*
X053701Y020305D01*
X053701Y020055D01*
X053797Y019823D01*
X053974Y019646D01*
X053991Y019639D01*
X053991Y013125D01*
X053860Y012994D01*
X053776Y012790D01*
X053776Y012570D01*
X053860Y012366D01*
X053948Y012278D01*
X053905Y012235D01*
X053484Y012235D01*
X053389Y012195D01*
X053316Y012122D01*
X053276Y012027D01*
X053276Y011333D01*
X053316Y011238D01*
X053389Y011165D01*
X053484Y011125D01*
X054178Y011125D01*
X054273Y011165D01*
X054346Y011238D01*
X054386Y011333D01*
X054386Y011340D01*
X054517Y011209D01*
X054721Y011125D01*
X054941Y011125D01*
X055145Y011209D01*
X055301Y011366D01*
X055386Y011570D01*
X055386Y011790D01*
X055301Y011994D01*
X055145Y012151D01*
X054941Y012235D01*
X054721Y012235D01*
X054671Y012214D01*
X054671Y012235D01*
X054801Y012366D01*
X054886Y012570D01*
X054886Y012790D01*
X054801Y012994D01*
X054671Y013125D01*
X054671Y019639D01*
X054688Y019646D01*
X054865Y019823D01*
X054961Y020055D01*
X054961Y020305D01*
X054865Y020537D01*
X054688Y020714D01*
X054456Y020810D01*
X054206Y020810D01*
X054189Y020803D01*
X052171Y022821D01*
X052171Y022865D01*
X052222Y022916D01*
X052295Y023092D01*
X052295Y023283D01*
X052222Y023460D01*
X052087Y023595D01*
X051911Y023668D01*
X051824Y023668D01*
X051311Y024181D01*
X051311Y024268D01*
X051238Y024444D01*
X051171Y024511D01*
X051171Y028248D01*
X051119Y028373D01*
X051024Y028468D01*
X050899Y028520D01*
X018763Y028520D01*
X018638Y028468D01*
X018543Y028373D01*
X017690Y027520D01*
X017276Y027520D01*
X017145Y027651D01*
X016941Y027735D01*
X016721Y027735D01*
X016517Y027651D01*
X016386Y027520D01*
X016263Y027520D01*
X016138Y027468D01*
X016043Y027373D01*
X015043Y026373D01*
X014991Y026248D01*
X014991Y026112D01*
X015043Y025987D01*
X015138Y025892D01*
X016491Y024539D01*
X016491Y020812D01*
X016313Y020990D01*
X015849Y020990D01*
X015581Y020722D01*
X015313Y020990D01*
X014849Y020990D01*
X014521Y020662D01*
X014521Y020198D01*
X014789Y019930D01*
X014521Y019662D01*
X014521Y019637D01*
X014068Y019520D01*
X013990Y019598D01*
X013755Y019695D01*
X013500Y019695D01*
X013480Y019687D01*
X013480Y019911D01*
X013383Y020146D01*
X013203Y020326D01*
X012968Y020423D01*
X012713Y020423D01*
X012478Y020326D01*
X012298Y020146D01*
X012200Y019911D01*
X012200Y019688D01*
X011998Y019771D01*
X011714Y019771D01*
X011450Y019662D01*
X011330Y019542D01*
X011274Y019598D01*
X011038Y019695D01*
X010784Y019695D01*
X010549Y019598D01*
X010369Y019418D01*
X010271Y019182D01*
X010271Y018928D01*
X010369Y018692D01*
X010549Y018512D01*
X010784Y018415D01*
X011038Y018415D01*
X011274Y018512D01*
X011330Y018568D01*
X011450Y018448D01*
X011714Y018339D01*
X011998Y018339D01*
X012200Y018422D01*
X012200Y018199D01*
X012298Y017964D01*
X012478Y017784D01*
X012713Y017687D01*
X012968Y017687D01*
X013203Y017784D01*
X013383Y017964D01*
X013389Y017978D01*
X014658Y018061D01*
X014849Y017870D01*
X015313Y017870D01*
X015581Y018138D01*
X015849Y017870D01*
X016042Y017870D01*
X015991Y017748D01*
X015991Y013821D01*
X015905Y013735D01*
X015721Y013735D01*
X015517Y013651D01*
X015360Y013494D01*
X015276Y013290D01*
X015276Y013070D01*
X015360Y012866D01*
X015491Y012735D01*
X014984Y012735D01*
X014889Y012695D01*
X014816Y012622D01*
X014776Y012527D01*
X014776Y011833D01*
X014816Y011738D01*
X014889Y011665D01*
X014984Y011625D01*
X015405Y011625D01*
X016043Y010987D01*
X016138Y010892D01*
X016263Y010840D01*
X017899Y010840D01*
X018024Y010892D01*
X018119Y010987D01*
X018171Y011112D01*
X018171Y011539D01*
X018201Y011569D01*
X018201Y011555D01*
X018297Y011323D01*
X018474Y011146D01*
X018706Y011050D01*
X018956Y011050D01*
X019188Y011146D01*
X019365Y011323D01*
X019372Y011340D01*
X025690Y011340D01*
X026370Y010660D01*
X009311Y010660D01*
X009311Y028570D01*
X009311Y028503D02*
X018721Y028503D01*
X018514Y028344D02*
X009311Y028344D01*
X009311Y028186D02*
X018356Y028186D01*
X018197Y028027D02*
X009311Y028027D01*
X009311Y027869D02*
X018039Y027869D01*
X017880Y027710D02*
X017002Y027710D01*
X017244Y027552D02*
X017722Y027552D01*
X017831Y027180D02*
X018831Y028180D01*
X050831Y028180D01*
X050831Y024180D01*
X050831Y024172D01*
X050831Y024180D02*
X051831Y023180D01*
X051815Y023188D01*
X051831Y023180D02*
X051831Y022680D01*
X054331Y020180D01*
X054331Y012680D01*
X054331Y012180D01*
X053831Y011680D01*
X053276Y011702D02*
X050886Y011702D01*
X050886Y011754D02*
X051524Y012392D01*
X051619Y012487D01*
X051671Y012612D01*
X051671Y016345D01*
X051776Y016239D01*
X051968Y016160D01*
X052694Y016160D01*
X052886Y016239D01*
X053032Y016385D01*
X053111Y016577D01*
X053111Y016783D01*
X053032Y016975D01*
X052886Y017121D01*
X052694Y017200D01*
X051968Y017200D01*
X051776Y017121D01*
X051671Y017015D01*
X051671Y019039D01*
X052189Y019557D01*
X052206Y019550D01*
X052456Y019550D01*
X052688Y019646D01*
X052865Y019823D01*
X052961Y020055D01*
X052961Y020305D01*
X052865Y020537D01*
X052688Y020714D01*
X052456Y020810D01*
X052206Y020810D01*
X051974Y020714D01*
X051797Y020537D01*
X051701Y020305D01*
X051701Y020055D01*
X051708Y020038D01*
X051043Y019373D01*
X050991Y019248D01*
X050991Y012821D01*
X050405Y012235D01*
X050221Y012235D01*
X050017Y012151D01*
X049886Y012020D01*
X049886Y012027D01*
X049846Y012122D01*
X049844Y012125D01*
X049941Y012125D01*
X050145Y012209D01*
X050301Y012366D01*
X050386Y012570D01*
X050386Y012790D01*
X050301Y012994D01*
X050145Y013151D01*
X049941Y013235D01*
X049757Y013235D01*
X049671Y013321D01*
X049671Y016748D01*
X049619Y016873D01*
X048619Y017873D01*
X048524Y017968D01*
X048399Y018020D01*
X046263Y018020D01*
X046138Y017968D01*
X046043Y017873D01*
X045991Y017748D01*
X045991Y017153D01*
X045756Y016918D01*
X045756Y016442D01*
X046093Y016105D01*
X046569Y016105D01*
X046906Y016442D01*
X046906Y016918D01*
X046671Y017153D01*
X046671Y017340D01*
X048190Y017340D01*
X048275Y017255D01*
X048093Y017255D01*
X047756Y016918D01*
X047756Y016442D01*
X047991Y016207D01*
X047991Y012612D01*
X048043Y012487D01*
X048138Y012392D01*
X048776Y011754D01*
X048776Y011333D01*
X048816Y011238D01*
X048889Y011165D01*
X048984Y011125D01*
X049678Y011125D01*
X049773Y011165D01*
X049846Y011238D01*
X049886Y011333D01*
X049886Y011340D01*
X050017Y011209D01*
X050221Y011125D01*
X050441Y011125D01*
X050645Y011209D01*
X050801Y011366D01*
X050886Y011570D01*
X050886Y011754D01*
X050992Y011860D02*
X053276Y011860D01*
X053276Y012019D02*
X051150Y012019D01*
X051309Y012177D02*
X053370Y012177D01*
X053807Y012494D02*
X051622Y012494D01*
X051671Y012653D02*
X053776Y012653D01*
X053785Y012811D02*
X051671Y012811D01*
X051671Y012970D02*
X053850Y012970D01*
X053991Y013128D02*
X051671Y013128D01*
X051671Y013287D02*
X053991Y013287D01*
X053991Y013445D02*
X051671Y013445D01*
X051671Y013604D02*
X053991Y013604D01*
X053991Y013762D02*
X051671Y013762D01*
X051671Y013921D02*
X053991Y013921D01*
X053991Y014079D02*
X051671Y014079D01*
X051671Y014238D02*
X053991Y014238D01*
X053991Y014396D02*
X051671Y014396D01*
X051671Y014555D02*
X053991Y014555D01*
X053991Y014713D02*
X051671Y014713D01*
X051671Y014872D02*
X053991Y014872D01*
X053991Y015030D02*
X051671Y015030D01*
X051671Y015189D02*
X053991Y015189D01*
X053991Y015347D02*
X051671Y015347D01*
X051671Y015506D02*
X053991Y015506D01*
X053991Y015664D02*
X051671Y015664D01*
X051671Y015823D02*
X053991Y015823D01*
X053991Y015981D02*
X051671Y015981D01*
X051671Y016140D02*
X053991Y016140D01*
X053991Y016298D02*
X052944Y016298D01*
X053061Y016457D02*
X053991Y016457D01*
X053991Y016615D02*
X053111Y016615D01*
X053111Y016774D02*
X053991Y016774D01*
X053991Y016932D02*
X053049Y016932D01*
X052916Y017091D02*
X053991Y017091D01*
X053991Y017249D02*
X051671Y017249D01*
X051671Y017091D02*
X051746Y017091D01*
X051671Y017408D02*
X053991Y017408D01*
X053991Y017566D02*
X051671Y017566D01*
X051671Y017725D02*
X053991Y017725D01*
X053991Y017883D02*
X053241Y017883D01*
X053337Y017923D02*
X053588Y018174D01*
X053724Y018502D01*
X053724Y018858D01*
X053588Y019186D01*
X053337Y019437D01*
X053009Y019573D01*
X052653Y019573D01*
X052325Y019437D01*
X052074Y019186D01*
X051938Y018858D01*
X051938Y018502D01*
X052074Y018174D01*
X052325Y017923D01*
X052653Y017787D01*
X053009Y017787D01*
X053337Y017923D01*
X053455Y018042D02*
X053991Y018042D01*
X053991Y018200D02*
X053599Y018200D01*
X053664Y018359D02*
X053991Y018359D01*
X053991Y018517D02*
X053724Y018517D01*
X053724Y018676D02*
X053991Y018676D01*
X053991Y018834D02*
X053724Y018834D01*
X053668Y018993D02*
X053991Y018993D01*
X053991Y019151D02*
X053603Y019151D01*
X053464Y019310D02*
X053991Y019310D01*
X053991Y019468D02*
X053262Y019468D01*
X052827Y019785D02*
X053835Y019785D01*
X053747Y019944D02*
X052915Y019944D01*
X052961Y020102D02*
X053701Y020102D01*
X053701Y020261D02*
X052961Y020261D01*
X052914Y020419D02*
X053611Y020419D01*
X053453Y020578D02*
X052824Y020578D01*
X052635Y020736D02*
X053294Y020736D01*
X053136Y020895D02*
X042597Y020895D01*
X042671Y020736D02*
X044027Y020736D01*
X043838Y020578D02*
X043626Y020578D01*
X043331Y020180D02*
X043831Y019680D01*
X043831Y014180D01*
X044272Y014396D02*
X047991Y014396D01*
X047991Y014238D02*
X044321Y014238D01*
X044320Y014079D02*
X047991Y014079D01*
X047991Y013921D02*
X044254Y013921D01*
X044102Y013762D02*
X047991Y013762D01*
X047991Y013604D02*
X043888Y013604D01*
X044047Y013445D02*
X047991Y013445D01*
X047991Y013287D02*
X044205Y013287D01*
X044364Y013128D02*
X047991Y013128D01*
X047991Y012970D02*
X044522Y012970D01*
X044681Y012811D02*
X047991Y012811D01*
X047991Y012653D02*
X046749Y012653D01*
X046883Y012494D02*
X048040Y012494D01*
X048195Y012336D02*
X046948Y012336D01*
X046961Y012177D02*
X048353Y012177D01*
X048512Y012019D02*
X046946Y012019D01*
X046880Y011860D02*
X048670Y011860D01*
X048776Y011702D02*
X046743Y011702D01*
X046331Y012180D02*
X044831Y012180D01*
X043331Y013680D01*
X043331Y014680D01*
X032831Y014680D01*
X033266Y015030D02*
X043491Y015030D01*
X043491Y014982D02*
X043399Y015020D01*
X033276Y015020D01*
X033145Y015151D01*
X032941Y015235D01*
X032721Y015235D01*
X032517Y015151D01*
X032386Y015020D01*
X032386Y015027D01*
X032346Y015122D01*
X032344Y015125D01*
X032441Y015125D01*
X032645Y015209D01*
X032801Y015366D01*
X032886Y015570D01*
X032886Y015790D01*
X032801Y015994D01*
X032645Y016151D01*
X032441Y016235D01*
X032221Y016235D01*
X032017Y016151D01*
X031860Y015994D01*
X031776Y015790D01*
X031776Y015570D01*
X031860Y015366D01*
X031991Y015235D01*
X031757Y015235D01*
X027619Y019373D01*
X027524Y019468D01*
X031318Y019468D01*
X031276Y019570D02*
X031360Y019366D01*
X031491Y019235D01*
X030984Y019235D01*
X030889Y019195D01*
X030816Y019122D01*
X030776Y019027D01*
X030776Y018333D01*
X030816Y018238D01*
X030889Y018165D01*
X030984Y018125D01*
X031678Y018125D01*
X031773Y018165D01*
X031846Y018238D01*
X031886Y018333D01*
X031886Y018340D01*
X032017Y018209D01*
X032221Y018125D01*
X032441Y018125D01*
X032645Y018209D01*
X032801Y018366D01*
X032886Y018570D01*
X032886Y018754D01*
X033524Y019392D01*
X033619Y019487D01*
X033671Y019612D01*
X033671Y022539D01*
X033689Y022557D01*
X033706Y022550D01*
X033956Y022550D01*
X034188Y022646D01*
X034365Y022823D01*
X034461Y023055D01*
X034461Y023305D01*
X034365Y023537D01*
X034188Y023714D01*
X033956Y023810D01*
X033706Y023810D01*
X033474Y023714D01*
X033297Y023537D01*
X033201Y023305D01*
X033201Y023055D01*
X033208Y023038D01*
X033043Y022873D01*
X032991Y022748D01*
X032991Y019821D01*
X032405Y019235D01*
X032221Y019235D01*
X032017Y019151D01*
X031886Y019020D01*
X031886Y019027D01*
X031846Y019122D01*
X031844Y019125D01*
X031941Y019125D01*
X032145Y019209D01*
X032301Y019366D01*
X032386Y019570D01*
X032386Y019790D01*
X032301Y019994D01*
X032145Y020151D01*
X031941Y020235D01*
X031721Y020235D01*
X031517Y020151D01*
X031360Y019994D01*
X031276Y019790D01*
X031276Y019570D01*
X031276Y019627D02*
X018171Y019627D01*
X018171Y019520D02*
X018171Y025748D01*
X018119Y025873D01*
X017886Y026106D01*
X017886Y026234D01*
X017974Y026146D01*
X018206Y026050D01*
X018456Y026050D01*
X018688Y026146D01*
X018865Y026323D01*
X018961Y026555D01*
X018961Y026805D01*
X018865Y027037D01*
X018688Y027214D01*
X018456Y027310D01*
X018442Y027310D01*
X018972Y027840D01*
X048267Y027840D01*
X048241Y027777D01*
X048241Y027583D01*
X048267Y027520D01*
X047263Y027520D01*
X047138Y027468D01*
X047043Y027373D01*
X046991Y027248D01*
X046991Y025321D01*
X046405Y024735D01*
X046221Y024735D01*
X046017Y024651D01*
X045860Y024494D01*
X045776Y024290D01*
X045776Y024070D01*
X045860Y023866D01*
X045948Y023778D01*
X045905Y023735D01*
X045484Y023735D01*
X045389Y023695D01*
X045316Y023622D01*
X045276Y023527D01*
X045276Y022920D01*
X042871Y022920D01*
X042871Y023448D01*
X042819Y023573D01*
X042319Y024073D01*
X042224Y024168D01*
X042099Y024220D01*
X035352Y024220D01*
X037472Y026340D01*
X037790Y026340D01*
X037797Y026323D01*
X037974Y026146D01*
X038206Y026050D01*
X038456Y026050D01*
X038688Y026146D01*
X038865Y026323D01*
X038961Y026555D01*
X038961Y026805D01*
X038865Y027037D01*
X038688Y027214D01*
X038456Y027310D01*
X038206Y027310D01*
X037974Y027214D01*
X037797Y027037D01*
X037790Y027020D01*
X037263Y027020D01*
X037138Y026968D01*
X036961Y026791D01*
X036961Y026805D01*
X036865Y027037D01*
X036688Y027214D01*
X036456Y027310D01*
X036206Y027310D01*
X035974Y027214D01*
X035797Y027037D01*
X035701Y026805D01*
X035701Y026555D01*
X035797Y026323D01*
X035974Y026146D01*
X036206Y026050D01*
X036220Y026050D01*
X034690Y024520D01*
X026763Y024520D01*
X026671Y024482D01*
X026671Y026139D01*
X026688Y026146D01*
X026865Y026323D01*
X026961Y026555D01*
X026961Y026805D01*
X026865Y027037D01*
X026688Y027214D01*
X026456Y027310D01*
X026206Y027310D01*
X025974Y027214D01*
X025797Y027037D01*
X025701Y026805D01*
X025701Y026555D01*
X025797Y026323D01*
X025974Y026146D01*
X025991Y026139D01*
X025991Y022821D01*
X025638Y022468D01*
X025543Y022373D01*
X025491Y022248D01*
X025491Y020575D01*
X025311Y020395D01*
X025311Y019965D01*
X025616Y019660D01*
X026046Y019660D01*
X026331Y019945D01*
X026616Y019660D01*
X027046Y019660D01*
X027351Y019965D01*
X027351Y020395D01*
X027171Y020575D01*
X027171Y023840D01*
X034691Y023840D01*
X034691Y021021D01*
X034473Y020803D01*
X034456Y020810D01*
X034206Y020810D01*
X033974Y020714D01*
X033797Y020537D01*
X033701Y020305D01*
X033701Y020055D01*
X033797Y019823D01*
X033974Y019646D01*
X034206Y019550D01*
X034456Y019550D01*
X034688Y019646D01*
X034865Y019823D01*
X034961Y020055D01*
X034961Y020305D01*
X034954Y020322D01*
X035319Y020687D01*
X035371Y020812D01*
X035371Y023540D01*
X041300Y023540D01*
X041297Y023537D01*
X041201Y023305D01*
X041201Y023055D01*
X041297Y022823D01*
X041474Y022646D01*
X041491Y022639D01*
X041491Y021112D01*
X041543Y020987D01*
X041895Y020635D01*
X041797Y020537D01*
X041701Y020305D01*
X041701Y020055D01*
X041797Y019823D01*
X041974Y019646D01*
X042206Y019550D01*
X042456Y019550D01*
X042688Y019646D01*
X042865Y019823D01*
X042907Y019924D01*
X042916Y019902D01*
X043053Y019765D01*
X043234Y019690D01*
X043340Y019690D01*
X043491Y019539D01*
X043491Y014982D01*
X043491Y015189D02*
X033054Y015189D01*
X032783Y015347D02*
X043491Y015347D01*
X043491Y015506D02*
X032859Y015506D01*
X032886Y015664D02*
X043491Y015664D01*
X043491Y015823D02*
X032873Y015823D01*
X032807Y015981D02*
X043491Y015981D01*
X043491Y016140D02*
X043006Y016140D01*
X043087Y016173D02*
X042759Y016037D01*
X042403Y016037D01*
X042075Y016173D01*
X041824Y016424D01*
X041688Y016752D01*
X041688Y017108D01*
X041757Y017274D01*
X040190Y018840D01*
X039263Y018840D01*
X039138Y018892D01*
X039043Y018987D01*
X038991Y019112D01*
X038991Y020854D01*
X038825Y020923D01*
X038574Y021174D01*
X038438Y021502D01*
X038438Y021858D01*
X038574Y022186D01*
X038825Y022437D01*
X039153Y022573D01*
X039509Y022573D01*
X039837Y022437D01*
X040088Y022186D01*
X040224Y021858D01*
X040224Y021502D01*
X040088Y021174D01*
X039837Y020923D01*
X039671Y020854D01*
X039671Y019520D01*
X040399Y019520D01*
X040524Y019468D01*
X043491Y019468D01*
X043491Y019310D02*
X040682Y019310D01*
X040619Y019373D02*
X040619Y019373D01*
X040524Y019468D01*
X040619Y019373D02*
X042237Y017754D01*
X042403Y017823D01*
X042759Y017823D01*
X043087Y017687D01*
X043338Y017436D01*
X043474Y017108D01*
X043474Y016752D01*
X043338Y016424D01*
X043087Y016173D01*
X043212Y016298D02*
X043491Y016298D01*
X043491Y016457D02*
X043352Y016457D01*
X043417Y016615D02*
X043491Y016615D01*
X043474Y016774D02*
X043491Y016774D01*
X043474Y016932D02*
X043491Y016932D01*
X043474Y017091D02*
X043491Y017091D01*
X043491Y017249D02*
X043415Y017249D01*
X043350Y017408D02*
X043491Y017408D01*
X043491Y017566D02*
X043208Y017566D01*
X042997Y017725D02*
X043491Y017725D01*
X043491Y017883D02*
X042109Y017883D01*
X041950Y018042D02*
X043491Y018042D01*
X043491Y018200D02*
X041792Y018200D01*
X041633Y018359D02*
X043491Y018359D01*
X043491Y018517D02*
X041475Y018517D01*
X041316Y018676D02*
X043491Y018676D01*
X043491Y018834D02*
X041158Y018834D01*
X040999Y018993D02*
X043491Y018993D01*
X043491Y019151D02*
X040841Y019151D01*
X040331Y019180D02*
X042581Y016930D01*
X041688Y016932D02*
X041461Y016932D01*
X041461Y017055D02*
X041365Y017287D01*
X041188Y017464D01*
X040956Y017560D01*
X040706Y017560D01*
X040474Y017464D01*
X040297Y017287D01*
X040201Y017055D01*
X040201Y016805D01*
X040297Y016573D01*
X040474Y016396D01*
X040706Y016300D01*
X040956Y016300D01*
X041188Y016396D01*
X041365Y016573D01*
X041461Y016805D01*
X041461Y017055D01*
X041446Y017091D02*
X041688Y017091D01*
X041746Y017249D02*
X041381Y017249D01*
X041244Y017408D02*
X041623Y017408D01*
X041464Y017566D02*
X029426Y017566D01*
X029584Y017408D02*
X032418Y017408D01*
X032474Y017464D02*
X032297Y017287D01*
X032201Y017055D01*
X032201Y016805D01*
X032297Y016573D01*
X032474Y016396D01*
X032706Y016300D01*
X032956Y016300D01*
X033188Y016396D01*
X033365Y016573D01*
X033461Y016805D01*
X033461Y017055D01*
X033365Y017287D01*
X033188Y017464D01*
X032956Y017560D01*
X032706Y017560D01*
X032474Y017464D01*
X032281Y017249D02*
X029743Y017249D01*
X029901Y017091D02*
X032216Y017091D01*
X032201Y016932D02*
X030060Y016932D01*
X030218Y016774D02*
X032214Y016774D01*
X032280Y016615D02*
X030377Y016615D01*
X030535Y016457D02*
X032413Y016457D01*
X032656Y016140D02*
X042156Y016140D01*
X041950Y016298D02*
X030694Y016298D01*
X030852Y016140D02*
X032006Y016140D01*
X031855Y015981D02*
X031011Y015981D01*
X031169Y015823D02*
X031789Y015823D01*
X031776Y015664D02*
X031328Y015664D01*
X031486Y015506D02*
X031803Y015506D01*
X031879Y015347D02*
X031645Y015347D01*
X031159Y014872D02*
X029120Y014872D01*
X028962Y015030D02*
X031000Y015030D01*
X030842Y015189D02*
X028803Y015189D01*
X028645Y015347D02*
X030683Y015347D01*
X030525Y015506D02*
X028486Y015506D01*
X028328Y015664D02*
X030366Y015664D01*
X030208Y015823D02*
X028169Y015823D01*
X028011Y015981D02*
X030049Y015981D01*
X029891Y016140D02*
X027852Y016140D01*
X027694Y016298D02*
X029732Y016298D01*
X029574Y016457D02*
X027535Y016457D01*
X027377Y016615D02*
X029415Y016615D01*
X029257Y016774D02*
X027351Y016774D01*
X027314Y016932D02*
X029098Y016932D01*
X028940Y017091D02*
X027156Y017091D01*
X026831Y016680D02*
X029831Y013680D01*
X029831Y010680D01*
X026831Y010680D01*
X025831Y011680D01*
X018831Y011680D01*
X019268Y011226D02*
X025804Y011226D01*
X025963Y011068D02*
X018999Y011068D01*
X018663Y011068D02*
X018152Y011068D01*
X018171Y011226D02*
X018394Y011226D01*
X018271Y011385D02*
X018171Y011385D01*
X018175Y011543D02*
X018206Y011543D01*
X017831Y011680D02*
X017831Y011180D01*
X016331Y011180D01*
X015331Y012180D01*
X014776Y012177D02*
X011567Y012177D01*
X011645Y012209D02*
X011801Y012366D01*
X011886Y012570D01*
X011886Y012790D01*
X011801Y012994D01*
X011645Y013151D01*
X011441Y013235D01*
X011221Y013235D01*
X011017Y013151D01*
X010886Y013020D01*
X010886Y013027D01*
X010846Y013122D01*
X010844Y013125D01*
X010941Y013125D01*
X011145Y013209D01*
X011301Y013366D01*
X011386Y013570D01*
X011386Y013754D01*
X011551Y013919D01*
X011582Y013941D01*
X011598Y013966D01*
X011619Y013987D01*
X011634Y014023D01*
X011654Y014055D01*
X011660Y014085D01*
X011671Y014112D01*
X011671Y014151D01*
X011678Y014189D01*
X011671Y014218D01*
X011671Y014248D01*
X011656Y014283D01*
X011648Y014321D01*
X011631Y014345D01*
X011619Y014373D01*
X011592Y014400D01*
X010871Y015423D01*
X010870Y015427D01*
X010832Y015478D01*
X010795Y015531D01*
X010792Y015533D01*
X010071Y016516D01*
X010119Y026797D01*
X011895Y026831D01*
X011991Y026735D01*
X011484Y026735D01*
X011389Y026695D01*
X011316Y026622D01*
X011276Y026527D01*
X011276Y025833D01*
X011316Y025738D01*
X011389Y025665D01*
X011484Y025625D01*
X012178Y025625D01*
X012273Y025665D01*
X012346Y025738D01*
X012386Y025833D01*
X012386Y025840D01*
X012517Y025709D01*
X012721Y025625D01*
X012941Y025625D01*
X013145Y025709D01*
X013301Y025866D01*
X013386Y026070D01*
X013386Y026290D01*
X013301Y026494D01*
X013145Y026651D01*
X012941Y026735D01*
X012721Y026735D01*
X012517Y026651D01*
X012386Y026520D01*
X012386Y026527D01*
X012346Y026622D01*
X012344Y026625D01*
X012441Y026625D01*
X012645Y026709D01*
X012801Y026866D01*
X012886Y027070D01*
X012886Y027290D01*
X012801Y027494D01*
X012645Y027651D01*
X012441Y027735D01*
X012221Y027735D01*
X012017Y027651D01*
X011877Y027511D01*
X009778Y027470D01*
X009715Y027470D01*
X009711Y027469D01*
X009707Y027469D01*
X009648Y027443D01*
X009590Y027419D01*
X009587Y027416D01*
X009583Y027414D01*
X009539Y027369D01*
X009494Y027324D01*
X009492Y027320D01*
X009489Y027317D01*
X009466Y027258D01*
X009441Y027199D01*
X009441Y027195D01*
X009440Y027191D01*
X009441Y027127D01*
X009391Y016432D01*
X009385Y016390D01*
X009391Y016365D01*
X009391Y016339D01*
X009407Y016300D01*
X009417Y016258D01*
X009432Y016238D01*
X009442Y016214D01*
X009472Y016184D01*
X010280Y015082D01*
X010876Y014235D01*
X010721Y014235D01*
X010517Y014151D01*
X010360Y013994D01*
X010276Y013790D01*
X010276Y013570D01*
X010360Y013366D01*
X010491Y013235D01*
X009984Y013235D01*
X009889Y013195D01*
X009816Y013122D01*
X009776Y013027D01*
X009776Y012333D01*
X009816Y012238D01*
X009889Y012165D01*
X009984Y012125D01*
X010678Y012125D01*
X010773Y012165D01*
X010846Y012238D01*
X010886Y012333D01*
X010886Y012340D01*
X011017Y012209D01*
X011221Y012125D01*
X011441Y012125D01*
X011645Y012209D01*
X011771Y012336D02*
X014776Y012336D01*
X014776Y012494D02*
X011855Y012494D01*
X011886Y012653D02*
X014846Y012653D01*
X015317Y012970D02*
X011812Y012970D01*
X011877Y012811D02*
X015415Y012811D01*
X015276Y013128D02*
X011668Y013128D01*
X011334Y013445D02*
X015340Y013445D01*
X015276Y013287D02*
X011222Y013287D01*
X010994Y013128D02*
X010949Y013128D01*
X010440Y013287D02*
X009311Y013287D01*
X009311Y013445D02*
X010328Y013445D01*
X010276Y013604D02*
X009311Y013604D01*
X009311Y013762D02*
X010276Y013762D01*
X010330Y013921D02*
X009311Y013921D01*
X009311Y014079D02*
X010445Y014079D01*
X010763Y014396D02*
X009311Y014396D01*
X009311Y014238D02*
X010875Y014238D01*
X010651Y014555D02*
X009311Y014555D01*
X009311Y014713D02*
X010540Y014713D01*
X010428Y014872D02*
X009311Y014872D01*
X009311Y015030D02*
X010316Y015030D01*
X010201Y015189D02*
X009311Y015189D01*
X009311Y015347D02*
X010085Y015347D01*
X009969Y015506D02*
X009311Y015506D01*
X009311Y015664D02*
X009853Y015664D01*
X009736Y015823D02*
X009311Y015823D01*
X009311Y015981D02*
X009620Y015981D01*
X009504Y016140D02*
X009311Y016140D01*
X009311Y016298D02*
X009407Y016298D01*
X009391Y016457D02*
X009311Y016457D01*
X009311Y016615D02*
X009392Y016615D01*
X009393Y016774D02*
X009311Y016774D01*
X009311Y016932D02*
X009393Y016932D01*
X009394Y017091D02*
X009311Y017091D01*
X009311Y017249D02*
X009395Y017249D01*
X009396Y017408D02*
X009311Y017408D01*
X009311Y017566D02*
X009396Y017566D01*
X009397Y017725D02*
X009311Y017725D01*
X009311Y017883D02*
X009398Y017883D01*
X009399Y018042D02*
X009311Y018042D01*
X009311Y018200D02*
X009399Y018200D01*
X009400Y018359D02*
X009311Y018359D01*
X009311Y018517D02*
X009401Y018517D01*
X009402Y018676D02*
X009311Y018676D01*
X009311Y018834D02*
X009402Y018834D01*
X009403Y018993D02*
X009311Y018993D01*
X009311Y019151D02*
X009404Y019151D01*
X009405Y019310D02*
X009311Y019310D01*
X009311Y019468D02*
X009405Y019468D01*
X009406Y019627D02*
X009311Y019627D01*
X009311Y019785D02*
X009407Y019785D01*
X009407Y019944D02*
X009311Y019944D01*
X009311Y020102D02*
X009408Y020102D01*
X009409Y020261D02*
X009311Y020261D01*
X009311Y020419D02*
X009410Y020419D01*
X009410Y020578D02*
X009311Y020578D01*
X009311Y020736D02*
X009411Y020736D01*
X009412Y020895D02*
X009311Y020895D01*
X009311Y021053D02*
X009413Y021053D01*
X009413Y021212D02*
X009311Y021212D01*
X009311Y021370D02*
X009414Y021370D01*
X009415Y021529D02*
X009311Y021529D01*
X009311Y021687D02*
X009416Y021687D01*
X009416Y021846D02*
X009311Y021846D01*
X009311Y022004D02*
X009417Y022004D01*
X009418Y022163D02*
X009311Y022163D01*
X009311Y022321D02*
X009419Y022321D01*
X009419Y022480D02*
X009311Y022480D01*
X009311Y022638D02*
X009420Y022638D01*
X009421Y022797D02*
X009311Y022797D01*
X009311Y022955D02*
X009422Y022955D01*
X009422Y023114D02*
X009311Y023114D01*
X009311Y023272D02*
X009423Y023272D01*
X009424Y023431D02*
X009311Y023431D01*
X009311Y023589D02*
X009424Y023589D01*
X009425Y023748D02*
X009311Y023748D01*
X009311Y023906D02*
X009426Y023906D01*
X009427Y024065D02*
X009311Y024065D01*
X009311Y024223D02*
X009427Y024223D01*
X009428Y024382D02*
X009311Y024382D01*
X009311Y024540D02*
X009429Y024540D01*
X009430Y024699D02*
X009311Y024699D01*
X009311Y024857D02*
X009430Y024857D01*
X009431Y025016D02*
X009311Y025016D01*
X009311Y025174D02*
X009432Y025174D01*
X009433Y025333D02*
X009311Y025333D01*
X009311Y025491D02*
X009433Y025491D01*
X009434Y025650D02*
X009311Y025650D01*
X009311Y025808D02*
X009435Y025808D01*
X009436Y025967D02*
X009311Y025967D01*
X009311Y026125D02*
X009436Y026125D01*
X009437Y026284D02*
X009311Y026284D01*
X009311Y026442D02*
X009438Y026442D01*
X009438Y026601D02*
X009311Y026601D01*
X009311Y026759D02*
X009439Y026759D01*
X009440Y026918D02*
X009311Y026918D01*
X009311Y027076D02*
X009441Y027076D01*
X009456Y027235D02*
X009311Y027235D01*
X009311Y027393D02*
X009562Y027393D01*
X009311Y027552D02*
X011918Y027552D01*
X012160Y027710D02*
X009311Y027710D01*
X009781Y027130D02*
X009731Y016405D01*
X010556Y015280D01*
X011331Y014180D01*
X010831Y013680D01*
X011386Y013604D02*
X015470Y013604D01*
X015932Y013762D02*
X011394Y013762D01*
X011553Y013921D02*
X015991Y013921D01*
X015991Y014079D02*
X011659Y014079D01*
X011671Y014238D02*
X015991Y014238D01*
X015991Y014396D02*
X011596Y014396D01*
X011483Y014555D02*
X015991Y014555D01*
X015991Y014713D02*
X011371Y014713D01*
X011260Y014872D02*
X015991Y014872D01*
X015991Y015030D02*
X011148Y015030D01*
X011036Y015189D02*
X015011Y015189D01*
X015015Y015184D02*
X015230Y015095D01*
X015463Y015095D01*
X015678Y015184D01*
X015843Y015349D01*
X015932Y015564D01*
X015932Y015796D01*
X015843Y016011D01*
X015678Y016176D01*
X015463Y016265D01*
X015230Y016265D01*
X015015Y016176D01*
X014851Y016011D01*
X014762Y015796D01*
X014762Y015564D01*
X014851Y015349D01*
X015015Y015184D01*
X014852Y015347D02*
X013654Y015347D01*
X013509Y015287D02*
X013837Y015423D01*
X014088Y015674D01*
X014224Y016002D01*
X014224Y016358D01*
X014088Y016686D01*
X013837Y016937D01*
X013509Y017073D01*
X013153Y017073D01*
X012825Y016937D01*
X012574Y016686D01*
X012438Y016358D01*
X012438Y016002D01*
X012574Y015674D01*
X012825Y015423D01*
X013153Y015287D01*
X013509Y015287D01*
X013919Y015506D02*
X014786Y015506D01*
X014762Y015664D02*
X014078Y015664D01*
X014150Y015823D02*
X014773Y015823D01*
X014838Y015981D02*
X014215Y015981D01*
X014224Y016140D02*
X014979Y016140D01*
X015715Y016140D02*
X015991Y016140D01*
X015991Y016298D02*
X014224Y016298D01*
X014183Y016457D02*
X015991Y016457D01*
X015991Y016615D02*
X014117Y016615D01*
X014000Y016774D02*
X015991Y016774D01*
X015991Y016932D02*
X013842Y016932D01*
X012820Y016932D02*
X010073Y016932D01*
X010073Y016774D02*
X012662Y016774D01*
X012545Y016615D02*
X010072Y016615D01*
X010115Y016457D02*
X012479Y016457D01*
X012438Y016298D02*
X010231Y016298D01*
X010347Y016140D02*
X012438Y016140D01*
X012447Y015981D02*
X010464Y015981D01*
X010580Y015823D02*
X012512Y015823D01*
X012584Y015664D02*
X010696Y015664D01*
X010813Y015506D02*
X012742Y015506D01*
X013008Y015347D02*
X010925Y015347D01*
X015683Y015189D02*
X015991Y015189D01*
X015991Y015347D02*
X015841Y015347D01*
X015908Y015506D02*
X015991Y015506D01*
X015991Y015664D02*
X015932Y015664D01*
X015921Y015823D02*
X015991Y015823D01*
X015991Y015981D02*
X015855Y015981D01*
X016671Y015981D02*
X016807Y015981D01*
X016819Y016011D02*
X016730Y015796D01*
X016730Y015564D01*
X016819Y015349D01*
X016984Y015184D01*
X017199Y015095D01*
X017432Y015095D01*
X017647Y015184D01*
X017811Y015349D01*
X017900Y015564D01*
X017900Y015796D01*
X017811Y016011D01*
X017647Y016176D01*
X017432Y016265D01*
X017199Y016265D01*
X016984Y016176D01*
X016819Y016011D01*
X016947Y016140D02*
X016671Y016140D01*
X016671Y016298D02*
X022186Y016298D01*
X022074Y016186D02*
X021938Y015858D01*
X021938Y015502D01*
X022074Y015174D01*
X022325Y014923D01*
X022653Y014787D01*
X023009Y014787D01*
X023337Y014923D01*
X023588Y015174D01*
X023724Y015502D01*
X023724Y015858D01*
X023588Y016186D01*
X023337Y016437D01*
X023009Y016573D01*
X022653Y016573D01*
X022325Y016437D01*
X022074Y016186D01*
X022055Y016140D02*
X017683Y016140D01*
X017824Y015981D02*
X021989Y015981D01*
X021938Y015823D02*
X017889Y015823D01*
X017900Y015664D02*
X021938Y015664D01*
X021938Y015506D02*
X017876Y015506D01*
X017810Y015347D02*
X022002Y015347D01*
X022068Y015189D02*
X017651Y015189D01*
X016979Y015189D02*
X016671Y015189D01*
X016671Y015347D02*
X016821Y015347D01*
X016754Y015506D02*
X016671Y015506D01*
X016671Y015664D02*
X016730Y015664D01*
X016741Y015823D02*
X016671Y015823D01*
X016671Y016457D02*
X022372Y016457D01*
X023290Y016457D02*
X025319Y016457D01*
X025311Y016615D02*
X016671Y016615D01*
X016671Y016774D02*
X025311Y016774D01*
X025348Y016932D02*
X016671Y016932D01*
X016671Y017091D02*
X025506Y017091D01*
X026156Y017091D02*
X026506Y017091D01*
X026348Y016932D02*
X026314Y016932D01*
X026184Y016298D02*
X026478Y016298D01*
X026891Y016140D02*
X023607Y016140D01*
X023673Y015981D02*
X027049Y015981D01*
X027208Y015823D02*
X023724Y015823D01*
X023724Y015664D02*
X027366Y015664D01*
X027525Y015506D02*
X023724Y015506D01*
X023660Y015347D02*
X027683Y015347D01*
X027842Y015189D02*
X023594Y015189D01*
X023444Y015030D02*
X024549Y015030D01*
X024653Y015073D02*
X024325Y014937D01*
X024074Y014686D01*
X023938Y014358D01*
X023938Y014002D01*
X024074Y013674D01*
X024325Y013423D01*
X024653Y013287D01*
X025009Y013287D01*
X025337Y013423D01*
X025588Y013674D01*
X025724Y014002D01*
X025724Y014358D01*
X025588Y014686D01*
X025337Y014937D01*
X025009Y015073D01*
X024653Y015073D01*
X024260Y014872D02*
X023213Y014872D01*
X022449Y014872D02*
X016671Y014872D01*
X016671Y015030D02*
X022218Y015030D01*
X022206Y014310D02*
X021974Y014214D01*
X021797Y014037D01*
X021701Y013805D01*
X021701Y013555D01*
X021797Y013323D01*
X021974Y013146D01*
X022206Y013050D01*
X022456Y013050D01*
X022688Y013146D01*
X022865Y013323D01*
X022961Y013555D01*
X022961Y013805D01*
X022865Y014037D01*
X022688Y014214D01*
X022456Y014310D01*
X022206Y014310D01*
X022031Y014238D02*
X016671Y014238D01*
X016671Y014396D02*
X023954Y014396D01*
X023938Y014238D02*
X022631Y014238D01*
X022823Y014079D02*
X023938Y014079D01*
X023972Y013921D02*
X022913Y013921D01*
X022961Y013762D02*
X024037Y013762D01*
X024144Y013604D02*
X022961Y013604D01*
X022916Y013445D02*
X024303Y013445D01*
X025359Y013445D02*
X029491Y013445D01*
X029491Y013287D02*
X022828Y013287D01*
X022645Y013128D02*
X029491Y013128D01*
X029491Y012970D02*
X029020Y012970D01*
X029145Y012811D02*
X029491Y012811D01*
X029491Y012653D02*
X029171Y012653D01*
X029171Y012494D02*
X029491Y012494D01*
X029491Y012336D02*
X029171Y012336D01*
X029225Y012177D02*
X029491Y012177D01*
X029491Y012019D02*
X029373Y012019D01*
X029438Y011860D02*
X029491Y011860D01*
X029491Y011702D02*
X029461Y011702D01*
X029456Y011543D02*
X029491Y011543D01*
X029491Y011385D02*
X029390Y011385D01*
X029491Y011226D02*
X029268Y011226D01*
X029491Y011068D02*
X028999Y011068D01*
X028663Y011068D02*
X026999Y011068D01*
X027268Y011226D02*
X028394Y011226D01*
X028271Y011385D02*
X027390Y011385D01*
X027456Y011543D02*
X028206Y011543D01*
X028201Y011702D02*
X027461Y011702D01*
X027438Y011860D02*
X028224Y011860D01*
X028289Y012019D02*
X027373Y012019D01*
X027225Y012177D02*
X028437Y012177D01*
X028491Y012336D02*
X018967Y012336D01*
X019225Y012177D02*
X026437Y012177D01*
X026289Y012019D02*
X025902Y012019D01*
X026132Y011860D02*
X026224Y011860D01*
X026121Y010909D02*
X018041Y010909D01*
X017831Y011680D02*
X018831Y012680D01*
X028831Y012680D01*
X028831Y011680D01*
X030171Y011702D02*
X031329Y011702D01*
X031170Y011860D02*
X030171Y011860D01*
X030171Y012019D02*
X031012Y012019D01*
X030853Y012177D02*
X030171Y012177D01*
X030171Y012336D02*
X030695Y012336D01*
X030536Y012494D02*
X030171Y012494D01*
X030171Y012653D02*
X030378Y012653D01*
X030219Y012811D02*
X030171Y012811D01*
X030705Y013287D02*
X043244Y013287D01*
X043085Y013445D02*
X030547Y013445D01*
X030388Y013604D02*
X042995Y013604D01*
X042991Y013762D02*
X030230Y013762D01*
X030119Y013873D02*
X030119Y013873D01*
X030071Y013921D02*
X042991Y013921D01*
X042991Y014079D02*
X029913Y014079D01*
X029754Y014238D02*
X031316Y014238D01*
X031276Y014396D02*
X029596Y014396D01*
X029437Y014555D02*
X031276Y014555D01*
X031276Y014713D02*
X029279Y014713D01*
X028793Y014238D02*
X025724Y014238D01*
X025708Y014396D02*
X028634Y014396D01*
X028476Y014555D02*
X025642Y014555D01*
X025561Y014713D02*
X028317Y014713D01*
X028159Y014872D02*
X025402Y014872D01*
X025113Y015030D02*
X028000Y015030D01*
X028951Y014079D02*
X025724Y014079D01*
X025690Y013921D02*
X029110Y013921D01*
X029268Y013762D02*
X025624Y013762D01*
X025517Y013604D02*
X029427Y013604D01*
X029831Y013680D02*
X031831Y011680D01*
X036831Y011680D01*
X037268Y011226D02*
X048827Y011226D01*
X048776Y011385D02*
X037390Y011385D01*
X037456Y011543D02*
X048776Y011543D01*
X049331Y011680D02*
X048331Y012680D01*
X048331Y016680D01*
X047928Y017091D02*
X046734Y017091D01*
X046671Y017249D02*
X048087Y017249D01*
X047770Y016932D02*
X046892Y016932D01*
X046906Y016774D02*
X047756Y016774D01*
X047756Y016615D02*
X046906Y016615D01*
X046906Y016457D02*
X047756Y016457D01*
X047900Y016298D02*
X046762Y016298D01*
X046604Y016140D02*
X047991Y016140D01*
X047991Y015981D02*
X044171Y015981D01*
X044171Y015823D02*
X047991Y015823D01*
X047991Y015664D02*
X044171Y015664D01*
X044171Y015506D02*
X047991Y015506D01*
X047991Y015347D02*
X044171Y015347D01*
X044171Y015189D02*
X047991Y015189D01*
X047991Y015030D02*
X044171Y015030D01*
X044171Y014872D02*
X047991Y014872D01*
X047991Y014713D02*
X044171Y014713D01*
X044171Y014555D02*
X047991Y014555D01*
X048671Y014555D02*
X048991Y014555D01*
X048991Y014713D02*
X048671Y014713D01*
X048671Y014872D02*
X048991Y014872D01*
X048991Y015030D02*
X048671Y015030D01*
X048671Y015189D02*
X048991Y015189D01*
X048991Y015347D02*
X048671Y015347D01*
X048671Y015506D02*
X048991Y015506D01*
X048991Y015664D02*
X048671Y015664D01*
X048671Y015823D02*
X048991Y015823D01*
X048991Y015981D02*
X048671Y015981D01*
X048671Y016140D02*
X048991Y016140D01*
X048991Y016298D02*
X048762Y016298D01*
X048671Y016207D02*
X048906Y016442D01*
X048906Y016624D01*
X048991Y016539D01*
X048991Y013112D01*
X049043Y012987D01*
X049138Y012892D01*
X049276Y012754D01*
X049276Y012570D01*
X049360Y012366D01*
X049491Y012235D01*
X049257Y012235D01*
X048671Y012821D01*
X048671Y016207D01*
X048906Y016457D02*
X048991Y016457D01*
X048915Y016615D02*
X048906Y016615D01*
X049331Y016680D02*
X048331Y017680D01*
X046331Y017680D01*
X046331Y016680D01*
X045928Y017091D02*
X044171Y017091D01*
X044171Y017249D02*
X045991Y017249D01*
X045991Y017408D02*
X044171Y017408D01*
X044171Y017566D02*
X045991Y017566D01*
X045991Y017725D02*
X044171Y017725D01*
X044171Y017883D02*
X046053Y017883D01*
X044171Y018042D02*
X050991Y018042D01*
X050991Y018200D02*
X044171Y018200D01*
X044171Y018359D02*
X050991Y018359D01*
X050991Y018517D02*
X044171Y018517D01*
X044171Y018676D02*
X050991Y018676D01*
X050991Y018834D02*
X049122Y018834D01*
X049009Y018787D02*
X049337Y018923D01*
X049588Y019174D01*
X049724Y019502D01*
X049724Y019858D01*
X049588Y020186D01*
X049337Y020437D01*
X049009Y020573D01*
X048653Y020573D01*
X048325Y020437D01*
X048074Y020186D01*
X047938Y019858D01*
X047938Y019502D01*
X048074Y019174D01*
X048325Y018923D01*
X048653Y018787D01*
X049009Y018787D01*
X049406Y018993D02*
X050991Y018993D01*
X050991Y019151D02*
X049565Y019151D01*
X049644Y019310D02*
X051017Y019310D01*
X051138Y019468D02*
X049710Y019468D01*
X049724Y019627D02*
X051297Y019627D01*
X051455Y019785D02*
X049724Y019785D01*
X049688Y019944D02*
X051614Y019944D01*
X051701Y020102D02*
X049623Y020102D01*
X049513Y020261D02*
X051701Y020261D01*
X051748Y020419D02*
X049355Y020419D01*
X048307Y020419D02*
X044914Y020419D01*
X044961Y020261D02*
X048149Y020261D01*
X048039Y020102D02*
X044961Y020102D01*
X044915Y019944D02*
X047973Y019944D01*
X047938Y019785D02*
X044827Y019785D01*
X044641Y019627D02*
X047938Y019627D01*
X047952Y019468D02*
X044171Y019468D01*
X044171Y019310D02*
X048018Y019310D01*
X048097Y019151D02*
X044171Y019151D01*
X044171Y018993D02*
X048255Y018993D01*
X048540Y018834D02*
X044171Y018834D01*
X041147Y017883D02*
X029109Y017883D01*
X029267Y017725D02*
X041306Y017725D01*
X040989Y018042D02*
X028950Y018042D01*
X028792Y018200D02*
X030853Y018200D01*
X030776Y018359D02*
X028633Y018359D01*
X028475Y018517D02*
X030776Y018517D01*
X030776Y018676D02*
X028316Y018676D01*
X028158Y018834D02*
X030776Y018834D01*
X030776Y018993D02*
X027999Y018993D01*
X027841Y019151D02*
X030844Y019151D01*
X031417Y019310D02*
X027682Y019310D01*
X027524Y019468D02*
X027399Y019520D01*
X018171Y019520D01*
X018171Y019785D02*
X025491Y019785D01*
X025332Y019944D02*
X018171Y019944D01*
X018171Y020102D02*
X025311Y020102D01*
X025311Y020261D02*
X018171Y020261D01*
X018171Y020419D02*
X025335Y020419D01*
X025491Y020578D02*
X018171Y020578D01*
X018171Y020736D02*
X025491Y020736D01*
X025491Y020895D02*
X018171Y020895D01*
X018171Y021053D02*
X022198Y021053D01*
X022206Y021050D02*
X022456Y021050D01*
X022688Y021146D01*
X022865Y021323D01*
X022961Y021555D01*
X022961Y021805D01*
X022954Y021822D01*
X023689Y022557D01*
X023706Y022550D01*
X023956Y022550D01*
X024188Y022646D01*
X024365Y022823D01*
X024461Y023055D01*
X024461Y023305D01*
X024365Y023537D01*
X024188Y023714D01*
X023956Y023810D01*
X023706Y023810D01*
X023474Y023714D01*
X023297Y023537D01*
X023201Y023305D01*
X023201Y023055D01*
X023208Y023038D01*
X022473Y022303D01*
X022456Y022310D01*
X022206Y022310D01*
X021974Y022214D01*
X021797Y022037D01*
X021701Y021805D01*
X021701Y021555D01*
X021797Y021323D01*
X021974Y021146D01*
X022206Y021050D01*
X022464Y021053D02*
X025491Y021053D01*
X025491Y021212D02*
X022753Y021212D01*
X022884Y021370D02*
X025491Y021370D01*
X025491Y021529D02*
X022950Y021529D01*
X022961Y021687D02*
X025491Y021687D01*
X025491Y021846D02*
X022977Y021846D01*
X023136Y022004D02*
X025491Y022004D01*
X025491Y022163D02*
X023294Y022163D01*
X023453Y022321D02*
X025521Y022321D01*
X025650Y022480D02*
X023611Y022480D01*
X024169Y022638D02*
X025808Y022638D01*
X025967Y022797D02*
X024338Y022797D01*
X024420Y022955D02*
X025991Y022955D01*
X025991Y023114D02*
X024461Y023114D01*
X024461Y023272D02*
X025991Y023272D01*
X025991Y023431D02*
X024409Y023431D01*
X024313Y023589D02*
X025991Y023589D01*
X025991Y023748D02*
X024107Y023748D01*
X023555Y023748D02*
X022607Y023748D01*
X022688Y023714D02*
X022456Y023810D01*
X022206Y023810D01*
X021974Y023714D01*
X021797Y023537D01*
X021701Y023305D01*
X021701Y023055D01*
X021797Y022823D01*
X021974Y022646D01*
X022206Y022550D01*
X022456Y022550D01*
X022688Y022646D01*
X022865Y022823D01*
X022961Y023055D01*
X022961Y023305D01*
X022865Y023537D01*
X022688Y023714D01*
X022813Y023589D02*
X023349Y023589D01*
X023253Y023431D02*
X022909Y023431D01*
X022961Y023272D02*
X023201Y023272D01*
X023201Y023114D02*
X022961Y023114D01*
X022920Y022955D02*
X023125Y022955D01*
X022967Y022797D02*
X022838Y022797D01*
X022808Y022638D02*
X022669Y022638D01*
X022650Y022480D02*
X018171Y022480D01*
X018171Y022638D02*
X021993Y022638D01*
X021823Y022797D02*
X018171Y022797D01*
X018171Y022955D02*
X021742Y022955D01*
X021701Y023114D02*
X019944Y023114D01*
X020087Y023173D02*
X020338Y023424D01*
X020474Y023752D01*
X020474Y024108D01*
X020338Y024436D01*
X020087Y024687D01*
X019759Y024823D01*
X019403Y024823D01*
X019075Y024687D01*
X018824Y024436D01*
X018688Y024108D01*
X018688Y023752D01*
X018824Y023424D01*
X019075Y023173D01*
X019403Y023037D01*
X019759Y023037D01*
X020087Y023173D01*
X020186Y023272D02*
X021701Y023272D01*
X021753Y023431D02*
X020341Y023431D01*
X020406Y023589D02*
X021849Y023589D01*
X022055Y023748D02*
X020472Y023748D01*
X020474Y023906D02*
X025991Y023906D01*
X025991Y024065D02*
X020474Y024065D01*
X020426Y024223D02*
X025991Y024223D01*
X025991Y024382D02*
X020361Y024382D01*
X020234Y024540D02*
X025991Y024540D01*
X025991Y024699D02*
X020059Y024699D01*
X019103Y024699D02*
X018171Y024699D01*
X018171Y024857D02*
X025991Y024857D01*
X025991Y025016D02*
X018171Y025016D01*
X018171Y025174D02*
X025991Y025174D01*
X025991Y025333D02*
X018171Y025333D01*
X018171Y025491D02*
X025991Y025491D01*
X025991Y025650D02*
X018171Y025650D01*
X018146Y025808D02*
X025991Y025808D01*
X025991Y025967D02*
X018025Y025967D01*
X018024Y026125D02*
X017886Y026125D01*
X017831Y025680D02*
X017331Y026180D01*
X017701Y026595D02*
X017645Y026651D01*
X017441Y026735D01*
X017221Y026735D01*
X017017Y026651D01*
X016886Y026520D01*
X016886Y026527D01*
X016846Y026622D01*
X016844Y026625D01*
X016941Y026625D01*
X017145Y026709D01*
X017276Y026840D01*
X017715Y026840D01*
X017701Y026805D01*
X017701Y026595D01*
X017701Y026601D02*
X017695Y026601D01*
X017701Y026759D02*
X017195Y026759D01*
X016967Y026601D02*
X016855Y026601D01*
X016491Y026735D02*
X016429Y026797D01*
X016367Y026735D01*
X016491Y026735D01*
X016467Y026759D02*
X016391Y026759D01*
X016331Y027180D02*
X015331Y026180D01*
X016831Y024680D01*
X016831Y018180D01*
X016331Y017680D01*
X016331Y013680D01*
X015831Y013180D01*
X016345Y012970D02*
X018641Y012970D01*
X018481Y012811D02*
X016247Y012811D01*
X016021Y012653D02*
X016008Y012653D01*
X016640Y012653D02*
X018323Y012653D01*
X018164Y012494D02*
X016802Y012494D01*
X016867Y012336D02*
X018006Y012336D01*
X017847Y012177D02*
X016886Y012177D01*
X016865Y012019D02*
X017689Y012019D01*
X017538Y011860D02*
X016796Y011860D01*
X016626Y011702D02*
X017491Y011702D01*
X017491Y011543D02*
X016449Y011543D01*
X015963Y011068D02*
X009311Y011068D01*
X009311Y011226D02*
X015804Y011226D01*
X015646Y011385D02*
X009311Y011385D01*
X009311Y011543D02*
X015487Y011543D01*
X014852Y011702D02*
X009311Y011702D01*
X009311Y011860D02*
X014776Y011860D01*
X014776Y012019D02*
X009311Y012019D01*
X009311Y012177D02*
X009876Y012177D01*
X009776Y012336D02*
X009311Y012336D01*
X009311Y012494D02*
X009776Y012494D01*
X009776Y012653D02*
X009311Y012653D01*
X009311Y012811D02*
X009776Y012811D01*
X009776Y012970D02*
X009311Y012970D01*
X009311Y013128D02*
X009821Y013128D01*
X010886Y012336D02*
X010891Y012336D01*
X010786Y012177D02*
X011095Y012177D01*
X009311Y010909D02*
X016121Y010909D01*
X009311Y010751D02*
X026280Y010751D01*
X030171Y010751D02*
X073810Y010751D01*
X073776Y010909D02*
X030171Y010909D01*
X030171Y011068D02*
X036663Y011068D01*
X036394Y011226D02*
X030171Y011226D01*
X030171Y011385D02*
X031656Y011385D01*
X031543Y011487D02*
X031543Y011487D01*
X031487Y011543D02*
X030171Y011543D01*
X031656Y012336D02*
X037713Y012336D01*
X037701Y012305D02*
X037701Y012055D01*
X037797Y011823D01*
X037974Y011646D01*
X038206Y011550D01*
X038456Y011550D01*
X038688Y011646D01*
X038865Y011823D01*
X038961Y012055D01*
X038961Y012305D01*
X038865Y012537D01*
X038688Y012714D01*
X038456Y012810D01*
X038206Y012810D01*
X037974Y012714D01*
X037797Y012537D01*
X037701Y012305D01*
X037701Y012177D02*
X037225Y012177D01*
X037373Y012019D02*
X037716Y012019D01*
X037782Y011860D02*
X037438Y011860D01*
X037461Y011702D02*
X037918Y011702D01*
X038743Y011702D02*
X045918Y011702D01*
X044715Y011860D02*
X038880Y011860D01*
X038946Y012019D02*
X044512Y012019D01*
X044353Y012177D02*
X038961Y012177D01*
X038948Y012336D02*
X044195Y012336D01*
X044036Y012494D02*
X038883Y012494D01*
X038749Y012653D02*
X043878Y012653D01*
X043719Y012811D02*
X031181Y012811D01*
X031339Y012653D02*
X037913Y012653D01*
X037779Y012494D02*
X031498Y012494D01*
X031815Y012177D02*
X036437Y012177D01*
X036999Y011068D02*
X063663Y011068D01*
X063394Y011226D02*
X062354Y011226D01*
X062531Y011385D02*
X063271Y011385D01*
X063206Y011543D02*
X062597Y011543D01*
X062611Y011702D02*
X063201Y011702D01*
X063224Y011860D02*
X062579Y011860D01*
X062488Y012019D02*
X063212Y012019D01*
X063053Y012177D02*
X062250Y012177D01*
X062179Y012336D02*
X062895Y012336D01*
X062736Y012494D02*
X062284Y012494D01*
X062321Y012653D02*
X062578Y012653D01*
X062419Y012811D02*
X062307Y012811D01*
X062261Y012970D02*
X062234Y012970D01*
X062102Y013128D02*
X062030Y013128D01*
X061944Y013287D02*
X061705Y013287D01*
X061785Y013445D02*
X061547Y013445D01*
X061627Y013604D02*
X061388Y013604D01*
X061468Y013762D02*
X061230Y013762D01*
X061310Y013921D02*
X061071Y013921D01*
X061151Y014079D02*
X060913Y014079D01*
X060993Y014238D02*
X060754Y014238D01*
X060834Y014396D02*
X060596Y014396D01*
X060676Y014555D02*
X060437Y014555D01*
X060517Y014713D02*
X060279Y014713D01*
X060359Y014872D02*
X060120Y014872D01*
X060200Y015030D02*
X059962Y015030D01*
X060042Y015189D02*
X059803Y015189D01*
X059883Y015347D02*
X059645Y015347D01*
X059725Y015506D02*
X059486Y015506D01*
X059566Y015664D02*
X059328Y015664D01*
X059408Y015823D02*
X059169Y015823D01*
X059012Y015981D02*
X059011Y015981D01*
X058911Y016140D02*
X058852Y016140D01*
X058911Y016298D02*
X058694Y016298D01*
X058535Y016457D02*
X058911Y016457D01*
X059008Y016615D02*
X058659Y016615D01*
X058331Y016980D02*
X059431Y016980D01*
X059431Y017060D01*
X059571Y016670D02*
X059619Y016690D01*
X059711Y016690D01*
X059711Y016670D01*
X059571Y016670D01*
X059431Y016300D02*
X059431Y016280D01*
X063831Y011880D01*
X063831Y011680D01*
X064268Y011226D02*
X071394Y011226D01*
X071474Y011146D02*
X071706Y011050D01*
X071956Y011050D01*
X072188Y011146D01*
X072365Y011323D01*
X072461Y011555D01*
X072461Y011805D01*
X072365Y012037D01*
X072188Y012214D01*
X072171Y012221D01*
X072171Y012827D01*
X072246Y012902D01*
X072321Y013083D01*
X072321Y013277D01*
X072246Y013458D01*
X072109Y013595D01*
X071928Y013670D01*
X071734Y013670D01*
X071553Y013595D01*
X071416Y013458D01*
X071341Y013277D01*
X071341Y013083D01*
X071416Y012902D01*
X071491Y012827D01*
X071491Y012221D01*
X071474Y012214D01*
X071297Y012037D01*
X071201Y011805D01*
X071201Y011555D01*
X071297Y011323D01*
X071474Y011146D01*
X071663Y011068D02*
X063999Y011068D01*
X064390Y011385D02*
X071271Y011385D01*
X071206Y011543D02*
X064456Y011543D01*
X064461Y011702D02*
X071201Y011702D01*
X071224Y011860D02*
X064438Y011860D01*
X064373Y012019D02*
X071289Y012019D01*
X071437Y012177D02*
X064225Y012177D01*
X063856Y012336D02*
X071491Y012336D01*
X071491Y012494D02*
X063698Y012494D01*
X063539Y012653D02*
X071491Y012653D01*
X071491Y012811D02*
X063381Y012811D01*
X063222Y012970D02*
X071388Y012970D01*
X071341Y013128D02*
X063064Y013128D01*
X062905Y013287D02*
X071345Y013287D01*
X071410Y013445D02*
X062747Y013445D01*
X062588Y013604D02*
X071573Y013604D01*
X071831Y013180D02*
X071831Y011680D01*
X072268Y011226D02*
X073776Y011226D01*
X073776Y011068D02*
X071999Y011068D01*
X072390Y011385D02*
X073776Y011385D01*
X073783Y011543D02*
X072456Y011543D01*
X072461Y011702D02*
X073829Y011702D01*
X073670Y011860D02*
X072438Y011860D01*
X072373Y012019D02*
X073530Y012019D01*
X073491Y012177D02*
X072225Y012177D01*
X072171Y012336D02*
X073491Y012336D01*
X073491Y012494D02*
X072171Y012494D01*
X072171Y012653D02*
X073491Y012653D01*
X073491Y012811D02*
X072171Y012811D01*
X072274Y012970D02*
X073491Y012970D01*
X073491Y013128D02*
X072321Y013128D01*
X072317Y013287D02*
X073491Y013287D01*
X073491Y013445D02*
X072252Y013445D01*
X072089Y013604D02*
X073491Y013604D01*
X073491Y013762D02*
X062430Y013762D01*
X062271Y013921D02*
X073408Y013921D01*
X073342Y014079D02*
X062113Y014079D01*
X061954Y014238D02*
X073341Y014238D01*
X073390Y014396D02*
X073028Y014396D01*
X073186Y014555D02*
X073513Y014555D01*
X073345Y014713D02*
X073883Y014713D01*
X073991Y014872D02*
X073503Y014872D01*
X073662Y015030D02*
X073991Y015030D01*
X073991Y015189D02*
X073820Y015189D01*
X073979Y015347D02*
X073991Y015347D01*
X073831Y015680D02*
X072831Y014680D01*
X071331Y014680D01*
X071331Y015680D01*
X071961Y015664D02*
X072201Y015664D01*
X072208Y015823D02*
X071954Y015823D01*
X071888Y015981D02*
X072274Y015981D01*
X072400Y016140D02*
X071762Y016140D01*
X071485Y016298D02*
X072491Y016298D01*
X072831Y016680D02*
X072831Y015680D01*
X073262Y016140D02*
X073491Y016140D01*
X073491Y016298D02*
X073171Y016298D01*
X073171Y016457D02*
X073491Y016457D01*
X073491Y016615D02*
X073171Y016615D01*
X073160Y016774D02*
X073502Y016774D01*
X073602Y016932D02*
X073060Y016932D01*
X072831Y016680D02*
X069331Y016680D01*
X068831Y017180D01*
X068831Y020180D01*
X062331Y020180D01*
X061747Y019944D02*
X061671Y019944D01*
X061671Y020039D02*
X061701Y020069D01*
X061701Y020055D01*
X061797Y019823D01*
X061974Y019646D01*
X062206Y019550D01*
X062456Y019550D01*
X062688Y019646D01*
X062865Y019823D01*
X062872Y019840D01*
X062929Y019840D01*
X062841Y019627D01*
X062841Y019520D01*
X061671Y019520D01*
X061671Y020039D01*
X061671Y019785D02*
X061835Y019785D01*
X061671Y019627D02*
X062021Y019627D01*
X062641Y019627D02*
X062841Y019627D01*
X062827Y019785D02*
X062906Y019785D01*
X062331Y021180D02*
X061331Y020180D01*
X061331Y019180D01*
X063431Y019180D01*
X062841Y018840D02*
X061263Y018840D01*
X061171Y018878D01*
X061171Y018321D01*
X063189Y016303D01*
X063206Y016310D01*
X063456Y016310D01*
X063688Y016214D01*
X063865Y016037D01*
X063961Y015805D01*
X063961Y015555D01*
X063865Y015323D01*
X063688Y015146D01*
X063456Y015050D01*
X063206Y015050D01*
X062974Y015146D01*
X062797Y015323D01*
X062701Y015555D01*
X062701Y015805D01*
X062708Y015822D01*
X060543Y017987D01*
X060491Y018112D01*
X060491Y021539D01*
X058870Y023160D01*
X058468Y023160D01*
X058276Y023239D01*
X058171Y023345D01*
X058171Y017444D01*
X058234Y017470D01*
X058428Y017470D01*
X058609Y017395D01*
X058684Y017320D01*
X058953Y017320D01*
X059024Y017390D01*
X059119Y017430D01*
X059743Y017430D01*
X059838Y017390D01*
X059911Y017317D01*
X059951Y017222D01*
X059951Y017050D01*
X060543Y017050D01*
X060638Y017010D01*
X060711Y016937D01*
X060751Y016842D01*
X060751Y016741D01*
X062472Y015020D01*
X064991Y015020D01*
X064991Y018311D01*
X064897Y018350D01*
X064781Y018466D01*
X064671Y018356D01*
X064671Y018033D01*
X064746Y017958D01*
X064821Y017777D01*
X064821Y017583D01*
X064746Y017402D01*
X064609Y017265D01*
X064428Y017190D01*
X064234Y017190D01*
X064053Y017265D01*
X063916Y017402D01*
X063841Y017583D01*
X063841Y017777D01*
X063916Y017958D01*
X063991Y018033D01*
X063991Y018356D01*
X063881Y018466D01*
X063765Y018350D01*
X063548Y018260D01*
X063314Y018260D01*
X063097Y018350D01*
X062931Y018516D01*
X062841Y018733D01*
X062841Y018840D01*
X062841Y018834D02*
X061171Y018834D01*
X061171Y018676D02*
X062865Y018676D01*
X062930Y018517D02*
X061171Y018517D01*
X061171Y018359D02*
X063088Y018359D01*
X063774Y018359D02*
X063988Y018359D01*
X063991Y018200D02*
X061292Y018200D01*
X061450Y018042D02*
X063991Y018042D01*
X063885Y017883D02*
X061609Y017883D01*
X061767Y017725D02*
X063841Y017725D01*
X063848Y017566D02*
X061926Y017566D01*
X062084Y017408D02*
X063913Y017408D01*
X064091Y017249D02*
X062243Y017249D01*
X062401Y017091D02*
X064991Y017091D01*
X064991Y017249D02*
X064571Y017249D01*
X064748Y017408D02*
X064991Y017408D01*
X064991Y017566D02*
X064814Y017566D01*
X064821Y017725D02*
X064991Y017725D01*
X064991Y017883D02*
X064777Y017883D01*
X064671Y018042D02*
X064991Y018042D01*
X064991Y018200D02*
X064671Y018200D01*
X064674Y018359D02*
X064888Y018359D01*
X065671Y018359D02*
X068491Y018359D01*
X068491Y018517D02*
X065732Y018517D01*
X065797Y018676D02*
X068491Y018676D01*
X068491Y018834D02*
X065821Y018834D01*
X065821Y018993D02*
X068491Y018993D01*
X068491Y019151D02*
X065821Y019151D01*
X065821Y019310D02*
X068491Y019310D01*
X068491Y019468D02*
X065821Y019468D01*
X065821Y019627D02*
X068491Y019627D01*
X068491Y019785D02*
X065756Y019785D01*
X065331Y019180D02*
X065231Y019180D01*
X065331Y019180D02*
X065331Y014680D01*
X062331Y014680D01*
X060331Y016680D01*
X060231Y016680D01*
X060232Y016298D02*
X059951Y016298D01*
X060052Y016140D02*
X060391Y016140D01*
X060549Y015981D02*
X060211Y015981D01*
X060369Y015823D02*
X060708Y015823D01*
X060866Y015664D02*
X060528Y015664D01*
X060686Y015506D02*
X061025Y015506D01*
X061183Y015347D02*
X060845Y015347D01*
X061003Y015189D02*
X061342Y015189D01*
X061500Y015030D02*
X061162Y015030D01*
X061320Y014872D02*
X061659Y014872D01*
X061817Y014713D02*
X061479Y014713D01*
X061637Y014555D02*
X061976Y014555D01*
X062134Y014396D02*
X061796Y014396D01*
X060268Y013762D02*
X056671Y013762D01*
X056671Y013604D02*
X060427Y013604D01*
X060585Y013445D02*
X056671Y013445D01*
X056671Y013321D02*
X056671Y016160D01*
X056694Y016160D01*
X056886Y016239D01*
X057032Y016385D01*
X057111Y016577D01*
X057111Y016783D01*
X057032Y016975D01*
X056886Y017121D01*
X056694Y017200D01*
X055968Y017200D01*
X055776Y017121D01*
X055630Y016975D01*
X055551Y016783D01*
X055551Y016577D01*
X055630Y016385D01*
X055776Y016239D01*
X055968Y016160D01*
X055991Y016160D01*
X055991Y013112D01*
X056043Y012987D01*
X056138Y012892D01*
X057108Y011922D01*
X057051Y011783D01*
X057051Y011577D01*
X057130Y011385D01*
X057276Y011239D01*
X057468Y011160D01*
X058194Y011160D01*
X058386Y011239D01*
X058532Y011385D01*
X058611Y011577D01*
X058611Y011783D01*
X058532Y011975D01*
X058386Y012121D01*
X058194Y012200D01*
X057792Y012200D01*
X056671Y013321D01*
X056705Y013287D02*
X060744Y013287D01*
X060902Y013128D02*
X056864Y013128D01*
X057022Y012970D02*
X061061Y012970D01*
X061219Y012811D02*
X057181Y012811D01*
X057339Y012653D02*
X061341Y012653D01*
X061378Y012494D02*
X057498Y012494D01*
X057656Y012336D02*
X061482Y012336D01*
X061412Y012177D02*
X058250Y012177D01*
X058488Y012019D02*
X061174Y012019D01*
X061083Y011860D02*
X058579Y011860D01*
X058611Y011702D02*
X061051Y011702D01*
X061065Y011543D02*
X058597Y011543D01*
X058531Y011385D02*
X061131Y011385D01*
X061308Y011226D02*
X058354Y011226D01*
X057831Y011680D02*
X056331Y013180D01*
X056331Y016680D01*
X056916Y017091D02*
X057491Y017091D01*
X057491Y017249D02*
X054671Y017249D01*
X054671Y017091D02*
X055746Y017091D01*
X055613Y016932D02*
X054671Y016932D01*
X054671Y016774D02*
X055551Y016774D01*
X055551Y016615D02*
X054671Y016615D01*
X054671Y016457D02*
X055601Y016457D01*
X055718Y016298D02*
X054671Y016298D01*
X054671Y016140D02*
X055991Y016140D01*
X055991Y015981D02*
X054671Y015981D01*
X054671Y015823D02*
X055991Y015823D01*
X055991Y015664D02*
X054671Y015664D01*
X054671Y015506D02*
X055991Y015506D01*
X055991Y015347D02*
X054671Y015347D01*
X054671Y015189D02*
X055991Y015189D01*
X055991Y015030D02*
X054671Y015030D01*
X054671Y014872D02*
X055991Y014872D01*
X055991Y014713D02*
X054671Y014713D01*
X054671Y014555D02*
X055991Y014555D01*
X055991Y014396D02*
X054671Y014396D01*
X054671Y014238D02*
X055991Y014238D01*
X055991Y014079D02*
X054671Y014079D01*
X054671Y013921D02*
X055991Y013921D01*
X055991Y013762D02*
X054671Y013762D01*
X054671Y013604D02*
X055991Y013604D01*
X055991Y013445D02*
X054671Y013445D01*
X054671Y013287D02*
X055991Y013287D01*
X055991Y013128D02*
X054671Y013128D01*
X054812Y012970D02*
X056061Y012970D01*
X056219Y012811D02*
X054877Y012811D01*
X054886Y012653D02*
X056378Y012653D01*
X056536Y012494D02*
X054855Y012494D01*
X054771Y012336D02*
X056695Y012336D01*
X056853Y012177D02*
X055081Y012177D01*
X055277Y012019D02*
X057012Y012019D01*
X057083Y011860D02*
X055357Y011860D01*
X055386Y011702D02*
X057051Y011702D01*
X057065Y011543D02*
X055375Y011543D01*
X055309Y011385D02*
X057131Y011385D01*
X057308Y011226D02*
X055162Y011226D01*
X054500Y011226D02*
X054335Y011226D01*
X053327Y011226D02*
X050662Y011226D01*
X050809Y011385D02*
X053276Y011385D01*
X053276Y011543D02*
X050875Y011543D01*
X050331Y011680D02*
X051331Y012680D01*
X051331Y019180D01*
X052331Y020180D01*
X051838Y020578D02*
X044824Y020578D01*
X044635Y020736D02*
X052027Y020736D01*
X052819Y021212D02*
X042280Y021212D01*
X042171Y021370D02*
X052660Y021370D01*
X052502Y021529D02*
X042171Y021529D01*
X042171Y021687D02*
X052343Y021687D01*
X052185Y021846D02*
X042171Y021846D01*
X042171Y022004D02*
X052026Y022004D01*
X051868Y022163D02*
X042171Y022163D01*
X042171Y022321D02*
X042309Y022321D01*
X042205Y022480D02*
X042171Y022480D01*
X042171Y022638D02*
X042191Y022638D01*
X042531Y022580D02*
X042531Y023380D01*
X042031Y023880D01*
X035031Y023880D01*
X035031Y020880D01*
X034331Y020180D01*
X034915Y019944D02*
X038991Y019944D01*
X038991Y020102D02*
X034961Y020102D01*
X034961Y020261D02*
X038991Y020261D01*
X038991Y020419D02*
X035051Y020419D01*
X035209Y020578D02*
X038991Y020578D01*
X038991Y020736D02*
X035339Y020736D01*
X035371Y020895D02*
X038894Y020895D01*
X038695Y021053D02*
X037297Y021053D01*
X037259Y021037D02*
X037587Y021173D01*
X037838Y021424D01*
X037974Y021752D01*
X037974Y022108D01*
X037838Y022436D01*
X037587Y022687D01*
X037259Y022823D01*
X036903Y022823D01*
X036575Y022687D01*
X036324Y022436D01*
X036188Y022108D01*
X036188Y021752D01*
X036324Y021424D01*
X036575Y021173D01*
X036903Y021037D01*
X037259Y021037D01*
X036864Y021053D02*
X035371Y021053D01*
X035371Y021212D02*
X036536Y021212D01*
X036378Y021370D02*
X035371Y021370D01*
X035371Y021529D02*
X036281Y021529D01*
X036215Y021687D02*
X035371Y021687D01*
X035371Y021846D02*
X036188Y021846D01*
X036188Y022004D02*
X035371Y022004D01*
X035371Y022163D02*
X036211Y022163D01*
X036276Y022321D02*
X035371Y022321D01*
X035371Y022480D02*
X036368Y022480D01*
X036526Y022638D02*
X035371Y022638D01*
X035371Y022797D02*
X036839Y022797D01*
X037323Y022797D02*
X041323Y022797D01*
X041242Y022955D02*
X035371Y022955D01*
X035371Y023114D02*
X041201Y023114D01*
X041201Y023272D02*
X035371Y023272D01*
X035371Y023431D02*
X041253Y023431D01*
X041831Y023180D02*
X041831Y021180D01*
X042331Y020680D01*
X042331Y020180D01*
X041748Y020419D02*
X039671Y020419D01*
X039671Y020261D02*
X041701Y020261D01*
X041701Y020102D02*
X039671Y020102D01*
X039671Y019944D02*
X041747Y019944D01*
X041835Y019785D02*
X039671Y019785D01*
X039671Y019627D02*
X042021Y019627D01*
X042641Y019627D02*
X043404Y019627D01*
X043033Y019785D02*
X042827Y019785D01*
X042824Y020578D02*
X043036Y020578D01*
X041838Y020578D02*
X039671Y020578D01*
X039671Y020736D02*
X041794Y020736D01*
X041636Y020895D02*
X039768Y020895D01*
X039967Y021053D02*
X041516Y021053D01*
X041491Y021212D02*
X040104Y021212D01*
X040169Y021370D02*
X041491Y021370D01*
X041491Y021529D02*
X040224Y021529D01*
X040224Y021687D02*
X041491Y021687D01*
X041491Y021846D02*
X040224Y021846D01*
X040163Y022004D02*
X041491Y022004D01*
X041491Y022163D02*
X040098Y022163D01*
X039953Y022321D02*
X041491Y022321D01*
X041491Y022480D02*
X039734Y022480D01*
X038928Y022480D02*
X037794Y022480D01*
X037886Y022321D02*
X038709Y022321D01*
X038564Y022163D02*
X037951Y022163D01*
X037974Y022004D02*
X038499Y022004D01*
X038438Y021846D02*
X037974Y021846D01*
X037947Y021687D02*
X038438Y021687D01*
X038438Y021529D02*
X037881Y021529D01*
X037784Y021370D02*
X038493Y021370D01*
X038558Y021212D02*
X037625Y021212D01*
X039331Y021680D02*
X039331Y019180D01*
X040331Y019180D01*
X040196Y018834D02*
X032966Y018834D01*
X032886Y018676D02*
X040355Y018676D01*
X040513Y018517D02*
X032864Y018517D01*
X032794Y018359D02*
X040672Y018359D01*
X040830Y018200D02*
X032623Y018200D01*
X032039Y018200D02*
X031809Y018200D01*
X032331Y018680D02*
X033331Y019680D01*
X033331Y022680D01*
X033831Y023180D01*
X034409Y023431D02*
X034691Y023431D01*
X034691Y023589D02*
X034313Y023589D01*
X034107Y023748D02*
X034691Y023748D01*
X034831Y024180D02*
X026831Y024180D01*
X026831Y020180D01*
X027171Y019785D02*
X031276Y019785D01*
X031339Y019944D02*
X027330Y019944D01*
X027351Y020102D02*
X031468Y020102D01*
X032194Y020102D02*
X032991Y020102D01*
X032991Y019944D02*
X032323Y019944D01*
X032386Y019785D02*
X032955Y019785D01*
X032797Y019627D02*
X032386Y019627D01*
X032344Y019468D02*
X032638Y019468D01*
X032480Y019310D02*
X032245Y019310D01*
X032018Y019151D02*
X032004Y019151D01*
X033124Y018993D02*
X039041Y018993D01*
X038991Y019151D02*
X033283Y019151D01*
X033441Y019310D02*
X038991Y019310D01*
X038991Y019468D02*
X033600Y019468D01*
X033671Y019627D02*
X034021Y019627D01*
X033835Y019785D02*
X033671Y019785D01*
X033671Y019944D02*
X033747Y019944D01*
X033701Y020102D02*
X033671Y020102D01*
X033671Y020261D02*
X033701Y020261D01*
X033671Y020419D02*
X033748Y020419D01*
X033671Y020578D02*
X033838Y020578D01*
X033671Y020736D02*
X034027Y020736D01*
X033671Y020895D02*
X034565Y020895D01*
X034691Y021053D02*
X033671Y021053D01*
X033671Y021212D02*
X034691Y021212D01*
X034691Y021370D02*
X033671Y021370D01*
X033671Y021529D02*
X034691Y021529D01*
X034691Y021687D02*
X033671Y021687D01*
X033671Y021846D02*
X034691Y021846D01*
X034691Y022004D02*
X033671Y022004D01*
X033671Y022163D02*
X034691Y022163D01*
X034691Y022321D02*
X033671Y022321D01*
X033671Y022480D02*
X034691Y022480D01*
X034691Y022638D02*
X034169Y022638D01*
X034338Y022797D02*
X034691Y022797D01*
X034691Y022955D02*
X034420Y022955D01*
X034461Y023114D02*
X034691Y023114D01*
X034691Y023272D02*
X034461Y023272D01*
X033349Y023589D02*
X032313Y023589D01*
X032365Y023537D02*
X032188Y023714D01*
X031956Y023810D01*
X031706Y023810D01*
X031474Y023714D01*
X031297Y023537D01*
X031201Y023305D01*
X031201Y023055D01*
X031297Y022823D01*
X031474Y022646D01*
X031706Y022550D01*
X031956Y022550D01*
X032188Y022646D01*
X032365Y022823D01*
X032461Y023055D01*
X032461Y023305D01*
X032365Y023537D01*
X032409Y023431D02*
X033253Y023431D01*
X033201Y023272D02*
X032461Y023272D01*
X032461Y023114D02*
X033201Y023114D01*
X033125Y022955D02*
X032420Y022955D01*
X032338Y022797D02*
X033011Y022797D01*
X032991Y022638D02*
X032169Y022638D01*
X031493Y022638D02*
X027171Y022638D01*
X027171Y022480D02*
X032991Y022480D01*
X032991Y022321D02*
X027171Y022321D01*
X027171Y022163D02*
X032991Y022163D01*
X032991Y022004D02*
X027171Y022004D01*
X027171Y021846D02*
X032991Y021846D01*
X032991Y021687D02*
X027171Y021687D01*
X027171Y021529D02*
X032991Y021529D01*
X032991Y021370D02*
X027171Y021370D01*
X027171Y021212D02*
X032991Y021212D01*
X032991Y021053D02*
X027171Y021053D01*
X027171Y020895D02*
X032991Y020895D01*
X032991Y020736D02*
X027171Y020736D01*
X027171Y020578D02*
X032991Y020578D01*
X032991Y020419D02*
X027327Y020419D01*
X027351Y020261D02*
X032991Y020261D01*
X034641Y019627D02*
X038991Y019627D01*
X038991Y019785D02*
X034827Y019785D01*
X028464Y017566D02*
X016698Y017566D01*
X016671Y017408D02*
X028623Y017408D01*
X028781Y017249D02*
X016671Y017249D01*
X016856Y017725D02*
X028306Y017725D01*
X028147Y017883D02*
X017015Y017883D01*
X017142Y018042D02*
X027989Y018042D01*
X027830Y018200D02*
X017171Y018200D01*
X017171Y018359D02*
X027672Y018359D01*
X027513Y018517D02*
X017171Y018517D01*
X017171Y018676D02*
X027355Y018676D01*
X027196Y018834D02*
X017171Y018834D01*
X017171Y018993D02*
X017541Y018993D01*
X017491Y019151D02*
X017171Y019151D01*
X017171Y019310D02*
X017491Y019310D01*
X017491Y019468D02*
X017171Y019468D01*
X017171Y019627D02*
X017491Y019627D01*
X017491Y019785D02*
X017171Y019785D01*
X017171Y019944D02*
X017491Y019944D01*
X017491Y020102D02*
X017171Y020102D01*
X017171Y020261D02*
X017491Y020261D01*
X017491Y020419D02*
X017171Y020419D01*
X017171Y020578D02*
X017491Y020578D01*
X017491Y020736D02*
X017171Y020736D01*
X017171Y020895D02*
X017491Y020895D01*
X017491Y021053D02*
X017171Y021053D01*
X017171Y021212D02*
X017491Y021212D01*
X017491Y021370D02*
X017171Y021370D01*
X017171Y021529D02*
X017491Y021529D01*
X017491Y021687D02*
X017171Y021687D01*
X017171Y021846D02*
X017491Y021846D01*
X017491Y022004D02*
X017171Y022004D01*
X017171Y022163D02*
X017491Y022163D01*
X017491Y022321D02*
X017171Y022321D01*
X017171Y022480D02*
X017491Y022480D01*
X017491Y022638D02*
X017171Y022638D01*
X017171Y022797D02*
X017491Y022797D01*
X017491Y022955D02*
X017171Y022955D01*
X017171Y023114D02*
X017491Y023114D01*
X017491Y023272D02*
X017171Y023272D01*
X017171Y023431D02*
X017491Y023431D01*
X017491Y023589D02*
X017171Y023589D01*
X017171Y023748D02*
X017491Y023748D01*
X017491Y023906D02*
X017171Y023906D01*
X017171Y024065D02*
X017491Y024065D01*
X017491Y024223D02*
X017171Y024223D01*
X017171Y024382D02*
X017491Y024382D01*
X017491Y024540D02*
X017171Y024540D01*
X017171Y024699D02*
X017213Y024699D01*
X017449Y024699D02*
X017491Y024699D01*
X018171Y024540D02*
X018928Y024540D01*
X018801Y024382D02*
X018171Y024382D01*
X018171Y024223D02*
X018736Y024223D01*
X018688Y024065D02*
X018171Y024065D01*
X018171Y023906D02*
X018688Y023906D01*
X018690Y023748D02*
X018171Y023748D01*
X018171Y023589D02*
X018756Y023589D01*
X018821Y023431D02*
X018171Y023431D01*
X018171Y023272D02*
X018976Y023272D01*
X019218Y023114D02*
X018171Y023114D01*
X016491Y023114D02*
X014961Y023114D01*
X014961Y023055D02*
X014865Y022823D01*
X014688Y022646D01*
X014456Y022550D01*
X014206Y022550D01*
X013974Y022646D01*
X013797Y022823D01*
X013701Y023055D01*
X013701Y023305D01*
X013797Y023537D01*
X013974Y023714D01*
X014206Y023810D01*
X014456Y023810D01*
X014688Y023714D01*
X014865Y023537D01*
X014961Y023305D01*
X014961Y023055D01*
X014920Y022955D02*
X016491Y022955D01*
X016491Y022797D02*
X014838Y022797D01*
X014669Y022638D02*
X016491Y022638D01*
X016491Y022480D02*
X013275Y022480D01*
X013275Y022546D02*
X013186Y022761D01*
X013022Y022926D01*
X012807Y023015D01*
X012574Y023015D01*
X012359Y022926D01*
X012194Y022761D01*
X012105Y022546D01*
X012105Y022314D01*
X012194Y022099D01*
X012359Y021934D01*
X012574Y021845D01*
X012807Y021845D01*
X013022Y021934D01*
X013186Y022099D01*
X013275Y022314D01*
X013275Y022546D01*
X013237Y022638D02*
X013993Y022638D01*
X013823Y022797D02*
X013151Y022797D01*
X012951Y022955D02*
X013742Y022955D01*
X013701Y023114D02*
X010102Y023114D01*
X010103Y023272D02*
X013701Y023272D01*
X013753Y023431D02*
X013345Y023431D01*
X013337Y023423D02*
X013588Y023674D01*
X013724Y024002D01*
X013724Y024358D01*
X013588Y024686D01*
X013337Y024937D01*
X013009Y025073D01*
X012653Y025073D01*
X012325Y024937D01*
X012074Y024686D01*
X011938Y024358D01*
X011938Y024002D01*
X012074Y023674D01*
X012325Y023423D01*
X012653Y023287D01*
X013009Y023287D01*
X013337Y023423D01*
X013503Y023589D02*
X013849Y023589D01*
X014055Y023748D02*
X013618Y023748D01*
X013684Y023906D02*
X016491Y023906D01*
X016491Y023748D02*
X014607Y023748D01*
X014813Y023589D02*
X016491Y023589D01*
X016491Y023431D02*
X014909Y023431D01*
X014961Y023272D02*
X016491Y023272D01*
X016491Y024065D02*
X013724Y024065D01*
X013724Y024223D02*
X016491Y024223D01*
X016491Y024382D02*
X013714Y024382D01*
X013648Y024540D02*
X016490Y024540D01*
X016332Y024699D02*
X013575Y024699D01*
X013417Y024857D02*
X016173Y024857D01*
X016015Y025016D02*
X013148Y025016D01*
X012514Y025016D02*
X010111Y025016D01*
X010112Y025174D02*
X015856Y025174D01*
X015698Y025333D02*
X010113Y025333D01*
X010113Y025491D02*
X015539Y025491D01*
X015381Y025650D02*
X013001Y025650D01*
X013244Y025808D02*
X015222Y025808D01*
X015064Y025967D02*
X013343Y025967D01*
X013386Y026125D02*
X014991Y026125D01*
X015006Y026284D02*
X013386Y026284D01*
X013323Y026442D02*
X015112Y026442D01*
X015271Y026601D02*
X013195Y026601D01*
X012823Y026918D02*
X015588Y026918D01*
X015746Y027076D02*
X012886Y027076D01*
X012886Y027235D02*
X015905Y027235D01*
X016063Y027393D02*
X012843Y027393D01*
X012744Y027552D02*
X016418Y027552D01*
X016660Y027710D02*
X012502Y027710D01*
X012331Y027180D02*
X009781Y027130D01*
X010119Y026759D02*
X011967Y026759D01*
X012355Y026601D02*
X012467Y026601D01*
X012695Y026759D02*
X015429Y026759D01*
X016331Y026180D02*
X017331Y025180D01*
X016841Y025174D02*
X016818Y025174D01*
X016841Y025189D02*
X016841Y025151D01*
X016367Y025625D01*
X016405Y025625D01*
X016841Y025189D01*
X016698Y025333D02*
X016659Y025333D01*
X016539Y025491D02*
X016501Y025491D01*
X017831Y025680D02*
X017831Y019180D01*
X027331Y019180D01*
X031831Y014680D01*
X032385Y015030D02*
X032396Y015030D01*
X032595Y015189D02*
X032608Y015189D01*
X032489Y014238D02*
X032346Y014238D01*
X033173Y014238D02*
X042991Y014238D01*
X043402Y013128D02*
X030864Y013128D01*
X031022Y012970D02*
X043561Y012970D01*
X044839Y012653D02*
X045913Y012653D01*
X048681Y012811D02*
X049219Y012811D01*
X049276Y012653D02*
X048839Y012653D01*
X048998Y012494D02*
X049307Y012494D01*
X049391Y012336D02*
X049156Y012336D01*
X049831Y012680D02*
X049331Y013180D01*
X049331Y016680D01*
X049560Y016932D02*
X050991Y016932D01*
X050991Y016774D02*
X049660Y016774D01*
X049671Y016615D02*
X050991Y016615D01*
X050991Y016457D02*
X049671Y016457D01*
X049671Y016298D02*
X050991Y016298D01*
X050991Y016140D02*
X049671Y016140D01*
X049671Y015981D02*
X050991Y015981D01*
X050991Y015823D02*
X049671Y015823D01*
X049671Y015664D02*
X050991Y015664D01*
X050991Y015506D02*
X049671Y015506D01*
X049671Y015347D02*
X050991Y015347D01*
X050991Y015189D02*
X049671Y015189D01*
X049671Y015030D02*
X050991Y015030D01*
X050991Y014872D02*
X049671Y014872D01*
X049671Y014713D02*
X050991Y014713D01*
X050991Y014555D02*
X049671Y014555D01*
X049671Y014396D02*
X050991Y014396D01*
X050991Y014238D02*
X049671Y014238D01*
X049671Y014079D02*
X050991Y014079D01*
X050991Y013921D02*
X049671Y013921D01*
X049671Y013762D02*
X050991Y013762D01*
X050991Y013604D02*
X049671Y013604D01*
X049671Y013445D02*
X050991Y013445D01*
X050991Y013287D02*
X049705Y013287D01*
X050168Y013128D02*
X050991Y013128D01*
X050991Y012970D02*
X050312Y012970D01*
X050377Y012811D02*
X050981Y012811D01*
X050823Y012653D02*
X050386Y012653D01*
X050355Y012494D02*
X050664Y012494D01*
X050506Y012336D02*
X050271Y012336D01*
X050081Y012177D02*
X050067Y012177D01*
X051467Y012336D02*
X053891Y012336D01*
X050000Y011226D02*
X049835Y011226D01*
X049061Y012970D02*
X048671Y012970D01*
X048671Y013128D02*
X048991Y013128D01*
X048991Y013287D02*
X048671Y013287D01*
X048671Y013445D02*
X048991Y013445D01*
X048991Y013604D02*
X048671Y013604D01*
X048671Y013762D02*
X048991Y013762D01*
X048991Y013921D02*
X048671Y013921D01*
X048671Y014079D02*
X048991Y014079D01*
X048991Y014238D02*
X048671Y014238D01*
X048671Y014396D02*
X048991Y014396D01*
X046058Y016140D02*
X044171Y016140D01*
X044171Y016298D02*
X045900Y016298D01*
X045756Y016457D02*
X044171Y016457D01*
X044171Y016615D02*
X045756Y016615D01*
X045756Y016774D02*
X044171Y016774D01*
X044171Y016932D02*
X045770Y016932D01*
X048767Y017725D02*
X050991Y017725D01*
X050991Y017883D02*
X048609Y017883D01*
X048926Y017566D02*
X050991Y017566D01*
X050991Y017408D02*
X049084Y017408D01*
X049243Y017249D02*
X050991Y017249D01*
X050991Y017091D02*
X049401Y017091D01*
X051671Y016298D02*
X051718Y016298D01*
X054671Y017408D02*
X057491Y017408D01*
X057491Y017566D02*
X054671Y017566D01*
X054671Y017725D02*
X057491Y017725D01*
X057491Y017883D02*
X054671Y017883D01*
X054671Y018042D02*
X057491Y018042D01*
X057491Y018200D02*
X054671Y018200D01*
X054671Y018359D02*
X057491Y018359D01*
X057491Y018517D02*
X054671Y018517D01*
X054671Y018676D02*
X057491Y018676D01*
X057491Y018834D02*
X054671Y018834D01*
X054671Y018993D02*
X057491Y018993D01*
X057491Y019151D02*
X054671Y019151D01*
X054671Y019310D02*
X057491Y019310D01*
X057491Y019468D02*
X054671Y019468D01*
X054671Y019627D02*
X057491Y019627D01*
X057491Y019785D02*
X054827Y019785D01*
X054915Y019944D02*
X057491Y019944D01*
X057491Y020102D02*
X054961Y020102D01*
X054961Y020261D02*
X057491Y020261D01*
X057491Y020419D02*
X054914Y020419D01*
X054824Y020578D02*
X057491Y020578D01*
X057491Y020736D02*
X054635Y020736D01*
X054097Y020895D02*
X057491Y020895D01*
X057491Y021053D02*
X053939Y021053D01*
X053780Y021212D02*
X057491Y021212D01*
X057491Y021370D02*
X053622Y021370D01*
X053463Y021529D02*
X057491Y021529D01*
X057491Y021687D02*
X053305Y021687D01*
X053146Y021846D02*
X057491Y021846D01*
X057491Y022004D02*
X052988Y022004D01*
X052829Y022163D02*
X057491Y022163D01*
X057491Y022321D02*
X052671Y022321D01*
X052512Y022480D02*
X057491Y022480D01*
X057491Y022638D02*
X052354Y022638D01*
X052195Y022797D02*
X057491Y022797D01*
X057491Y022955D02*
X052238Y022955D01*
X052295Y023114D02*
X057491Y023114D01*
X057491Y023272D02*
X055418Y023272D01*
X055386Y023239D02*
X055532Y023385D01*
X055611Y023577D01*
X055611Y023783D01*
X055532Y023975D01*
X055386Y024121D01*
X055194Y024200D01*
X054468Y024200D01*
X054276Y024121D01*
X054130Y023975D01*
X054051Y023783D01*
X054051Y023577D01*
X054130Y023385D01*
X054276Y023239D01*
X054468Y023160D01*
X055194Y023160D01*
X055386Y023239D01*
X055550Y023431D02*
X057491Y023431D01*
X057491Y023589D02*
X055611Y023589D01*
X055611Y023748D02*
X057491Y023748D01*
X057491Y023906D02*
X055560Y023906D01*
X055442Y024065D02*
X057491Y024065D01*
X057491Y024223D02*
X051311Y024223D01*
X051264Y024382D02*
X057491Y024382D01*
X057491Y024540D02*
X051171Y024540D01*
X051171Y024699D02*
X057491Y024699D01*
X057491Y024857D02*
X051171Y024857D01*
X051171Y025016D02*
X057491Y025016D01*
X057491Y025174D02*
X051171Y025174D01*
X051171Y025333D02*
X057491Y025333D01*
X057491Y025491D02*
X051171Y025491D01*
X051171Y025650D02*
X057491Y025650D01*
X057491Y025808D02*
X051171Y025808D01*
X051171Y025967D02*
X057491Y025967D01*
X057491Y026125D02*
X051171Y026125D01*
X051171Y026284D02*
X057491Y026284D01*
X057491Y026442D02*
X051171Y026442D01*
X051171Y026601D02*
X057491Y026601D01*
X057257Y026759D02*
X055723Y026759D01*
X055569Y026605D02*
X055906Y026942D01*
X055906Y027418D01*
X055569Y027755D01*
X055093Y027755D01*
X054756Y027418D01*
X054756Y026942D01*
X055093Y026605D01*
X055569Y026605D01*
X055882Y026918D02*
X057117Y026918D01*
X057051Y027076D02*
X055906Y027076D01*
X055906Y027235D02*
X057051Y027235D01*
X057096Y027393D02*
X055906Y027393D01*
X055773Y027552D02*
X057207Y027552D01*
X057831Y027180D02*
X057831Y016680D01*
X061831Y012680D01*
X060110Y013921D02*
X056671Y013921D01*
X056671Y014079D02*
X059951Y014079D01*
X059793Y014238D02*
X056671Y014238D01*
X056671Y014396D02*
X059634Y014396D01*
X059476Y014555D02*
X056671Y014555D01*
X056671Y014713D02*
X059317Y014713D01*
X059159Y014872D02*
X056671Y014872D01*
X056671Y015030D02*
X059000Y015030D01*
X058842Y015189D02*
X056671Y015189D01*
X056671Y015347D02*
X058683Y015347D01*
X058525Y015506D02*
X056671Y015506D01*
X056671Y015664D02*
X058366Y015664D01*
X058208Y015823D02*
X056671Y015823D01*
X056671Y015981D02*
X058049Y015981D01*
X057891Y016140D02*
X056671Y016140D01*
X056944Y016298D02*
X057732Y016298D01*
X057574Y016457D02*
X057061Y016457D01*
X057111Y016615D02*
X057491Y016615D01*
X057491Y016774D02*
X057111Y016774D01*
X057049Y016932D02*
X057491Y016932D01*
X058579Y017408D02*
X059065Y017408D01*
X059797Y017408D02*
X061123Y017408D01*
X060964Y017566D02*
X058171Y017566D01*
X058171Y017725D02*
X060806Y017725D01*
X060647Y017883D02*
X058171Y017883D01*
X058171Y018042D02*
X060520Y018042D01*
X060491Y018200D02*
X058171Y018200D01*
X058171Y018359D02*
X060491Y018359D01*
X060491Y018517D02*
X058171Y018517D01*
X058171Y018676D02*
X060491Y018676D01*
X060491Y018834D02*
X058171Y018834D01*
X058171Y018993D02*
X060491Y018993D01*
X060491Y019151D02*
X058171Y019151D01*
X058171Y019310D02*
X060491Y019310D01*
X060491Y019468D02*
X058171Y019468D01*
X058171Y019627D02*
X060491Y019627D01*
X060491Y019785D02*
X058171Y019785D01*
X058171Y019944D02*
X060491Y019944D01*
X060491Y020102D02*
X058171Y020102D01*
X058171Y020261D02*
X060491Y020261D01*
X060491Y020419D02*
X058171Y020419D01*
X058171Y020578D02*
X060491Y020578D01*
X060491Y020736D02*
X058171Y020736D01*
X058171Y020895D02*
X060491Y020895D01*
X060491Y021053D02*
X058171Y021053D01*
X058171Y021212D02*
X060491Y021212D01*
X060491Y021370D02*
X058171Y021370D01*
X058171Y021529D02*
X060491Y021529D01*
X060343Y021687D02*
X058171Y021687D01*
X058171Y021846D02*
X060185Y021846D01*
X060026Y022004D02*
X058171Y022004D01*
X058171Y022163D02*
X059868Y022163D01*
X059709Y022321D02*
X058171Y022321D01*
X058171Y022480D02*
X059551Y022480D01*
X059392Y022638D02*
X058171Y022638D01*
X058171Y022797D02*
X059234Y022797D01*
X059075Y022955D02*
X058171Y022955D01*
X058171Y023114D02*
X058917Y023114D01*
X058831Y023680D02*
X060831Y021680D01*
X060831Y018180D01*
X063331Y015680D01*
X063961Y015664D02*
X064991Y015664D01*
X064991Y015506D02*
X063941Y015506D01*
X063875Y015347D02*
X064991Y015347D01*
X064991Y015189D02*
X063730Y015189D01*
X062931Y015189D02*
X062303Y015189D01*
X062145Y015347D02*
X062787Y015347D01*
X062721Y015506D02*
X061986Y015506D01*
X061828Y015664D02*
X062701Y015664D01*
X062708Y015823D02*
X061669Y015823D01*
X061511Y015981D02*
X062549Y015981D01*
X062391Y016140D02*
X061352Y016140D01*
X061194Y016298D02*
X062232Y016298D01*
X062074Y016457D02*
X061035Y016457D01*
X060877Y016615D02*
X061915Y016615D01*
X061757Y016774D02*
X060751Y016774D01*
X060714Y016932D02*
X061598Y016932D01*
X061440Y017091D02*
X059951Y017091D01*
X059940Y017249D02*
X061281Y017249D01*
X062560Y016932D02*
X064991Y016932D01*
X064991Y016774D02*
X062718Y016774D01*
X062877Y016615D02*
X064991Y016615D01*
X064991Y016457D02*
X063035Y016457D01*
X063485Y016298D02*
X064991Y016298D01*
X064991Y016140D02*
X063762Y016140D01*
X063888Y015981D02*
X064991Y015981D01*
X064991Y015823D02*
X063954Y015823D01*
X065671Y015823D02*
X070708Y015823D01*
X070701Y015664D02*
X065671Y015664D01*
X065671Y015506D02*
X070721Y015506D01*
X070787Y015347D02*
X065671Y015347D01*
X065671Y015189D02*
X070931Y015189D01*
X070991Y015030D02*
X065671Y015030D01*
X065671Y014872D02*
X070991Y014872D01*
X070991Y014713D02*
X065671Y014713D01*
X065647Y014555D02*
X071015Y014555D01*
X071134Y014396D02*
X065528Y014396D01*
X064991Y015030D02*
X062462Y015030D01*
X065671Y015981D02*
X070774Y015981D01*
X070900Y016140D02*
X065671Y016140D01*
X065671Y016298D02*
X071177Y016298D01*
X071941Y015506D02*
X072221Y015506D01*
X072287Y015347D02*
X071875Y015347D01*
X071730Y015189D02*
X072431Y015189D01*
X072700Y015030D02*
X071671Y015030D01*
X073831Y015680D02*
X073831Y016680D01*
X074831Y016680D01*
X075831Y015680D01*
X075831Y011680D01*
X075331Y011180D01*
X075136Y010660D02*
X074762Y010660D01*
X074773Y010665D01*
X074846Y010738D01*
X074886Y010833D01*
X074886Y010840D01*
X075017Y010709D01*
X075136Y010660D01*
X074976Y010751D02*
X074852Y010751D01*
X074331Y011180D02*
X074331Y011680D01*
X073831Y012180D01*
X073831Y014180D01*
X074331Y014680D01*
X074331Y016180D01*
X074671Y015827D02*
X074746Y015902D01*
X074821Y016083D01*
X074821Y016209D01*
X075491Y015539D01*
X075491Y011821D01*
X075405Y011735D01*
X075221Y011735D01*
X075017Y011651D01*
X074886Y011520D01*
X074886Y011527D01*
X074846Y011622D01*
X074844Y011625D01*
X074941Y011625D01*
X075145Y011709D01*
X075301Y011866D01*
X075386Y012070D01*
X075386Y012290D01*
X075301Y012494D01*
X075145Y012651D01*
X074941Y012735D01*
X074721Y012735D01*
X074517Y012651D01*
X074360Y012494D01*
X074171Y012494D01*
X074171Y012336D02*
X074295Y012336D01*
X074276Y012290D02*
X074276Y012216D01*
X074171Y012321D01*
X074171Y013827D01*
X074246Y013902D01*
X074321Y014083D01*
X074321Y014189D01*
X074524Y014392D01*
X074619Y014487D01*
X074671Y014612D01*
X074671Y015827D01*
X074671Y015823D02*
X075208Y015823D01*
X075049Y015981D02*
X074779Y015981D01*
X074821Y016140D02*
X074891Y016140D01*
X074671Y015664D02*
X075366Y015664D01*
X075491Y015506D02*
X074671Y015506D01*
X074671Y015347D02*
X075491Y015347D01*
X075491Y015189D02*
X074671Y015189D01*
X074671Y015030D02*
X075491Y015030D01*
X075491Y014872D02*
X074671Y014872D01*
X074671Y014713D02*
X075491Y014713D01*
X075491Y014555D02*
X074647Y014555D01*
X074528Y014396D02*
X075491Y014396D01*
X075491Y014238D02*
X074369Y014238D01*
X074320Y014079D02*
X075491Y014079D01*
X075491Y013921D02*
X074254Y013921D01*
X074171Y013762D02*
X075491Y013762D01*
X075491Y013604D02*
X074171Y013604D01*
X074171Y013445D02*
X075491Y013445D01*
X075491Y013287D02*
X074171Y013287D01*
X074171Y013128D02*
X075491Y013128D01*
X075491Y012970D02*
X074171Y012970D01*
X074171Y012811D02*
X075491Y012811D01*
X075491Y012653D02*
X075140Y012653D01*
X075302Y012494D02*
X075491Y012494D01*
X075491Y012336D02*
X075367Y012336D01*
X075386Y012177D02*
X075491Y012177D01*
X075491Y012019D02*
X075365Y012019D01*
X075296Y011860D02*
X075491Y011860D01*
X075140Y011702D02*
X075126Y011702D01*
X074909Y011543D02*
X074879Y011543D01*
X075886Y011226D02*
X093972Y011226D01*
X094093Y011105D02*
X094569Y011105D01*
X094906Y011442D01*
X094906Y011918D01*
X094569Y012255D01*
X094093Y012255D01*
X093756Y011918D01*
X093756Y011442D01*
X094093Y011105D01*
X093813Y011385D02*
X076016Y011385D01*
X076142Y011543D02*
X093756Y011543D01*
X093756Y011702D02*
X086743Y011702D01*
X086688Y011646D02*
X086865Y011823D01*
X086961Y012055D01*
X086961Y012305D01*
X086954Y012322D01*
X087524Y012892D01*
X087619Y012987D01*
X087671Y013112D01*
X087671Y016359D01*
X088383Y015647D01*
X088265Y015528D01*
X088131Y015205D01*
X088131Y014855D01*
X088265Y014532D01*
X088512Y014284D01*
X088836Y014150D01*
X090426Y014150D01*
X090749Y014284D01*
X090997Y014532D01*
X091131Y014855D01*
X091131Y015205D01*
X090997Y015528D01*
X090749Y015776D01*
X090426Y015910D01*
X089082Y015910D01*
X088171Y016821D01*
X088171Y019058D01*
X088265Y018832D01*
X088512Y018584D01*
X088836Y018450D01*
X090426Y018450D01*
X090749Y018584D01*
X090997Y018832D01*
X091131Y019155D01*
X091131Y019340D01*
X095899Y019340D01*
X095991Y019378D01*
X095991Y018691D01*
X095688Y018610D01*
X095338Y018408D01*
X095053Y018123D01*
X094851Y017772D01*
X094746Y017382D01*
X094746Y016978D01*
X094851Y016588D01*
X095053Y016237D01*
X095338Y015952D01*
X095688Y015750D01*
X095991Y015669D01*
X095991Y014033D01*
X095916Y013958D01*
X095841Y013777D01*
X095841Y013583D01*
X095916Y013402D01*
X096053Y013265D01*
X096234Y013190D01*
X096428Y013190D01*
X096609Y013265D01*
X096746Y013402D01*
X096821Y013583D01*
X096821Y013777D01*
X096746Y013958D01*
X096671Y014033D01*
X096671Y015695D01*
X096873Y015750D01*
X097223Y015952D01*
X097491Y016219D01*
X097491Y013321D01*
X096425Y012255D01*
X096093Y012255D01*
X095756Y011918D01*
X095756Y011442D01*
X096093Y011105D01*
X096569Y011105D01*
X096906Y011442D01*
X096906Y011774D01*
X098024Y012892D01*
X098119Y012987D01*
X098171Y013112D01*
X098171Y022539D01*
X098689Y023057D01*
X098706Y023050D01*
X098956Y023050D01*
X099188Y023146D01*
X099365Y023323D01*
X099461Y023555D01*
X099461Y023805D01*
X099365Y024037D01*
X099188Y024214D01*
X098956Y024310D01*
X098706Y024310D01*
X098474Y024214D01*
X098297Y024037D01*
X098201Y023805D01*
X098201Y023555D01*
X098208Y023538D01*
X097543Y022873D01*
X097491Y022748D01*
X097491Y018141D01*
X097223Y018408D01*
X096873Y018610D01*
X096671Y018665D01*
X096671Y021827D01*
X096746Y021902D01*
X096821Y022083D01*
X096821Y022277D01*
X096746Y022458D01*
X096609Y022595D01*
X096428Y022670D01*
X096302Y022670D01*
X096689Y023057D01*
X096706Y023050D01*
X096956Y023050D01*
X097188Y023146D01*
X097365Y023323D01*
X097461Y023555D01*
X097461Y023805D01*
X097365Y024037D01*
X097188Y024214D01*
X096956Y024310D01*
X096706Y024310D01*
X096474Y024214D01*
X096297Y024037D01*
X096201Y023805D01*
X096201Y023555D01*
X096208Y023538D01*
X095543Y022873D01*
X095491Y022748D01*
X095491Y020020D01*
X090805Y020020D01*
X090749Y020076D01*
X090426Y020210D01*
X088836Y020210D01*
X088512Y020076D01*
X088265Y019828D01*
X088171Y019602D01*
X088171Y022539D01*
X088689Y023057D01*
X088706Y023050D01*
X088956Y023050D01*
X089188Y023146D01*
X089365Y023323D01*
X089461Y023555D01*
X089461Y023805D01*
X089365Y024037D01*
X089188Y024214D01*
X088956Y024310D01*
X088706Y024310D01*
X088474Y024214D01*
X088297Y024037D01*
X088201Y023805D01*
X088201Y023555D01*
X088208Y023538D01*
X087671Y023001D01*
X087671Y025539D01*
X088689Y026557D01*
X088706Y026550D01*
X088956Y026550D01*
X089188Y026646D01*
X089365Y026823D01*
X089461Y027055D01*
X089461Y027305D01*
X089365Y027537D01*
X089188Y027714D01*
X088956Y027810D01*
X088706Y027810D01*
X088474Y027714D01*
X088297Y027537D01*
X088201Y027305D01*
X088201Y027055D01*
X088208Y027038D01*
X087043Y025873D01*
X086991Y025748D01*
X086991Y024041D01*
X086923Y024069D01*
X086619Y024373D01*
X086524Y024468D01*
X086399Y024520D01*
X084763Y024520D01*
X084638Y024468D01*
X084543Y024373D01*
X084491Y024248D01*
X084491Y023904D01*
X084431Y023844D01*
X084341Y023627D01*
X084341Y022733D01*
X084431Y022516D01*
X084491Y022456D01*
X084491Y019821D01*
X084138Y019468D01*
X078671Y019468D01*
X078671Y019310D02*
X084017Y019310D01*
X083991Y019248D02*
X084043Y019373D01*
X084138Y019468D01*
X084297Y019627D02*
X078671Y019627D01*
X078671Y019785D02*
X084455Y019785D01*
X084491Y019944D02*
X078671Y019944D01*
X078671Y020102D02*
X084491Y020102D01*
X084491Y020261D02*
X078671Y020261D01*
X078671Y020419D02*
X084491Y020419D01*
X084491Y020578D02*
X078671Y020578D01*
X078671Y020736D02*
X081122Y020736D01*
X081053Y020765D02*
X081234Y020690D01*
X081428Y020690D01*
X081609Y020765D01*
X081746Y020902D01*
X081821Y021083D01*
X081821Y021277D01*
X081746Y021458D01*
X081671Y021533D01*
X081671Y022195D01*
X081873Y022250D01*
X082223Y022452D01*
X082509Y022737D01*
X082711Y023088D01*
X082816Y023478D01*
X082816Y023882D01*
X082711Y024272D01*
X082509Y024623D01*
X082223Y024908D01*
X081873Y025110D01*
X081483Y025215D01*
X081079Y025215D01*
X080688Y025110D01*
X080338Y024908D01*
X080053Y024623D01*
X079851Y024272D01*
X079746Y023882D01*
X079746Y023478D01*
X079851Y023088D01*
X080053Y022737D01*
X080338Y022452D01*
X080688Y022250D01*
X080991Y022169D01*
X080991Y021533D01*
X080916Y021458D01*
X080841Y021277D01*
X080841Y021083D01*
X080916Y020902D01*
X081053Y020765D01*
X080923Y020895D02*
X078738Y020895D01*
X078746Y020902D02*
X078821Y021083D01*
X078821Y021277D01*
X078746Y021458D01*
X078609Y021595D01*
X078428Y021670D01*
X078234Y021670D01*
X078053Y021595D01*
X077916Y021458D01*
X077841Y021277D01*
X077841Y021083D01*
X077916Y020902D01*
X077991Y020827D01*
X077991Y012721D01*
X077974Y012714D01*
X077797Y012537D01*
X077701Y012305D01*
X077701Y012055D01*
X077797Y011823D01*
X077974Y011646D01*
X078206Y011550D01*
X078456Y011550D01*
X078688Y011646D01*
X078865Y011823D01*
X078961Y012055D01*
X078961Y012305D01*
X078865Y012537D01*
X078688Y012714D01*
X078671Y012721D01*
X078671Y020827D01*
X078746Y020902D01*
X078809Y021053D02*
X080853Y021053D01*
X080841Y021212D02*
X078821Y021212D01*
X078783Y021370D02*
X080879Y021370D01*
X080987Y021529D02*
X078675Y021529D01*
X078331Y021180D02*
X078331Y012180D01*
X078961Y012177D02*
X085701Y012177D01*
X085701Y012055D02*
X085797Y011823D01*
X085974Y011646D01*
X086206Y011550D01*
X086456Y011550D01*
X086688Y011646D01*
X086880Y011860D02*
X093756Y011860D01*
X093856Y012019D02*
X086946Y012019D01*
X086961Y012177D02*
X094015Y012177D01*
X094647Y012177D02*
X096015Y012177D01*
X095856Y012019D02*
X094806Y012019D01*
X094906Y011860D02*
X095756Y011860D01*
X095756Y011702D02*
X094906Y011702D01*
X094906Y011543D02*
X095756Y011543D01*
X095813Y011385D02*
X094849Y011385D01*
X094690Y011226D02*
X095972Y011226D01*
X096331Y011680D02*
X097831Y013180D01*
X097831Y022680D01*
X098831Y023680D01*
X099410Y023431D02*
X101600Y023431D01*
X101441Y023589D02*
X099461Y023589D01*
X099461Y023748D02*
X101283Y023748D01*
X101124Y023906D02*
X099419Y023906D01*
X099337Y024065D02*
X100966Y024065D01*
X100807Y024223D02*
X099166Y024223D01*
X098496Y024223D02*
X097166Y024223D01*
X097337Y024065D02*
X098325Y024065D01*
X098243Y023906D02*
X097419Y023906D01*
X097461Y023748D02*
X098201Y023748D01*
X098201Y023589D02*
X097461Y023589D01*
X097410Y023431D02*
X098101Y023431D01*
X097942Y023272D02*
X097314Y023272D01*
X097110Y023114D02*
X097784Y023114D01*
X097625Y022955D02*
X096587Y022955D01*
X096428Y022797D02*
X097511Y022797D01*
X097491Y022638D02*
X096506Y022638D01*
X096724Y022480D02*
X097491Y022480D01*
X097491Y022321D02*
X096803Y022321D01*
X096821Y022163D02*
X097491Y022163D01*
X097491Y022004D02*
X096788Y022004D01*
X096689Y021846D02*
X097491Y021846D01*
X097491Y021687D02*
X096671Y021687D01*
X096671Y021529D02*
X097491Y021529D01*
X097491Y021370D02*
X096671Y021370D01*
X096671Y021212D02*
X097491Y021212D01*
X097491Y021053D02*
X096671Y021053D01*
X096671Y020895D02*
X097491Y020895D01*
X097491Y020736D02*
X096671Y020736D01*
X096671Y020578D02*
X097491Y020578D01*
X097491Y020419D02*
X096671Y020419D01*
X096671Y020261D02*
X097491Y020261D01*
X097491Y020102D02*
X096671Y020102D01*
X096671Y019944D02*
X097491Y019944D01*
X097491Y019785D02*
X096671Y019785D01*
X096671Y019627D02*
X097491Y019627D01*
X097491Y019468D02*
X096671Y019468D01*
X096671Y019310D02*
X097491Y019310D01*
X097491Y019151D02*
X096671Y019151D01*
X096671Y018993D02*
X097491Y018993D01*
X097491Y018834D02*
X096671Y018834D01*
X096671Y018676D02*
X097491Y018676D01*
X097491Y018517D02*
X097035Y018517D01*
X097273Y018359D02*
X097491Y018359D01*
X097491Y018200D02*
X097432Y018200D01*
X098171Y018200D02*
X098201Y018200D01*
X098201Y018305D02*
X098201Y018055D01*
X098297Y017823D01*
X098474Y017646D01*
X098706Y017550D01*
X098956Y017550D01*
X099188Y017646D01*
X099365Y017823D01*
X099461Y018055D01*
X099461Y018305D01*
X099365Y018537D01*
X099188Y018714D01*
X099171Y018721D01*
X099171Y020139D01*
X099188Y020146D01*
X099365Y020323D01*
X099461Y020555D01*
X099461Y020805D01*
X099365Y021037D01*
X099188Y021214D01*
X098956Y021310D01*
X098706Y021310D01*
X098474Y021214D01*
X098297Y021037D01*
X098201Y020805D01*
X098201Y020555D01*
X098297Y020323D01*
X098474Y020146D01*
X098491Y020139D01*
X098491Y018721D01*
X098474Y018714D01*
X098297Y018537D01*
X098201Y018305D01*
X098223Y018359D02*
X098171Y018359D01*
X098171Y018517D02*
X098289Y018517D01*
X098171Y018676D02*
X098436Y018676D01*
X098491Y018834D02*
X098171Y018834D01*
X098171Y018993D02*
X098491Y018993D01*
X098491Y019151D02*
X098171Y019151D01*
X098171Y019310D02*
X098491Y019310D01*
X098491Y019468D02*
X098171Y019468D01*
X098171Y019627D02*
X098491Y019627D01*
X098491Y019785D02*
X098171Y019785D01*
X098171Y019944D02*
X098491Y019944D01*
X098491Y020102D02*
X098171Y020102D01*
X098171Y020261D02*
X098359Y020261D01*
X098257Y020419D02*
X098171Y020419D01*
X098171Y020578D02*
X098201Y020578D01*
X098201Y020736D02*
X098171Y020736D01*
X098171Y020895D02*
X098238Y020895D01*
X098171Y021053D02*
X098313Y021053D01*
X098171Y021212D02*
X098472Y021212D01*
X098171Y021370D02*
X103660Y021370D01*
X103502Y021529D02*
X098171Y021529D01*
X098171Y021687D02*
X103343Y021687D01*
X103185Y021846D02*
X098171Y021846D01*
X098171Y022004D02*
X103026Y022004D01*
X102868Y022163D02*
X098171Y022163D01*
X098171Y022321D02*
X102709Y022321D01*
X102551Y022480D02*
X098171Y022480D01*
X098270Y022638D02*
X102392Y022638D01*
X102234Y022797D02*
X098428Y022797D01*
X098587Y022955D02*
X102075Y022955D01*
X101917Y023114D02*
X099110Y023114D01*
X099314Y023272D02*
X101758Y023272D01*
X102403Y023589D02*
X106201Y023589D01*
X106201Y023555D02*
X106297Y023323D01*
X106474Y023146D01*
X106491Y023139D01*
X106491Y021221D01*
X106474Y021214D01*
X106297Y021037D01*
X106201Y020805D01*
X106201Y020555D01*
X106297Y020323D01*
X106474Y020146D01*
X106491Y020139D01*
X106491Y019501D01*
X098954Y027038D01*
X098961Y027055D01*
X098961Y027305D01*
X098865Y027537D01*
X098688Y027714D01*
X098456Y027810D01*
X098206Y027810D01*
X097974Y027714D01*
X097797Y027537D01*
X097701Y027305D01*
X097701Y027055D01*
X097797Y026823D01*
X097974Y026646D01*
X098206Y026550D01*
X098456Y026550D01*
X098473Y026557D01*
X106395Y018635D01*
X106297Y018537D01*
X106201Y018305D01*
X106201Y018055D01*
X106297Y017823D01*
X106474Y017646D01*
X106491Y017639D01*
X106491Y015721D01*
X106474Y015714D01*
X106297Y015537D01*
X106201Y015305D01*
X106201Y015055D01*
X106297Y014823D01*
X106474Y014646D01*
X106706Y014550D01*
X106956Y014550D01*
X107188Y014646D01*
X107365Y014823D01*
X107461Y015055D01*
X107461Y015305D01*
X107365Y015537D01*
X107188Y015714D01*
X107171Y015721D01*
X107171Y017639D01*
X107188Y017646D01*
X107365Y017823D01*
X107461Y018055D01*
X107461Y018305D01*
X107365Y018537D01*
X107188Y018714D01*
X107171Y018721D01*
X107171Y020139D01*
X107188Y020146D01*
X107365Y020323D01*
X107461Y020555D01*
X107461Y020805D01*
X107365Y021037D01*
X107188Y021214D01*
X107171Y021221D01*
X107171Y023139D01*
X107188Y023146D01*
X107365Y023323D01*
X107461Y023555D01*
X107461Y023805D01*
X107365Y024037D01*
X107188Y024214D01*
X106956Y024310D01*
X106706Y024310D01*
X106474Y024214D01*
X106297Y024037D01*
X106201Y023805D01*
X106201Y023555D01*
X106252Y023431D02*
X102561Y023431D01*
X102720Y023272D02*
X106348Y023272D01*
X106491Y023114D02*
X102878Y023114D01*
X103037Y022955D02*
X106491Y022955D01*
X106491Y022797D02*
X103195Y022797D01*
X103354Y022638D02*
X106491Y022638D01*
X106491Y022480D02*
X103512Y022480D01*
X103671Y022321D02*
X106491Y022321D01*
X106491Y022163D02*
X103829Y022163D01*
X103988Y022004D02*
X106491Y022004D01*
X106491Y021846D02*
X104146Y021846D01*
X104305Y021687D02*
X106491Y021687D01*
X106491Y021529D02*
X104463Y021529D01*
X104622Y021370D02*
X106491Y021370D01*
X106472Y021212D02*
X104780Y021212D01*
X104939Y021053D02*
X106313Y021053D01*
X106238Y020895D02*
X105097Y020895D01*
X105256Y020736D02*
X106201Y020736D01*
X106201Y020578D02*
X105414Y020578D01*
X105573Y020419D02*
X106257Y020419D01*
X106359Y020261D02*
X105731Y020261D01*
X105890Y020102D02*
X106491Y020102D01*
X106491Y019944D02*
X106048Y019944D01*
X106207Y019785D02*
X106491Y019785D01*
X106491Y019627D02*
X106365Y019627D01*
X105721Y019310D02*
X099171Y019310D01*
X099171Y019468D02*
X105562Y019468D01*
X105404Y019627D02*
X099171Y019627D01*
X099171Y019785D02*
X105245Y019785D01*
X105087Y019944D02*
X099171Y019944D01*
X099171Y020102D02*
X104928Y020102D01*
X104770Y020261D02*
X099302Y020261D01*
X099405Y020419D02*
X104611Y020419D01*
X104453Y020578D02*
X099461Y020578D01*
X099461Y020736D02*
X104294Y020736D01*
X104136Y020895D02*
X099424Y020895D01*
X099349Y021053D02*
X103977Y021053D01*
X103819Y021212D02*
X099190Y021212D01*
X098831Y020680D02*
X098831Y018180D01*
X099266Y017725D02*
X106395Y017725D01*
X106491Y017566D02*
X098995Y017566D01*
X098667Y017566D02*
X098171Y017566D01*
X098171Y017408D02*
X106491Y017408D01*
X106491Y017249D02*
X098171Y017249D01*
X098171Y017091D02*
X106491Y017091D01*
X106491Y016932D02*
X098171Y016932D01*
X098171Y016774D02*
X106491Y016774D01*
X106491Y016615D02*
X098171Y016615D01*
X098171Y016457D02*
X106491Y016457D01*
X106491Y016298D02*
X098171Y016298D01*
X098171Y016140D02*
X106491Y016140D01*
X106491Y015981D02*
X098171Y015981D01*
X098171Y015823D02*
X106491Y015823D01*
X106424Y015664D02*
X099238Y015664D01*
X099188Y015714D02*
X098956Y015810D01*
X098706Y015810D01*
X098474Y015714D01*
X098297Y015537D01*
X098201Y015305D01*
X098201Y015055D01*
X098297Y014823D01*
X098474Y014646D01*
X098706Y014550D01*
X098956Y014550D01*
X099188Y014646D01*
X099365Y014823D01*
X099461Y015055D01*
X099461Y015305D01*
X099365Y015537D01*
X099188Y015714D01*
X099378Y015506D02*
X106284Y015506D01*
X106218Y015347D02*
X099444Y015347D01*
X099461Y015189D02*
X106201Y015189D01*
X106211Y015030D02*
X099451Y015030D01*
X099385Y014872D02*
X106277Y014872D01*
X106407Y014713D02*
X099255Y014713D01*
X098967Y014555D02*
X106695Y014555D01*
X106967Y014555D02*
X115491Y014555D01*
X115491Y014713D02*
X107255Y014713D01*
X107385Y014872D02*
X115491Y014872D01*
X115491Y015030D02*
X107451Y015030D01*
X107461Y015189D02*
X115491Y015189D01*
X115491Y015347D02*
X107444Y015347D01*
X107378Y015506D02*
X115491Y015506D01*
X115491Y015664D02*
X113349Y015664D01*
X113448Y015705D02*
X113606Y015863D01*
X113691Y016069D01*
X113691Y016291D01*
X113606Y016497D01*
X113448Y016655D01*
X113387Y016680D01*
X113448Y016705D01*
X113606Y016863D01*
X113691Y017069D01*
X113691Y017291D01*
X113606Y017497D01*
X113448Y017655D01*
X113242Y017740D01*
X113217Y017740D01*
X113293Y018683D01*
X113304Y018739D01*
X113459Y018584D01*
X113694Y018487D01*
X113949Y018487D01*
X114184Y018584D01*
X114364Y018764D01*
X114367Y018770D01*
X114391Y018708D01*
X114418Y018568D01*
X114422Y018514D01*
X114425Y018506D01*
X114427Y018497D01*
X114456Y018446D01*
X114482Y018393D01*
X114489Y018387D01*
X114493Y018379D01*
X114539Y018343D01*
X114584Y018304D01*
X114592Y018301D01*
X114599Y018296D01*
X114656Y018280D01*
X114712Y018261D01*
X114721Y018262D01*
X114730Y018259D01*
X114788Y018266D01*
X115491Y018315D01*
X115491Y012520D01*
X113583Y012520D01*
X113448Y012655D01*
X113387Y012680D01*
X113448Y012705D01*
X113606Y012863D01*
X113691Y013069D01*
X113691Y013291D01*
X113606Y013497D01*
X113448Y013655D01*
X113242Y013740D01*
X112420Y013740D01*
X112214Y013655D01*
X112056Y013497D01*
X111971Y013291D01*
X111971Y013069D01*
X112056Y012863D01*
X112214Y012705D01*
X112275Y012680D01*
X112214Y012655D01*
X112056Y012497D01*
X111971Y012291D01*
X111971Y012069D01*
X112056Y011863D01*
X112214Y011705D01*
X112420Y011620D01*
X113242Y011620D01*
X113448Y011705D01*
X113583Y011840D01*
X115899Y011840D01*
X116024Y011892D01*
X116119Y011987D01*
X116171Y012112D01*
X116171Y018625D01*
X116175Y018636D01*
X116171Y018692D01*
X116171Y018878D01*
X116176Y018892D01*
X116171Y018945D01*
X116171Y018998D01*
X116165Y019012D01*
X116137Y019336D01*
X116293Y019492D01*
X116391Y019728D01*
X116391Y019982D01*
X116293Y020218D01*
X116113Y020398D01*
X115878Y020495D01*
X115624Y020495D01*
X115388Y020398D01*
X115332Y020342D01*
X115212Y020462D01*
X114948Y020571D01*
X114664Y020571D01*
X114462Y020488D01*
X114462Y020711D01*
X114364Y020946D01*
X114184Y021126D01*
X113949Y021223D01*
X113694Y021223D01*
X113459Y021126D01*
X113279Y020946D01*
X113182Y020711D01*
X113182Y020487D01*
X113162Y020495D01*
X112907Y020495D01*
X112672Y020398D01*
X112492Y020218D01*
X112394Y019982D01*
X112394Y019728D01*
X112492Y019492D01*
X112672Y019312D01*
X112692Y019304D01*
X112691Y019139D01*
X112632Y018843D01*
X112623Y018825D01*
X112619Y018777D01*
X112609Y018730D01*
X112613Y018710D01*
X112535Y017740D01*
X112420Y017740D01*
X112214Y017655D01*
X112056Y017497D01*
X111971Y017291D01*
X111971Y017069D01*
X112056Y016863D01*
X112214Y016705D01*
X112275Y016680D01*
X112214Y016655D01*
X112056Y016497D01*
X111971Y016291D01*
X111971Y016069D01*
X112056Y015863D01*
X112214Y015705D01*
X112420Y015620D01*
X113242Y015620D01*
X113448Y015705D01*
X113565Y015823D02*
X115491Y015823D01*
X115491Y015981D02*
X113655Y015981D01*
X113691Y016140D02*
X115491Y016140D01*
X115491Y016298D02*
X113688Y016298D01*
X113623Y016457D02*
X115491Y016457D01*
X115491Y016615D02*
X113488Y016615D01*
X113516Y016774D02*
X115491Y016774D01*
X115491Y016932D02*
X113634Y016932D01*
X113691Y017091D02*
X115491Y017091D01*
X115491Y017249D02*
X113691Y017249D01*
X113643Y017408D02*
X115491Y017408D01*
X115491Y017566D02*
X113537Y017566D01*
X113280Y017725D02*
X115491Y017725D01*
X115491Y017883D02*
X113229Y017883D01*
X113242Y018042D02*
X115491Y018042D01*
X115491Y018200D02*
X113254Y018200D01*
X113267Y018359D02*
X114519Y018359D01*
X114421Y018517D02*
X114022Y018517D01*
X114276Y018676D02*
X114398Y018676D01*
X114756Y018605D02*
X115831Y018680D01*
X115831Y012180D01*
X112831Y012180D01*
X113439Y011702D02*
X116843Y011702D01*
X116843Y011860D02*
X115947Y011860D01*
X116132Y012019D02*
X116843Y012019D01*
X116843Y012177D02*
X116171Y012177D01*
X116171Y012336D02*
X116843Y012336D01*
X116843Y012494D02*
X116171Y012494D01*
X116171Y012653D02*
X116843Y012653D01*
X116843Y012811D02*
X116171Y012811D01*
X116171Y012970D02*
X116843Y012970D01*
X116843Y013128D02*
X116171Y013128D01*
X116171Y013287D02*
X116843Y013287D01*
X116843Y013445D02*
X116171Y013445D01*
X116171Y013604D02*
X116843Y013604D01*
X116843Y013762D02*
X116171Y013762D01*
X116171Y013921D02*
X116843Y013921D01*
X116843Y014079D02*
X116171Y014079D01*
X116171Y014238D02*
X116843Y014238D01*
X116843Y014396D02*
X116171Y014396D01*
X116171Y014555D02*
X116843Y014555D01*
X116843Y014713D02*
X116171Y014713D01*
X116171Y014872D02*
X116843Y014872D01*
X116843Y015030D02*
X116171Y015030D01*
X116171Y015189D02*
X116843Y015189D01*
X116843Y015347D02*
X116171Y015347D01*
X116171Y015506D02*
X116843Y015506D01*
X116843Y015664D02*
X116171Y015664D01*
X116171Y015823D02*
X116843Y015823D01*
X116843Y015981D02*
X116171Y015981D01*
X116171Y016140D02*
X116843Y016140D01*
X116843Y016298D02*
X116171Y016298D01*
X116171Y016457D02*
X116843Y016457D01*
X116843Y016615D02*
X116171Y016615D01*
X116171Y016774D02*
X116843Y016774D01*
X116843Y016932D02*
X116171Y016932D01*
X116171Y017091D02*
X116843Y017091D01*
X116843Y017249D02*
X116171Y017249D01*
X116171Y017408D02*
X116843Y017408D01*
X116843Y017566D02*
X116171Y017566D01*
X116171Y017725D02*
X116843Y017725D01*
X116843Y017883D02*
X116171Y017883D01*
X116171Y018042D02*
X116843Y018042D01*
X116843Y018200D02*
X116171Y018200D01*
X116171Y018359D02*
X116843Y018359D01*
X116843Y018517D02*
X116171Y018517D01*
X116172Y018676D02*
X116843Y018676D01*
X116843Y018834D02*
X116171Y018834D01*
X116171Y018993D02*
X116843Y018993D01*
X116843Y019151D02*
X116153Y019151D01*
X116139Y019310D02*
X116843Y019310D01*
X116843Y019468D02*
X116269Y019468D01*
X116349Y019627D02*
X116843Y019627D01*
X116843Y019785D02*
X116391Y019785D01*
X116391Y019944D02*
X116843Y019944D01*
X116843Y020102D02*
X116341Y020102D01*
X116250Y020261D02*
X116843Y020261D01*
X116843Y020419D02*
X116062Y020419D01*
X115440Y020419D02*
X115255Y020419D01*
X114462Y020578D02*
X116843Y020578D01*
X116843Y020736D02*
X114451Y020736D01*
X114386Y020895D02*
X116843Y020895D01*
X116843Y021053D02*
X114257Y021053D01*
X113978Y021212D02*
X116843Y021212D01*
X116843Y021370D02*
X113609Y021370D01*
X113606Y021363D02*
X113691Y021569D01*
X113691Y021791D01*
X113606Y021997D01*
X113448Y022155D01*
X113387Y022180D01*
X113448Y022205D01*
X113606Y022363D01*
X113691Y022569D01*
X113691Y022791D01*
X113606Y022997D01*
X113448Y023155D01*
X113387Y023180D01*
X113448Y023205D01*
X113606Y023363D01*
X113691Y023569D01*
X113691Y023791D01*
X113613Y023981D01*
X116024Y026392D01*
X116102Y026470D01*
X116333Y026470D01*
X116428Y026510D01*
X116501Y026583D01*
X116541Y026678D01*
X116541Y027682D01*
X116501Y027777D01*
X116428Y027850D01*
X116333Y027890D01*
X115329Y027890D01*
X115234Y027850D01*
X115161Y027777D01*
X115121Y027682D01*
X115121Y026678D01*
X115161Y026583D01*
X115207Y026537D01*
X112910Y024240D01*
X112420Y024240D01*
X112214Y024155D01*
X112056Y023997D01*
X111971Y023791D01*
X111971Y023569D01*
X112056Y023363D01*
X112214Y023205D01*
X112275Y023180D01*
X112214Y023155D01*
X112056Y022997D01*
X111971Y022791D01*
X111971Y022569D01*
X112056Y022363D01*
X112214Y022205D01*
X112275Y022180D01*
X112214Y022155D01*
X112056Y021997D01*
X111971Y021791D01*
X111971Y021569D01*
X112056Y021363D01*
X112214Y021205D01*
X112420Y021120D01*
X113242Y021120D01*
X113448Y021205D01*
X113606Y021363D01*
X113666Y021212D02*
X113454Y021212D01*
X113386Y021053D02*
X107349Y021053D01*
X107424Y020895D02*
X113258Y020895D01*
X113192Y020736D02*
X107461Y020736D01*
X107461Y020578D02*
X113182Y020578D01*
X112724Y020419D02*
X107405Y020419D01*
X107302Y020261D02*
X112535Y020261D01*
X112444Y020102D02*
X107171Y020102D01*
X107171Y019944D02*
X112394Y019944D01*
X112394Y019785D02*
X107171Y019785D01*
X107171Y019627D02*
X112436Y019627D01*
X112516Y019468D02*
X107171Y019468D01*
X107171Y019310D02*
X112679Y019310D01*
X112691Y019151D02*
X107171Y019151D01*
X107171Y018993D02*
X112662Y018993D01*
X112627Y018834D02*
X107171Y018834D01*
X107226Y018676D02*
X112610Y018676D01*
X112598Y018517D02*
X107373Y018517D01*
X107439Y018359D02*
X112585Y018359D01*
X112572Y018200D02*
X107461Y018200D01*
X107456Y018042D02*
X112559Y018042D01*
X112547Y017883D02*
X107390Y017883D01*
X107266Y017725D02*
X112382Y017725D01*
X112125Y017566D02*
X107171Y017566D01*
X107171Y017408D02*
X112019Y017408D01*
X111971Y017249D02*
X107171Y017249D01*
X107171Y017091D02*
X111971Y017091D01*
X112028Y016932D02*
X107171Y016932D01*
X107171Y016774D02*
X112145Y016774D01*
X112174Y016615D02*
X107171Y016615D01*
X107171Y016457D02*
X112039Y016457D01*
X111974Y016298D02*
X107171Y016298D01*
X107171Y016140D02*
X111971Y016140D01*
X112007Y015981D02*
X107171Y015981D01*
X107171Y015823D02*
X112096Y015823D01*
X112313Y015664D02*
X107238Y015664D01*
X106831Y015180D02*
X106831Y018180D01*
X106831Y018680D01*
X098331Y027180D01*
X097758Y026918D02*
X097404Y026918D01*
X097365Y026823D02*
X097461Y027055D01*
X097461Y027305D01*
X097365Y027537D01*
X097188Y027714D01*
X096956Y027810D01*
X096706Y027810D01*
X096474Y027714D01*
X096297Y027537D01*
X096201Y027305D01*
X096201Y027055D01*
X096297Y026823D01*
X096474Y026646D01*
X096706Y026550D01*
X096956Y026550D01*
X097188Y026646D01*
X097365Y026823D01*
X097301Y026759D02*
X097861Y026759D01*
X098084Y026601D02*
X097078Y026601D01*
X096584Y026601D02*
X089078Y026601D01*
X089301Y026759D02*
X096361Y026759D01*
X096258Y026918D02*
X089404Y026918D01*
X089461Y027076D02*
X096201Y027076D01*
X096201Y027235D02*
X089461Y027235D01*
X089425Y027393D02*
X096237Y027393D01*
X096312Y027552D02*
X089350Y027552D01*
X089192Y027710D02*
X096470Y027710D01*
X097192Y027710D02*
X097970Y027710D01*
X097812Y027552D02*
X097350Y027552D01*
X097425Y027393D02*
X097737Y027393D01*
X097701Y027235D02*
X097461Y027235D01*
X097461Y027076D02*
X097701Y027076D01*
X098961Y027076D02*
X105701Y027076D01*
X105701Y027055D02*
X105797Y026823D01*
X105974Y026646D01*
X106206Y026550D01*
X106456Y026550D01*
X106688Y026646D01*
X106865Y026823D01*
X106961Y027055D01*
X106961Y027305D01*
X106865Y027537D01*
X106688Y027714D01*
X106456Y027810D01*
X106206Y027810D01*
X105974Y027714D01*
X105797Y027537D01*
X105701Y027305D01*
X105701Y027055D01*
X105758Y026918D02*
X099074Y026918D01*
X099233Y026759D02*
X105861Y026759D01*
X106084Y026601D02*
X099391Y026601D01*
X099550Y026442D02*
X109491Y026442D01*
X109491Y026470D02*
X109491Y022533D01*
X109416Y022458D01*
X109341Y022277D01*
X109341Y022083D01*
X109416Y021902D01*
X109553Y021765D01*
X109734Y021690D01*
X109928Y021690D01*
X110109Y021765D01*
X110246Y021902D01*
X110321Y022083D01*
X110321Y022277D01*
X110246Y022458D01*
X110171Y022533D01*
X110171Y026470D01*
X110333Y026470D01*
X110428Y026510D01*
X110501Y026583D01*
X110541Y026678D01*
X110541Y027682D01*
X110501Y027777D01*
X110428Y027850D01*
X110333Y027890D01*
X109329Y027890D01*
X109234Y027850D01*
X109161Y027777D01*
X109121Y027682D01*
X109121Y026678D01*
X109161Y026583D01*
X109234Y026510D01*
X109329Y026470D01*
X109491Y026470D01*
X109491Y026284D02*
X099708Y026284D01*
X099867Y026125D02*
X109491Y026125D01*
X109491Y025967D02*
X100025Y025967D01*
X100184Y025808D02*
X109491Y025808D01*
X109491Y025650D02*
X100342Y025650D01*
X100501Y025491D02*
X109491Y025491D01*
X109491Y025333D02*
X100659Y025333D01*
X100818Y025174D02*
X109491Y025174D01*
X109491Y025016D02*
X100976Y025016D01*
X101135Y024857D02*
X109491Y024857D01*
X109491Y024699D02*
X101293Y024699D01*
X101452Y024540D02*
X109491Y024540D01*
X109491Y024382D02*
X101610Y024382D01*
X101769Y024223D02*
X106496Y024223D01*
X106325Y024065D02*
X101927Y024065D01*
X102086Y023906D02*
X106243Y023906D01*
X106201Y023748D02*
X102244Y023748D01*
X100649Y024382D02*
X087671Y024382D01*
X087671Y024540D02*
X100490Y024540D01*
X100332Y024699D02*
X087671Y024699D01*
X087671Y024857D02*
X100173Y024857D01*
X100015Y025016D02*
X087671Y025016D01*
X087671Y025174D02*
X099856Y025174D01*
X099698Y025333D02*
X087671Y025333D01*
X087671Y025491D02*
X099539Y025491D01*
X099381Y025650D02*
X087781Y025650D01*
X087940Y025808D02*
X099222Y025808D01*
X099064Y025967D02*
X088098Y025967D01*
X088257Y026125D02*
X098905Y026125D01*
X098747Y026284D02*
X088415Y026284D01*
X088574Y026442D02*
X098588Y026442D01*
X098961Y027235D02*
X105701Y027235D01*
X105737Y027393D02*
X098925Y027393D01*
X098850Y027552D02*
X105812Y027552D01*
X105970Y027710D02*
X098692Y027710D01*
X106578Y026601D02*
X109153Y026601D01*
X109121Y026759D02*
X106801Y026759D01*
X106904Y026918D02*
X109121Y026918D01*
X109121Y027076D02*
X106961Y027076D01*
X106961Y027235D02*
X109121Y027235D01*
X109121Y027393D02*
X106925Y027393D01*
X106850Y027552D02*
X109121Y027552D01*
X109133Y027710D02*
X106692Y027710D01*
X109277Y027869D02*
X086738Y027869D01*
X086735Y027874D02*
X086525Y028084D01*
X086267Y028233D01*
X085980Y028310D01*
X085682Y028310D01*
X085395Y028233D01*
X085137Y028084D01*
X084927Y027874D01*
X084778Y027616D01*
X084701Y027329D01*
X084701Y027031D01*
X084778Y026744D01*
X084927Y026486D01*
X085137Y026276D01*
X085395Y026127D01*
X085682Y026050D01*
X085980Y026050D01*
X086267Y026127D01*
X086525Y026276D01*
X086735Y026486D01*
X086884Y026744D01*
X086961Y027031D01*
X086961Y027329D01*
X086884Y027616D01*
X086735Y027874D01*
X086830Y027710D02*
X088470Y027710D01*
X088312Y027552D02*
X086901Y027552D01*
X086944Y027393D02*
X088237Y027393D01*
X088201Y027235D02*
X086961Y027235D01*
X086961Y027076D02*
X088201Y027076D01*
X088088Y026918D02*
X086931Y026918D01*
X086888Y026759D02*
X087929Y026759D01*
X087771Y026601D02*
X086801Y026601D01*
X086691Y026442D02*
X087612Y026442D01*
X087454Y026284D02*
X086533Y026284D01*
X086260Y026125D02*
X087295Y026125D01*
X087137Y025967D02*
X076131Y025967D01*
X076131Y025808D02*
X087016Y025808D01*
X086991Y025650D02*
X076129Y025650D01*
X076063Y025491D02*
X086991Y025491D01*
X086991Y025333D02*
X075997Y025333D01*
X075840Y025174D02*
X080926Y025174D01*
X080524Y025016D02*
X075584Y025016D01*
X073678Y025016D02*
X070138Y025016D01*
X070375Y024857D02*
X080287Y024857D01*
X080129Y024699D02*
X070533Y024699D01*
X070657Y024540D02*
X080005Y024540D01*
X079914Y024382D02*
X070748Y024382D01*
X070825Y024223D02*
X079837Y024223D01*
X079795Y024065D02*
X070867Y024065D01*
X070910Y023906D02*
X079752Y023906D01*
X079746Y023748D02*
X070916Y023748D01*
X070916Y023589D02*
X079746Y023589D01*
X079759Y023431D02*
X070903Y023431D01*
X070861Y023272D02*
X079801Y023272D01*
X079844Y023114D02*
X070818Y023114D01*
X070735Y022955D02*
X079927Y022955D01*
X080019Y022797D02*
X070643Y022797D01*
X070510Y022638D02*
X080152Y022638D01*
X080311Y022480D02*
X070351Y022480D01*
X070097Y022321D02*
X073621Y022321D01*
X073512Y022276D02*
X073265Y022028D01*
X073131Y021705D01*
X073131Y021355D01*
X073265Y021032D01*
X073512Y020784D01*
X073836Y020650D01*
X075426Y020650D01*
X075749Y020784D01*
X075997Y021032D01*
X076131Y021355D01*
X076131Y021705D01*
X075997Y022028D01*
X075749Y022276D01*
X075426Y022410D01*
X073836Y022410D01*
X073512Y022276D01*
X073399Y022163D02*
X069671Y022163D01*
X069671Y022004D02*
X073255Y022004D01*
X073189Y021846D02*
X069671Y021846D01*
X069671Y021687D02*
X073131Y021687D01*
X073131Y021529D02*
X069671Y021529D01*
X069671Y021370D02*
X073131Y021370D01*
X073190Y021212D02*
X069671Y021212D01*
X069671Y021053D02*
X073256Y021053D01*
X073402Y020895D02*
X069671Y020895D01*
X069671Y020736D02*
X073628Y020736D01*
X075634Y020736D02*
X077991Y020736D01*
X077991Y020578D02*
X069671Y020578D01*
X069671Y020419D02*
X077991Y020419D01*
X077991Y020261D02*
X069671Y020261D01*
X069671Y020102D02*
X077991Y020102D01*
X077991Y019944D02*
X069671Y019944D01*
X069671Y019785D02*
X077991Y019785D01*
X077991Y019627D02*
X069671Y019627D01*
X069671Y019468D02*
X077991Y019468D01*
X077991Y019310D02*
X069671Y019310D01*
X069671Y019151D02*
X077991Y019151D01*
X077991Y018993D02*
X072703Y018993D01*
X072837Y018937D02*
X072509Y019073D01*
X072153Y019073D01*
X071825Y018937D01*
X071574Y018686D01*
X071438Y018358D01*
X071438Y018002D01*
X071574Y017674D01*
X071825Y017423D01*
X072153Y017287D01*
X072509Y017287D01*
X072837Y017423D01*
X073088Y017674D01*
X073224Y018002D01*
X073224Y018358D01*
X073088Y018686D01*
X072837Y018937D01*
X072940Y018834D02*
X077991Y018834D01*
X077991Y018676D02*
X073092Y018676D01*
X073158Y018517D02*
X077991Y018517D01*
X077991Y018359D02*
X073224Y018359D01*
X073224Y018200D02*
X077991Y018200D01*
X077991Y018042D02*
X073224Y018042D01*
X073175Y017883D02*
X077991Y017883D01*
X077991Y017725D02*
X073109Y017725D01*
X072980Y017566D02*
X077991Y017566D01*
X077991Y017408D02*
X072800Y017408D01*
X071862Y017408D02*
X069748Y017408D01*
X069814Y017566D02*
X071682Y017566D01*
X071553Y017725D02*
X069821Y017725D01*
X069777Y017883D02*
X071487Y017883D01*
X071438Y018042D02*
X069671Y018042D01*
X069671Y018200D02*
X071438Y018200D01*
X071438Y018359D02*
X069671Y018359D01*
X069671Y018517D02*
X071504Y018517D01*
X071570Y018676D02*
X069671Y018676D01*
X069671Y018834D02*
X071722Y018834D01*
X071959Y018993D02*
X069671Y018993D01*
X068491Y018200D02*
X065671Y018200D01*
X065671Y018042D02*
X068491Y018042D01*
X068491Y017883D02*
X065671Y017883D01*
X065671Y017725D02*
X068491Y017725D01*
X068491Y017566D02*
X065671Y017566D01*
X065671Y017408D02*
X068491Y017408D01*
X068491Y017249D02*
X065671Y017249D01*
X065671Y017091D02*
X068500Y017091D01*
X068598Y016932D02*
X065671Y016932D01*
X065671Y016774D02*
X068757Y016774D01*
X068915Y016615D02*
X065671Y016615D01*
X065671Y016457D02*
X069074Y016457D01*
X069401Y017091D02*
X077991Y017091D01*
X077991Y017249D02*
X069571Y017249D01*
X069331Y017680D02*
X069331Y023680D01*
X069381Y023680D01*
X067901Y023272D02*
X066671Y023272D01*
X066671Y023114D02*
X067944Y023114D01*
X068027Y022955D02*
X066671Y022955D01*
X066671Y022797D02*
X068119Y022797D01*
X068252Y022638D02*
X066671Y022638D01*
X066671Y022480D02*
X068411Y022480D01*
X068665Y022321D02*
X066671Y022321D01*
X066671Y022163D02*
X068991Y022163D01*
X068991Y022004D02*
X066671Y022004D01*
X066671Y021846D02*
X068991Y021846D01*
X068991Y021687D02*
X066671Y021687D01*
X066671Y021529D02*
X068991Y021529D01*
X068991Y021370D02*
X066671Y021370D01*
X066671Y021212D02*
X068991Y021212D01*
X068991Y021053D02*
X066646Y021053D01*
X066526Y020895D02*
X068991Y020895D01*
X068991Y020736D02*
X062635Y020736D01*
X062824Y020578D02*
X068991Y020578D01*
X066331Y021180D02*
X066331Y025180D01*
X066831Y025680D01*
X074331Y025680D01*
X074631Y025830D01*
X075883Y026442D02*
X084971Y026442D01*
X084861Y026601D02*
X075690Y026601D01*
X076016Y026284D02*
X085129Y026284D01*
X085402Y026125D02*
X076081Y026125D01*
X073572Y026601D02*
X066650Y026601D01*
X066594Y026545D02*
X066966Y026917D01*
X066966Y027443D01*
X066594Y027815D01*
X066068Y027815D01*
X065696Y027443D01*
X065696Y026917D01*
X066068Y026545D01*
X066594Y026545D01*
X066808Y026759D02*
X084774Y026759D01*
X084731Y026918D02*
X066966Y026918D01*
X066966Y027076D02*
X084701Y027076D01*
X084701Y027235D02*
X066966Y027235D01*
X066966Y027393D02*
X084718Y027393D01*
X084761Y027552D02*
X066857Y027552D01*
X066699Y027710D02*
X084832Y027710D01*
X084924Y027869D02*
X051171Y027869D01*
X051171Y028027D02*
X085080Y028027D01*
X085313Y028186D02*
X051171Y028186D01*
X051131Y028344D02*
X116843Y028344D01*
X116843Y028186D02*
X086349Y028186D01*
X086582Y028027D02*
X116843Y028027D01*
X116843Y027869D02*
X116384Y027869D01*
X116529Y027710D02*
X116843Y027710D01*
X116843Y027552D02*
X116541Y027552D01*
X116541Y027393D02*
X116843Y027393D01*
X116843Y027235D02*
X116541Y027235D01*
X116541Y027076D02*
X116843Y027076D01*
X116843Y026918D02*
X116541Y026918D01*
X116541Y026759D02*
X116843Y026759D01*
X116843Y026601D02*
X116509Y026601D01*
X116843Y026442D02*
X116074Y026442D01*
X116024Y026392D02*
X116024Y026392D01*
X115915Y026284D02*
X116843Y026284D01*
X116843Y026125D02*
X115757Y026125D01*
X115598Y025967D02*
X116843Y025967D01*
X116843Y025808D02*
X115440Y025808D01*
X115281Y025650D02*
X116843Y025650D01*
X116843Y025491D02*
X115123Y025491D01*
X114964Y025333D02*
X116843Y025333D01*
X116843Y025174D02*
X114806Y025174D01*
X114647Y025016D02*
X116843Y025016D01*
X116843Y024857D02*
X114489Y024857D01*
X114330Y024699D02*
X116843Y024699D01*
X116843Y024540D02*
X114172Y024540D01*
X114013Y024382D02*
X116843Y024382D01*
X116843Y024223D02*
X113855Y024223D01*
X113696Y024065D02*
X116843Y024065D01*
X116843Y023906D02*
X113643Y023906D01*
X113691Y023748D02*
X116843Y023748D01*
X116843Y023589D02*
X113691Y023589D01*
X113634Y023431D02*
X116843Y023431D01*
X116843Y023272D02*
X113515Y023272D01*
X113489Y023114D02*
X116843Y023114D01*
X116843Y022955D02*
X113623Y022955D01*
X113689Y022797D02*
X116843Y022797D01*
X116843Y022638D02*
X113691Y022638D01*
X113654Y022480D02*
X116843Y022480D01*
X116843Y022321D02*
X113564Y022321D01*
X113429Y022163D02*
X116843Y022163D01*
X116843Y022004D02*
X113599Y022004D01*
X113669Y021846D02*
X116843Y021846D01*
X116843Y021687D02*
X113691Y021687D01*
X113674Y021529D02*
X116843Y021529D01*
X117803Y021529D02*
X119331Y021529D01*
X119331Y021687D02*
X117803Y021687D01*
X117803Y021846D02*
X119331Y021846D01*
X119331Y022004D02*
X117803Y022004D01*
X117803Y022163D02*
X119331Y022163D01*
X119331Y022321D02*
X117803Y022321D01*
X117803Y022480D02*
X119331Y022480D01*
X119331Y022638D02*
X117803Y022638D01*
X117803Y022797D02*
X119331Y022797D01*
X119331Y022955D02*
X117803Y022955D01*
X117803Y023114D02*
X119331Y023114D01*
X119331Y023272D02*
X117803Y023272D01*
X117803Y023431D02*
X119331Y023431D01*
X119331Y023589D02*
X117803Y023589D01*
X117803Y023748D02*
X119331Y023748D01*
X119331Y023906D02*
X117803Y023906D01*
X117803Y024065D02*
X119331Y024065D01*
X119331Y024223D02*
X117803Y024223D01*
X117803Y024382D02*
X119331Y024382D01*
X119331Y024540D02*
X117803Y024540D01*
X117803Y024699D02*
X119331Y024699D01*
X119331Y024857D02*
X117803Y024857D01*
X117803Y025016D02*
X119331Y025016D01*
X119331Y025174D02*
X117803Y025174D01*
X117803Y025333D02*
X119331Y025333D01*
X119331Y025491D02*
X117803Y025491D01*
X117803Y025650D02*
X119331Y025650D01*
X119331Y025808D02*
X117803Y025808D01*
X117803Y025967D02*
X119331Y025967D01*
X119331Y026125D02*
X117803Y026125D01*
X117803Y026284D02*
X119331Y026284D01*
X119331Y026442D02*
X117803Y026442D01*
X117803Y026601D02*
X119331Y026601D01*
X119331Y026759D02*
X117803Y026759D01*
X117803Y026918D02*
X119331Y026918D01*
X119331Y027076D02*
X117803Y027076D01*
X117803Y027235D02*
X119331Y027235D01*
X119331Y027393D02*
X117803Y027393D01*
X117803Y027552D02*
X119331Y027552D01*
X119331Y027710D02*
X117803Y027710D01*
X117803Y027869D02*
X119331Y027869D01*
X119331Y028027D02*
X117803Y028027D01*
X117803Y028186D02*
X119331Y028186D01*
X119331Y028344D02*
X117803Y028344D01*
X117803Y028503D02*
X119331Y028503D01*
X119331Y028661D02*
X117803Y028661D01*
X117803Y028820D02*
X119331Y028820D01*
X119331Y028978D02*
X117803Y028978D01*
X117803Y029137D02*
X119331Y029137D01*
X119331Y029295D02*
X117741Y029295D01*
X117598Y029454D02*
X119331Y029454D01*
X119331Y029612D02*
X006331Y029612D01*
X006331Y029771D02*
X119331Y029771D01*
X119331Y029929D02*
X006331Y029929D01*
X006331Y030088D02*
X119331Y030088D01*
X119331Y030246D02*
X006331Y030246D01*
X006331Y030405D02*
X119331Y030405D01*
X119331Y030563D02*
X006331Y030563D01*
X006331Y030722D02*
X119331Y030722D01*
X119331Y030880D02*
X006331Y030880D01*
X006331Y031039D02*
X119331Y031039D01*
X119331Y031197D02*
X006331Y031197D01*
X006331Y031356D02*
X119331Y031356D01*
X119331Y031514D02*
X006331Y031514D01*
X006331Y031673D02*
X119331Y031673D01*
X119331Y031831D02*
X006331Y031831D01*
X006331Y031990D02*
X119331Y031990D01*
X119331Y032148D02*
X006331Y032148D01*
X006331Y032307D02*
X119331Y032307D01*
X119331Y032465D02*
X006331Y032465D01*
X006331Y032624D02*
X119331Y032624D01*
X119331Y032782D02*
X006331Y032782D01*
X006331Y032941D02*
X119331Y032941D01*
X119331Y033099D02*
X006331Y033099D01*
X006331Y033258D02*
X119331Y033258D01*
X119331Y033416D02*
X006331Y033416D01*
X006331Y033575D02*
X119331Y033575D01*
X119331Y033733D02*
X006331Y033733D01*
X006331Y033892D02*
X119331Y033892D01*
X119331Y034050D02*
X006331Y034050D01*
X018683Y027552D02*
X042101Y027552D01*
X042153Y027573D02*
X041825Y027437D01*
X041574Y027186D01*
X041438Y026858D01*
X041438Y026502D01*
X041574Y026174D01*
X041825Y025923D01*
X042153Y025787D01*
X042509Y025787D01*
X042837Y025923D01*
X043088Y026174D01*
X043224Y026502D01*
X043224Y026858D01*
X043088Y027186D01*
X042837Y027437D01*
X042509Y027573D01*
X042153Y027573D01*
X042561Y027552D02*
X048254Y027552D01*
X048241Y027710D02*
X018842Y027710D01*
X018525Y027393D02*
X041781Y027393D01*
X041623Y027235D02*
X038638Y027235D01*
X038826Y027076D02*
X041528Y027076D01*
X041463Y026918D02*
X038914Y026918D01*
X038961Y026759D02*
X041438Y026759D01*
X041438Y026601D02*
X038961Y026601D01*
X038914Y026442D02*
X041463Y026442D01*
X041529Y026284D02*
X038825Y026284D01*
X038637Y026125D02*
X041623Y026125D01*
X041781Y025967D02*
X037098Y025967D01*
X037257Y026125D02*
X038024Y026125D01*
X037836Y026284D02*
X037415Y026284D01*
X037331Y026680D02*
X034831Y024180D01*
X034710Y024540D02*
X026671Y024540D01*
X026671Y024699D02*
X034869Y024699D01*
X035027Y024857D02*
X026671Y024857D01*
X026671Y025016D02*
X035186Y025016D01*
X035344Y025174D02*
X026671Y025174D01*
X026671Y025333D02*
X035503Y025333D01*
X035661Y025491D02*
X026671Y025491D01*
X026671Y025650D02*
X035820Y025650D01*
X035978Y025808D02*
X026671Y025808D01*
X026671Y025967D02*
X036137Y025967D01*
X036024Y026125D02*
X028637Y026125D01*
X028688Y026146D02*
X028865Y026323D01*
X028961Y026555D01*
X028961Y026805D01*
X028865Y027037D01*
X028688Y027214D01*
X028456Y027310D01*
X028206Y027310D01*
X027974Y027214D01*
X027797Y027037D01*
X027701Y026805D01*
X027701Y026555D01*
X027797Y026323D01*
X027974Y026146D01*
X028206Y026050D01*
X028456Y026050D01*
X028688Y026146D01*
X028825Y026284D02*
X035836Y026284D01*
X035748Y026442D02*
X028914Y026442D01*
X028961Y026601D02*
X035701Y026601D01*
X035701Y026759D02*
X028961Y026759D01*
X028914Y026918D02*
X035747Y026918D01*
X035836Y027076D02*
X028826Y027076D01*
X028638Y027235D02*
X036023Y027235D01*
X036638Y027235D02*
X038023Y027235D01*
X037836Y027076D02*
X036826Y027076D01*
X036914Y026918D02*
X037088Y026918D01*
X037331Y026680D02*
X038331Y026680D01*
X036940Y025808D02*
X042102Y025808D01*
X042560Y025808D02*
X046991Y025808D01*
X046991Y025650D02*
X036781Y025650D01*
X036623Y025491D02*
X046991Y025491D01*
X046991Y025333D02*
X036464Y025333D01*
X036306Y025174D02*
X046844Y025174D01*
X046686Y025016D02*
X036147Y025016D01*
X035989Y024857D02*
X046527Y024857D01*
X046133Y024699D02*
X035830Y024699D01*
X035672Y024540D02*
X045906Y024540D01*
X045814Y024382D02*
X035513Y024382D01*
X035355Y024223D02*
X045776Y024223D01*
X045778Y024065D02*
X042327Y024065D01*
X042486Y023906D02*
X045844Y023906D01*
X045918Y023748D02*
X042644Y023748D01*
X042803Y023589D02*
X045302Y023589D01*
X045276Y023431D02*
X042871Y023431D01*
X042871Y023272D02*
X045276Y023272D01*
X045276Y023114D02*
X042871Y023114D01*
X042871Y022955D02*
X045276Y022955D01*
X045831Y023180D02*
X046331Y023680D01*
X046331Y024180D01*
X047331Y025180D01*
X047331Y027180D01*
X050231Y027180D01*
X050331Y027180D01*
X050491Y027550D02*
X049951Y027550D01*
X049951Y027722D01*
X049911Y027817D01*
X049889Y027840D01*
X050491Y027840D01*
X050491Y027550D01*
X050491Y027552D02*
X049951Y027552D01*
X049951Y027710D02*
X050491Y027710D01*
X051171Y027710D02*
X053048Y027710D01*
X053093Y027755D02*
X052756Y027418D01*
X052756Y026942D01*
X053093Y026605D01*
X053569Y026605D01*
X053906Y026942D01*
X053906Y027418D01*
X053569Y027755D01*
X053093Y027755D01*
X052889Y027552D02*
X051171Y027552D01*
X051171Y027393D02*
X052756Y027393D01*
X052756Y027235D02*
X051171Y027235D01*
X051171Y027076D02*
X052756Y027076D01*
X052780Y026918D02*
X051171Y026918D01*
X051171Y026759D02*
X052939Y026759D01*
X053723Y026759D02*
X054939Y026759D01*
X054780Y026918D02*
X053882Y026918D01*
X053906Y027076D02*
X054756Y027076D01*
X054756Y027235D02*
X053906Y027235D01*
X053906Y027393D02*
X054756Y027393D01*
X054889Y027552D02*
X053773Y027552D01*
X053614Y027710D02*
X055048Y027710D01*
X055614Y027710D02*
X063963Y027710D01*
X063971Y027718D02*
X063793Y027540D01*
X063696Y027306D01*
X063696Y027054D01*
X063793Y026820D01*
X063971Y026642D01*
X064205Y026545D01*
X064457Y026545D01*
X064691Y026642D01*
X064869Y026820D01*
X064966Y027054D01*
X064966Y027306D01*
X064869Y027540D01*
X064691Y027718D01*
X064457Y027815D01*
X064205Y027815D01*
X063971Y027718D01*
X063804Y027552D02*
X062455Y027552D01*
X062386Y027621D02*
X062532Y027475D01*
X062611Y027283D01*
X062611Y027077D01*
X062532Y026885D01*
X062386Y026739D01*
X062194Y026660D01*
X061468Y026660D01*
X061276Y026739D01*
X061130Y026885D01*
X061051Y027077D01*
X061051Y027283D01*
X061130Y027475D01*
X061276Y027621D01*
X061468Y027700D01*
X062194Y027700D01*
X062386Y027621D01*
X062566Y027393D02*
X063732Y027393D01*
X063696Y027235D02*
X062611Y027235D01*
X062611Y027076D02*
X063696Y027076D01*
X063752Y026918D02*
X062545Y026918D01*
X062405Y026759D02*
X063854Y026759D01*
X064071Y026601D02*
X058171Y026601D01*
X058171Y026442D02*
X073379Y026442D01*
X073246Y026284D02*
X058171Y026284D01*
X058171Y026125D02*
X073181Y026125D01*
X073265Y025333D02*
X066964Y025333D01*
X066806Y025174D02*
X069026Y025174D01*
X068624Y025016D02*
X066671Y025016D01*
X066671Y024857D02*
X068387Y024857D01*
X068229Y024699D02*
X066671Y024699D01*
X066671Y024540D02*
X068105Y024540D01*
X068014Y024382D02*
X066671Y024382D01*
X066671Y024223D02*
X067937Y024223D01*
X067895Y024065D02*
X066671Y024065D01*
X066671Y023906D02*
X067852Y023906D01*
X067846Y023748D02*
X066671Y023748D01*
X066671Y023589D02*
X067846Y023589D01*
X067859Y023431D02*
X066671Y023431D01*
X065991Y023431D02*
X065434Y023431D01*
X065461Y023329D02*
X065384Y023616D01*
X065235Y023874D01*
X065025Y024084D01*
X064767Y024233D01*
X064480Y024310D01*
X064182Y024310D01*
X063895Y024233D01*
X063637Y024084D01*
X063427Y023874D01*
X063278Y023616D01*
X063201Y023329D01*
X063201Y023031D01*
X063278Y022744D01*
X063427Y022486D01*
X063637Y022276D01*
X063895Y022127D01*
X064182Y022050D01*
X064480Y022050D01*
X064767Y022127D01*
X065025Y022276D01*
X065235Y022486D01*
X065384Y022744D01*
X065461Y023031D01*
X065461Y023329D01*
X065461Y023272D02*
X065991Y023272D01*
X065991Y023114D02*
X065461Y023114D01*
X065441Y022955D02*
X065991Y022955D01*
X065991Y022797D02*
X065398Y022797D01*
X065323Y022638D02*
X065991Y022638D01*
X065991Y022480D02*
X065229Y022480D01*
X065070Y022321D02*
X065991Y022321D01*
X065991Y022163D02*
X064829Y022163D01*
X063833Y022163D02*
X060829Y022163D01*
X060671Y022321D02*
X063592Y022321D01*
X063433Y022480D02*
X060512Y022480D01*
X060354Y022638D02*
X063339Y022638D01*
X063264Y022797D02*
X060195Y022797D01*
X060037Y022955D02*
X063221Y022955D01*
X063201Y023114D02*
X059878Y023114D01*
X059720Y023272D02*
X063201Y023272D01*
X063228Y023431D02*
X059561Y023431D01*
X059611Y023589D02*
X063271Y023589D01*
X063354Y023748D02*
X059611Y023748D01*
X059560Y023906D02*
X063459Y023906D01*
X063617Y024065D02*
X059442Y024065D01*
X058220Y024065D02*
X058171Y024065D01*
X058171Y024223D02*
X063878Y024223D01*
X064784Y024223D02*
X065991Y024223D01*
X065991Y024065D02*
X065044Y024065D01*
X065203Y023906D02*
X065991Y023906D01*
X065991Y023748D02*
X065308Y023748D01*
X065391Y023589D02*
X065991Y023589D01*
X065991Y024382D02*
X058171Y024382D01*
X058171Y024540D02*
X065991Y024540D01*
X065991Y024699D02*
X058171Y024699D01*
X058171Y024857D02*
X065991Y024857D01*
X065991Y025016D02*
X058171Y025016D01*
X058171Y025174D02*
X065991Y025174D01*
X066026Y025333D02*
X058171Y025333D01*
X058171Y025491D02*
X066161Y025491D01*
X066320Y025650D02*
X058171Y025650D01*
X058171Y025808D02*
X066478Y025808D01*
X066637Y025967D02*
X058171Y025967D01*
X058405Y026759D02*
X061257Y026759D01*
X061117Y026918D02*
X058545Y026918D01*
X058611Y027076D02*
X061051Y027076D01*
X061051Y027235D02*
X058611Y027235D01*
X058566Y027393D02*
X061096Y027393D01*
X061207Y027552D02*
X058455Y027552D01*
X064591Y026601D02*
X066012Y026601D01*
X065854Y026759D02*
X064808Y026759D01*
X064910Y026918D02*
X065696Y026918D01*
X065696Y027076D02*
X064966Y027076D01*
X064966Y027235D02*
X065696Y027235D01*
X065696Y027393D02*
X064930Y027393D01*
X064857Y027552D02*
X065804Y027552D01*
X065963Y027710D02*
X064699Y027710D01*
X069736Y025174D02*
X073422Y025174D01*
X081281Y023680D02*
X081331Y023680D01*
X081331Y021180D01*
X081783Y021370D02*
X084491Y021370D01*
X084491Y021212D02*
X081821Y021212D01*
X081809Y021053D02*
X084491Y021053D01*
X084491Y020895D02*
X081738Y020895D01*
X081540Y020736D02*
X084491Y020736D01*
X085171Y020736D02*
X086991Y020736D01*
X086991Y020578D02*
X085171Y020578D01*
X085171Y020419D02*
X086991Y020419D01*
X086991Y020261D02*
X085171Y020261D01*
X085171Y020102D02*
X086991Y020102D01*
X086991Y019944D02*
X085171Y019944D01*
X085171Y019785D02*
X086991Y019785D01*
X086991Y019627D02*
X085171Y019627D01*
X085171Y019612D02*
X085171Y022311D01*
X085265Y022350D01*
X085381Y022466D01*
X085497Y022350D01*
X085714Y022260D01*
X085948Y022260D01*
X086165Y022350D01*
X086281Y022466D01*
X086397Y022350D01*
X086614Y022260D01*
X086848Y022260D01*
X086991Y022319D01*
X086991Y013321D01*
X086473Y012803D01*
X086456Y012810D01*
X086206Y012810D01*
X085974Y012714D01*
X085797Y012537D01*
X085701Y012305D01*
X085701Y012055D01*
X085716Y012019D02*
X078946Y012019D01*
X078880Y011860D02*
X085782Y011860D01*
X085918Y011702D02*
X078743Y011702D01*
X078948Y012336D02*
X085713Y012336D01*
X085779Y012494D02*
X078883Y012494D01*
X078749Y012653D02*
X085913Y012653D01*
X086481Y012811D02*
X078671Y012811D01*
X078671Y012970D02*
X086640Y012970D01*
X086798Y013128D02*
X078671Y013128D01*
X078671Y013287D02*
X086957Y013287D01*
X086991Y013445D02*
X078671Y013445D01*
X078671Y013604D02*
X086991Y013604D01*
X086991Y013762D02*
X078671Y013762D01*
X078671Y013921D02*
X086991Y013921D01*
X086991Y014079D02*
X078671Y014079D01*
X078671Y014238D02*
X086991Y014238D01*
X086991Y014396D02*
X078671Y014396D01*
X078671Y014555D02*
X086991Y014555D01*
X086991Y014713D02*
X078671Y014713D01*
X078671Y014872D02*
X086991Y014872D01*
X086991Y015030D02*
X078671Y015030D01*
X078671Y015189D02*
X080431Y015189D01*
X080474Y015146D02*
X080706Y015050D01*
X080956Y015050D01*
X081188Y015146D01*
X081365Y015323D01*
X081461Y015555D01*
X081461Y015805D01*
X081365Y016037D01*
X081188Y016214D01*
X080956Y016310D01*
X080706Y016310D01*
X080474Y016214D01*
X080297Y016037D01*
X080201Y015805D01*
X080201Y015555D01*
X080297Y015323D01*
X080474Y015146D01*
X080287Y015347D02*
X078671Y015347D01*
X078671Y015506D02*
X080221Y015506D01*
X080201Y015664D02*
X078671Y015664D01*
X078671Y015823D02*
X080208Y015823D01*
X080274Y015981D02*
X078671Y015981D01*
X078671Y016140D02*
X080400Y016140D01*
X080677Y016298D02*
X078671Y016298D01*
X078671Y016457D02*
X083026Y016457D01*
X082951Y016588D02*
X083153Y016237D01*
X083438Y015952D01*
X083788Y015750D01*
X084179Y015645D01*
X084583Y015645D01*
X084973Y015750D01*
X085323Y015952D01*
X085609Y016237D01*
X085811Y016588D01*
X085916Y016978D01*
X085916Y017382D01*
X085811Y017772D01*
X085609Y018123D01*
X085323Y018408D01*
X084973Y018610D01*
X084671Y018691D01*
X084671Y019039D01*
X085119Y019487D01*
X085171Y019612D01*
X085100Y019468D02*
X086991Y019468D01*
X086991Y019310D02*
X084941Y019310D01*
X084783Y019151D02*
X086991Y019151D01*
X086991Y018993D02*
X084671Y018993D01*
X084671Y018834D02*
X086991Y018834D01*
X086991Y018676D02*
X084730Y018676D01*
X085135Y018517D02*
X086991Y018517D01*
X086991Y018359D02*
X085373Y018359D01*
X085532Y018200D02*
X086991Y018200D01*
X086991Y018042D02*
X085656Y018042D01*
X085748Y017883D02*
X086991Y017883D01*
X086991Y017725D02*
X085824Y017725D01*
X085867Y017566D02*
X086991Y017566D01*
X086991Y017408D02*
X085909Y017408D01*
X085916Y017249D02*
X086991Y017249D01*
X086991Y017091D02*
X085916Y017091D01*
X085904Y016932D02*
X086991Y016932D01*
X086991Y016774D02*
X085861Y016774D01*
X085819Y016615D02*
X086991Y016615D01*
X086991Y016457D02*
X085736Y016457D01*
X085644Y016298D02*
X086991Y016298D01*
X086991Y016140D02*
X085511Y016140D01*
X085353Y015981D02*
X086991Y015981D01*
X086991Y015823D02*
X085100Y015823D01*
X084654Y015664D02*
X086991Y015664D01*
X086991Y015506D02*
X081441Y015506D01*
X081461Y015664D02*
X084108Y015664D01*
X083662Y015823D02*
X081454Y015823D01*
X081388Y015981D02*
X083409Y015981D01*
X083251Y016140D02*
X081262Y016140D01*
X080985Y016298D02*
X083118Y016298D01*
X082951Y016588D02*
X082846Y016978D01*
X082846Y017382D01*
X082951Y017772D01*
X083153Y018123D01*
X083438Y018408D01*
X083788Y018610D01*
X083991Y018665D01*
X083991Y019248D01*
X083991Y019151D02*
X078671Y019151D01*
X078671Y018993D02*
X083991Y018993D01*
X083991Y018834D02*
X078671Y018834D01*
X078671Y018676D02*
X083991Y018676D01*
X083627Y018517D02*
X078671Y018517D01*
X078671Y018359D02*
X083389Y018359D01*
X083230Y018200D02*
X078671Y018200D01*
X078671Y018042D02*
X083106Y018042D01*
X083014Y017883D02*
X078671Y017883D01*
X078671Y017725D02*
X082938Y017725D01*
X082895Y017566D02*
X078671Y017566D01*
X078671Y017408D02*
X082853Y017408D01*
X082846Y017249D02*
X078671Y017249D01*
X078671Y017091D02*
X082846Y017091D01*
X082858Y016932D02*
X078671Y016932D01*
X078671Y016774D02*
X082901Y016774D01*
X082943Y016615D02*
X078671Y016615D01*
X077991Y016615D02*
X075377Y016615D01*
X075535Y016457D02*
X077991Y016457D01*
X077991Y016298D02*
X075694Y016298D01*
X075852Y016140D02*
X077991Y016140D01*
X077991Y015981D02*
X076011Y015981D01*
X076140Y015823D02*
X077991Y015823D01*
X077991Y015664D02*
X076171Y015664D01*
X076171Y015506D02*
X077991Y015506D01*
X077991Y015347D02*
X076171Y015347D01*
X076171Y015189D02*
X077991Y015189D01*
X077991Y015030D02*
X076171Y015030D01*
X076171Y014872D02*
X077991Y014872D01*
X077991Y014713D02*
X076171Y014713D01*
X076171Y014555D02*
X077991Y014555D01*
X077991Y014396D02*
X076171Y014396D01*
X076171Y014238D02*
X077991Y014238D01*
X077991Y014079D02*
X076171Y014079D01*
X076171Y013921D02*
X077991Y013921D01*
X077991Y013762D02*
X076171Y013762D01*
X076171Y013604D02*
X077991Y013604D01*
X077991Y013445D02*
X076171Y013445D01*
X076171Y013287D02*
X077991Y013287D01*
X077991Y013128D02*
X076171Y013128D01*
X076171Y012970D02*
X077991Y012970D01*
X077991Y012811D02*
X076171Y012811D01*
X076171Y012653D02*
X077913Y012653D01*
X077779Y012494D02*
X076171Y012494D01*
X076171Y012336D02*
X077713Y012336D01*
X077701Y012177D02*
X076171Y012177D01*
X076171Y012019D02*
X077716Y012019D01*
X077782Y011860D02*
X076171Y011860D01*
X076171Y011702D02*
X077918Y011702D01*
X075885Y011068D02*
X099650Y011068D01*
X099705Y011045D02*
X099957Y011045D01*
X100191Y011142D01*
X100369Y011320D01*
X100466Y011554D01*
X100466Y011806D01*
X100369Y012040D01*
X100191Y012218D01*
X100171Y012226D01*
X100171Y013327D01*
X100246Y013402D01*
X100321Y013583D01*
X100321Y013777D01*
X100246Y013958D01*
X100109Y014095D01*
X099928Y014170D01*
X099734Y014170D01*
X099553Y014095D01*
X099416Y013958D01*
X099341Y013777D01*
X099341Y013583D01*
X099416Y013402D01*
X099491Y013327D01*
X099491Y012226D01*
X099471Y012218D01*
X099293Y012040D01*
X099196Y011806D01*
X099196Y011554D01*
X099293Y011320D01*
X099471Y011142D01*
X099705Y011045D01*
X100012Y011068D02*
X101545Y011068D01*
X101568Y011045D02*
X102094Y011045D01*
X102466Y011417D01*
X102466Y011943D01*
X102094Y012315D01*
X101568Y012315D01*
X101196Y011943D01*
X101196Y011417D01*
X101568Y011045D01*
X101387Y011226D02*
X100275Y011226D01*
X100396Y011385D02*
X101228Y011385D01*
X101196Y011543D02*
X100462Y011543D01*
X100466Y011702D02*
X101196Y011702D01*
X101196Y011860D02*
X100444Y011860D01*
X100378Y012019D02*
X101271Y012019D01*
X101430Y012177D02*
X100232Y012177D01*
X100171Y012336D02*
X107007Y012336D01*
X106941Y012494D02*
X100171Y012494D01*
X100171Y012653D02*
X106938Y012653D01*
X106938Y012502D02*
X107074Y012174D01*
X107325Y011923D01*
X107653Y011787D01*
X108009Y011787D01*
X108337Y011923D01*
X108588Y012174D01*
X108724Y012502D01*
X108724Y012858D01*
X108588Y013186D01*
X108337Y013437D01*
X108009Y013573D01*
X107653Y013573D01*
X107325Y013437D01*
X107074Y013186D01*
X106938Y012858D01*
X106938Y012502D01*
X106938Y012811D02*
X100171Y012811D01*
X100171Y012970D02*
X106984Y012970D01*
X107050Y013128D02*
X100171Y013128D01*
X100171Y013287D02*
X107175Y013287D01*
X107344Y013445D02*
X100264Y013445D01*
X100321Y013604D02*
X112163Y013604D01*
X112035Y013445D02*
X108318Y013445D01*
X108487Y013287D02*
X111971Y013287D01*
X111971Y013128D02*
X108612Y013128D01*
X108678Y012970D02*
X112012Y012970D01*
X112108Y012811D02*
X108724Y012811D01*
X108724Y012653D02*
X112212Y012653D01*
X112055Y012494D02*
X108721Y012494D01*
X108655Y012336D02*
X111989Y012336D01*
X111971Y012177D02*
X108589Y012177D01*
X108432Y012019D02*
X111992Y012019D01*
X112059Y011860D02*
X108185Y011860D01*
X107477Y011860D02*
X102466Y011860D01*
X102466Y011702D02*
X112223Y011702D01*
X113450Y012653D02*
X115491Y012653D01*
X115491Y012811D02*
X113554Y012811D01*
X113650Y012970D02*
X115491Y012970D01*
X115491Y013128D02*
X113691Y013128D01*
X113691Y013287D02*
X115491Y013287D01*
X115491Y013445D02*
X113627Y013445D01*
X113499Y013604D02*
X115491Y013604D01*
X115491Y013762D02*
X100321Y013762D01*
X100262Y013921D02*
X115491Y013921D01*
X115491Y014079D02*
X100125Y014079D01*
X099831Y013680D02*
X099831Y011680D01*
X099387Y011226D02*
X096690Y011226D01*
X096849Y011385D02*
X099266Y011385D01*
X099200Y011543D02*
X096906Y011543D01*
X096906Y011702D02*
X099196Y011702D01*
X099218Y011860D02*
X096992Y011860D01*
X097150Y012019D02*
X099284Y012019D01*
X099430Y012177D02*
X097309Y012177D01*
X097467Y012336D02*
X099491Y012336D01*
X099491Y012494D02*
X097626Y012494D01*
X097784Y012653D02*
X099491Y012653D01*
X099491Y012811D02*
X097943Y012811D01*
X098101Y012970D02*
X099491Y012970D01*
X099491Y013128D02*
X098171Y013128D01*
X098171Y013287D02*
X099491Y013287D01*
X099398Y013445D02*
X098171Y013445D01*
X098171Y013604D02*
X099341Y013604D01*
X099341Y013762D02*
X098171Y013762D01*
X098171Y013921D02*
X099400Y013921D01*
X099537Y014079D02*
X098171Y014079D01*
X098171Y014238D02*
X115491Y014238D01*
X115491Y014396D02*
X098171Y014396D01*
X098171Y014555D02*
X098695Y014555D01*
X098407Y014713D02*
X098171Y014713D01*
X098171Y014872D02*
X098277Y014872D01*
X098211Y015030D02*
X098171Y015030D01*
X098171Y015189D02*
X098201Y015189D01*
X098218Y015347D02*
X098171Y015347D01*
X098171Y015506D02*
X098284Y015506D01*
X098171Y015664D02*
X098424Y015664D01*
X097491Y015664D02*
X096671Y015664D01*
X096671Y015506D02*
X097491Y015506D01*
X097491Y015347D02*
X096671Y015347D01*
X096671Y015189D02*
X097491Y015189D01*
X097491Y015030D02*
X096671Y015030D01*
X096671Y014872D02*
X097491Y014872D01*
X097491Y014713D02*
X096671Y014713D01*
X096671Y014555D02*
X097491Y014555D01*
X097491Y014396D02*
X096671Y014396D01*
X096671Y014238D02*
X097491Y014238D01*
X097491Y014079D02*
X096671Y014079D01*
X096762Y013921D02*
X097491Y013921D01*
X097491Y013762D02*
X096821Y013762D01*
X096821Y013604D02*
X097491Y013604D01*
X097491Y013445D02*
X096764Y013445D01*
X096630Y013287D02*
X097457Y013287D01*
X097298Y013128D02*
X087671Y013128D01*
X087671Y013287D02*
X096031Y013287D01*
X095898Y013445D02*
X087671Y013445D01*
X087671Y013604D02*
X095841Y013604D01*
X095841Y013762D02*
X087671Y013762D01*
X087671Y013921D02*
X095900Y013921D01*
X095991Y014079D02*
X087671Y014079D01*
X087671Y014238D02*
X088625Y014238D01*
X088400Y014396D02*
X087671Y014396D01*
X087671Y014555D02*
X088255Y014555D01*
X088190Y014713D02*
X087671Y014713D01*
X087671Y014872D02*
X088131Y014872D01*
X088131Y015030D02*
X087671Y015030D01*
X087671Y015189D02*
X088131Y015189D01*
X088190Y015347D02*
X087671Y015347D01*
X087671Y015506D02*
X088255Y015506D01*
X088366Y015664D02*
X087671Y015664D01*
X087671Y015823D02*
X088208Y015823D01*
X088049Y015981D02*
X087671Y015981D01*
X087671Y016140D02*
X087891Y016140D01*
X087732Y016298D02*
X087671Y016298D01*
X087831Y016680D02*
X087831Y022680D01*
X088831Y023680D01*
X089410Y023431D02*
X096101Y023431D01*
X096201Y023589D02*
X089461Y023589D01*
X089461Y023748D02*
X096201Y023748D01*
X096243Y023906D02*
X089419Y023906D01*
X089337Y024065D02*
X096325Y024065D01*
X096496Y024223D02*
X089166Y024223D01*
X088496Y024223D02*
X087671Y024223D01*
X087671Y024065D02*
X088325Y024065D01*
X088243Y023906D02*
X087671Y023906D01*
X087671Y023748D02*
X088201Y023748D01*
X088201Y023589D02*
X087671Y023589D01*
X087671Y023431D02*
X088101Y023431D01*
X087942Y023272D02*
X087671Y023272D01*
X087671Y023114D02*
X087784Y023114D01*
X088428Y022797D02*
X095511Y022797D01*
X095491Y022638D02*
X088270Y022638D01*
X088171Y022480D02*
X095491Y022480D01*
X095491Y022321D02*
X088171Y022321D01*
X088171Y022163D02*
X095491Y022163D01*
X095491Y022004D02*
X088171Y022004D01*
X088171Y021846D02*
X095491Y021846D01*
X095491Y021687D02*
X088171Y021687D01*
X088171Y021529D02*
X095491Y021529D01*
X095491Y021370D02*
X088171Y021370D01*
X088171Y021212D02*
X095491Y021212D01*
X095491Y021053D02*
X088171Y021053D01*
X088171Y020895D02*
X095491Y020895D01*
X095491Y020736D02*
X088171Y020736D01*
X088171Y020578D02*
X095491Y020578D01*
X095491Y020419D02*
X088171Y020419D01*
X088171Y020261D02*
X095491Y020261D01*
X095491Y020102D02*
X090687Y020102D01*
X089831Y019680D02*
X089631Y019330D01*
X089831Y019680D02*
X095831Y019680D01*
X095831Y022680D01*
X096831Y023680D01*
X095942Y023272D02*
X089314Y023272D01*
X089110Y023114D02*
X095784Y023114D01*
X095625Y022955D02*
X088587Y022955D01*
X086831Y023180D02*
X086731Y023180D01*
X086831Y023180D02*
X086831Y023680D01*
X086331Y024180D01*
X084831Y024180D01*
X084831Y023180D01*
X084931Y023180D01*
X084831Y023180D02*
X084831Y019680D01*
X084331Y019180D01*
X084331Y017180D01*
X084381Y017180D01*
X087831Y016680D02*
X089331Y015180D01*
X089631Y015030D01*
X091007Y014555D02*
X095991Y014555D01*
X095991Y014713D02*
X091072Y014713D01*
X091131Y014872D02*
X095991Y014872D01*
X095991Y015030D02*
X091131Y015030D01*
X091131Y015189D02*
X095991Y015189D01*
X095991Y015347D02*
X091072Y015347D01*
X091007Y015506D02*
X095991Y015506D01*
X095991Y015664D02*
X090861Y015664D01*
X090637Y015823D02*
X095562Y015823D01*
X095309Y015981D02*
X089011Y015981D01*
X088852Y016140D02*
X095151Y016140D01*
X095018Y016298D02*
X088694Y016298D01*
X088535Y016457D02*
X094926Y016457D01*
X094843Y016615D02*
X088377Y016615D01*
X088218Y016774D02*
X094801Y016774D01*
X094758Y016932D02*
X088171Y016932D01*
X088171Y017091D02*
X094746Y017091D01*
X094746Y017249D02*
X088171Y017249D01*
X088171Y017408D02*
X094753Y017408D01*
X094795Y017566D02*
X088171Y017566D01*
X088171Y017725D02*
X094838Y017725D01*
X094914Y017883D02*
X088171Y017883D01*
X088171Y018042D02*
X095006Y018042D01*
X095130Y018200D02*
X088171Y018200D01*
X088171Y018359D02*
X095289Y018359D01*
X095527Y018517D02*
X090588Y018517D01*
X090841Y018676D02*
X095932Y018676D01*
X095991Y018834D02*
X090998Y018834D01*
X091064Y018993D02*
X095991Y018993D01*
X095991Y019151D02*
X091129Y019151D01*
X091131Y019310D02*
X095991Y019310D01*
X099171Y019151D02*
X105879Y019151D01*
X106038Y018993D02*
X099171Y018993D01*
X099171Y018834D02*
X106196Y018834D01*
X106355Y018676D02*
X099226Y018676D01*
X099373Y018517D02*
X106289Y018517D01*
X106223Y018359D02*
X099439Y018359D01*
X099461Y018200D02*
X106201Y018200D01*
X106206Y018042D02*
X099456Y018042D01*
X099390Y017883D02*
X106272Y017883D01*
X106831Y018680D02*
X106831Y020680D01*
X106831Y023680D01*
X107410Y023431D02*
X109491Y023431D01*
X109491Y023589D02*
X107461Y023589D01*
X107461Y023748D02*
X109491Y023748D01*
X109491Y023906D02*
X107419Y023906D01*
X107337Y024065D02*
X109491Y024065D01*
X109491Y024223D02*
X107166Y024223D01*
X110171Y024223D02*
X112379Y024223D01*
X112124Y024065D02*
X110171Y024065D01*
X110171Y023906D02*
X112018Y023906D01*
X111971Y023748D02*
X110171Y023748D01*
X110171Y023589D02*
X111971Y023589D01*
X112028Y023431D02*
X110171Y023431D01*
X110171Y023272D02*
X112147Y023272D01*
X112173Y023114D02*
X110171Y023114D01*
X110171Y022955D02*
X112039Y022955D01*
X111973Y022797D02*
X110171Y022797D01*
X110171Y022638D02*
X111971Y022638D01*
X112008Y022480D02*
X110224Y022480D01*
X110303Y022321D02*
X112098Y022321D01*
X112233Y022163D02*
X110321Y022163D01*
X110288Y022004D02*
X112063Y022004D01*
X111993Y021846D02*
X110189Y021846D01*
X109831Y022180D02*
X109831Y027180D01*
X110541Y027235D02*
X115121Y027235D01*
X115121Y027393D02*
X110541Y027393D01*
X110541Y027552D02*
X115121Y027552D01*
X115133Y027710D02*
X110529Y027710D01*
X110384Y027869D02*
X115277Y027869D01*
X116843Y028503D02*
X050941Y028503D01*
X049431Y027580D02*
X048731Y027580D01*
X048731Y027680D01*
X049431Y027580D02*
X049431Y027560D01*
X048911Y026840D02*
X047671Y026840D01*
X047671Y025248D01*
X047671Y025112D01*
X047619Y024987D01*
X046886Y024254D01*
X046886Y024070D01*
X046801Y023866D01*
X046671Y023735D01*
X046671Y023714D01*
X046721Y023735D01*
X046941Y023735D01*
X047145Y023651D01*
X047276Y023520D01*
X049500Y023520D01*
X049575Y023595D01*
X049751Y023668D01*
X049942Y023668D01*
X049991Y023648D01*
X049991Y025739D01*
X049300Y026430D01*
X049119Y026430D01*
X049024Y026470D01*
X048951Y026543D01*
X048911Y026638D01*
X048911Y026840D01*
X048911Y026759D02*
X047671Y026759D01*
X047671Y026601D02*
X048927Y026601D01*
X049090Y026442D02*
X047671Y026442D01*
X047671Y026284D02*
X049447Y026284D01*
X049605Y026125D02*
X047671Y026125D01*
X047671Y025967D02*
X049764Y025967D01*
X049922Y025808D02*
X047671Y025808D01*
X047671Y025650D02*
X049991Y025650D01*
X049991Y025491D02*
X047671Y025491D01*
X047671Y025333D02*
X049991Y025333D01*
X049991Y025174D02*
X047671Y025174D01*
X047631Y025016D02*
X049991Y025016D01*
X049991Y024857D02*
X047489Y024857D01*
X047330Y024699D02*
X049991Y024699D01*
X049991Y024540D02*
X047172Y024540D01*
X047013Y024382D02*
X049991Y024382D01*
X049991Y024223D02*
X046886Y024223D01*
X046884Y024065D02*
X049991Y024065D01*
X049991Y023906D02*
X046818Y023906D01*
X046683Y023748D02*
X049991Y023748D01*
X049569Y023589D02*
X047207Y023589D01*
X046831Y023180D02*
X049831Y023180D01*
X049847Y023188D01*
X050331Y022980D02*
X049931Y022580D01*
X042531Y022580D01*
X041491Y022638D02*
X037636Y022638D01*
X033555Y023748D02*
X032107Y023748D01*
X031555Y023748D02*
X027171Y023748D01*
X027171Y023589D02*
X031349Y023589D01*
X031253Y023431D02*
X027171Y023431D01*
X027171Y023272D02*
X031201Y023272D01*
X031201Y023114D02*
X027171Y023114D01*
X027171Y022955D02*
X031242Y022955D01*
X031323Y022797D02*
X027171Y022797D01*
X026491Y022359D02*
X026171Y022039D01*
X026171Y020575D01*
X026331Y020415D01*
X026491Y020575D01*
X026491Y022359D01*
X026491Y022321D02*
X026453Y022321D01*
X026491Y022163D02*
X026294Y022163D01*
X026171Y022004D02*
X026491Y022004D01*
X026491Y021846D02*
X026171Y021846D01*
X026171Y021687D02*
X026491Y021687D01*
X026491Y021529D02*
X026171Y021529D01*
X026171Y021370D02*
X026491Y021370D01*
X026491Y021212D02*
X026171Y021212D01*
X026171Y021053D02*
X026491Y021053D01*
X026491Y020895D02*
X026171Y020895D01*
X026171Y020736D02*
X026491Y020736D01*
X026491Y020578D02*
X026171Y020578D01*
X026327Y020419D02*
X026335Y020419D01*
X026330Y019944D02*
X026332Y019944D01*
X026491Y019785D02*
X026171Y019785D01*
X025831Y020180D02*
X025831Y022180D01*
X026331Y022680D01*
X026331Y026680D01*
X026914Y026442D02*
X027748Y026442D01*
X027701Y026601D02*
X026961Y026601D01*
X026961Y026759D02*
X027701Y026759D01*
X027747Y026918D02*
X026914Y026918D01*
X026826Y027076D02*
X027836Y027076D01*
X028023Y027235D02*
X026638Y027235D01*
X026023Y027235D02*
X018638Y027235D01*
X018826Y027076D02*
X025836Y027076D01*
X025747Y026918D02*
X018914Y026918D01*
X018961Y026759D02*
X025701Y026759D01*
X025701Y026601D02*
X018961Y026601D01*
X018914Y026442D02*
X025748Y026442D01*
X025836Y026284D02*
X018825Y026284D01*
X018637Y026125D02*
X025991Y026125D01*
X026671Y026125D02*
X028024Y026125D01*
X027836Y026284D02*
X026825Y026284D01*
X017831Y027180D02*
X016831Y027180D01*
X016331Y027180D01*
X012418Y025808D02*
X012376Y025808D01*
X012237Y025650D02*
X012661Y025650D01*
X011425Y025650D02*
X010114Y025650D01*
X010115Y025808D02*
X011286Y025808D01*
X011276Y025967D02*
X010116Y025967D01*
X010116Y026125D02*
X011276Y026125D01*
X011276Y026284D02*
X010117Y026284D01*
X010118Y026442D02*
X011276Y026442D01*
X011307Y026601D02*
X010119Y026601D01*
X010110Y024857D02*
X012245Y024857D01*
X012087Y024699D02*
X010110Y024699D01*
X010109Y024540D02*
X012013Y024540D01*
X011948Y024382D02*
X010108Y024382D01*
X010107Y024223D02*
X011938Y024223D01*
X011938Y024065D02*
X010107Y024065D01*
X010106Y023906D02*
X011978Y023906D01*
X012043Y023748D02*
X010105Y023748D01*
X010104Y023589D02*
X012159Y023589D01*
X012317Y023431D02*
X010104Y023431D01*
X010102Y022955D02*
X010461Y022955D01*
X010390Y022926D02*
X010226Y022761D01*
X010137Y022546D01*
X010137Y022314D01*
X010226Y022099D01*
X010390Y021934D01*
X010605Y021845D01*
X010838Y021845D01*
X011053Y021934D01*
X011218Y022099D01*
X011307Y022314D01*
X011307Y022546D01*
X011218Y022761D01*
X011053Y022926D01*
X010838Y023015D01*
X010605Y023015D01*
X010390Y022926D01*
X010261Y022797D02*
X010101Y022797D01*
X010100Y022638D02*
X010175Y022638D01*
X010137Y022480D02*
X010099Y022480D01*
X010099Y022321D02*
X010137Y022321D01*
X010098Y022163D02*
X010199Y022163D01*
X010097Y022004D02*
X010320Y022004D01*
X010096Y021846D02*
X010604Y021846D01*
X010839Y021846D02*
X012573Y021846D01*
X012808Y021846D02*
X016491Y021846D01*
X016491Y022004D02*
X013092Y022004D01*
X013213Y022163D02*
X016491Y022163D01*
X016491Y022321D02*
X013275Y022321D01*
X012289Y022004D02*
X011123Y022004D01*
X011244Y022163D02*
X012168Y022163D01*
X012105Y022321D02*
X011307Y022321D01*
X011307Y022480D02*
X012105Y022480D01*
X012143Y022638D02*
X011269Y022638D01*
X011182Y022797D02*
X012229Y022797D01*
X012429Y022955D02*
X010983Y022955D01*
X010096Y021687D02*
X016491Y021687D01*
X016491Y021529D02*
X010095Y021529D01*
X010094Y021370D02*
X016491Y021370D01*
X016491Y021212D02*
X010093Y021212D01*
X010093Y021053D02*
X016491Y021053D01*
X016491Y020895D02*
X016408Y020895D01*
X016081Y020430D02*
X016081Y019430D01*
X016491Y019812D02*
X016421Y019882D01*
X016421Y019978D01*
X016491Y020048D01*
X016491Y019812D01*
X016491Y019944D02*
X016421Y019944D01*
X015741Y019944D02*
X015386Y019944D01*
X015373Y019930D02*
X015581Y020138D01*
X015741Y019978D01*
X015741Y019882D01*
X015581Y019722D01*
X015373Y019930D01*
X015518Y019785D02*
X015644Y019785D01*
X015617Y020102D02*
X015545Y020102D01*
X014775Y019944D02*
X013467Y019944D01*
X013480Y019785D02*
X014644Y019785D01*
X014482Y019627D02*
X013920Y019627D01*
X013628Y019055D02*
X015081Y019430D01*
X015435Y018993D02*
X015726Y018993D01*
X015789Y018930D02*
X015581Y018722D01*
X015373Y018930D01*
X015581Y019138D01*
X015789Y018930D01*
X015693Y018834D02*
X015469Y018834D01*
X015081Y018430D02*
X013181Y018305D01*
X012840Y018327D01*
X012379Y017883D02*
X010078Y017883D01*
X010077Y017725D02*
X012621Y017725D01*
X013059Y017725D02*
X015991Y017725D01*
X015991Y017566D02*
X010076Y017566D01*
X010076Y017408D02*
X015991Y017408D01*
X015991Y017249D02*
X010075Y017249D01*
X010074Y017091D02*
X015991Y017091D01*
X015836Y017883D02*
X015326Y017883D01*
X015484Y018042D02*
X015677Y018042D01*
X014836Y017883D02*
X013302Y017883D01*
X012266Y018042D02*
X010079Y018042D01*
X010079Y018200D02*
X012200Y018200D01*
X012200Y018359D02*
X012046Y018359D01*
X011666Y018359D02*
X010080Y018359D01*
X010081Y018517D02*
X010544Y018517D01*
X010385Y018676D02*
X010082Y018676D01*
X010082Y018834D02*
X010310Y018834D01*
X010271Y018993D02*
X010083Y018993D01*
X010084Y019151D02*
X010271Y019151D01*
X010324Y019310D02*
X010085Y019310D01*
X010085Y019468D02*
X010419Y019468D01*
X010618Y019627D02*
X010086Y019627D01*
X010087Y019785D02*
X012200Y019785D01*
X012214Y019944D02*
X010087Y019944D01*
X010088Y020102D02*
X012279Y020102D01*
X012412Y020261D02*
X010089Y020261D01*
X010090Y020419D02*
X012703Y020419D01*
X012978Y020419D02*
X014521Y020419D01*
X014521Y020261D02*
X013268Y020261D01*
X013401Y020102D02*
X014617Y020102D01*
X014521Y020578D02*
X010090Y020578D01*
X010091Y020736D02*
X014595Y020736D01*
X014754Y020895D02*
X010092Y020895D01*
X011204Y019627D02*
X011415Y019627D01*
X012570Y019203D02*
X012713Y019143D01*
X012968Y019143D01*
X012988Y019152D01*
X012988Y018958D01*
X012968Y018967D01*
X012713Y018967D01*
X012570Y018907D01*
X012572Y018913D01*
X012572Y019197D01*
X012570Y019203D01*
X012572Y019151D02*
X012694Y019151D01*
X012572Y018993D02*
X012988Y018993D01*
X012986Y019151D02*
X012988Y019151D01*
X014178Y018711D02*
X014240Y018862D01*
X014731Y018988D01*
X014789Y018930D01*
X014598Y018739D01*
X014178Y018711D01*
X014229Y018834D02*
X014693Y018834D01*
X016373Y018930D02*
X016491Y018812D01*
X016491Y019048D01*
X016373Y018930D01*
X016435Y018993D02*
X016491Y018993D01*
X016491Y018834D02*
X016469Y018834D01*
X014677Y018042D02*
X014355Y018042D01*
X011381Y018517D02*
X011278Y018517D01*
X015408Y020895D02*
X015754Y020895D01*
X015595Y020736D02*
X015567Y020736D01*
X018171Y021212D02*
X021908Y021212D01*
X021777Y021370D02*
X018171Y021370D01*
X018171Y021529D02*
X021712Y021529D01*
X021701Y021687D02*
X018171Y021687D01*
X018171Y021846D02*
X021718Y021846D01*
X021783Y022004D02*
X018171Y022004D01*
X018171Y022163D02*
X021923Y022163D01*
X022491Y022321D02*
X018171Y022321D01*
X022331Y021680D02*
X023831Y023180D01*
X042439Y021053D02*
X052977Y021053D01*
X051709Y022321D02*
X050153Y022321D01*
X050311Y022480D02*
X051551Y022480D01*
X051491Y022638D02*
X050470Y022638D01*
X050623Y022797D02*
X051491Y022797D01*
X051392Y022955D02*
X050671Y022955D01*
X050671Y023114D02*
X051335Y023114D01*
X051258Y023272D02*
X050671Y023272D01*
X050671Y023431D02*
X051100Y023431D01*
X050941Y023589D02*
X050671Y023589D01*
X051586Y023906D02*
X054102Y023906D01*
X054051Y023748D02*
X051744Y023748D01*
X052093Y023589D02*
X054051Y023589D01*
X054111Y023431D02*
X052234Y023431D01*
X052295Y023272D02*
X054244Y023272D01*
X054220Y024065D02*
X051427Y024065D01*
X050331Y022980D02*
X050331Y025880D01*
X049431Y026780D01*
X049431Y026800D01*
X049951Y026810D02*
X049951Y026741D01*
X050491Y026201D01*
X050491Y026810D01*
X049951Y026810D01*
X049951Y026759D02*
X050491Y026759D01*
X050491Y026601D02*
X050091Y026601D01*
X050250Y026442D02*
X050491Y026442D01*
X050491Y026284D02*
X050408Y026284D01*
X046991Y026284D02*
X046825Y026284D01*
X046865Y026323D02*
X046961Y026555D01*
X046961Y026805D01*
X046865Y027037D01*
X046688Y027214D01*
X046456Y027310D01*
X046206Y027310D01*
X045974Y027214D01*
X045797Y027037D01*
X045701Y026805D01*
X045701Y026555D01*
X045797Y026323D01*
X045974Y026146D01*
X046206Y026050D01*
X046456Y026050D01*
X046688Y026146D01*
X046865Y026323D01*
X046914Y026442D02*
X046991Y026442D01*
X046991Y026601D02*
X046961Y026601D01*
X046961Y026759D02*
X046991Y026759D01*
X046991Y026918D02*
X046914Y026918D01*
X046991Y027076D02*
X046826Y027076D01*
X046991Y027235D02*
X046638Y027235D01*
X047063Y027393D02*
X042881Y027393D01*
X043039Y027235D02*
X046023Y027235D01*
X045836Y027076D02*
X043134Y027076D01*
X043199Y026918D02*
X045747Y026918D01*
X045701Y026759D02*
X043224Y026759D01*
X043224Y026601D02*
X045701Y026601D01*
X045748Y026442D02*
X043199Y026442D01*
X043133Y026284D02*
X045836Y026284D01*
X046024Y026125D02*
X043039Y026125D01*
X042881Y025967D02*
X046991Y025967D01*
X046991Y026125D02*
X046637Y026125D01*
X058171Y023272D02*
X058244Y023272D01*
X060988Y022004D02*
X065991Y022004D01*
X065991Y021846D02*
X061130Y021846D01*
X061171Y021687D02*
X065991Y021687D01*
X065991Y021529D02*
X061171Y021529D01*
X061171Y021370D02*
X062040Y021370D01*
X061882Y021212D02*
X061171Y021212D01*
X061171Y021053D02*
X061723Y021053D01*
X061565Y020895D02*
X061171Y020895D01*
X061171Y020736D02*
X061406Y020736D01*
X061248Y020578D02*
X061171Y020578D01*
X062331Y021180D02*
X066331Y021180D01*
X064331Y019180D02*
X064331Y017680D01*
X073388Y015981D02*
X073491Y015981D01*
X073491Y015823D02*
X073454Y015823D01*
X075218Y016774D02*
X077991Y016774D01*
X077991Y016932D02*
X075060Y016932D01*
X081230Y015189D02*
X086991Y015189D01*
X086991Y015347D02*
X081375Y015347D01*
X086331Y012180D02*
X087331Y013180D01*
X087331Y025680D01*
X088831Y027180D01*
X086991Y025174D02*
X081636Y025174D01*
X082038Y025016D02*
X086991Y025016D01*
X086991Y024857D02*
X082275Y024857D01*
X082433Y024699D02*
X086991Y024699D01*
X086991Y024540D02*
X082557Y024540D01*
X082648Y024382D02*
X084552Y024382D01*
X084491Y024223D02*
X082725Y024223D01*
X082767Y024065D02*
X084491Y024065D01*
X084491Y023906D02*
X082810Y023906D01*
X082816Y023748D02*
X084391Y023748D01*
X084341Y023589D02*
X082816Y023589D01*
X082803Y023431D02*
X084341Y023431D01*
X084341Y023272D02*
X082761Y023272D01*
X082718Y023114D02*
X084341Y023114D01*
X084341Y022955D02*
X082635Y022955D01*
X082543Y022797D02*
X084341Y022797D01*
X084380Y022638D02*
X082410Y022638D01*
X082251Y022480D02*
X084467Y022480D01*
X084491Y022321D02*
X081997Y022321D01*
X081671Y022163D02*
X084491Y022163D01*
X084491Y022004D02*
X081671Y022004D01*
X081671Y021846D02*
X084491Y021846D01*
X084491Y021687D02*
X081671Y021687D01*
X081675Y021529D02*
X084491Y021529D01*
X085171Y021529D02*
X086991Y021529D01*
X086991Y021687D02*
X085171Y021687D01*
X085171Y021846D02*
X086991Y021846D01*
X086991Y022004D02*
X085171Y022004D01*
X085171Y022163D02*
X086991Y022163D01*
X086466Y022321D02*
X086096Y022321D01*
X085566Y022321D02*
X085196Y022321D01*
X085171Y021370D02*
X086991Y021370D01*
X086991Y021212D02*
X085171Y021212D01*
X085171Y021053D02*
X086991Y021053D01*
X086991Y020895D02*
X085171Y020895D01*
X088171Y020102D02*
X088575Y020102D01*
X088380Y019944D02*
X088171Y019944D01*
X088171Y019785D02*
X088247Y019785D01*
X088181Y019627D02*
X088171Y019627D01*
X088171Y018993D02*
X088198Y018993D01*
X088171Y018834D02*
X088264Y018834D01*
X088171Y018676D02*
X088421Y018676D01*
X088171Y018517D02*
X088674Y018517D01*
X096281Y017180D02*
X096331Y017180D01*
X096331Y022180D01*
X086991Y024065D02*
X086934Y024065D01*
X086991Y024223D02*
X086769Y024223D01*
X086610Y024382D02*
X086991Y024382D01*
X080991Y022163D02*
X075863Y022163D01*
X076007Y022004D02*
X080991Y022004D01*
X080991Y021846D02*
X076073Y021846D01*
X076131Y021687D02*
X080991Y021687D01*
X080565Y022321D02*
X075641Y022321D01*
X076131Y021529D02*
X077987Y021529D01*
X077879Y021370D02*
X076131Y021370D01*
X076072Y021212D02*
X077841Y021212D01*
X077853Y021053D02*
X076006Y021053D01*
X075860Y020895D02*
X077923Y020895D01*
X096331Y017180D02*
X096331Y013680D01*
X095991Y014238D02*
X090637Y014238D01*
X090862Y014396D02*
X095991Y014396D01*
X097140Y012970D02*
X087601Y012970D01*
X087443Y012811D02*
X096981Y012811D01*
X096823Y012653D02*
X087284Y012653D01*
X087126Y012494D02*
X096664Y012494D01*
X096506Y012336D02*
X086967Y012336D01*
X075819Y010909D02*
X116843Y010909D01*
X116843Y010751D02*
X075686Y010751D01*
X074276Y012290D02*
X074360Y012494D01*
X074521Y012653D02*
X074171Y012653D01*
X052421Y017883D02*
X051671Y017883D01*
X051671Y018042D02*
X052206Y018042D01*
X052063Y018200D02*
X051671Y018200D01*
X051671Y018359D02*
X051997Y018359D01*
X051938Y018517D02*
X051671Y018517D01*
X051671Y018676D02*
X051938Y018676D01*
X051938Y018834D02*
X051671Y018834D01*
X051671Y018993D02*
X051994Y018993D01*
X052059Y019151D02*
X051783Y019151D01*
X051941Y019310D02*
X052198Y019310D01*
X052100Y019468D02*
X052400Y019468D01*
X052641Y019627D02*
X053991Y019627D01*
X041810Y016457D02*
X041248Y016457D01*
X041382Y016615D02*
X041745Y016615D01*
X041688Y016774D02*
X041448Y016774D01*
X040413Y016457D02*
X033248Y016457D01*
X033382Y016615D02*
X040280Y016615D01*
X040214Y016774D02*
X033448Y016774D01*
X033461Y016932D02*
X040201Y016932D01*
X040216Y017091D02*
X033446Y017091D01*
X033381Y017249D02*
X040281Y017249D01*
X040418Y017408D02*
X033244Y017408D01*
X025478Y016298D02*
X023476Y016298D01*
X024101Y014713D02*
X016671Y014713D01*
X016671Y014555D02*
X024019Y014555D01*
X021839Y014079D02*
X016671Y014079D01*
X016671Y013921D02*
X021749Y013921D01*
X021701Y013762D02*
X016671Y013762D01*
X016667Y013604D02*
X021701Y013604D01*
X021746Y013445D02*
X016577Y013445D01*
X016418Y013287D02*
X021833Y013287D01*
X022017Y013128D02*
X016386Y013128D01*
X097000Y015823D02*
X097491Y015823D01*
X097491Y015981D02*
X097253Y015981D01*
X097411Y016140D02*
X097491Y016140D01*
X098171Y017725D02*
X098395Y017725D01*
X098272Y017883D02*
X098171Y017883D01*
X098171Y018042D02*
X098206Y018042D01*
X107190Y021212D02*
X112207Y021212D01*
X112053Y021370D02*
X107171Y021370D01*
X107171Y021529D02*
X111988Y021529D01*
X111971Y021687D02*
X107171Y021687D01*
X107171Y021846D02*
X109472Y021846D01*
X109373Y022004D02*
X107171Y022004D01*
X107171Y022163D02*
X109341Y022163D01*
X109359Y022321D02*
X107171Y022321D01*
X107171Y022480D02*
X109438Y022480D01*
X109491Y022638D02*
X107171Y022638D01*
X107171Y022797D02*
X109491Y022797D01*
X109491Y022955D02*
X107171Y022955D01*
X107171Y023114D02*
X109491Y023114D01*
X109491Y023272D02*
X107314Y023272D01*
X110171Y024382D02*
X113052Y024382D01*
X113210Y024540D02*
X110171Y024540D01*
X110171Y024699D02*
X113369Y024699D01*
X113527Y024857D02*
X110171Y024857D01*
X110171Y025016D02*
X113686Y025016D01*
X113844Y025174D02*
X110171Y025174D01*
X110171Y025333D02*
X114003Y025333D01*
X114161Y025491D02*
X110171Y025491D01*
X110171Y025650D02*
X114320Y025650D01*
X114478Y025808D02*
X110171Y025808D01*
X110171Y025967D02*
X114637Y025967D01*
X114795Y026125D02*
X110171Y026125D01*
X110171Y026284D02*
X114954Y026284D01*
X115112Y026442D02*
X110171Y026442D01*
X110509Y026601D02*
X115153Y026601D01*
X115121Y026759D02*
X110541Y026759D01*
X110541Y026918D02*
X115121Y026918D01*
X115121Y027076D02*
X110541Y027076D01*
X112831Y023680D02*
X115831Y026680D01*
X115831Y027180D01*
X117803Y021370D02*
X119331Y021370D01*
X119331Y021212D02*
X117803Y021212D01*
X117803Y021053D02*
X119331Y021053D01*
X119331Y020895D02*
X117803Y020895D01*
X117803Y020736D02*
X119331Y020736D01*
X119331Y020578D02*
X117803Y020578D01*
X117803Y020419D02*
X119331Y020419D01*
X119331Y020261D02*
X117803Y020261D01*
X117803Y020102D02*
X119331Y020102D01*
X119331Y019944D02*
X117803Y019944D01*
X117803Y019785D02*
X119331Y019785D01*
X119331Y019627D02*
X117803Y019627D01*
X117803Y019468D02*
X119331Y019468D01*
X119331Y019310D02*
X117803Y019310D01*
X117803Y019151D02*
X119331Y019151D01*
X119331Y018993D02*
X117803Y018993D01*
X117803Y018834D02*
X119331Y018834D01*
X119331Y018676D02*
X117803Y018676D01*
X117803Y018517D02*
X119331Y018517D01*
X119331Y018359D02*
X117803Y018359D01*
X117803Y018200D02*
X119331Y018200D01*
X119331Y018042D02*
X117803Y018042D01*
X117803Y017883D02*
X119331Y017883D01*
X119331Y017725D02*
X117803Y017725D01*
X117803Y017566D02*
X119331Y017566D01*
X119331Y017408D02*
X117803Y017408D01*
X117803Y017249D02*
X119331Y017249D01*
X119331Y017091D02*
X117803Y017091D01*
X117803Y016932D02*
X119331Y016932D01*
X119331Y016774D02*
X117803Y016774D01*
X117803Y016615D02*
X119331Y016615D01*
X119331Y016457D02*
X117803Y016457D01*
X117803Y016298D02*
X119331Y016298D01*
X119331Y016140D02*
X117803Y016140D01*
X117803Y015981D02*
X119331Y015981D01*
X119331Y015823D02*
X117803Y015823D01*
X117803Y015664D02*
X119331Y015664D01*
X119331Y015506D02*
X117803Y015506D01*
X117803Y015347D02*
X119331Y015347D01*
X119331Y015189D02*
X117803Y015189D01*
X117803Y015030D02*
X119331Y015030D01*
X119331Y014872D02*
X117803Y014872D01*
X117803Y014713D02*
X119331Y014713D01*
X119331Y014555D02*
X117803Y014555D01*
X117803Y014396D02*
X119331Y014396D01*
X119331Y014238D02*
X117803Y014238D01*
X117803Y014079D02*
X119331Y014079D01*
X119331Y013921D02*
X117803Y013921D01*
X117803Y013762D02*
X119331Y013762D01*
X119331Y013604D02*
X117803Y013604D01*
X117803Y013445D02*
X119331Y013445D01*
X119331Y013287D02*
X117803Y013287D01*
X117803Y013128D02*
X119331Y013128D01*
X119331Y012970D02*
X117803Y012970D01*
X117803Y012811D02*
X119331Y012811D01*
X119331Y012653D02*
X117803Y012653D01*
X117803Y012494D02*
X119331Y012494D01*
X119331Y012336D02*
X117803Y012336D01*
X117803Y012177D02*
X119331Y012177D01*
X119331Y012019D02*
X117803Y012019D01*
X117803Y011860D02*
X119331Y011860D01*
X119331Y011702D02*
X117803Y011702D01*
X117803Y011543D02*
X119331Y011543D01*
X119331Y011385D02*
X117803Y011385D01*
X117803Y011226D02*
X119331Y011226D01*
X119331Y011068D02*
X117803Y011068D01*
X117803Y010909D02*
X119331Y010909D01*
X119331Y010751D02*
X117803Y010751D01*
X117803Y010592D02*
X119331Y010592D01*
X119331Y010434D02*
X117803Y010434D01*
X117803Y010275D02*
X119331Y010275D01*
X119331Y010117D02*
X117803Y010117D01*
X117751Y009958D02*
X119331Y009958D01*
X119331Y009800D02*
X117621Y009800D01*
X116843Y011068D02*
X102117Y011068D01*
X102275Y011226D02*
X116843Y011226D01*
X116843Y011385D02*
X102434Y011385D01*
X102466Y011543D02*
X116843Y011543D01*
X107229Y012019D02*
X102390Y012019D01*
X102232Y012177D02*
X107073Y012177D01*
X112831Y017180D02*
X112956Y018730D01*
X113031Y019105D01*
X113034Y019855D01*
X113081Y019855D02*
X113131Y019880D01*
X113081Y019855D02*
X113073Y019854D01*
X113066Y019850D01*
X113061Y019845D01*
X113057Y019838D01*
X113056Y019830D01*
X114960Y019143D02*
X115031Y018965D01*
X115484Y018997D01*
X115459Y019283D01*
X115388Y019312D01*
X115332Y019368D01*
X115212Y019248D01*
X114960Y019143D01*
X114978Y019151D02*
X115471Y019151D01*
X115425Y018993D02*
X115020Y018993D01*
X115273Y019310D02*
X115395Y019310D01*
X115831Y018930D02*
X115751Y019855D01*
X115831Y018930D02*
X115831Y018680D01*
X113621Y018517D02*
X113280Y018517D01*
X113131Y019880D02*
X113205Y019887D01*
X113279Y019891D01*
X113353Y019890D01*
X113427Y019886D01*
X113500Y019878D01*
X113573Y019866D01*
X113646Y019851D01*
X113717Y019832D01*
X113788Y019809D01*
X113857Y019783D01*
X113925Y019754D01*
X113991Y019721D01*
X114055Y019684D01*
X114118Y019645D01*
X114178Y019602D01*
X114237Y019556D01*
X114293Y019508D01*
X114346Y019456D01*
X114396Y019402D01*
X114444Y019346D01*
X114489Y019287D01*
X114531Y019226D01*
X114570Y019163D01*
X114605Y019098D01*
X114638Y019031D01*
X114666Y018963D01*
X114692Y018893D01*
X114713Y018823D01*
X114731Y018751D01*
X114746Y018678D01*
X114756Y018605D01*
X113368Y018676D02*
X113293Y018676D01*
D30*
X109831Y022180D03*
X096331Y022180D03*
X081331Y021180D03*
X078331Y021180D03*
X069331Y017680D03*
X064331Y017680D03*
X058331Y016980D03*
X071831Y013180D03*
X073831Y014180D03*
X074331Y016180D03*
X061831Y012680D03*
X043831Y014180D03*
X043331Y020180D03*
X048731Y027680D03*
X017331Y025180D03*
X096331Y013680D03*
X099831Y013680D03*
D31*
X107831Y012680D03*
X072331Y018180D03*
X052831Y018680D03*
X048831Y019680D03*
X042581Y016930D03*
X039331Y021680D03*
X037081Y021930D03*
X042331Y026680D03*
X019581Y023930D03*
X012831Y024180D03*
X013331Y016180D03*
X022831Y015680D03*
X024831Y014180D03*
M02*
