G75*
G70*
%OFA0B0*%
%FSLAX24Y24*%
%IPPOS*%
%LPD*%
%AMOC8*
5,1,8,0,0,1.08239X$1,22.5*
%
%ADD10C,0.0060*%
%ADD11C,0.0000*%
%ADD12C,0.0080*%
%ADD13C,0.0100*%
%ADD14C,0.0050*%
%ADD15C,0.0030*%
%ADD16R,0.0200X0.0800*%
%ADD17R,0.0750X0.0200*%
%ADD18C,0.0340*%
%ADD19R,0.0500X0.0700*%
%ADD20R,0.0300X0.0850*%
%ADD21C,0.0020*%
%ADD22C,0.0070*%
%ADD23C,0.0120*%
%ADD24C,0.0300*%
%ADD25R,0.0200X0.0300*%
%ADD26R,0.0400X0.0300*%
%ADD27C,0.0040*%
%ADD28R,0.0300X0.0300*%
%ADD29C,0.0010*%
D10*
X015761Y012110D02*
X015911Y012110D01*
X010911Y012610D02*
X010761Y012610D01*
X025331Y016680D02*
X025333Y016743D01*
X025339Y016805D01*
X025349Y016867D01*
X025362Y016929D01*
X025380Y016989D01*
X025401Y017048D01*
X025426Y017106D01*
X025455Y017162D01*
X025487Y017216D01*
X025522Y017268D01*
X025560Y017317D01*
X025602Y017365D01*
X025646Y017409D01*
X025694Y017451D01*
X025743Y017489D01*
X025795Y017524D01*
X025849Y017556D01*
X025905Y017585D01*
X025963Y017610D01*
X026022Y017631D01*
X026082Y017649D01*
X026144Y017662D01*
X026206Y017672D01*
X026268Y017678D01*
X026331Y017680D01*
X026394Y017678D01*
X026456Y017672D01*
X026518Y017662D01*
X026580Y017649D01*
X026640Y017631D01*
X026699Y017610D01*
X026757Y017585D01*
X026813Y017556D01*
X026867Y017524D01*
X026919Y017489D01*
X026968Y017451D01*
X027016Y017409D01*
X027060Y017365D01*
X027102Y017317D01*
X027140Y017268D01*
X027175Y017216D01*
X027207Y017162D01*
X027236Y017106D01*
X027261Y017048D01*
X027282Y016989D01*
X027300Y016929D01*
X027313Y016867D01*
X027323Y016805D01*
X027329Y016743D01*
X027331Y016680D01*
X027329Y016617D01*
X027323Y016555D01*
X027313Y016493D01*
X027300Y016431D01*
X027282Y016371D01*
X027261Y016312D01*
X027236Y016254D01*
X027207Y016198D01*
X027175Y016144D01*
X027140Y016092D01*
X027102Y016043D01*
X027060Y015995D01*
X027016Y015951D01*
X026968Y015909D01*
X026919Y015871D01*
X026867Y015836D01*
X026813Y015804D01*
X026757Y015775D01*
X026699Y015750D01*
X026640Y015729D01*
X026580Y015711D01*
X026518Y015698D01*
X026456Y015688D01*
X026394Y015682D01*
X026331Y015680D01*
X026268Y015682D01*
X026206Y015688D01*
X026144Y015698D01*
X026082Y015711D01*
X026022Y015729D01*
X025963Y015750D01*
X025905Y015775D01*
X025849Y015804D01*
X025795Y015836D01*
X025743Y015871D01*
X025694Y015909D01*
X025646Y015951D01*
X025602Y015995D01*
X025560Y016043D01*
X025522Y016092D01*
X025487Y016144D01*
X025455Y016198D01*
X025426Y016254D01*
X025401Y016312D01*
X025380Y016371D01*
X025362Y016431D01*
X025349Y016493D01*
X025339Y016555D01*
X025333Y016617D01*
X025331Y016680D01*
X031761Y018610D02*
X031911Y018610D01*
X025331Y020180D02*
X025333Y020243D01*
X025339Y020305D01*
X025349Y020367D01*
X025362Y020429D01*
X025380Y020489D01*
X025401Y020548D01*
X025426Y020606D01*
X025455Y020662D01*
X025487Y020716D01*
X025522Y020768D01*
X025560Y020817D01*
X025602Y020865D01*
X025646Y020909D01*
X025694Y020951D01*
X025743Y020989D01*
X025795Y021024D01*
X025849Y021056D01*
X025905Y021085D01*
X025963Y021110D01*
X026022Y021131D01*
X026082Y021149D01*
X026144Y021162D01*
X026206Y021172D01*
X026268Y021178D01*
X026331Y021180D01*
X026394Y021178D01*
X026456Y021172D01*
X026518Y021162D01*
X026580Y021149D01*
X026640Y021131D01*
X026699Y021110D01*
X026757Y021085D01*
X026813Y021056D01*
X026867Y021024D01*
X026919Y020989D01*
X026968Y020951D01*
X027016Y020909D01*
X027060Y020865D01*
X027102Y020817D01*
X027140Y020768D01*
X027175Y020716D01*
X027207Y020662D01*
X027236Y020606D01*
X027261Y020548D01*
X027282Y020489D01*
X027300Y020429D01*
X027313Y020367D01*
X027323Y020305D01*
X027329Y020243D01*
X027331Y020180D01*
X027329Y020117D01*
X027323Y020055D01*
X027313Y019993D01*
X027300Y019931D01*
X027282Y019871D01*
X027261Y019812D01*
X027236Y019754D01*
X027207Y019698D01*
X027175Y019644D01*
X027140Y019592D01*
X027102Y019543D01*
X027060Y019495D01*
X027016Y019451D01*
X026968Y019409D01*
X026919Y019371D01*
X026867Y019336D01*
X026813Y019304D01*
X026757Y019275D01*
X026699Y019250D01*
X026640Y019229D01*
X026580Y019211D01*
X026518Y019198D01*
X026456Y019188D01*
X026394Y019182D01*
X026331Y019180D01*
X026268Y019182D01*
X026206Y019188D01*
X026144Y019198D01*
X026082Y019211D01*
X026022Y019229D01*
X025963Y019250D01*
X025905Y019275D01*
X025849Y019304D01*
X025795Y019336D01*
X025743Y019371D01*
X025694Y019409D01*
X025646Y019451D01*
X025602Y019495D01*
X025560Y019543D01*
X025522Y019592D01*
X025487Y019644D01*
X025455Y019698D01*
X025426Y019754D01*
X025401Y019812D01*
X025380Y019871D01*
X025362Y019931D01*
X025349Y019993D01*
X025339Y020055D01*
X025333Y020117D01*
X025331Y020180D01*
X017831Y019930D02*
X017831Y018930D01*
X017831Y017930D01*
X016831Y017930D01*
X016831Y018930D01*
X017831Y018930D01*
X016831Y018930D02*
X016831Y019930D01*
X017831Y019930D01*
X017831Y020930D01*
X016831Y020930D01*
X016831Y019930D01*
X014288Y019744D02*
X014288Y019530D01*
X014181Y019424D01*
X013861Y019424D01*
X014074Y019424D02*
X014288Y019210D01*
X014181Y018851D02*
X013968Y018851D01*
X013861Y018744D01*
X013861Y018317D01*
X013968Y018210D01*
X014181Y018210D01*
X014288Y018317D01*
X014288Y018530D01*
X014074Y018530D01*
X014288Y018744D02*
X014181Y018851D01*
X013861Y019210D02*
X013861Y019851D01*
X014181Y019851D01*
X014288Y019744D01*
X014288Y020210D02*
X013861Y020210D01*
X013861Y020851D01*
X012508Y022960D02*
X012081Y022960D01*
X012294Y022960D02*
X012294Y023601D01*
X012081Y023387D01*
X011863Y023494D02*
X011756Y023601D01*
X011543Y023601D01*
X011436Y023494D01*
X011436Y023067D01*
X011543Y022960D01*
X011756Y022960D01*
X011863Y023067D01*
X012261Y026110D02*
X012411Y026110D01*
X016761Y026110D02*
X016911Y026110D01*
X046261Y023110D02*
X046411Y023110D01*
X049610Y022893D02*
X052051Y022893D01*
X052051Y024526D01*
X049610Y024526D01*
X049610Y022893D01*
X055931Y023380D02*
X055931Y023980D01*
X055933Y023997D01*
X055937Y024014D01*
X055944Y024030D01*
X055954Y024044D01*
X055967Y024057D01*
X055981Y024067D01*
X055997Y024074D01*
X056014Y024078D01*
X056031Y024080D01*
X057631Y024080D01*
X057648Y024078D01*
X057665Y024074D01*
X057681Y024067D01*
X057695Y024057D01*
X057708Y024044D01*
X057718Y024030D01*
X057725Y024014D01*
X057729Y023997D01*
X057731Y023980D01*
X057731Y023380D01*
X057729Y023363D01*
X057725Y023346D01*
X057718Y023330D01*
X057708Y023316D01*
X057695Y023303D01*
X057681Y023293D01*
X057665Y023286D01*
X057648Y023282D01*
X057631Y023280D01*
X056031Y023280D01*
X056014Y023282D01*
X055997Y023286D01*
X055981Y023293D01*
X055967Y023303D01*
X055954Y023316D01*
X055944Y023330D01*
X055937Y023346D01*
X055933Y023363D01*
X055931Y023380D01*
X056581Y023680D02*
X056831Y023680D01*
X056831Y023430D01*
X056831Y023680D02*
X056831Y023930D01*
X056831Y023680D02*
X057231Y023930D01*
X057231Y023430D01*
X056831Y023680D01*
X057431Y023680D01*
X055681Y026580D02*
X052981Y026580D01*
X052964Y026582D01*
X052947Y026586D01*
X052931Y026593D01*
X052917Y026603D01*
X052904Y026616D01*
X052894Y026630D01*
X052887Y026646D01*
X052883Y026663D01*
X052881Y026680D01*
X052881Y027680D01*
X052883Y027697D01*
X052887Y027714D01*
X052894Y027730D01*
X052904Y027744D01*
X052917Y027757D01*
X052931Y027767D01*
X052947Y027774D01*
X052964Y027778D01*
X052981Y027780D01*
X055681Y027780D01*
X055698Y027778D01*
X055715Y027774D01*
X055731Y027767D01*
X055745Y027757D01*
X055758Y027744D01*
X055768Y027730D01*
X055775Y027714D01*
X055779Y027697D01*
X055781Y027680D01*
X055781Y026680D01*
X055779Y026663D01*
X055775Y026646D01*
X055768Y026630D01*
X055758Y026616D01*
X055745Y026603D01*
X055731Y026593D01*
X055715Y026586D01*
X055698Y026582D01*
X055681Y026580D01*
X054931Y027180D02*
X054461Y027180D01*
X054211Y027180D02*
X053731Y027180D01*
X050111Y026940D02*
X050111Y026590D01*
X049771Y026590D01*
X049551Y027040D02*
X049551Y027320D01*
X049771Y027770D02*
X049951Y027770D01*
X050111Y027770D01*
X050111Y027420D01*
X049821Y027650D02*
X049841Y027650D01*
X049860Y027654D01*
X049879Y027660D01*
X049897Y027670D01*
X049912Y027682D01*
X049926Y027696D01*
X049937Y027713D01*
X049945Y027731D01*
X049949Y027751D01*
X049951Y027770D01*
X058931Y027480D02*
X058931Y026880D01*
X058933Y026863D01*
X058937Y026846D01*
X058944Y026830D01*
X058954Y026816D01*
X058967Y026803D01*
X058981Y026793D01*
X058997Y026786D01*
X059014Y026782D01*
X059031Y026780D01*
X060631Y026780D01*
X060648Y026782D01*
X060665Y026786D01*
X060681Y026793D01*
X060695Y026803D01*
X060708Y026816D01*
X060718Y026830D01*
X060725Y026846D01*
X060729Y026863D01*
X060731Y026880D01*
X060731Y027480D01*
X060729Y027497D01*
X060725Y027514D01*
X060718Y027530D01*
X060708Y027544D01*
X060695Y027557D01*
X060681Y027567D01*
X060665Y027574D01*
X060648Y027578D01*
X060631Y027580D01*
X059031Y027580D01*
X059014Y027578D01*
X058997Y027574D01*
X058981Y027567D01*
X058967Y027557D01*
X058954Y027544D01*
X058944Y027530D01*
X058937Y027514D01*
X058933Y027497D01*
X058931Y027480D01*
X059581Y027180D02*
X059831Y027180D01*
X059831Y026930D01*
X059831Y027180D02*
X059831Y027430D01*
X059831Y027180D02*
X060231Y027430D01*
X060231Y026930D01*
X059831Y027180D01*
X060431Y027180D01*
X064731Y027430D02*
X064931Y027430D01*
X064831Y027330D02*
X064831Y027530D01*
X065031Y027580D02*
X065031Y027180D01*
X065031Y026780D01*
X065231Y026780D01*
X065231Y027580D01*
X065031Y027580D01*
X065031Y027180D02*
X064781Y027180D01*
X064201Y026646D02*
X064232Y026584D01*
X064267Y026525D01*
X064304Y026467D01*
X064345Y026412D01*
X064389Y026358D01*
X064436Y026308D01*
X064485Y026260D01*
X064537Y026215D01*
X064591Y026172D01*
X064648Y026133D01*
X064706Y026097D01*
X064767Y026064D01*
X064829Y026035D01*
X064893Y026009D01*
X064958Y025987D01*
X065024Y025968D01*
X065092Y025953D01*
X065159Y025942D01*
X065228Y025934D01*
X065297Y025930D01*
X065365Y025930D01*
X065434Y025934D01*
X065503Y025942D01*
X065570Y025953D01*
X065638Y025968D01*
X065704Y025987D01*
X065769Y026009D01*
X065833Y026035D01*
X065895Y026064D01*
X065956Y026097D01*
X066014Y026133D01*
X066071Y026172D01*
X066125Y026215D01*
X066177Y026260D01*
X066226Y026308D01*
X066273Y026358D01*
X066317Y026412D01*
X066358Y026467D01*
X066395Y026525D01*
X066430Y026584D01*
X066461Y026646D01*
X065881Y027180D02*
X065581Y027180D01*
X066461Y027714D02*
X066430Y027776D01*
X066395Y027835D01*
X066358Y027893D01*
X066317Y027948D01*
X066273Y028002D01*
X066226Y028052D01*
X066177Y028100D01*
X066125Y028145D01*
X066071Y028188D01*
X066014Y028227D01*
X065956Y028263D01*
X065895Y028296D01*
X065833Y028325D01*
X065769Y028351D01*
X065704Y028373D01*
X065638Y028392D01*
X065570Y028407D01*
X065503Y028418D01*
X065434Y028426D01*
X065365Y028430D01*
X065297Y028430D01*
X065228Y028426D01*
X065159Y028418D01*
X065092Y028407D01*
X065024Y028392D01*
X064958Y028373D01*
X064893Y028351D01*
X064829Y028325D01*
X064767Y028296D01*
X064706Y028263D01*
X064648Y028227D01*
X064591Y028188D01*
X064537Y028145D01*
X064485Y028100D01*
X064436Y028052D01*
X064389Y028002D01*
X064345Y027948D01*
X064304Y027893D01*
X064267Y027835D01*
X064232Y027776D01*
X064201Y027714D01*
X068531Y025480D02*
X072831Y028010D01*
X077681Y028090D02*
X082171Y025460D01*
X084281Y024680D02*
X087381Y024680D01*
X087381Y028780D01*
X084281Y028780D01*
X084281Y024680D01*
X083131Y023680D02*
X083129Y023579D01*
X083121Y023478D01*
X083109Y023378D01*
X083093Y023278D01*
X083071Y023179D01*
X083045Y023081D01*
X083014Y022985D01*
X082979Y022890D01*
X082939Y022797D01*
X082895Y022706D01*
X082847Y022617D01*
X082794Y022531D01*
X082738Y022447D01*
X082677Y022366D01*
X082613Y022288D01*
X082545Y022213D01*
X082474Y022141D01*
X082399Y022073D01*
X082321Y022008D01*
X082240Y021947D01*
X082156Y021891D01*
X082171Y021900D02*
X077841Y019350D01*
X072991Y019260D02*
X068541Y021870D01*
X067531Y023680D02*
X067533Y023782D01*
X067541Y023883D01*
X067553Y023984D01*
X067570Y024084D01*
X067591Y024184D01*
X067618Y024282D01*
X067649Y024379D01*
X067684Y024474D01*
X067725Y024567D01*
X067769Y024659D01*
X067818Y024748D01*
X067871Y024835D01*
X067928Y024919D01*
X067989Y025000D01*
X068054Y025078D01*
X068123Y025153D01*
X068195Y025225D01*
X068270Y025293D01*
X068349Y025358D01*
X068430Y025418D01*
X068515Y025475D01*
X068602Y025528D01*
X067531Y023680D02*
X067533Y023580D01*
X067540Y023480D01*
X067552Y023380D01*
X067569Y023281D01*
X067590Y023183D01*
X067616Y023086D01*
X067646Y022990D01*
X067681Y022896D01*
X067720Y022803D01*
X067763Y022713D01*
X067811Y022625D01*
X067863Y022539D01*
X067918Y022455D01*
X067978Y022374D01*
X068041Y022297D01*
X068108Y022222D01*
X068179Y022150D01*
X068252Y022082D01*
X068329Y022018D01*
X068409Y021957D01*
X068492Y021900D01*
X068577Y021847D01*
X072978Y019268D02*
X073197Y019158D01*
X073421Y019059D01*
X073650Y018971D01*
X073882Y018894D01*
X074118Y018829D01*
X074357Y018776D01*
X074599Y018734D01*
X074842Y018704D01*
X075086Y018686D01*
X075331Y018680D01*
X083531Y018980D02*
X087831Y021510D01*
X092681Y021590D02*
X097171Y018960D01*
X098131Y017180D02*
X098129Y017079D01*
X098121Y016978D01*
X098109Y016878D01*
X098093Y016778D01*
X098071Y016679D01*
X098045Y016581D01*
X098014Y016485D01*
X097979Y016390D01*
X097939Y016297D01*
X097895Y016206D01*
X097847Y016117D01*
X097794Y016031D01*
X097738Y015947D01*
X097677Y015866D01*
X097613Y015788D01*
X097545Y015713D01*
X097474Y015641D01*
X097399Y015573D01*
X097321Y015508D01*
X097240Y015447D01*
X097156Y015391D01*
X097171Y015400D02*
X092841Y012850D01*
X093881Y012180D02*
X093881Y011180D01*
X093883Y011163D01*
X093887Y011146D01*
X093894Y011130D01*
X093904Y011116D01*
X093917Y011103D01*
X093931Y011093D01*
X093947Y011086D01*
X093964Y011082D01*
X093981Y011080D01*
X096681Y011080D01*
X096698Y011082D01*
X096715Y011086D01*
X096731Y011093D01*
X096745Y011103D01*
X096758Y011116D01*
X096768Y011130D01*
X096775Y011146D01*
X096779Y011163D01*
X096781Y011180D01*
X096781Y012180D01*
X096779Y012197D01*
X096775Y012214D01*
X096768Y012230D01*
X096758Y012244D01*
X096745Y012257D01*
X096731Y012267D01*
X096715Y012274D01*
X096698Y012278D01*
X096681Y012280D01*
X093981Y012280D01*
X093964Y012278D01*
X093947Y012274D01*
X093931Y012267D01*
X093917Y012257D01*
X093904Y012244D01*
X093894Y012230D01*
X093887Y012214D01*
X093883Y012197D01*
X093881Y012180D01*
X094731Y011680D02*
X095211Y011680D01*
X095461Y011680D02*
X095931Y011680D01*
X100231Y011930D02*
X100431Y011930D01*
X100331Y011830D02*
X100331Y012030D01*
X100531Y012080D02*
X100531Y011680D01*
X100531Y011280D01*
X100731Y011280D01*
X100731Y012080D01*
X100531Y012080D01*
X100531Y011680D02*
X100281Y011680D01*
X099701Y011146D02*
X099732Y011084D01*
X099767Y011025D01*
X099804Y010967D01*
X099845Y010912D01*
X099889Y010858D01*
X099936Y010808D01*
X099985Y010760D01*
X100037Y010715D01*
X100091Y010672D01*
X100148Y010633D01*
X100206Y010597D01*
X100267Y010564D01*
X100329Y010535D01*
X100393Y010509D01*
X100458Y010487D01*
X100524Y010468D01*
X100592Y010453D01*
X100659Y010442D01*
X100728Y010434D01*
X100797Y010430D01*
X100865Y010430D01*
X100934Y010434D01*
X101003Y010442D01*
X101070Y010453D01*
X101138Y010468D01*
X101204Y010487D01*
X101269Y010509D01*
X101333Y010535D01*
X101395Y010564D01*
X101456Y010597D01*
X101514Y010633D01*
X101571Y010672D01*
X101625Y010715D01*
X101677Y010760D01*
X101726Y010808D01*
X101773Y010858D01*
X101817Y010912D01*
X101858Y010967D01*
X101895Y011025D01*
X101930Y011084D01*
X101961Y011146D01*
X101381Y011680D02*
X101081Y011680D01*
X101961Y012214D02*
X101930Y012276D01*
X101895Y012335D01*
X101858Y012393D01*
X101817Y012448D01*
X101773Y012502D01*
X101726Y012552D01*
X101677Y012600D01*
X101625Y012645D01*
X101571Y012688D01*
X101514Y012727D01*
X101456Y012763D01*
X101395Y012796D01*
X101333Y012825D01*
X101269Y012851D01*
X101204Y012873D01*
X101138Y012892D01*
X101070Y012907D01*
X101003Y012918D01*
X100934Y012926D01*
X100865Y012930D01*
X100797Y012930D01*
X100728Y012926D01*
X100659Y012918D01*
X100592Y012907D01*
X100524Y012892D01*
X100458Y012873D01*
X100393Y012851D01*
X100329Y012825D01*
X100267Y012796D01*
X100206Y012763D01*
X100148Y012727D01*
X100091Y012688D01*
X100037Y012645D01*
X099985Y012600D01*
X099936Y012552D01*
X099889Y012502D01*
X099845Y012448D01*
X099804Y012393D01*
X099767Y012335D01*
X099732Y012276D01*
X099701Y012214D01*
X110111Y015817D02*
X110218Y015710D01*
X110431Y015710D01*
X110538Y015817D01*
X110538Y016030D01*
X110324Y016030D01*
X110111Y016244D02*
X110111Y015817D01*
X110111Y016244D02*
X110218Y016351D01*
X110431Y016351D01*
X110538Y016244D01*
X110756Y016351D02*
X111183Y015710D01*
X111183Y016351D01*
X111400Y016351D02*
X111720Y016351D01*
X111827Y016244D01*
X111827Y015817D01*
X111720Y015710D01*
X111400Y015710D01*
X111400Y016351D01*
X110756Y016351D02*
X110756Y015710D01*
X113581Y015680D02*
X114581Y015680D01*
X114581Y016680D01*
X114581Y017680D01*
X113581Y017680D01*
X113581Y016680D01*
X113581Y015680D01*
X113581Y016680D02*
X114581Y016680D01*
X112077Y016960D02*
X111757Y016960D01*
X111650Y017067D01*
X111650Y017280D01*
X111757Y017387D01*
X112077Y017387D01*
X111433Y017387D02*
X111112Y017387D01*
X111006Y017280D01*
X111006Y017067D01*
X111112Y016960D01*
X111433Y016960D01*
X110788Y017174D02*
X110788Y017601D01*
X110361Y017601D02*
X110361Y017174D01*
X110574Y016960D01*
X110788Y017174D01*
X113581Y013680D02*
X114581Y013680D01*
X114581Y012680D01*
X114581Y011680D01*
X113581Y011680D01*
X113581Y012680D01*
X114581Y012680D01*
X113581Y012680D02*
X113581Y013680D01*
X098131Y017180D02*
X098129Y017281D01*
X098121Y017382D01*
X098109Y017482D01*
X098093Y017582D01*
X098071Y017681D01*
X098045Y017779D01*
X098014Y017875D01*
X097979Y017970D01*
X097939Y018063D01*
X097895Y018154D01*
X097847Y018243D01*
X097794Y018329D01*
X097738Y018413D01*
X097677Y018494D01*
X097613Y018572D01*
X097545Y018647D01*
X097474Y018719D01*
X097399Y018787D01*
X097321Y018852D01*
X097240Y018913D01*
X097156Y018969D01*
X092684Y021592D02*
X092465Y021702D01*
X092241Y021801D01*
X092012Y021889D01*
X091780Y021966D01*
X091544Y022031D01*
X091305Y022084D01*
X091063Y022126D01*
X090820Y022156D01*
X090576Y022174D01*
X090331Y022180D01*
X083131Y023680D02*
X083129Y023781D01*
X083121Y023882D01*
X083109Y023982D01*
X083093Y024082D01*
X083071Y024181D01*
X083045Y024279D01*
X083014Y024375D01*
X082979Y024470D01*
X082939Y024563D01*
X082895Y024654D01*
X082847Y024743D01*
X082794Y024829D01*
X082738Y024913D01*
X082677Y024994D01*
X082613Y025072D01*
X082545Y025147D01*
X082474Y025219D01*
X082399Y025287D01*
X082321Y025352D01*
X082240Y025413D01*
X082156Y025469D01*
X085064Y026710D02*
X085249Y026891D01*
X085528Y026605D02*
X085343Y026424D01*
X086134Y026605D02*
X086319Y026424D01*
X086598Y026710D02*
X086413Y026891D01*
X085343Y026424D02*
X085296Y026456D01*
X085251Y026492D01*
X085208Y026531D01*
X085167Y026572D01*
X085130Y026616D01*
X085095Y026662D01*
X085064Y026710D01*
X086319Y026424D02*
X086366Y026456D01*
X086411Y026492D01*
X086454Y026531D01*
X086495Y026572D01*
X086532Y026616D01*
X086567Y026662D01*
X086598Y026710D01*
X085181Y027180D02*
X085183Y027230D01*
X085189Y027280D01*
X085199Y027330D01*
X085212Y027378D01*
X085229Y027426D01*
X085250Y027472D01*
X085274Y027516D01*
X085302Y027558D01*
X085333Y027598D01*
X085367Y027635D01*
X085404Y027670D01*
X085443Y027701D01*
X085484Y027730D01*
X085528Y027755D01*
X085574Y027777D01*
X085621Y027795D01*
X085669Y027809D01*
X085718Y027820D01*
X085768Y027827D01*
X085818Y027830D01*
X085869Y027829D01*
X085919Y027824D01*
X085969Y027815D01*
X086017Y027803D01*
X086065Y027786D01*
X086111Y027766D01*
X086156Y027743D01*
X086199Y027716D01*
X086239Y027686D01*
X086277Y027653D01*
X086312Y027617D01*
X086345Y027578D01*
X086374Y027537D01*
X086400Y027494D01*
X086423Y027449D01*
X086442Y027402D01*
X086457Y027354D01*
X086469Y027305D01*
X086477Y027255D01*
X086481Y027205D01*
X086481Y027155D01*
X086477Y027105D01*
X086469Y027055D01*
X086457Y027006D01*
X086442Y026958D01*
X086423Y026911D01*
X086400Y026866D01*
X086374Y026823D01*
X086345Y026782D01*
X086312Y026743D01*
X086277Y026707D01*
X086239Y026674D01*
X086199Y026644D01*
X086156Y026617D01*
X086111Y026594D01*
X086065Y026574D01*
X086017Y026557D01*
X085969Y026545D01*
X085919Y026536D01*
X085869Y026531D01*
X085818Y026530D01*
X085768Y026533D01*
X085718Y026540D01*
X085669Y026551D01*
X085621Y026565D01*
X085574Y026583D01*
X085528Y026605D01*
X085484Y026630D01*
X085443Y026659D01*
X085404Y026690D01*
X085367Y026725D01*
X085333Y026762D01*
X085302Y026802D01*
X085274Y026844D01*
X085250Y026888D01*
X085229Y026934D01*
X085212Y026982D01*
X085199Y027030D01*
X085189Y027080D01*
X085183Y027130D01*
X085181Y027180D01*
X085631Y028057D02*
X085688Y028068D01*
X085745Y028076D01*
X085802Y028080D01*
X085860Y028080D01*
X085917Y028076D01*
X085974Y028068D01*
X086031Y028057D01*
X086031Y028058D02*
X086031Y027799D01*
X085631Y027799D02*
X085631Y028058D01*
X077684Y028092D02*
X077465Y028202D01*
X077241Y028301D01*
X077012Y028389D01*
X076780Y028466D01*
X076544Y028531D01*
X076305Y028584D01*
X076063Y028626D01*
X075820Y028656D01*
X075576Y028674D01*
X075331Y028680D01*
X077840Y019355D02*
X077630Y019240D01*
X077415Y019135D01*
X077196Y019041D01*
X076972Y018957D01*
X076745Y018884D01*
X076514Y018822D01*
X076281Y018771D01*
X076045Y018731D01*
X075808Y018703D01*
X075570Y018686D01*
X075331Y018680D01*
X082531Y017180D02*
X082533Y017080D01*
X082540Y016980D01*
X082552Y016880D01*
X082569Y016781D01*
X082590Y016683D01*
X082616Y016586D01*
X082646Y016490D01*
X082681Y016396D01*
X082720Y016303D01*
X082763Y016213D01*
X082811Y016125D01*
X082863Y016039D01*
X082918Y015955D01*
X082978Y015874D01*
X083041Y015797D01*
X083108Y015722D01*
X083179Y015650D01*
X083252Y015582D01*
X083329Y015518D01*
X083409Y015457D01*
X083492Y015400D01*
X083577Y015347D01*
X083541Y015370D02*
X087991Y012760D01*
X074911Y011110D02*
X074761Y011110D01*
X060731Y011380D02*
X060731Y011980D01*
X060729Y011997D01*
X060725Y012014D01*
X060718Y012030D01*
X060708Y012044D01*
X060695Y012057D01*
X060681Y012067D01*
X060665Y012074D01*
X060648Y012078D01*
X060631Y012080D01*
X059031Y012080D01*
X059014Y012078D01*
X058997Y012074D01*
X058981Y012067D01*
X058967Y012057D01*
X058954Y012044D01*
X058944Y012030D01*
X058937Y012014D01*
X058933Y011997D01*
X058931Y011980D01*
X058931Y011380D01*
X058933Y011363D01*
X058937Y011346D01*
X058944Y011330D01*
X058954Y011316D01*
X058967Y011303D01*
X058981Y011293D01*
X058997Y011286D01*
X059014Y011282D01*
X059031Y011280D01*
X060631Y011280D01*
X060648Y011282D01*
X060665Y011286D01*
X060681Y011293D01*
X060695Y011303D01*
X060708Y011316D01*
X060718Y011330D01*
X060725Y011346D01*
X060729Y011363D01*
X060731Y011380D01*
X060431Y011680D02*
X059831Y011680D01*
X059831Y011430D01*
X059831Y011680D02*
X059831Y011930D01*
X059831Y011680D02*
X060231Y011930D01*
X060231Y011430D01*
X059831Y011680D01*
X059581Y011680D01*
X054411Y011610D02*
X054261Y011610D01*
X049911Y011610D02*
X049761Y011610D01*
X048681Y016080D02*
X045981Y016080D01*
X045964Y016082D01*
X045947Y016086D01*
X045931Y016093D01*
X045917Y016103D01*
X045904Y016116D01*
X045894Y016130D01*
X045887Y016146D01*
X045883Y016163D01*
X045881Y016180D01*
X045881Y017180D01*
X045883Y017197D01*
X045887Y017214D01*
X045894Y017230D01*
X045904Y017244D01*
X045917Y017257D01*
X045931Y017267D01*
X045947Y017274D01*
X045964Y017278D01*
X045981Y017280D01*
X048681Y017280D01*
X048698Y017278D01*
X048715Y017274D01*
X048731Y017267D01*
X048745Y017257D01*
X048758Y017244D01*
X048768Y017230D01*
X048775Y017214D01*
X048779Y017197D01*
X048781Y017180D01*
X048781Y016180D01*
X048779Y016163D01*
X048775Y016146D01*
X048768Y016130D01*
X048758Y016116D01*
X048745Y016103D01*
X048731Y016093D01*
X048715Y016086D01*
X048698Y016082D01*
X048681Y016080D01*
X047931Y016680D02*
X047461Y016680D01*
X047211Y016680D02*
X046731Y016680D01*
X053431Y016980D02*
X053431Y016380D01*
X053433Y016363D01*
X053437Y016346D01*
X053444Y016330D01*
X053454Y016316D01*
X053467Y016303D01*
X053481Y016293D01*
X053497Y016286D01*
X053514Y016282D01*
X053531Y016280D01*
X055131Y016280D01*
X055148Y016282D01*
X055165Y016286D01*
X055181Y016293D01*
X055195Y016303D01*
X055208Y016316D01*
X055218Y016330D01*
X055225Y016346D01*
X055229Y016363D01*
X055231Y016380D01*
X055231Y016980D01*
X055229Y016997D01*
X055225Y017014D01*
X055218Y017030D01*
X055208Y017044D01*
X055195Y017057D01*
X055181Y017067D01*
X055165Y017074D01*
X055148Y017078D01*
X055131Y017080D01*
X053531Y017080D01*
X053514Y017078D01*
X053497Y017074D01*
X053481Y017067D01*
X053467Y017057D01*
X053454Y017044D01*
X053444Y017030D01*
X053437Y017014D01*
X053433Y016997D01*
X053431Y016980D01*
X054081Y016680D02*
X054331Y016680D01*
X054331Y016430D01*
X054331Y016680D02*
X054731Y016430D01*
X054731Y016930D01*
X054331Y016680D01*
X054331Y016930D01*
X054331Y016680D02*
X054931Y016680D01*
X059551Y016820D02*
X059551Y016540D01*
X060111Y016440D02*
X060111Y016090D01*
X059771Y016090D01*
X060111Y016920D02*
X060111Y017270D01*
X059951Y017270D01*
X059771Y017270D01*
X059821Y017150D02*
X059841Y017150D01*
X059860Y017154D01*
X059879Y017160D01*
X059897Y017170D01*
X059912Y017182D01*
X059926Y017196D01*
X059937Y017213D01*
X059945Y017231D01*
X059949Y017251D01*
X059951Y017270D01*
X071641Y023680D02*
X071645Y023861D01*
X071659Y024042D01*
X071681Y024221D01*
X071712Y024400D01*
X071752Y024577D01*
X071800Y024751D01*
X071857Y024923D01*
X071922Y025092D01*
X071995Y025258D01*
X072077Y025419D01*
X072166Y025577D01*
X072263Y025730D01*
X072367Y025878D01*
X072479Y026021D01*
X072597Y026158D01*
X072722Y026289D01*
X072853Y026414D01*
X072990Y026532D01*
X073133Y026644D01*
X073281Y026748D01*
X073434Y026845D01*
X073592Y026934D01*
X073753Y027016D01*
X073919Y027089D01*
X074088Y027154D01*
X074260Y027211D01*
X074434Y027259D01*
X074611Y027299D01*
X074790Y027330D01*
X074969Y027352D01*
X075150Y027366D01*
X075331Y027370D01*
X075512Y027366D01*
X075693Y027352D01*
X075872Y027330D01*
X076051Y027299D01*
X076228Y027259D01*
X076402Y027211D01*
X076574Y027154D01*
X076743Y027089D01*
X076909Y027016D01*
X077070Y026934D01*
X077228Y026845D01*
X077381Y026748D01*
X077529Y026644D01*
X077672Y026532D01*
X077809Y026414D01*
X077940Y026289D01*
X078065Y026158D01*
X078183Y026021D01*
X078295Y025878D01*
X078399Y025730D01*
X078496Y025577D01*
X078585Y025419D01*
X078667Y025258D01*
X078740Y025092D01*
X078805Y024923D01*
X078862Y024751D01*
X078910Y024577D01*
X078950Y024400D01*
X078981Y024221D01*
X079003Y024042D01*
X079017Y023861D01*
X079021Y023680D01*
X079017Y023499D01*
X079003Y023318D01*
X078981Y023139D01*
X078950Y022960D01*
X078910Y022783D01*
X078862Y022609D01*
X078805Y022437D01*
X078740Y022268D01*
X078667Y022102D01*
X078585Y021941D01*
X078496Y021783D01*
X078399Y021630D01*
X078295Y021482D01*
X078183Y021339D01*
X078065Y021202D01*
X077940Y021071D01*
X077809Y020946D01*
X077672Y020828D01*
X077529Y020716D01*
X077381Y020612D01*
X077228Y020515D01*
X077070Y020426D01*
X076909Y020344D01*
X076743Y020271D01*
X076574Y020206D01*
X076402Y020149D01*
X076228Y020101D01*
X076051Y020061D01*
X075872Y020030D01*
X075693Y020008D01*
X075512Y019994D01*
X075331Y019990D01*
X075150Y019994D01*
X074969Y020008D01*
X074790Y020030D01*
X074611Y020061D01*
X074434Y020101D01*
X074260Y020149D01*
X074088Y020206D01*
X073919Y020271D01*
X073753Y020344D01*
X073592Y020426D01*
X073434Y020515D01*
X073281Y020612D01*
X073133Y020716D01*
X072990Y020828D01*
X072853Y020946D01*
X072722Y021071D01*
X072597Y021202D01*
X072479Y021339D01*
X072367Y021482D01*
X072263Y021630D01*
X072166Y021783D01*
X072077Y021941D01*
X071995Y022102D01*
X071922Y022268D01*
X071857Y022437D01*
X071800Y022609D01*
X071752Y022783D01*
X071712Y022960D01*
X071681Y023139D01*
X071659Y023318D01*
X071645Y023499D01*
X071641Y023680D01*
X072822Y028005D02*
X073032Y028120D01*
X073247Y028225D01*
X073466Y028319D01*
X073690Y028403D01*
X073917Y028476D01*
X074148Y028538D01*
X074381Y028589D01*
X074617Y028629D01*
X074854Y028657D01*
X075092Y028674D01*
X075331Y028680D01*
X110111Y022994D02*
X110111Y022567D01*
X110218Y022460D01*
X110431Y022460D01*
X110538Y022567D01*
X110538Y022780D01*
X110324Y022780D01*
X110111Y022994D02*
X110218Y023101D01*
X110431Y023101D01*
X110538Y022994D01*
X110756Y023101D02*
X111183Y022460D01*
X111183Y023101D01*
X111400Y023101D02*
X111720Y023101D01*
X111827Y022994D01*
X111827Y022567D01*
X111720Y022460D01*
X111400Y022460D01*
X111400Y023101D01*
X111256Y023460D02*
X111683Y023887D01*
X111683Y023994D01*
X111576Y024101D01*
X111362Y024101D01*
X111256Y023994D01*
X111038Y023780D02*
X110611Y023780D01*
X110824Y023994D02*
X110824Y023567D01*
X111256Y023460D02*
X111683Y023460D01*
X111900Y023567D02*
X112007Y023460D01*
X112220Y023460D01*
X112327Y023567D01*
X112327Y023780D01*
X112220Y023887D01*
X112114Y023887D01*
X111900Y023780D01*
X111900Y024101D01*
X112327Y024101D01*
X113581Y024180D02*
X114581Y024180D01*
X114581Y023180D01*
X114581Y022180D01*
X114581Y021180D01*
X113581Y021180D01*
X113581Y022180D01*
X114581Y022180D01*
X113581Y022180D02*
X113581Y023180D01*
X114581Y023180D01*
X113581Y023180D02*
X113581Y024180D01*
X110756Y023101D02*
X110756Y022460D01*
X111506Y021994D02*
X111612Y022101D01*
X111826Y022101D01*
X111933Y021994D01*
X111933Y021887D01*
X111506Y021460D01*
X111933Y021460D01*
X112150Y021567D02*
X112257Y021460D01*
X112470Y021460D01*
X112577Y021567D01*
X112577Y021780D01*
X112470Y021887D01*
X112364Y021887D01*
X112150Y021780D01*
X112150Y022101D01*
X112577Y022101D01*
X111288Y021780D02*
X110861Y021780D01*
X090331Y022180D02*
X090092Y022174D01*
X089854Y022157D01*
X089617Y022129D01*
X089381Y022089D01*
X089148Y022038D01*
X088917Y021976D01*
X088690Y021903D01*
X088466Y021819D01*
X088247Y021725D01*
X088032Y021620D01*
X087822Y021505D01*
X087978Y012768D02*
X088197Y012658D01*
X088421Y012559D01*
X088650Y012471D01*
X088882Y012394D01*
X089118Y012329D01*
X089357Y012276D01*
X089599Y012234D01*
X089842Y012204D01*
X090086Y012186D01*
X090331Y012180D01*
X082531Y017180D02*
X082533Y017282D01*
X082541Y017383D01*
X082553Y017484D01*
X082570Y017584D01*
X082591Y017684D01*
X082618Y017782D01*
X082649Y017879D01*
X082684Y017974D01*
X082725Y018067D01*
X082769Y018159D01*
X082818Y018248D01*
X082871Y018335D01*
X082928Y018419D01*
X082989Y018500D01*
X083054Y018578D01*
X083123Y018653D01*
X083195Y018725D01*
X083270Y018793D01*
X083349Y018858D01*
X083430Y018918D01*
X083515Y018975D01*
X083602Y019028D01*
X090331Y012180D02*
X090570Y012186D01*
X090808Y012203D01*
X091045Y012231D01*
X091281Y012271D01*
X091514Y012322D01*
X091745Y012384D01*
X091972Y012457D01*
X092196Y012541D01*
X092415Y012635D01*
X092630Y012740D01*
X092840Y012855D01*
X086641Y017180D02*
X086645Y017361D01*
X086659Y017542D01*
X086681Y017721D01*
X086712Y017900D01*
X086752Y018077D01*
X086800Y018251D01*
X086857Y018423D01*
X086922Y018592D01*
X086995Y018758D01*
X087077Y018919D01*
X087166Y019077D01*
X087263Y019230D01*
X087367Y019378D01*
X087479Y019521D01*
X087597Y019658D01*
X087722Y019789D01*
X087853Y019914D01*
X087990Y020032D01*
X088133Y020144D01*
X088281Y020248D01*
X088434Y020345D01*
X088592Y020434D01*
X088753Y020516D01*
X088919Y020589D01*
X089088Y020654D01*
X089260Y020711D01*
X089434Y020759D01*
X089611Y020799D01*
X089790Y020830D01*
X089969Y020852D01*
X090150Y020866D01*
X090331Y020870D01*
X090512Y020866D01*
X090693Y020852D01*
X090872Y020830D01*
X091051Y020799D01*
X091228Y020759D01*
X091402Y020711D01*
X091574Y020654D01*
X091743Y020589D01*
X091909Y020516D01*
X092070Y020434D01*
X092228Y020345D01*
X092381Y020248D01*
X092529Y020144D01*
X092672Y020032D01*
X092809Y019914D01*
X092940Y019789D01*
X093065Y019658D01*
X093183Y019521D01*
X093295Y019378D01*
X093399Y019230D01*
X093496Y019077D01*
X093585Y018919D01*
X093667Y018758D01*
X093740Y018592D01*
X093805Y018423D01*
X093862Y018251D01*
X093910Y018077D01*
X093950Y017900D01*
X093981Y017721D01*
X094003Y017542D01*
X094017Y017361D01*
X094021Y017180D01*
X094017Y016999D01*
X094003Y016818D01*
X093981Y016639D01*
X093950Y016460D01*
X093910Y016283D01*
X093862Y016109D01*
X093805Y015937D01*
X093740Y015768D01*
X093667Y015602D01*
X093585Y015441D01*
X093496Y015283D01*
X093399Y015130D01*
X093295Y014982D01*
X093183Y014839D01*
X093065Y014702D01*
X092940Y014571D01*
X092809Y014446D01*
X092672Y014328D01*
X092529Y014216D01*
X092381Y014112D01*
X092228Y014015D01*
X092070Y013926D01*
X091909Y013844D01*
X091743Y013771D01*
X091574Y013706D01*
X091402Y013649D01*
X091228Y013601D01*
X091051Y013561D01*
X090872Y013530D01*
X090693Y013508D01*
X090512Y013494D01*
X090331Y013490D01*
X090150Y013494D01*
X089969Y013508D01*
X089790Y013530D01*
X089611Y013561D01*
X089434Y013601D01*
X089260Y013649D01*
X089088Y013706D01*
X088919Y013771D01*
X088753Y013844D01*
X088592Y013926D01*
X088434Y014015D01*
X088281Y014112D01*
X088133Y014216D01*
X087990Y014328D01*
X087853Y014446D01*
X087722Y014571D01*
X087597Y014702D01*
X087479Y014839D01*
X087367Y014982D01*
X087263Y015130D01*
X087166Y015283D01*
X087077Y015441D01*
X086995Y015602D01*
X086922Y015768D01*
X086857Y015937D01*
X086800Y016109D01*
X086752Y016283D01*
X086712Y016460D01*
X086681Y016639D01*
X086659Y016818D01*
X086645Y016999D01*
X086641Y017180D01*
X032411Y014610D02*
X032261Y014610D01*
D11*
X031400Y014960D02*
X031388Y015019D01*
X031380Y015079D01*
X031376Y015140D01*
X031375Y015200D01*
X031379Y015261D01*
X031386Y015321D01*
X031397Y015380D01*
X031412Y015439D01*
X031430Y015497D01*
X031452Y015553D01*
X031478Y015608D01*
X031507Y015661D01*
X031539Y015712D01*
X031575Y015761D01*
X031614Y015808D01*
X031655Y015852D01*
X031699Y015893D01*
X031746Y015932D01*
X031795Y015967D01*
X031847Y015999D01*
X031900Y016028D01*
X031955Y016054D01*
X032011Y016076D01*
X032069Y016094D01*
X032128Y016109D01*
X032187Y016120D01*
X032247Y016127D01*
X032308Y016130D01*
X032368Y016129D01*
X032429Y016125D01*
X032489Y016116D01*
X032548Y016104D01*
X032607Y016088D01*
X032664Y016069D01*
X032720Y016046D01*
X032774Y016019D01*
X032827Y015989D01*
X032877Y015956D01*
X032926Y015919D01*
X032972Y015880D01*
X033015Y015837D01*
X033056Y015793D01*
X033093Y015745D01*
X033128Y015695D01*
X033159Y015643D01*
X033187Y015590D01*
X033211Y015534D01*
X033232Y015478D01*
X033250Y015419D01*
X033263Y015360D01*
X033273Y015301D01*
X033279Y015240D01*
X033281Y015180D01*
X033279Y015124D01*
X033274Y015068D01*
X033265Y015012D01*
X033254Y014957D01*
X033239Y014903D01*
X033221Y014850D01*
X032781Y019180D02*
X032779Y019240D01*
X032773Y019301D01*
X032763Y019360D01*
X032750Y019419D01*
X032732Y019478D01*
X032711Y019534D01*
X032687Y019590D01*
X032659Y019643D01*
X032628Y019695D01*
X032593Y019745D01*
X032556Y019793D01*
X032515Y019837D01*
X032472Y019880D01*
X032426Y019919D01*
X032377Y019956D01*
X032327Y019989D01*
X032274Y020019D01*
X032220Y020046D01*
X032164Y020069D01*
X032107Y020088D01*
X032048Y020104D01*
X031989Y020116D01*
X031929Y020125D01*
X031868Y020129D01*
X031808Y020130D01*
X031747Y020127D01*
X031687Y020120D01*
X031628Y020109D01*
X031569Y020094D01*
X031511Y020076D01*
X031455Y020054D01*
X031400Y020028D01*
X031347Y019999D01*
X031295Y019967D01*
X031246Y019932D01*
X031199Y019893D01*
X031155Y019852D01*
X031114Y019808D01*
X031075Y019761D01*
X031039Y019712D01*
X031007Y019661D01*
X030978Y019608D01*
X030952Y019553D01*
X030930Y019497D01*
X030912Y019439D01*
X030897Y019380D01*
X030886Y019321D01*
X030879Y019261D01*
X030875Y019200D01*
X030876Y019140D01*
X030880Y019079D01*
X030888Y019019D01*
X030900Y018960D01*
X032721Y018850D02*
X032739Y018903D01*
X032754Y018957D01*
X032765Y019012D01*
X032774Y019068D01*
X032779Y019124D01*
X032781Y019180D01*
X047221Y023350D02*
X047239Y023403D01*
X047254Y023457D01*
X047265Y023512D01*
X047274Y023568D01*
X047279Y023624D01*
X047281Y023680D01*
X047279Y023740D01*
X047273Y023801D01*
X047263Y023860D01*
X047250Y023919D01*
X047232Y023978D01*
X047211Y024034D01*
X047187Y024090D01*
X047159Y024143D01*
X047128Y024195D01*
X047093Y024245D01*
X047056Y024293D01*
X047015Y024337D01*
X046972Y024380D01*
X046926Y024419D01*
X046877Y024456D01*
X046827Y024489D01*
X046774Y024519D01*
X046720Y024546D01*
X046664Y024569D01*
X046607Y024588D01*
X046548Y024604D01*
X046489Y024616D01*
X046429Y024625D01*
X046368Y024629D01*
X046308Y024630D01*
X046247Y024627D01*
X046187Y024620D01*
X046128Y024609D01*
X046069Y024594D01*
X046011Y024576D01*
X045955Y024554D01*
X045900Y024528D01*
X045847Y024499D01*
X045795Y024467D01*
X045746Y024432D01*
X045699Y024393D01*
X045655Y024352D01*
X045614Y024308D01*
X045575Y024261D01*
X045539Y024212D01*
X045507Y024161D01*
X045478Y024108D01*
X045452Y024053D01*
X045430Y023997D01*
X045412Y023939D01*
X045397Y023880D01*
X045386Y023821D01*
X045379Y023761D01*
X045375Y023700D01*
X045376Y023640D01*
X045380Y023579D01*
X045388Y023519D01*
X045400Y023460D01*
X017781Y026680D02*
X017779Y026740D01*
X017773Y026801D01*
X017763Y026860D01*
X017750Y026919D01*
X017732Y026978D01*
X017711Y027034D01*
X017687Y027090D01*
X017659Y027143D01*
X017628Y027195D01*
X017593Y027245D01*
X017556Y027293D01*
X017515Y027337D01*
X017472Y027380D01*
X017426Y027419D01*
X017377Y027456D01*
X017327Y027489D01*
X017274Y027519D01*
X017220Y027546D01*
X017164Y027569D01*
X017107Y027588D01*
X017048Y027604D01*
X016989Y027616D01*
X016929Y027625D01*
X016868Y027629D01*
X016808Y027630D01*
X016747Y027627D01*
X016687Y027620D01*
X016628Y027609D01*
X016569Y027594D01*
X016511Y027576D01*
X016455Y027554D01*
X016400Y027528D01*
X016347Y027499D01*
X016295Y027467D01*
X016246Y027432D01*
X016199Y027393D01*
X016155Y027352D01*
X016114Y027308D01*
X016075Y027261D01*
X016039Y027212D01*
X016007Y027161D01*
X015978Y027108D01*
X015952Y027053D01*
X015930Y026997D01*
X015912Y026939D01*
X015897Y026880D01*
X015886Y026821D01*
X015879Y026761D01*
X015875Y026700D01*
X015876Y026640D01*
X015880Y026579D01*
X015888Y026519D01*
X015900Y026460D01*
X017721Y026350D02*
X017739Y026403D01*
X017754Y026457D01*
X017765Y026512D01*
X017774Y026568D01*
X017779Y026624D01*
X017781Y026680D01*
X013281Y026680D02*
X013279Y026740D01*
X013273Y026801D01*
X013263Y026860D01*
X013250Y026919D01*
X013232Y026978D01*
X013211Y027034D01*
X013187Y027090D01*
X013159Y027143D01*
X013128Y027195D01*
X013093Y027245D01*
X013056Y027293D01*
X013015Y027337D01*
X012972Y027380D01*
X012926Y027419D01*
X012877Y027456D01*
X012827Y027489D01*
X012774Y027519D01*
X012720Y027546D01*
X012664Y027569D01*
X012607Y027588D01*
X012548Y027604D01*
X012489Y027616D01*
X012429Y027625D01*
X012368Y027629D01*
X012308Y027630D01*
X012247Y027627D01*
X012187Y027620D01*
X012128Y027609D01*
X012069Y027594D01*
X012011Y027576D01*
X011955Y027554D01*
X011900Y027528D01*
X011847Y027499D01*
X011795Y027467D01*
X011746Y027432D01*
X011699Y027393D01*
X011655Y027352D01*
X011614Y027308D01*
X011575Y027261D01*
X011539Y027212D01*
X011507Y027161D01*
X011478Y027108D01*
X011452Y027053D01*
X011430Y026997D01*
X011412Y026939D01*
X011397Y026880D01*
X011386Y026821D01*
X011379Y026761D01*
X011375Y026700D01*
X011376Y026640D01*
X011380Y026579D01*
X011388Y026519D01*
X011400Y026460D01*
X013221Y026350D02*
X013239Y026403D01*
X013254Y026457D01*
X013265Y026512D01*
X013274Y026568D01*
X013279Y026624D01*
X013281Y026680D01*
X011781Y013180D02*
X011779Y013124D01*
X011774Y013068D01*
X011765Y013012D01*
X011754Y012957D01*
X011739Y012903D01*
X011721Y012850D01*
X011781Y013180D02*
X011779Y013240D01*
X011773Y013301D01*
X011763Y013360D01*
X011750Y013419D01*
X011732Y013478D01*
X011711Y013534D01*
X011687Y013590D01*
X011659Y013643D01*
X011628Y013695D01*
X011593Y013745D01*
X011556Y013793D01*
X011515Y013837D01*
X011472Y013880D01*
X011426Y013919D01*
X011377Y013956D01*
X011327Y013989D01*
X011274Y014019D01*
X011220Y014046D01*
X011164Y014069D01*
X011107Y014088D01*
X011048Y014104D01*
X010989Y014116D01*
X010929Y014125D01*
X010868Y014129D01*
X010808Y014130D01*
X010747Y014127D01*
X010687Y014120D01*
X010628Y014109D01*
X010569Y014094D01*
X010511Y014076D01*
X010455Y014054D01*
X010400Y014028D01*
X010347Y013999D01*
X010295Y013967D01*
X010246Y013932D01*
X010199Y013893D01*
X010155Y013852D01*
X010114Y013808D01*
X010075Y013761D01*
X010039Y013712D01*
X010007Y013661D01*
X009978Y013608D01*
X009952Y013553D01*
X009930Y013497D01*
X009912Y013439D01*
X009897Y013380D01*
X009886Y013321D01*
X009879Y013261D01*
X009875Y013200D01*
X009876Y013140D01*
X009880Y013079D01*
X009888Y013019D01*
X009900Y012960D01*
X016721Y012350D02*
X016739Y012403D01*
X016754Y012457D01*
X016765Y012512D01*
X016774Y012568D01*
X016779Y012624D01*
X016781Y012680D01*
X016779Y012740D01*
X016773Y012801D01*
X016763Y012860D01*
X016750Y012919D01*
X016732Y012978D01*
X016711Y013034D01*
X016687Y013090D01*
X016659Y013143D01*
X016628Y013195D01*
X016593Y013245D01*
X016556Y013293D01*
X016515Y013337D01*
X016472Y013380D01*
X016426Y013419D01*
X016377Y013456D01*
X016327Y013489D01*
X016274Y013519D01*
X016220Y013546D01*
X016164Y013569D01*
X016107Y013588D01*
X016048Y013604D01*
X015989Y013616D01*
X015929Y013625D01*
X015868Y013629D01*
X015808Y013630D01*
X015747Y013627D01*
X015687Y013620D01*
X015628Y013609D01*
X015569Y013594D01*
X015511Y013576D01*
X015455Y013554D01*
X015400Y013528D01*
X015347Y013499D01*
X015295Y013467D01*
X015246Y013432D01*
X015199Y013393D01*
X015155Y013352D01*
X015114Y013308D01*
X015075Y013261D01*
X015039Y013212D01*
X015007Y013161D01*
X014978Y013108D01*
X014952Y013053D01*
X014930Y012997D01*
X014912Y012939D01*
X014897Y012880D01*
X014886Y012821D01*
X014879Y012761D01*
X014875Y012700D01*
X014876Y012640D01*
X014880Y012579D01*
X014888Y012519D01*
X014900Y012460D01*
X050721Y011850D02*
X050739Y011903D01*
X050754Y011957D01*
X050765Y012012D01*
X050774Y012068D01*
X050779Y012124D01*
X050781Y012180D01*
X050779Y012240D01*
X050773Y012301D01*
X050763Y012360D01*
X050750Y012419D01*
X050732Y012478D01*
X050711Y012534D01*
X050687Y012590D01*
X050659Y012643D01*
X050628Y012695D01*
X050593Y012745D01*
X050556Y012793D01*
X050515Y012837D01*
X050472Y012880D01*
X050426Y012919D01*
X050377Y012956D01*
X050327Y012989D01*
X050274Y013019D01*
X050220Y013046D01*
X050164Y013069D01*
X050107Y013088D01*
X050048Y013104D01*
X049989Y013116D01*
X049929Y013125D01*
X049868Y013129D01*
X049808Y013130D01*
X049747Y013127D01*
X049687Y013120D01*
X049628Y013109D01*
X049569Y013094D01*
X049511Y013076D01*
X049455Y013054D01*
X049400Y013028D01*
X049347Y012999D01*
X049295Y012967D01*
X049246Y012932D01*
X049199Y012893D01*
X049155Y012852D01*
X049114Y012808D01*
X049075Y012761D01*
X049039Y012712D01*
X049007Y012661D01*
X048978Y012608D01*
X048952Y012553D01*
X048930Y012497D01*
X048912Y012439D01*
X048897Y012380D01*
X048886Y012321D01*
X048879Y012261D01*
X048875Y012200D01*
X048876Y012140D01*
X048880Y012079D01*
X048888Y012019D01*
X048900Y011960D01*
X055221Y011850D02*
X055239Y011903D01*
X055254Y011957D01*
X055265Y012012D01*
X055274Y012068D01*
X055279Y012124D01*
X055281Y012180D01*
X055279Y012240D01*
X055273Y012301D01*
X055263Y012360D01*
X055250Y012419D01*
X055232Y012478D01*
X055211Y012534D01*
X055187Y012590D01*
X055159Y012643D01*
X055128Y012695D01*
X055093Y012745D01*
X055056Y012793D01*
X055015Y012837D01*
X054972Y012880D01*
X054926Y012919D01*
X054877Y012956D01*
X054827Y012989D01*
X054774Y013019D01*
X054720Y013046D01*
X054664Y013069D01*
X054607Y013088D01*
X054548Y013104D01*
X054489Y013116D01*
X054429Y013125D01*
X054368Y013129D01*
X054308Y013130D01*
X054247Y013127D01*
X054187Y013120D01*
X054128Y013109D01*
X054069Y013094D01*
X054011Y013076D01*
X053955Y013054D01*
X053900Y013028D01*
X053847Y012999D01*
X053795Y012967D01*
X053746Y012932D01*
X053699Y012893D01*
X053655Y012852D01*
X053614Y012808D01*
X053575Y012761D01*
X053539Y012712D01*
X053507Y012661D01*
X053478Y012608D01*
X053452Y012553D01*
X053430Y012497D01*
X053412Y012439D01*
X053397Y012380D01*
X053386Y012321D01*
X053379Y012261D01*
X053375Y012200D01*
X053376Y012140D01*
X053380Y012079D01*
X053388Y012019D01*
X053400Y011960D01*
X075721Y011350D02*
X075739Y011403D01*
X075754Y011457D01*
X075765Y011512D01*
X075774Y011568D01*
X075779Y011624D01*
X075781Y011680D01*
X075779Y011740D01*
X075773Y011801D01*
X075763Y011860D01*
X075750Y011919D01*
X075732Y011978D01*
X075711Y012034D01*
X075687Y012090D01*
X075659Y012143D01*
X075628Y012195D01*
X075593Y012245D01*
X075556Y012293D01*
X075515Y012337D01*
X075472Y012380D01*
X075426Y012419D01*
X075377Y012456D01*
X075327Y012489D01*
X075274Y012519D01*
X075220Y012546D01*
X075164Y012569D01*
X075107Y012588D01*
X075048Y012604D01*
X074989Y012616D01*
X074929Y012625D01*
X074868Y012629D01*
X074808Y012630D01*
X074747Y012627D01*
X074687Y012620D01*
X074628Y012609D01*
X074569Y012594D01*
X074511Y012576D01*
X074455Y012554D01*
X074400Y012528D01*
X074347Y012499D01*
X074295Y012467D01*
X074246Y012432D01*
X074199Y012393D01*
X074155Y012352D01*
X074114Y012308D01*
X074075Y012261D01*
X074039Y012212D01*
X074007Y012161D01*
X073978Y012108D01*
X073952Y012053D01*
X073930Y011997D01*
X073912Y011939D01*
X073897Y011880D01*
X073886Y011821D01*
X073879Y011761D01*
X073875Y011700D01*
X073876Y011640D01*
X073880Y011579D01*
X073888Y011519D01*
X073900Y011460D01*
D12*
X025882Y010696D02*
X019780Y010696D01*
X019780Y012664D01*
X025882Y012664D01*
X025882Y010696D01*
X029780Y010696D02*
X035882Y010696D01*
X035882Y012664D01*
X029780Y012664D01*
X029780Y010696D01*
X039280Y011196D02*
X045382Y011196D01*
X045382Y013164D01*
X039280Y013164D01*
X039280Y011196D01*
X048248Y013530D02*
X048248Y014271D01*
X048001Y014271D02*
X048495Y014271D01*
X048756Y013900D02*
X049003Y014147D01*
X049250Y014271D01*
X049126Y013900D02*
X048756Y013900D01*
X048756Y013653D01*
X048879Y013530D01*
X049126Y013530D01*
X049250Y013653D01*
X049250Y013777D01*
X049126Y013900D01*
X052751Y013771D02*
X053245Y013771D01*
X052998Y013771D02*
X052998Y013030D01*
X053506Y013030D02*
X053506Y013153D01*
X054000Y013647D01*
X054000Y013771D01*
X053506Y013771D01*
X064280Y014696D02*
X070382Y014696D01*
X070382Y016664D01*
X064280Y016664D01*
X064280Y014696D01*
X064780Y012664D02*
X070882Y012664D01*
X070882Y010696D01*
X064780Y010696D01*
X064780Y012664D01*
X073001Y013771D02*
X073495Y013771D01*
X073248Y013771D02*
X073248Y013030D01*
X073756Y013153D02*
X073879Y013030D01*
X074126Y013030D01*
X074250Y013153D01*
X074250Y013647D01*
X074126Y013771D01*
X073879Y013771D01*
X073756Y013647D01*
X073756Y013524D01*
X073879Y013400D01*
X074250Y013400D01*
X073780Y014696D02*
X079882Y014696D01*
X079882Y016664D01*
X073780Y016664D01*
X073780Y014696D01*
X079280Y013164D02*
X085382Y013164D01*
X085382Y011196D01*
X079280Y011196D01*
X079280Y013164D01*
X060515Y017720D02*
X060021Y017720D01*
X060515Y018214D01*
X060515Y018337D01*
X060391Y018461D01*
X060144Y018461D01*
X060021Y018337D01*
X059513Y018461D02*
X059513Y017720D01*
X059266Y017720D02*
X059760Y017720D01*
X058758Y017720D02*
X058758Y018461D01*
X058511Y018461D02*
X059005Y018461D01*
X059266Y018214D02*
X059513Y018461D01*
X061382Y019196D02*
X055280Y019196D01*
X055280Y021164D01*
X061382Y021164D01*
X061382Y019196D01*
X051382Y019196D02*
X045280Y019196D01*
X045280Y021164D01*
X051382Y021164D01*
X051382Y019196D01*
X041382Y019196D02*
X035280Y019196D01*
X035280Y021164D01*
X041382Y021164D01*
X041382Y019196D01*
X039882Y017914D02*
X039882Y015946D01*
X033780Y015946D01*
X033780Y017914D01*
X039882Y017914D01*
X031750Y016900D02*
X031256Y016900D01*
X031626Y017271D01*
X031626Y016530D01*
X030748Y016530D02*
X030748Y017271D01*
X030501Y017271D02*
X030995Y017271D01*
X027331Y017430D02*
X027331Y015930D01*
X023315Y014629D02*
X023315Y020731D01*
X021347Y020731D01*
X021347Y014629D01*
X023315Y014629D01*
X016382Y014647D02*
X016259Y014771D01*
X016012Y014771D01*
X015889Y014647D01*
X016382Y014647D02*
X016382Y014524D01*
X015889Y014030D01*
X016382Y014030D01*
X015634Y014030D02*
X015511Y014030D01*
X015511Y014153D01*
X015634Y014153D01*
X015634Y014030D01*
X015250Y014030D02*
X014756Y014030D01*
X015250Y014524D01*
X015250Y014647D01*
X015126Y014771D01*
X014879Y014771D01*
X014756Y014647D01*
X014495Y014771D02*
X014001Y014771D01*
X014248Y014771D02*
X014248Y014030D01*
X011382Y014530D02*
X010889Y014530D01*
X011135Y014530D02*
X011135Y015271D01*
X010889Y015024D01*
X010634Y014653D02*
X010634Y014530D01*
X010511Y014530D01*
X010511Y014653D01*
X010634Y014653D01*
X010250Y014530D02*
X009756Y014530D01*
X010250Y015024D01*
X010250Y015147D01*
X010126Y015271D01*
X009879Y015271D01*
X009756Y015147D01*
X009495Y015271D02*
X009001Y015271D01*
X009248Y015271D02*
X009248Y014530D01*
X016331Y015430D02*
X016331Y015930D01*
X027331Y019430D02*
X027331Y020930D01*
X030001Y021271D02*
X030495Y021271D01*
X030248Y021271D02*
X030248Y020530D01*
X030756Y020653D02*
X030879Y020530D01*
X031126Y020530D01*
X031250Y020653D01*
X031250Y020777D01*
X031126Y020900D01*
X031003Y020900D01*
X031126Y020900D02*
X031250Y021024D01*
X031250Y021147D01*
X031126Y021271D01*
X030879Y021271D01*
X030756Y021147D01*
X030882Y022196D02*
X024780Y022196D01*
X024780Y024164D01*
X030882Y024164D01*
X030882Y022196D01*
X034780Y022196D02*
X040882Y022196D01*
X040882Y024164D01*
X034780Y024164D01*
X034780Y022196D01*
X044251Y025271D02*
X044745Y025271D01*
X044498Y025271D02*
X044498Y024530D01*
X045006Y024653D02*
X045006Y024777D01*
X045129Y024900D01*
X045376Y024900D01*
X045500Y024777D01*
X045500Y024653D01*
X045376Y024530D01*
X045129Y024530D01*
X045006Y024653D01*
X045129Y024900D02*
X045006Y025024D01*
X045006Y025147D01*
X045129Y025271D01*
X045376Y025271D01*
X045500Y025147D01*
X045500Y025024D01*
X045376Y024900D01*
X045382Y025696D02*
X039280Y025696D01*
X039280Y027664D01*
X045382Y027664D01*
X045382Y025696D01*
X048758Y028220D02*
X048758Y028961D01*
X048511Y028961D02*
X049005Y028961D01*
X049266Y028961D02*
X049266Y028590D01*
X049513Y028714D01*
X049636Y028714D01*
X049760Y028590D01*
X049760Y028343D01*
X049636Y028220D01*
X049389Y028220D01*
X049266Y028343D01*
X049266Y028961D02*
X049760Y028961D01*
X035382Y027664D02*
X035382Y025696D01*
X029280Y025696D01*
X029280Y027664D01*
X035382Y027664D01*
X025382Y027664D02*
X025382Y025696D01*
X019280Y025696D01*
X019280Y027664D01*
X025382Y027664D01*
X018132Y028030D02*
X017639Y028030D01*
X018132Y028524D01*
X018132Y028647D01*
X018009Y028771D01*
X017762Y028771D01*
X017639Y028647D01*
X016753Y028771D02*
X016753Y028030D01*
X016506Y028030D02*
X017000Y028030D01*
X017261Y028030D02*
X017384Y028030D01*
X017384Y028153D01*
X017261Y028153D01*
X017261Y028030D01*
X015998Y028030D02*
X015998Y028771D01*
X015751Y028771D02*
X016245Y028771D01*
X016506Y028524D02*
X016753Y028771D01*
X013632Y028030D02*
X013139Y028030D01*
X013385Y028030D02*
X013385Y028771D01*
X013139Y028524D01*
X012253Y028771D02*
X012253Y028030D01*
X012006Y028030D02*
X012500Y028030D01*
X012761Y028030D02*
X012884Y028030D01*
X012884Y028153D01*
X012761Y028153D01*
X012761Y028030D01*
X011498Y028030D02*
X011498Y028771D01*
X011251Y028771D02*
X011745Y028771D01*
X012006Y028524D02*
X012253Y028771D01*
X015280Y024164D02*
X021382Y024164D01*
X021382Y022196D01*
X015280Y022196D01*
X015280Y024164D01*
X011706Y022680D02*
X011706Y022180D01*
X089780Y022696D02*
X095882Y022696D01*
X095882Y024664D01*
X089780Y024664D01*
X089780Y022696D01*
X099780Y022696D02*
X105882Y022696D01*
X105882Y024664D01*
X099780Y024664D01*
X099780Y022696D01*
X099780Y021664D02*
X105882Y021664D01*
X105882Y019696D01*
X099780Y019696D01*
X099780Y021664D01*
X099780Y019164D02*
X105882Y019164D01*
X105882Y017196D01*
X099780Y017196D01*
X099780Y019164D01*
X099780Y016164D02*
X105882Y016164D01*
X105882Y014196D01*
X099780Y014196D01*
X099780Y016164D01*
X106671Y025470D02*
X106671Y026391D01*
X107285Y026391D01*
X107592Y026237D02*
X107745Y026391D01*
X108052Y026391D01*
X108206Y026237D01*
X108206Y026084D01*
X107592Y025470D01*
X108206Y025470D01*
X106978Y025930D02*
X106671Y025930D01*
X105382Y026196D02*
X099280Y026196D01*
X099280Y028164D01*
X105382Y028164D01*
X105382Y026196D01*
X095882Y026196D02*
X089780Y026196D01*
X089780Y028164D01*
X095882Y028164D01*
X095882Y026196D01*
D13*
X027331Y020930D02*
X027288Y020984D01*
X027242Y021036D01*
X027193Y021085D01*
X027141Y021132D01*
X027087Y021175D01*
X027031Y021216D01*
X026972Y021253D01*
X026912Y021287D01*
X026849Y021317D01*
X026786Y021344D01*
X026720Y021368D01*
X026654Y021388D01*
X026586Y021404D01*
X026518Y021416D01*
X026449Y021424D01*
X026380Y021429D01*
X026310Y021430D01*
X026241Y021427D01*
X026172Y021420D01*
X026104Y021409D01*
X026036Y021395D01*
X025969Y021376D01*
X025903Y021354D01*
X025838Y021329D01*
X025775Y021300D01*
X025714Y021267D01*
X025655Y021231D01*
X025598Y021192D01*
X025542Y021150D01*
X025490Y021105D01*
X025440Y021057D01*
X025393Y021006D01*
X025348Y020952D01*
X025307Y020897D01*
X025269Y020839D01*
X025234Y020779D01*
X025202Y020717D01*
X025174Y020654D01*
X025150Y020589D01*
X025129Y020523D01*
X025112Y020455D01*
X025098Y020387D01*
X025089Y020318D01*
X025083Y020249D01*
X025081Y020180D01*
X025083Y020111D01*
X025089Y020042D01*
X025098Y019973D01*
X025112Y019905D01*
X025129Y019837D01*
X025150Y019771D01*
X025174Y019706D01*
X025202Y019643D01*
X025234Y019581D01*
X025269Y019521D01*
X025307Y019463D01*
X025348Y019408D01*
X025393Y019354D01*
X025440Y019303D01*
X025490Y019255D01*
X025542Y019210D01*
X025598Y019168D01*
X025655Y019129D01*
X025714Y019093D01*
X025775Y019060D01*
X025838Y019031D01*
X025903Y019006D01*
X025969Y018984D01*
X026036Y018965D01*
X026104Y018951D01*
X026172Y018940D01*
X026241Y018933D01*
X026310Y018930D01*
X026380Y018931D01*
X026449Y018936D01*
X026518Y018944D01*
X026586Y018956D01*
X026654Y018972D01*
X026720Y018992D01*
X026786Y019016D01*
X026849Y019043D01*
X026912Y019073D01*
X026972Y019107D01*
X027031Y019144D01*
X027087Y019185D01*
X027141Y019228D01*
X027193Y019275D01*
X027242Y019324D01*
X027288Y019376D01*
X027331Y019430D01*
X027331Y017430D02*
X027288Y017484D01*
X027242Y017536D01*
X027193Y017585D01*
X027141Y017632D01*
X027087Y017675D01*
X027031Y017716D01*
X026972Y017753D01*
X026912Y017787D01*
X026849Y017817D01*
X026786Y017844D01*
X026720Y017868D01*
X026654Y017888D01*
X026586Y017904D01*
X026518Y017916D01*
X026449Y017924D01*
X026380Y017929D01*
X026310Y017930D01*
X026241Y017927D01*
X026172Y017920D01*
X026104Y017909D01*
X026036Y017895D01*
X025969Y017876D01*
X025903Y017854D01*
X025838Y017829D01*
X025775Y017800D01*
X025714Y017767D01*
X025655Y017731D01*
X025598Y017692D01*
X025542Y017650D01*
X025490Y017605D01*
X025440Y017557D01*
X025393Y017506D01*
X025348Y017452D01*
X025307Y017397D01*
X025269Y017339D01*
X025234Y017279D01*
X025202Y017217D01*
X025174Y017154D01*
X025150Y017089D01*
X025129Y017023D01*
X025112Y016955D01*
X025098Y016887D01*
X025089Y016818D01*
X025083Y016749D01*
X025081Y016680D01*
X025083Y016611D01*
X025089Y016542D01*
X025098Y016473D01*
X025112Y016405D01*
X025129Y016337D01*
X025150Y016271D01*
X025174Y016206D01*
X025202Y016143D01*
X025234Y016081D01*
X025269Y016021D01*
X025307Y015963D01*
X025348Y015908D01*
X025393Y015854D01*
X025440Y015803D01*
X025490Y015755D01*
X025542Y015710D01*
X025598Y015668D01*
X025655Y015629D01*
X025714Y015593D01*
X025775Y015560D01*
X025838Y015531D01*
X025903Y015506D01*
X025969Y015484D01*
X026036Y015465D01*
X026104Y015451D01*
X026172Y015440D01*
X026241Y015433D01*
X026310Y015430D01*
X026380Y015431D01*
X026449Y015436D01*
X026518Y015444D01*
X026586Y015456D01*
X026654Y015472D01*
X026720Y015492D01*
X026786Y015516D01*
X026849Y015543D01*
X026912Y015573D01*
X026972Y015607D01*
X027031Y015644D01*
X027087Y015685D01*
X027141Y015728D01*
X027193Y015775D01*
X027242Y015824D01*
X027288Y015876D01*
X027331Y015930D01*
D14*
X027606Y016915D02*
X027831Y016915D01*
X027906Y016990D01*
X027906Y017290D01*
X027831Y017365D01*
X027606Y017365D01*
X027606Y016915D01*
X028066Y016915D02*
X028367Y017215D01*
X028367Y017290D01*
X028292Y017365D01*
X028141Y017365D01*
X028066Y017290D01*
X028066Y016915D02*
X028367Y016915D01*
X033856Y018205D02*
X033856Y018475D01*
X033991Y018475D01*
X034036Y018430D01*
X034036Y018340D01*
X033991Y018295D01*
X033856Y018295D01*
X033946Y018295D02*
X034036Y018205D01*
X034151Y018250D02*
X034196Y018205D01*
X034286Y018205D01*
X034331Y018250D01*
X034331Y018340D01*
X034286Y018385D01*
X034241Y018385D01*
X034151Y018340D01*
X034151Y018475D01*
X034331Y018475D01*
X028367Y020415D02*
X028066Y020415D01*
X028216Y020415D02*
X028216Y020865D01*
X028066Y020715D01*
X027906Y020790D02*
X027831Y020865D01*
X027606Y020865D01*
X027606Y020415D01*
X027831Y020415D01*
X027906Y020490D01*
X027906Y020790D01*
X035356Y021455D02*
X035356Y021725D01*
X035491Y021725D01*
X035536Y021680D01*
X035536Y021590D01*
X035491Y021545D01*
X035356Y021545D01*
X035446Y021545D02*
X035536Y021455D01*
X035651Y021455D02*
X035831Y021455D01*
X035741Y021455D02*
X035741Y021725D01*
X035651Y021635D01*
X035945Y021590D02*
X036080Y021590D01*
X036125Y021545D01*
X036125Y021500D01*
X036080Y021455D01*
X035990Y021455D01*
X035945Y021500D01*
X035945Y021590D01*
X036035Y021680D01*
X036125Y021725D01*
X045356Y021725D02*
X045356Y021455D01*
X045356Y021545D02*
X045491Y021545D01*
X045536Y021590D01*
X045536Y021680D01*
X045491Y021725D01*
X045356Y021725D01*
X045446Y021545D02*
X045536Y021455D01*
X045651Y021455D02*
X045831Y021455D01*
X045741Y021455D02*
X045741Y021725D01*
X045651Y021635D01*
X045945Y021635D02*
X045990Y021590D01*
X046125Y021590D01*
X046125Y021500D02*
X046125Y021680D01*
X046080Y021725D01*
X045990Y021725D01*
X045945Y021680D01*
X045945Y021635D01*
X045945Y021500D02*
X045990Y021455D01*
X046080Y021455D01*
X046125Y021500D01*
X056006Y024205D02*
X056231Y024205D01*
X056306Y024280D01*
X056306Y024580D01*
X056231Y024655D01*
X056006Y024655D01*
X056006Y024205D01*
X056466Y024430D02*
X056767Y024430D01*
X056692Y024205D02*
X056692Y024655D01*
X056466Y024430D01*
X061606Y023405D02*
X061906Y023405D01*
X061756Y023405D02*
X061756Y022955D01*
X062066Y022955D02*
X062367Y022955D01*
X062216Y022955D02*
X062216Y023405D01*
X062066Y023255D01*
X062527Y023330D02*
X062602Y023405D01*
X062752Y023405D01*
X062827Y023330D01*
X062827Y023255D01*
X062752Y023180D01*
X062827Y023105D01*
X062827Y023030D01*
X062752Y022955D01*
X062602Y022955D01*
X062527Y023030D01*
X062677Y023180D02*
X062752Y023180D01*
X063564Y022710D02*
X063749Y022891D01*
X064028Y022605D02*
X063843Y022424D01*
X064634Y022605D02*
X064819Y022424D01*
X065098Y022710D02*
X064913Y022891D01*
X064531Y024057D02*
X064474Y024068D01*
X064417Y024076D01*
X064360Y024080D01*
X064302Y024080D01*
X064245Y024076D01*
X064188Y024068D01*
X064131Y024057D01*
X064131Y023798D01*
X064531Y023798D02*
X064531Y024057D01*
X065881Y024780D02*
X062781Y024780D01*
X062781Y020680D01*
X065881Y020680D01*
X065881Y024780D01*
X063564Y022710D02*
X063595Y022662D01*
X063630Y022616D01*
X063667Y022572D01*
X063708Y022531D01*
X063751Y022492D01*
X063796Y022456D01*
X063843Y022424D01*
X063681Y023180D02*
X063683Y023230D01*
X063689Y023280D01*
X063699Y023330D01*
X063712Y023378D01*
X063729Y023426D01*
X063750Y023472D01*
X063774Y023516D01*
X063802Y023558D01*
X063833Y023598D01*
X063867Y023635D01*
X063904Y023670D01*
X063943Y023701D01*
X063984Y023730D01*
X064028Y023755D01*
X064074Y023777D01*
X064121Y023795D01*
X064169Y023809D01*
X064218Y023820D01*
X064268Y023827D01*
X064318Y023830D01*
X064369Y023829D01*
X064419Y023824D01*
X064469Y023815D01*
X064517Y023803D01*
X064565Y023786D01*
X064611Y023766D01*
X064656Y023743D01*
X064699Y023716D01*
X064739Y023686D01*
X064777Y023653D01*
X064812Y023617D01*
X064845Y023578D01*
X064874Y023537D01*
X064900Y023494D01*
X064923Y023449D01*
X064942Y023402D01*
X064957Y023354D01*
X064969Y023305D01*
X064977Y023255D01*
X064981Y023205D01*
X064981Y023155D01*
X064977Y023105D01*
X064969Y023055D01*
X064957Y023006D01*
X064942Y022958D01*
X064923Y022911D01*
X064900Y022866D01*
X064874Y022823D01*
X064845Y022782D01*
X064812Y022743D01*
X064777Y022707D01*
X064739Y022674D01*
X064699Y022644D01*
X064656Y022617D01*
X064611Y022594D01*
X064565Y022574D01*
X064517Y022557D01*
X064469Y022545D01*
X064419Y022536D01*
X064369Y022531D01*
X064318Y022530D01*
X064268Y022533D01*
X064218Y022540D01*
X064169Y022551D01*
X064121Y022565D01*
X064074Y022583D01*
X064028Y022605D01*
X063984Y022630D01*
X063943Y022659D01*
X063904Y022690D01*
X063867Y022725D01*
X063833Y022762D01*
X063802Y022802D01*
X063774Y022844D01*
X063750Y022888D01*
X063729Y022934D01*
X063712Y022982D01*
X063699Y023030D01*
X063689Y023080D01*
X063683Y023130D01*
X063681Y023180D01*
X064819Y022424D02*
X064866Y022456D01*
X064911Y022492D01*
X064954Y022531D01*
X064995Y022572D01*
X065032Y022616D01*
X065067Y022662D01*
X065098Y022710D01*
X058081Y021680D02*
X058081Y021500D01*
X058036Y021455D01*
X057946Y021455D01*
X057901Y021500D01*
X057946Y021590D02*
X058081Y021590D01*
X058081Y021680D02*
X058036Y021725D01*
X057946Y021725D01*
X057901Y021680D01*
X057901Y021635D01*
X057946Y021590D01*
X057786Y021590D02*
X057741Y021545D01*
X057606Y021545D01*
X057606Y021455D02*
X057606Y021725D01*
X057741Y021725D01*
X057786Y021680D01*
X057786Y021590D01*
X057696Y021545D02*
X057786Y021455D01*
X054767Y017655D02*
X054466Y017655D01*
X054466Y017430D01*
X054616Y017505D01*
X054692Y017505D01*
X054767Y017430D01*
X054767Y017280D01*
X054692Y017205D01*
X054541Y017205D01*
X054466Y017280D01*
X054306Y017280D02*
X054306Y017580D01*
X054231Y017655D01*
X054006Y017655D01*
X054006Y017205D01*
X054231Y017205D01*
X054306Y017280D01*
X047867Y017630D02*
X047566Y017630D01*
X047792Y017855D01*
X047792Y017405D01*
X047406Y017480D02*
X047331Y017405D01*
X047181Y017405D01*
X047106Y017480D01*
X047106Y017780D01*
X047181Y017855D01*
X047331Y017855D01*
X047406Y017780D01*
X042330Y013725D02*
X042195Y013590D01*
X042375Y013590D01*
X042330Y013455D02*
X042330Y013725D01*
X041991Y013725D02*
X041991Y013455D01*
X041901Y013455D02*
X042081Y013455D01*
X041901Y013635D02*
X041991Y013725D01*
X041786Y013680D02*
X041786Y013590D01*
X041741Y013545D01*
X041606Y013545D01*
X041606Y013455D02*
X041606Y013725D01*
X041741Y013725D01*
X041786Y013680D01*
X041696Y013545D02*
X041786Y013455D01*
X033125Y013180D02*
X033125Y013135D01*
X033080Y013090D01*
X033125Y013045D01*
X033125Y013000D01*
X033080Y012955D01*
X032990Y012955D01*
X032945Y013000D01*
X032831Y012955D02*
X032651Y012955D01*
X032741Y012955D02*
X032741Y013225D01*
X032651Y013135D01*
X032536Y013090D02*
X032491Y013045D01*
X032356Y013045D01*
X032356Y012955D02*
X032356Y013225D01*
X032491Y013225D01*
X032536Y013180D01*
X032536Y013090D01*
X032446Y013045D02*
X032536Y012955D01*
X032945Y013180D02*
X032990Y013225D01*
X033080Y013225D01*
X033125Y013180D01*
X033080Y013090D02*
X033035Y013090D01*
X022875Y013135D02*
X022875Y013180D01*
X022830Y013225D01*
X022740Y013225D01*
X022695Y013180D01*
X022875Y013135D02*
X022695Y012955D01*
X022875Y012955D01*
X022581Y012955D02*
X022401Y012955D01*
X022491Y012955D02*
X022491Y013225D01*
X022401Y013135D01*
X022286Y013090D02*
X022241Y013045D01*
X022106Y013045D01*
X022106Y012955D02*
X022106Y013225D01*
X022241Y013225D01*
X022286Y013180D01*
X022286Y013090D01*
X022196Y013045D02*
X022286Y012955D01*
X021056Y017455D02*
X020786Y017455D01*
X020786Y017590D01*
X020831Y017635D01*
X020921Y017635D01*
X020966Y017590D01*
X020966Y017455D01*
X020966Y017545D02*
X021056Y017635D01*
X021011Y017750D02*
X021056Y017795D01*
X021056Y017885D01*
X021011Y017930D01*
X020966Y017930D01*
X020921Y017885D01*
X020921Y017840D01*
X020921Y017885D02*
X020876Y017930D01*
X020831Y017930D01*
X020786Y017885D01*
X020786Y017795D01*
X020831Y017750D01*
X013667Y018031D02*
X013667Y018464D01*
X013667Y018031D02*
X010557Y018031D01*
X010557Y018307D01*
X009376Y018307D01*
X009376Y019724D01*
X010557Y019724D01*
X010557Y018307D01*
X010557Y019724D02*
X010557Y020039D01*
X013510Y020039D01*
X013667Y020039D01*
X013667Y019646D01*
X013588Y020039D02*
X013510Y020039D01*
X016106Y021280D02*
X016181Y021205D01*
X016256Y021205D01*
X016331Y021280D01*
X016331Y021655D01*
X016256Y021655D02*
X016406Y021655D01*
X016566Y021655D02*
X016792Y021655D01*
X016867Y021580D01*
X016867Y021430D01*
X016792Y021355D01*
X016566Y021355D01*
X016566Y021205D02*
X016566Y021655D01*
X017027Y021655D02*
X017177Y021655D01*
X017102Y021655D02*
X017102Y021205D01*
X017027Y021205D02*
X017177Y021205D01*
X017334Y021205D02*
X017334Y021655D01*
X017634Y021205D01*
X017634Y021655D01*
X018356Y024455D02*
X018356Y024725D01*
X018491Y024725D01*
X018536Y024680D01*
X018536Y024590D01*
X018491Y024545D01*
X018356Y024545D01*
X018446Y024545D02*
X018536Y024455D01*
X018651Y024455D02*
X018831Y024455D01*
X018741Y024455D02*
X018741Y024725D01*
X018651Y024635D01*
X024856Y024545D02*
X024991Y024545D01*
X025036Y024590D01*
X025036Y024680D01*
X024991Y024725D01*
X024856Y024725D01*
X024856Y024455D01*
X024946Y024545D02*
X025036Y024455D01*
X025151Y024455D02*
X025331Y024635D01*
X025331Y024680D01*
X025286Y024725D01*
X025196Y024725D01*
X025151Y024680D01*
X025151Y024455D02*
X025331Y024455D01*
X034856Y024455D02*
X034856Y024725D01*
X034991Y024725D01*
X035036Y024680D01*
X035036Y024590D01*
X034991Y024545D01*
X034856Y024545D01*
X034946Y024545D02*
X035036Y024455D01*
X035151Y024455D02*
X035331Y024455D01*
X035241Y024455D02*
X035241Y024725D01*
X035151Y024635D01*
X035445Y024590D02*
X035535Y024635D01*
X035580Y024635D01*
X035625Y024590D01*
X035625Y024500D01*
X035580Y024455D01*
X035490Y024455D01*
X035445Y024500D01*
X035445Y024590D02*
X035445Y024725D01*
X035625Y024725D01*
X032625Y027955D02*
X032445Y027955D01*
X032535Y027955D02*
X032535Y028225D01*
X032445Y028135D01*
X032331Y027955D02*
X032151Y027955D01*
X032241Y027955D02*
X032241Y028225D01*
X032151Y028135D01*
X032036Y028090D02*
X031991Y028045D01*
X031856Y028045D01*
X031856Y027955D02*
X031856Y028225D01*
X031991Y028225D01*
X032036Y028180D01*
X032036Y028090D01*
X031946Y028045D02*
X032036Y027955D01*
X022625Y028000D02*
X022580Y027955D01*
X022490Y027955D01*
X022445Y028000D01*
X022625Y028180D01*
X022625Y028000D01*
X022445Y028000D02*
X022445Y028180D01*
X022490Y028225D01*
X022580Y028225D01*
X022625Y028180D01*
X022331Y027955D02*
X022151Y027955D01*
X022241Y027955D02*
X022241Y028225D01*
X022151Y028135D01*
X022036Y028090D02*
X021991Y028045D01*
X021856Y028045D01*
X021856Y027955D02*
X021856Y028225D01*
X021991Y028225D01*
X022036Y028180D01*
X022036Y028090D01*
X021946Y028045D02*
X022036Y027955D01*
X042106Y027955D02*
X042106Y028225D01*
X042241Y028225D01*
X042286Y028180D01*
X042286Y028090D01*
X042241Y028045D01*
X042106Y028045D01*
X042196Y028045D02*
X042286Y027955D01*
X042401Y028090D02*
X042581Y028090D01*
X042536Y027955D02*
X042536Y028225D01*
X042401Y028090D01*
X054106Y027980D02*
X054181Y027905D01*
X054331Y027905D01*
X054406Y027980D01*
X054566Y027980D02*
X054641Y027905D01*
X054792Y027905D01*
X054867Y027980D01*
X054867Y028055D01*
X054792Y028130D01*
X054716Y028130D01*
X054792Y028130D02*
X054867Y028205D01*
X054867Y028280D01*
X054792Y028355D01*
X054641Y028355D01*
X054566Y028280D01*
X054406Y028280D02*
X054331Y028355D01*
X054181Y028355D01*
X054106Y028280D01*
X054106Y027980D01*
X059506Y028155D02*
X059506Y027705D01*
X059731Y027705D01*
X059806Y027780D01*
X059806Y028080D01*
X059731Y028155D01*
X059506Y028155D01*
X059966Y028080D02*
X060041Y028155D01*
X060192Y028155D01*
X060267Y028080D01*
X060267Y028005D01*
X060192Y027930D01*
X060267Y027855D01*
X060267Y027780D01*
X060192Y027705D01*
X060041Y027705D01*
X059966Y027780D01*
X060116Y027930D02*
X060192Y027930D01*
X066556Y028030D02*
X066556Y027730D01*
X066631Y027655D01*
X066781Y027655D01*
X066856Y027730D01*
X067016Y027730D02*
X067016Y027655D01*
X067016Y027730D02*
X067317Y028030D01*
X067317Y028105D01*
X067016Y028105D01*
X066856Y028030D02*
X066781Y028105D01*
X066631Y028105D01*
X066556Y028030D01*
X084856Y028655D02*
X085156Y028655D01*
X085006Y028655D02*
X085006Y028205D01*
X085316Y028205D02*
X085617Y028205D01*
X085466Y028205D02*
X085466Y028655D01*
X085316Y028505D01*
X085777Y028580D02*
X085777Y028280D01*
X086077Y028580D01*
X086077Y028280D01*
X086002Y028205D01*
X085852Y028205D01*
X085777Y028280D01*
X085777Y028580D02*
X085852Y028655D01*
X086002Y028655D01*
X086077Y028580D01*
X089856Y028545D02*
X089991Y028545D01*
X090036Y028590D01*
X090036Y028680D01*
X089991Y028725D01*
X089856Y028725D01*
X089856Y028455D01*
X089946Y028545D02*
X090036Y028455D01*
X090151Y028500D02*
X090196Y028455D01*
X090286Y028455D01*
X090331Y028500D01*
X090331Y028545D01*
X090286Y028590D01*
X090151Y028590D01*
X090151Y028500D01*
X090151Y028590D02*
X090241Y028680D01*
X090331Y028725D01*
X099356Y028725D02*
X099356Y028455D01*
X099356Y028545D02*
X099491Y028545D01*
X099536Y028590D01*
X099536Y028680D01*
X099491Y028725D01*
X099356Y028725D01*
X099446Y028545D02*
X099536Y028455D01*
X099651Y028455D02*
X099831Y028635D01*
X099831Y028680D01*
X099786Y028725D01*
X099696Y028725D01*
X099651Y028680D01*
X099651Y028455D02*
X099831Y028455D01*
X099945Y028455D02*
X100125Y028455D01*
X100035Y028455D02*
X100035Y028725D01*
X099945Y028635D01*
X099991Y025225D02*
X100036Y025180D01*
X100036Y025090D01*
X099991Y025045D01*
X099856Y025045D01*
X099856Y024955D02*
X099856Y025225D01*
X099991Y025225D01*
X100151Y025180D02*
X100196Y025225D01*
X100286Y025225D01*
X100331Y025180D01*
X100331Y025135D01*
X100151Y024955D01*
X100331Y024955D01*
X100445Y025000D02*
X100490Y024955D01*
X100580Y024955D01*
X100625Y025000D01*
X100625Y025090D01*
X100580Y025135D01*
X100535Y025135D01*
X100445Y025090D01*
X100445Y025225D01*
X100625Y025225D01*
X100036Y024955D02*
X099946Y025045D01*
X099991Y022225D02*
X100036Y022180D01*
X100036Y022090D01*
X099991Y022045D01*
X099856Y022045D01*
X099856Y021955D02*
X099856Y022225D01*
X099991Y022225D01*
X100151Y022180D02*
X100196Y022225D01*
X100286Y022225D01*
X100331Y022180D01*
X100331Y022135D01*
X100151Y021955D01*
X100331Y021955D01*
X100445Y021955D02*
X100625Y022135D01*
X100625Y022180D01*
X100580Y022225D01*
X100490Y022225D01*
X100445Y022180D01*
X100445Y021955D02*
X100625Y021955D01*
X100036Y021955D02*
X099946Y022045D01*
X099991Y019725D02*
X100036Y019680D01*
X100036Y019590D01*
X099991Y019545D01*
X099856Y019545D01*
X099856Y019455D02*
X099856Y019725D01*
X099991Y019725D01*
X100151Y019680D02*
X100196Y019725D01*
X100286Y019725D01*
X100331Y019680D01*
X100331Y019635D01*
X100151Y019455D01*
X100331Y019455D01*
X100445Y019500D02*
X100490Y019455D01*
X100580Y019455D01*
X100625Y019500D01*
X100625Y019545D01*
X100580Y019590D01*
X100535Y019590D01*
X100580Y019590D02*
X100625Y019635D01*
X100625Y019680D01*
X100580Y019725D01*
X100490Y019725D01*
X100445Y019680D01*
X100036Y019455D02*
X099946Y019545D01*
X099991Y016725D02*
X100036Y016680D01*
X100036Y016590D01*
X099991Y016545D01*
X099856Y016545D01*
X099856Y016455D02*
X099856Y016725D01*
X099991Y016725D01*
X100151Y016680D02*
X100196Y016725D01*
X100286Y016725D01*
X100331Y016680D01*
X100331Y016635D01*
X100151Y016455D01*
X100331Y016455D01*
X100445Y016590D02*
X100625Y016590D01*
X100580Y016455D02*
X100580Y016725D01*
X100445Y016590D01*
X100036Y016455D02*
X099946Y016545D01*
X111031Y017832D02*
X111106Y017757D01*
X111181Y017757D01*
X111256Y017832D01*
X111256Y017982D01*
X111331Y018058D01*
X111406Y018058D01*
X111481Y017982D01*
X111481Y017832D01*
X111406Y017757D01*
X111031Y017832D02*
X111031Y017982D01*
X111106Y018058D01*
X111031Y018218D02*
X111031Y018443D01*
X111106Y018518D01*
X111256Y018518D01*
X111331Y018443D01*
X111331Y018218D01*
X111481Y018218D02*
X111031Y018218D01*
X111031Y018678D02*
X111481Y018678D01*
X111481Y018978D01*
X111481Y019138D02*
X111181Y019138D01*
X111031Y019289D01*
X111181Y019439D01*
X111481Y019439D01*
X111481Y019599D02*
X111031Y019599D01*
X111256Y019674D02*
X111481Y019899D01*
X111481Y020059D02*
X111481Y020359D01*
X111481Y020520D02*
X111031Y020520D01*
X111031Y020745D01*
X111106Y020820D01*
X111256Y020820D01*
X111331Y020745D01*
X111331Y020520D01*
X111331Y020670D02*
X111481Y020820D01*
X111031Y020359D02*
X111031Y020059D01*
X111481Y020059D01*
X111256Y020059D02*
X111256Y020209D01*
X111031Y019899D02*
X111331Y019599D01*
X111256Y019439D02*
X111256Y019138D01*
X111031Y018978D02*
X111031Y018678D01*
X111256Y018678D02*
X111256Y018828D01*
X112995Y018871D02*
X112995Y019264D01*
X112995Y018871D02*
X113152Y018871D01*
X116105Y018871D01*
X116105Y019186D01*
X117286Y019186D01*
X117286Y020603D01*
X116105Y020603D01*
X116105Y020879D01*
X112995Y020879D01*
X112995Y020446D01*
X116105Y020603D02*
X116105Y019186D01*
X113152Y018871D02*
X113074Y018871D01*
X112856Y014405D02*
X112856Y013955D01*
X113156Y013955D01*
X113316Y013955D02*
X113617Y013955D01*
X113466Y013955D02*
X113466Y014405D01*
X113316Y014255D01*
X102817Y012855D02*
X102666Y012780D01*
X102516Y012630D01*
X102742Y012630D01*
X102817Y012555D01*
X102817Y012480D01*
X102742Y012405D01*
X102591Y012405D01*
X102516Y012480D01*
X102516Y012630D01*
X102356Y012480D02*
X102281Y012405D01*
X102131Y012405D01*
X102056Y012480D01*
X102056Y012780D01*
X102131Y012855D01*
X102281Y012855D01*
X102356Y012780D01*
X095117Y012855D02*
X094816Y012855D01*
X094816Y012630D01*
X094966Y012705D01*
X095042Y012705D01*
X095117Y012630D01*
X095117Y012480D01*
X095042Y012405D01*
X094891Y012405D01*
X094816Y012480D01*
X094656Y012480D02*
X094581Y012405D01*
X094431Y012405D01*
X094356Y012480D01*
X094356Y012780D01*
X094431Y012855D01*
X094581Y012855D01*
X094656Y012780D01*
X079831Y013680D02*
X079651Y013500D01*
X079651Y013455D01*
X079536Y013455D02*
X079446Y013545D01*
X079491Y013545D02*
X079356Y013545D01*
X079356Y013455D02*
X079356Y013725D01*
X079491Y013725D01*
X079536Y013680D01*
X079536Y013590D01*
X079491Y013545D01*
X079651Y013725D02*
X079831Y013725D01*
X079831Y013680D01*
X075570Y015555D02*
X075570Y015690D01*
X075525Y015735D01*
X075480Y015690D01*
X075480Y015555D01*
X075390Y015555D02*
X075390Y015735D01*
X075435Y015735D01*
X075480Y015690D01*
X075275Y015690D02*
X075275Y015555D01*
X075275Y015690D02*
X075230Y015735D01*
X075140Y015735D01*
X075095Y015690D01*
X074981Y015690D02*
X074936Y015735D01*
X074846Y015735D01*
X074801Y015690D01*
X074801Y015600D01*
X074846Y015555D01*
X074936Y015555D01*
X074981Y015600D01*
X074981Y015690D01*
X075095Y015825D02*
X075095Y015555D01*
X074686Y015555D02*
X074506Y015555D01*
X074596Y015555D02*
X074596Y015825D01*
X074506Y015735D01*
X074490Y016955D02*
X074445Y017000D01*
X074625Y017180D01*
X074625Y017000D01*
X074580Y016955D01*
X074490Y016955D01*
X074445Y017000D02*
X074445Y017180D01*
X074490Y017225D01*
X074580Y017225D01*
X074625Y017180D01*
X074331Y017180D02*
X074331Y017135D01*
X074151Y016955D01*
X074331Y016955D01*
X074331Y017180D02*
X074286Y017225D01*
X074196Y017225D01*
X074151Y017180D01*
X074036Y017180D02*
X074036Y017090D01*
X073991Y017045D01*
X073856Y017045D01*
X073856Y016955D02*
X073856Y017225D01*
X073991Y017225D01*
X074036Y017180D01*
X073946Y017045D02*
X074036Y016955D01*
X065125Y017180D02*
X064945Y017000D01*
X064945Y016955D01*
X064831Y016955D02*
X064651Y016955D01*
X064741Y016955D02*
X064741Y017225D01*
X064651Y017135D01*
X064536Y017090D02*
X064491Y017045D01*
X064356Y017045D01*
X064356Y016955D02*
X064356Y017225D01*
X064491Y017225D01*
X064536Y017180D01*
X064536Y017090D01*
X064446Y017045D02*
X064536Y016955D01*
X064945Y017225D02*
X065125Y017225D01*
X065125Y017180D01*
X065196Y013225D02*
X065286Y013225D01*
X065331Y013180D01*
X065331Y013135D01*
X065286Y013090D01*
X065196Y013090D01*
X065151Y013135D01*
X065151Y013180D01*
X065196Y013225D01*
X065196Y013090D02*
X065151Y013045D01*
X065151Y013000D01*
X065196Y012955D01*
X065286Y012955D01*
X065331Y013000D01*
X065331Y013045D01*
X065286Y013090D01*
X065036Y013090D02*
X064991Y013045D01*
X064856Y013045D01*
X064856Y012955D02*
X064856Y013225D01*
X064991Y013225D01*
X065036Y013180D01*
X065036Y013090D01*
X064946Y013045D02*
X065036Y012955D01*
X059767Y012655D02*
X059616Y012580D01*
X059466Y012430D01*
X059692Y012430D01*
X059767Y012355D01*
X059767Y012280D01*
X059692Y012205D01*
X059541Y012205D01*
X059466Y012280D01*
X059466Y012430D01*
X059306Y012280D02*
X059306Y012580D01*
X059231Y012655D01*
X059006Y012655D01*
X059006Y012205D01*
X059231Y012205D01*
X059306Y012280D01*
X089856Y024955D02*
X089856Y025225D01*
X089991Y025225D01*
X090036Y025180D01*
X090036Y025090D01*
X089991Y025045D01*
X089856Y025045D01*
X089946Y025045D02*
X090036Y024955D01*
X090151Y024955D02*
X090331Y024955D01*
X090241Y024955D02*
X090241Y025225D01*
X090151Y025135D01*
X090445Y025135D02*
X090445Y025180D01*
X090490Y025225D01*
X090580Y025225D01*
X090625Y025180D01*
X090625Y025135D01*
X090580Y025090D01*
X090490Y025090D01*
X090445Y025135D01*
X090490Y025090D02*
X090445Y025045D01*
X090445Y025000D01*
X090490Y024955D01*
X090580Y024955D01*
X090625Y025000D01*
X090625Y025045D01*
X090580Y025090D01*
X112856Y024905D02*
X112856Y024455D01*
X112856Y024605D02*
X113081Y024605D01*
X113156Y024680D01*
X113156Y024830D01*
X113081Y024905D01*
X112856Y024905D01*
X113316Y024830D02*
X113316Y024530D01*
X113391Y024455D01*
X113542Y024455D01*
X113617Y024530D01*
X113617Y024830D01*
X113542Y024905D01*
X113391Y024905D01*
X113316Y024830D01*
X113777Y024905D02*
X113777Y024455D01*
X113927Y024605D01*
X114077Y024455D01*
X114077Y024905D01*
X114237Y024905D02*
X114237Y024455D01*
X114537Y024455D01*
X114698Y024455D02*
X114698Y024905D01*
X114923Y024905D01*
X114998Y024830D01*
X114998Y024680D01*
X114923Y024605D01*
X114698Y024605D01*
X114848Y024605D02*
X114998Y024455D01*
X114537Y024905D02*
X114237Y024905D01*
X114237Y024680D02*
X114387Y024680D01*
D15*
X059430Y017637D02*
X059116Y017323D01*
X059273Y017323D02*
X059273Y017637D01*
X059116Y017637D02*
X059430Y017323D01*
X059430Y017480D02*
X059116Y017480D01*
X049430Y027823D02*
X049116Y028137D01*
X049273Y028137D02*
X049273Y027823D01*
X049116Y027823D02*
X049430Y028137D01*
X049430Y027980D02*
X049116Y027980D01*
D16*
X059181Y027180D03*
X065531Y027180D03*
X056181Y023680D03*
X053681Y016680D03*
X059181Y011680D03*
X101031Y011680D03*
D17*
X061106Y011680D03*
X058556Y011680D03*
X055606Y016680D03*
X053056Y016680D03*
X055556Y023680D03*
X058106Y023680D03*
X058556Y027180D03*
X061106Y027180D03*
D18*
X063101Y020990D03*
X084601Y024990D03*
D19*
X085831Y024330D03*
X064331Y020330D03*
D20*
X064331Y020255D03*
X065231Y020255D03*
X063431Y020255D03*
X084931Y024255D03*
X085831Y024255D03*
X086731Y024255D03*
D21*
X070731Y023680D02*
X070737Y023906D01*
X070753Y024131D01*
X070781Y024355D01*
X070819Y024577D01*
X070869Y024798D01*
X070929Y025015D01*
X071000Y025230D01*
X071081Y025440D01*
X071173Y025647D01*
X071274Y025848D01*
X071385Y026045D01*
X071506Y026236D01*
X071636Y026420D01*
X071775Y026598D01*
X071923Y026769D01*
X072078Y026933D01*
X072242Y027088D01*
X072413Y027236D01*
X072591Y027375D01*
X072775Y027505D01*
X072966Y027626D01*
X073163Y027737D01*
X073364Y027838D01*
X073571Y027930D01*
X073781Y028011D01*
X073996Y028082D01*
X074213Y028142D01*
X074434Y028192D01*
X074656Y028230D01*
X074880Y028258D01*
X075105Y028274D01*
X075331Y028280D01*
X075557Y028274D01*
X075782Y028258D01*
X076006Y028230D01*
X076228Y028192D01*
X076449Y028142D01*
X076666Y028082D01*
X076881Y028011D01*
X077091Y027930D01*
X077298Y027838D01*
X077499Y027737D01*
X077696Y027626D01*
X077887Y027505D01*
X078071Y027375D01*
X078249Y027236D01*
X078420Y027088D01*
X078584Y026933D01*
X078739Y026769D01*
X078887Y026598D01*
X079026Y026420D01*
X079156Y026236D01*
X079277Y026045D01*
X079388Y025848D01*
X079489Y025647D01*
X079581Y025440D01*
X079662Y025230D01*
X079733Y025015D01*
X079793Y024798D01*
X079843Y024577D01*
X079881Y024355D01*
X079909Y024131D01*
X079925Y023906D01*
X079931Y023680D01*
X079925Y023454D01*
X079909Y023229D01*
X079881Y023005D01*
X079843Y022783D01*
X079793Y022562D01*
X079733Y022345D01*
X079662Y022130D01*
X079581Y021920D01*
X079489Y021713D01*
X079388Y021512D01*
X079277Y021315D01*
X079156Y021124D01*
X079026Y020940D01*
X078887Y020762D01*
X078739Y020591D01*
X078584Y020427D01*
X078420Y020272D01*
X078249Y020124D01*
X078071Y019985D01*
X077887Y019855D01*
X077696Y019734D01*
X077499Y019623D01*
X077298Y019522D01*
X077091Y019430D01*
X076881Y019349D01*
X076666Y019278D01*
X076449Y019218D01*
X076228Y019168D01*
X076006Y019130D01*
X075782Y019102D01*
X075557Y019086D01*
X075331Y019080D01*
X075105Y019086D01*
X074880Y019102D01*
X074656Y019130D01*
X074434Y019168D01*
X074213Y019218D01*
X073996Y019278D01*
X073781Y019349D01*
X073571Y019430D01*
X073364Y019522D01*
X073163Y019623D01*
X072966Y019734D01*
X072775Y019855D01*
X072591Y019985D01*
X072413Y020124D01*
X072242Y020272D01*
X072078Y020427D01*
X071923Y020591D01*
X071775Y020762D01*
X071636Y020940D01*
X071506Y021124D01*
X071385Y021315D01*
X071274Y021512D01*
X071173Y021713D01*
X071081Y021920D01*
X071000Y022130D01*
X070929Y022345D01*
X070869Y022562D01*
X070819Y022783D01*
X070781Y023005D01*
X070753Y023229D01*
X070737Y023454D01*
X070731Y023680D01*
X085731Y017180D02*
X085737Y017406D01*
X085753Y017631D01*
X085781Y017855D01*
X085819Y018077D01*
X085869Y018298D01*
X085929Y018515D01*
X086000Y018730D01*
X086081Y018940D01*
X086173Y019147D01*
X086274Y019348D01*
X086385Y019545D01*
X086506Y019736D01*
X086636Y019920D01*
X086775Y020098D01*
X086923Y020269D01*
X087078Y020433D01*
X087242Y020588D01*
X087413Y020736D01*
X087591Y020875D01*
X087775Y021005D01*
X087966Y021126D01*
X088163Y021237D01*
X088364Y021338D01*
X088571Y021430D01*
X088781Y021511D01*
X088996Y021582D01*
X089213Y021642D01*
X089434Y021692D01*
X089656Y021730D01*
X089880Y021758D01*
X090105Y021774D01*
X090331Y021780D01*
X090557Y021774D01*
X090782Y021758D01*
X091006Y021730D01*
X091228Y021692D01*
X091449Y021642D01*
X091666Y021582D01*
X091881Y021511D01*
X092091Y021430D01*
X092298Y021338D01*
X092499Y021237D01*
X092696Y021126D01*
X092887Y021005D01*
X093071Y020875D01*
X093249Y020736D01*
X093420Y020588D01*
X093584Y020433D01*
X093739Y020269D01*
X093887Y020098D01*
X094026Y019920D01*
X094156Y019736D01*
X094277Y019545D01*
X094388Y019348D01*
X094489Y019147D01*
X094581Y018940D01*
X094662Y018730D01*
X094733Y018515D01*
X094793Y018298D01*
X094843Y018077D01*
X094881Y017855D01*
X094909Y017631D01*
X094925Y017406D01*
X094931Y017180D01*
X094925Y016954D01*
X094909Y016729D01*
X094881Y016505D01*
X094843Y016283D01*
X094793Y016062D01*
X094733Y015845D01*
X094662Y015630D01*
X094581Y015420D01*
X094489Y015213D01*
X094388Y015012D01*
X094277Y014815D01*
X094156Y014624D01*
X094026Y014440D01*
X093887Y014262D01*
X093739Y014091D01*
X093584Y013927D01*
X093420Y013772D01*
X093249Y013624D01*
X093071Y013485D01*
X092887Y013355D01*
X092696Y013234D01*
X092499Y013123D01*
X092298Y013022D01*
X092091Y012930D01*
X091881Y012849D01*
X091666Y012778D01*
X091449Y012718D01*
X091228Y012668D01*
X091006Y012630D01*
X090782Y012602D01*
X090557Y012586D01*
X090331Y012580D01*
X090105Y012586D01*
X089880Y012602D01*
X089656Y012630D01*
X089434Y012668D01*
X089213Y012718D01*
X088996Y012778D01*
X088781Y012849D01*
X088571Y012930D01*
X088364Y013022D01*
X088163Y013123D01*
X087966Y013234D01*
X087775Y013355D01*
X087591Y013485D01*
X087413Y013624D01*
X087242Y013772D01*
X087078Y013927D01*
X086923Y014091D01*
X086775Y014262D01*
X086636Y014440D01*
X086506Y014624D01*
X086385Y014815D01*
X086274Y015012D01*
X086173Y015213D01*
X086081Y015420D01*
X086000Y015630D01*
X085929Y015845D01*
X085869Y016062D01*
X085819Y016283D01*
X085781Y016505D01*
X085753Y016729D01*
X085737Y016954D01*
X085731Y017180D01*
D22*
X088576Y017715D02*
X088576Y018346D01*
X088366Y018346D02*
X088786Y018346D01*
X089011Y018135D02*
X089221Y018346D01*
X089221Y017715D01*
X089011Y017715D02*
X089431Y017715D01*
X089655Y017715D02*
X090075Y017715D01*
X089865Y017715D02*
X089865Y018346D01*
X089655Y018135D01*
X072220Y027715D02*
X072220Y028346D01*
X071905Y028030D01*
X072325Y028030D01*
X071681Y027715D02*
X071261Y027715D01*
X071471Y027715D02*
X071471Y028346D01*
X071261Y028135D01*
X071036Y028346D02*
X070616Y028346D01*
X070826Y028346D02*
X070826Y027715D01*
D23*
X054461Y027430D02*
X054461Y027180D01*
X054461Y026930D01*
X054211Y026930D02*
X054211Y027180D01*
X054211Y027430D01*
X047461Y016930D02*
X047461Y016680D01*
X047461Y016430D01*
X047211Y016430D02*
X047211Y016680D01*
X047211Y016930D01*
X095211Y011930D02*
X095211Y011680D01*
X095211Y011430D01*
X095461Y011430D02*
X095461Y011680D01*
X095461Y011930D01*
X108631Y025980D02*
X108631Y026480D01*
X108831Y026180D02*
X109031Y026180D01*
X109031Y026280D01*
X110231Y026280D01*
X110231Y026180D01*
X110231Y025780D01*
X109031Y025780D01*
X109031Y026180D01*
X108831Y026180D02*
X108831Y028180D01*
X109031Y028180D01*
X109031Y028580D01*
X110231Y028580D01*
X110231Y028180D01*
X110231Y028080D01*
X109031Y028080D01*
X109031Y028180D01*
X110231Y028180D02*
X110431Y028180D01*
X115231Y028180D01*
X115431Y028180D01*
X115431Y028580D01*
X116631Y028580D01*
X116631Y028180D01*
X116831Y028180D01*
X116831Y026180D01*
X116631Y026180D01*
X116631Y025780D01*
X115431Y025780D01*
X115431Y026180D01*
X115431Y026280D01*
X116631Y026280D01*
X116631Y026180D01*
X115431Y026180D02*
X115231Y026180D01*
X110431Y026180D01*
X110231Y026180D01*
X110431Y026180D02*
X110431Y028180D01*
X115231Y028180D02*
X115231Y026180D01*
X115431Y028080D02*
X115431Y028180D01*
X115431Y028080D02*
X116631Y028080D01*
X116631Y028180D01*
X116731Y028380D02*
X117031Y028380D01*
X117031Y027880D01*
X108931Y025980D02*
X108631Y025980D01*
D24*
X114831Y023680D02*
X117081Y023680D01*
X117081Y022680D02*
X114831Y022680D01*
X114831Y021680D02*
X117081Y021680D01*
X117081Y017180D02*
X114831Y017180D01*
X114831Y016180D02*
X117081Y016180D01*
X117081Y013180D02*
X114831Y013180D01*
X114831Y012180D02*
X117081Y012180D01*
X020331Y018430D02*
X018081Y018430D01*
X018081Y019430D02*
X020331Y019430D01*
X020331Y020430D02*
X018081Y020430D01*
D25*
X017931Y020430D03*
X017931Y019430D03*
X017931Y018430D03*
X114681Y017180D03*
X114681Y016180D03*
X114681Y013180D03*
X114681Y012180D03*
X114681Y021680D03*
X114681Y022680D03*
X114681Y023680D03*
D26*
X113381Y023680D03*
X113381Y022680D03*
X113381Y021680D03*
X113381Y017180D03*
X113381Y016180D03*
X113381Y013180D03*
X113381Y012180D03*
X016631Y018430D03*
X016631Y019430D03*
X016631Y020430D03*
D27*
X051170Y022294D02*
X051170Y022755D01*
X051401Y022755D01*
X051477Y022678D01*
X051477Y022525D01*
X051401Y022448D01*
X051170Y022448D01*
X051631Y022601D02*
X051784Y022755D01*
X051784Y022294D01*
X051631Y022294D02*
X051938Y022294D01*
X052071Y023975D02*
X052288Y023975D01*
X052288Y024133D01*
X052209Y024133D01*
X052209Y024251D01*
X052288Y024251D01*
X052288Y024408D01*
X052071Y024408D01*
D28*
X015581Y020430D03*
X015581Y019430D03*
X015581Y018430D03*
D29*
X016061Y016335D02*
X016036Y016310D01*
X016036Y016210D01*
X016061Y016185D01*
X016111Y016185D01*
X016136Y016210D01*
X016183Y016185D02*
X016283Y016285D01*
X016283Y016310D01*
X016258Y016335D01*
X016208Y016335D01*
X016183Y016310D01*
X016136Y016310D02*
X016111Y016335D01*
X016061Y016335D01*
X016183Y016185D02*
X016283Y016185D01*
M02*
