%
M48
M72
T01C0.0240
T02C0.0276
T03C0.0300
T04C0.0320
T05C0.0390
T06C0.0394
T07C0.0400
T08C0.0433
T09C0.0440
T10C0.0470
T11C0.0472
T12C0.0560
T13C0.0866
T14C0.1300
T15C0.1620
%
T01
X49847Y23188
X51815Y23188
X50831Y24172
T02
X17315Y15680
X15347Y15680
X12690Y22430
X10722Y22430
T03
X17331Y25180
X43331Y20180
X58331Y16980
X64331Y17680
X69331Y17680
X74331Y16180
X73831Y14180
X71831Y13180
X61831Y12680
X43831Y14180
X78331Y21180
X81331Y21180
X96331Y22180
X109831Y22180
X99831Y13680
X96331Y13680
X48731Y27680
T04
X53331Y27180
X55331Y27180
X57831Y27180
X61831Y27180
X64331Y27180
X66331Y27180
X58831Y23680
X54831Y23680
X56331Y16680
X52331Y16680
X48331Y16680
X46331Y16680
X57831Y11680
X61831Y11680
X94331Y11680
X96331Y11680
X99831Y11680
X101831Y11680
X26831Y16680
X25831Y16680
X25831Y20180
X26831Y20180
T05
X31331Y18680
X32331Y18680
X31831Y19680
X32331Y15680
X32831Y14680
X31831Y14680
X16331Y12180
X15331Y12180
X15831Y13180
X11331Y12680
X10331Y12680
X10831Y13680
X45831Y23180
X46831Y23180
X46331Y24180
X17331Y26180
X16331Y26180
X16831Y27180
X12831Y26180
X11831Y26180
X12331Y27180
X49831Y12680
X50331Y11680
X49331Y11680
X53831Y11680
X54831Y11680
X54331Y12680
X74331Y11180
X75331Y11180
X74831Y12180
T06
X115751Y19855
X10911Y19055
T07
X15081Y19430
X16081Y19430
X16081Y18430
X15081Y18430
X15081Y20430
X16081Y20430
X112831Y21680
X112831Y22680
X112831Y23680
X112831Y17180
X112831Y16180
X112831Y13180
X112831Y12180
T08
X113822Y19127
X113034Y19855
X113822Y20583
X13628Y19055
X12840Y18327
X12840Y19783
T09
X63431Y19180
X64331Y19180
X65231Y19180
X84931Y23180
X85831Y23180
X86731Y23180
T10
X74631Y21530
X89631Y19330
X89631Y15030
X74631Y25830
T11
X18831Y11680
X22331Y13680
X26831Y11680
X28831Y11680
X36831Y11680
X38331Y12180
X46331Y12180
X40831Y16930
X32831Y16930
X34331Y20180
X42331Y20180
X44331Y20180
X52331Y20180
X54331Y20180
X62331Y20180
X63331Y15680
X71331Y15680
X72831Y15680
X80831Y15680
X78331Y12180
X71831Y11680
X63831Y11680
X86331Y12180
X98831Y15180
X106831Y15180
X106831Y18180
X114806Y19855
X106831Y20680
X98831Y20680
X98831Y18180
X98831Y23680
X96831Y23680
X88831Y23680
X88831Y27180
X96831Y27180
X98331Y27180
X106331Y27180
X106831Y23680
X46331Y26680
X38331Y26680
X36331Y26680
X28331Y26680
X26331Y26680
X18331Y26680
X22331Y23180
X23831Y23180
X22331Y21680
X14331Y23180
X11856Y19055
X31831Y23180
X33831Y23180
X41831Y23180
T12
X109831Y27180
X115831Y27180
T13
X72331Y18180
X52831Y18680
X48831Y19680
X42581Y16930
X39331Y21680
X37081Y21930
X42331Y26680
X19581Y23930
X12831Y24180
X13331Y16180
X22831Y15680
X24831Y14180
X107831Y12680
T14
X64331Y23180
X85831Y27180
T15
X81281Y23680
X69381Y23680
X84381Y17180
X96281Y17180
M30
