G75*
G70*
%OFA0B0*%
%FSLAX24Y24*%
%IPPOS*%
%LPD*%
%AMOC8*
5,1,8,0,0,1.08239X$1,22.5*
%
%ADD10C,0.0051*%
%ADD11C,0.0110*%
%ADD12R,0.0590X0.0590*%
%ADD13C,0.0590*%
%ADD14OC8,0.0520*%
%ADD15C,0.0520*%
%ADD16C,0.0660*%
%ADD17C,0.1240*%
%ADD18C,0.2550*%
%ADD19R,0.0900X0.0900*%
%ADD20C,0.0740*%
%ADD21C,0.0600*%
%ADD22C,0.0760*%
%ADD23C,0.0440*%
%ADD24OC8,0.0600*%
%ADD25C,0.0650*%
%ADD26OC8,0.0630*%
%ADD27C,0.0750*%
%ADD28OC8,0.0750*%
%ADD29C,0.0160*%
%ADD30C,0.0460*%
%ADD31C,0.1266*%
D10*
X015662Y001073D02*
X015662Y009360D01*
X008375Y009360D01*
X009162Y009360D02*
X009264Y010384D01*
X009288Y010384D02*
X009162Y009360D01*
X009060Y010384D01*
X009036Y010384D02*
X009288Y010384D01*
X009213Y010384D02*
X009162Y009360D01*
X009111Y010384D01*
X009036Y010384D02*
X009162Y009360D01*
X009162Y028230D01*
X009264Y027206D01*
X009288Y027206D02*
X009162Y028230D01*
X009060Y027206D01*
X009036Y027206D02*
X009288Y027206D01*
X009213Y027206D02*
X009162Y028230D01*
X009111Y027206D01*
X009036Y027206D02*
X009162Y028230D01*
X008375Y028230D02*
X015662Y028230D01*
X016686Y001986D02*
X016686Y001734D01*
X015662Y001860D01*
X016686Y001758D01*
X016686Y001809D02*
X015662Y001860D01*
X016686Y001962D01*
X016686Y001986D02*
X015662Y001860D01*
X016686Y001911D01*
X015662Y001860D02*
X124162Y001860D01*
X123138Y001758D01*
X123138Y001734D02*
X124162Y001860D01*
X123138Y001962D01*
X123138Y001986D02*
X123138Y001734D01*
X123138Y001809D02*
X124162Y001860D01*
X123138Y001911D01*
X123138Y001986D02*
X124162Y001860D01*
X124162Y001073D02*
X124162Y009360D01*
D11*
X073507Y003366D02*
X073507Y002520D01*
X073296Y002309D01*
X072873Y002309D01*
X072661Y002520D01*
X072239Y002520D02*
X072027Y002309D01*
X071604Y002309D01*
X071393Y002520D01*
X071393Y002943D02*
X071816Y003155D01*
X072027Y003155D01*
X072239Y002943D01*
X072239Y002520D01*
X072873Y002943D02*
X073507Y002943D01*
X073507Y003366D02*
X073296Y003578D01*
X072873Y003578D01*
X072661Y003366D01*
X072661Y003155D01*
X072873Y002943D01*
X071393Y002943D02*
X071393Y003578D01*
X072239Y003578D01*
X070335Y003578D02*
X069489Y003578D01*
X069489Y002943D01*
X069912Y003155D01*
X070124Y003155D01*
X070335Y002943D01*
X070335Y002520D01*
X070124Y002309D01*
X069701Y002309D01*
X069489Y002520D01*
X069067Y003366D02*
X068221Y002520D01*
X068221Y002309D01*
X067798Y002309D02*
X066952Y002309D01*
X067798Y003155D01*
X067798Y003366D01*
X067586Y003578D01*
X067163Y003578D01*
X066952Y003366D01*
X068221Y003578D02*
X069067Y003578D01*
X069067Y003366D01*
X070758Y002520D02*
X070970Y002520D01*
X070970Y002309D01*
X070758Y002309D01*
X070758Y002520D01*
X008713Y017018D02*
X007444Y017018D01*
X008079Y016383D01*
X008079Y017229D01*
X008502Y017652D02*
X008713Y017652D01*
X008502Y017652D02*
X007656Y018498D01*
X007444Y018498D01*
X007444Y017652D01*
X008502Y018921D02*
X008502Y019132D01*
X008713Y019132D01*
X008713Y018921D01*
X008502Y018921D01*
X008502Y019555D02*
X008713Y019767D01*
X008713Y020190D01*
X008502Y020401D01*
X007656Y020401D01*
X007444Y020190D01*
X007444Y019767D01*
X007656Y019555D01*
X007867Y019555D01*
X008079Y019767D01*
X008079Y020401D01*
X008502Y020824D02*
X008713Y021035D01*
X008713Y021458D01*
X008502Y021670D01*
X008290Y021670D01*
X008079Y021458D01*
X008079Y021247D01*
X008079Y021458D02*
X007867Y021670D01*
X007656Y021670D01*
X007444Y021458D01*
X007444Y021035D01*
X007656Y020824D01*
D12*
X011831Y026180D03*
X016331Y026180D03*
X031331Y018680D03*
X031831Y014680D03*
X015331Y012180D03*
X010331Y012680D03*
X045831Y023180D03*
X049331Y011680D03*
X053831Y011680D03*
X074331Y011180D03*
D13*
X075331Y011180D03*
X074831Y012180D03*
X054831Y011680D03*
X054331Y012680D03*
X050331Y011680D03*
X049831Y012680D03*
X032831Y014680D03*
X032331Y015680D03*
X032331Y018680D03*
X031831Y019680D03*
X046331Y024180D03*
X046831Y023180D03*
X017331Y026180D03*
X016831Y027180D03*
X012831Y026180D03*
X012331Y027180D03*
X010831Y013680D03*
X011331Y012680D03*
X015831Y013180D03*
X016331Y012180D03*
D14*
X025831Y016680D03*
X026831Y016680D03*
X026831Y020180D03*
X025831Y020180D03*
D15*
X052071Y016680D02*
X052591Y016680D01*
X056071Y016680D02*
X056591Y016680D01*
X057571Y011680D02*
X058091Y011680D01*
X061571Y011680D02*
X062091Y011680D01*
X059091Y023680D02*
X058571Y023680D01*
X055091Y023680D02*
X054571Y023680D01*
X057571Y027180D02*
X058091Y027180D01*
X061571Y027180D02*
X062091Y027180D01*
D16*
X084931Y023510D02*
X084931Y022850D01*
X085831Y022850D02*
X085831Y023510D01*
X086731Y023510D02*
X086731Y022850D01*
X065231Y019510D02*
X065231Y018850D01*
X064331Y018850D02*
X064331Y019510D01*
X063431Y019510D02*
X063431Y018850D01*
D17*
X074011Y021530D02*
X075251Y021530D01*
X089011Y019330D02*
X090251Y019330D01*
X090251Y015030D02*
X089011Y015030D01*
X075251Y025830D02*
X074011Y025830D01*
D18*
X069381Y023680D03*
X081281Y023680D03*
X084381Y017180D03*
X096281Y017180D03*
D19*
X109831Y027180D03*
X115831Y027180D03*
D20*
X106331Y027180D03*
X098331Y027180D03*
X096831Y027180D03*
X088831Y027180D03*
X088831Y023680D03*
X096831Y023680D03*
X098831Y023680D03*
X106831Y023680D03*
X106831Y020680D03*
X098831Y020680D03*
X098831Y018180D03*
X106831Y018180D03*
X106831Y015180D03*
X098831Y015180D03*
X086331Y012180D03*
X078331Y012180D03*
X071831Y011680D03*
X063831Y011680D03*
X063331Y015680D03*
X071331Y015680D03*
X072831Y015680D03*
X080831Y015680D03*
X062331Y020180D03*
X054331Y020180D03*
X052331Y020180D03*
X044331Y020180D03*
X042331Y020180D03*
X034331Y020180D03*
X033831Y023180D03*
X031831Y023180D03*
X023831Y023180D03*
X022331Y023180D03*
X022331Y021680D03*
X014331Y023180D03*
X018331Y026680D03*
X026331Y026680D03*
X028331Y026680D03*
X036331Y026680D03*
X038331Y026680D03*
X046331Y026680D03*
X041831Y023180D03*
X040831Y016930D03*
X032831Y016930D03*
X022331Y013680D03*
X018831Y011680D03*
X026831Y011680D03*
X028831Y011680D03*
X036831Y011680D03*
X038331Y012180D03*
X046331Y012180D03*
D21*
X112531Y012180D02*
X113131Y012180D01*
X113131Y013180D02*
X112531Y013180D01*
X112531Y016180D02*
X113131Y016180D01*
X113131Y017180D02*
X112531Y017180D01*
X112531Y021680D02*
X113131Y021680D01*
X113131Y022680D02*
X112531Y022680D01*
X112531Y023680D02*
X113131Y023680D01*
D22*
X113822Y020583D03*
X113034Y019855D03*
X113822Y019127D03*
X115751Y019855D03*
X013628Y019055D03*
X012840Y018327D03*
X010911Y019055D03*
X012840Y019783D03*
D23*
X049847Y023188D03*
X051815Y023188D03*
X050831Y024172D03*
D24*
X016081Y020430D03*
X015081Y020430D03*
X015081Y019430D03*
X016081Y019430D03*
X016081Y018430D03*
X015081Y018430D03*
D25*
X015347Y015680D03*
X017315Y015680D03*
X012690Y022430D03*
X010722Y022430D03*
D26*
X046331Y016680D03*
X048331Y016680D03*
X053331Y027180D03*
X055331Y027180D03*
X094331Y011680D03*
X096331Y011680D03*
D27*
X099831Y011680D03*
X064331Y027180D03*
D28*
X066331Y027180D03*
X101831Y011680D03*
D29*
X102386Y011680D01*
X102386Y011910D01*
X102061Y012235D01*
X101831Y012235D01*
X101831Y011680D01*
X101831Y011680D01*
X102386Y011680D01*
X102386Y011450D01*
X102061Y011125D01*
X101831Y011125D01*
X101831Y011680D01*
X101831Y011680D01*
X101831Y011680D01*
X101831Y011125D01*
X101601Y011125D01*
X101276Y011450D01*
X101276Y011680D01*
X101831Y011680D01*
X101831Y012235D01*
X101601Y012235D01*
X101276Y011910D01*
X101276Y011680D01*
X101831Y011680D01*
X101831Y011680D01*
X101831Y011702D02*
X101831Y011702D01*
X101831Y011860D02*
X101831Y011860D01*
X101831Y012019D02*
X101831Y012019D01*
X101831Y012177D02*
X101831Y012177D01*
X102119Y012177D02*
X111971Y012177D01*
X111971Y012069D02*
X112056Y011863D01*
X112214Y011705D01*
X112420Y011620D01*
X113242Y011620D01*
X113448Y011705D01*
X113606Y011863D01*
X113691Y012069D01*
X113691Y012291D01*
X113606Y012497D01*
X113448Y012655D01*
X113387Y012680D01*
X113448Y012705D01*
X113606Y012863D01*
X113691Y013069D01*
X113691Y013291D01*
X113606Y013497D01*
X113448Y013655D01*
X113242Y013740D01*
X112752Y013740D01*
X111119Y015373D01*
X111024Y015468D01*
X110899Y015520D01*
X107372Y015520D01*
X107365Y015537D01*
X107188Y015714D01*
X106956Y015810D01*
X106706Y015810D01*
X106474Y015714D01*
X106297Y015537D01*
X106201Y015305D01*
X106201Y015055D01*
X106297Y014823D01*
X106474Y014646D01*
X106706Y014550D01*
X106956Y014550D01*
X107188Y014646D01*
X107365Y014823D01*
X107372Y014840D01*
X110690Y014840D01*
X112049Y013481D01*
X111971Y013291D01*
X111971Y013069D01*
X112056Y012863D01*
X112214Y012705D01*
X112275Y012680D01*
X112214Y012655D01*
X112056Y012497D01*
X111971Y012291D01*
X111971Y012069D01*
X111992Y012019D02*
X102277Y012019D01*
X102386Y011860D02*
X112059Y011860D01*
X112223Y011702D02*
X102386Y011702D01*
X102386Y011543D02*
X116843Y011543D01*
X116843Y011385D02*
X102320Y011385D01*
X102162Y011226D02*
X116843Y011226D01*
X116843Y011068D02*
X100012Y011068D01*
X099957Y011045D02*
X100191Y011142D01*
X100369Y011320D01*
X100466Y011554D01*
X100466Y011806D01*
X100369Y012040D01*
X100191Y012218D01*
X099957Y012315D01*
X099705Y012315D01*
X099471Y012218D01*
X099293Y012040D01*
X099196Y011806D01*
X099196Y011554D01*
X099293Y011320D01*
X099471Y011142D01*
X099705Y011045D01*
X099957Y011045D01*
X099650Y011068D02*
X075885Y011068D01*
X075886Y011070D02*
X075886Y011290D01*
X075801Y011494D01*
X075645Y011651D01*
X075441Y011735D01*
X075221Y011735D01*
X075017Y011651D01*
X074886Y011520D01*
X074886Y011527D01*
X074846Y011622D01*
X074844Y011625D01*
X074941Y011625D01*
X075145Y011709D01*
X075301Y011866D01*
X075386Y012070D01*
X075386Y012290D01*
X075301Y012494D01*
X075145Y012651D01*
X074941Y012735D01*
X074757Y012735D01*
X074652Y012840D01*
X075690Y012840D01*
X076543Y011987D01*
X076638Y011892D01*
X076763Y011840D01*
X077790Y011840D01*
X077797Y011823D01*
X077974Y011646D01*
X078206Y011550D01*
X078456Y011550D01*
X078688Y011646D01*
X078865Y011823D01*
X078961Y012055D01*
X078961Y012305D01*
X078865Y012537D01*
X078688Y012714D01*
X078456Y012810D01*
X078206Y012810D01*
X077974Y012714D01*
X077797Y012537D01*
X077790Y012520D01*
X076972Y012520D01*
X076024Y013468D01*
X075899Y013520D01*
X072184Y013520D01*
X072109Y013595D01*
X071928Y013670D01*
X071734Y013670D01*
X071553Y013595D01*
X071416Y013458D01*
X071341Y013277D01*
X071341Y013083D01*
X071367Y013020D01*
X062184Y013020D01*
X062109Y013095D01*
X061928Y013170D01*
X061734Y013170D01*
X061553Y013095D01*
X061416Y012958D01*
X061341Y012777D01*
X061341Y012651D01*
X061119Y012873D01*
X061024Y012968D01*
X060899Y013020D01*
X055763Y013020D01*
X055638Y012968D01*
X054905Y012235D01*
X054721Y012235D01*
X054517Y012151D01*
X054386Y012020D01*
X054386Y012027D01*
X054346Y012122D01*
X054344Y012125D01*
X054441Y012125D01*
X054645Y012209D01*
X054801Y012366D01*
X054886Y012570D01*
X054886Y012790D01*
X054801Y012994D01*
X054645Y013151D01*
X054441Y013235D01*
X054221Y013235D01*
X054017Y013151D01*
X053860Y012994D01*
X053776Y012790D01*
X053776Y012570D01*
X053860Y012366D01*
X053991Y012235D01*
X053484Y012235D01*
X053389Y012195D01*
X053316Y012122D01*
X053276Y012027D01*
X053276Y011333D01*
X053316Y011238D01*
X053389Y011165D01*
X053484Y011125D01*
X053795Y011125D01*
X053690Y011020D01*
X050472Y011020D01*
X050367Y011125D01*
X050441Y011125D01*
X050645Y011209D01*
X050801Y011366D01*
X050886Y011570D01*
X050886Y011790D01*
X050801Y011994D01*
X050645Y012151D01*
X050441Y012235D01*
X050221Y012235D01*
X050017Y012151D01*
X049886Y012020D01*
X049886Y012027D01*
X049846Y012122D01*
X049844Y012125D01*
X049941Y012125D01*
X050145Y012209D01*
X050301Y012366D01*
X050386Y012570D01*
X050386Y012790D01*
X050301Y012994D01*
X050145Y013151D01*
X049941Y013235D01*
X049757Y013235D01*
X049524Y013468D01*
X049399Y013520D01*
X028263Y013520D01*
X028138Y013468D01*
X026973Y012303D01*
X026956Y012310D01*
X026706Y012310D01*
X026474Y012214D01*
X026297Y012037D01*
X026201Y011805D01*
X026201Y011555D01*
X026208Y011538D01*
X025690Y011020D01*
X015652Y011020D01*
X016257Y011625D01*
X016441Y011625D01*
X016645Y011709D01*
X016801Y011866D01*
X016886Y012070D01*
X016886Y012254D01*
X021972Y017340D01*
X030399Y017340D01*
X030524Y017392D01*
X030619Y017487D01*
X031257Y018125D01*
X031678Y018125D01*
X031773Y018165D01*
X031846Y018238D01*
X031886Y018333D01*
X031886Y018340D01*
X032017Y018209D01*
X032221Y018125D01*
X032295Y018125D01*
X031190Y017020D01*
X027226Y017020D01*
X027046Y017200D01*
X026616Y017200D01*
X026331Y016915D01*
X026046Y017200D01*
X025616Y017200D01*
X025311Y016895D01*
X025311Y016465D01*
X025616Y016160D01*
X025870Y016160D01*
X026543Y015487D01*
X026638Y015392D01*
X026763Y015340D01*
X031886Y015340D01*
X031991Y015235D01*
X031484Y015235D01*
X031389Y015195D01*
X031316Y015122D01*
X031276Y015027D01*
X031276Y014333D01*
X031316Y014238D01*
X031389Y014165D01*
X031484Y014125D01*
X032178Y014125D01*
X032273Y014165D01*
X032346Y014238D01*
X032386Y014333D01*
X032386Y014340D01*
X032517Y014209D01*
X032721Y014125D01*
X032941Y014125D01*
X033145Y014209D01*
X033301Y014366D01*
X033386Y014570D01*
X033386Y014790D01*
X033301Y014994D01*
X033145Y015151D01*
X032941Y015235D01*
X032721Y015235D01*
X032517Y015151D01*
X032386Y015020D01*
X032386Y015027D01*
X032346Y015122D01*
X032344Y015125D01*
X032441Y015125D01*
X032645Y015209D01*
X032776Y015340D01*
X041329Y015340D01*
X041394Y015339D01*
X041396Y015340D01*
X041399Y015340D01*
X041459Y015365D01*
X041520Y015389D01*
X041522Y015391D01*
X041524Y015392D01*
X041570Y015438D01*
X041617Y015484D01*
X041618Y015486D01*
X041619Y015487D01*
X041644Y015548D01*
X041670Y015608D01*
X041670Y015610D01*
X041671Y015612D01*
X041671Y015678D01*
X041672Y015743D01*
X041671Y015745D01*
X041671Y015748D01*
X041646Y015808D01*
X041347Y016555D01*
X041365Y016573D01*
X041461Y016805D01*
X041461Y017055D01*
X041365Y017287D01*
X041188Y017464D01*
X040956Y017560D01*
X040706Y017560D01*
X040474Y017464D01*
X040297Y017287D01*
X040201Y017055D01*
X040201Y016805D01*
X040297Y016573D01*
X040474Y016396D01*
X040706Y016300D01*
X040717Y016300D01*
X040829Y016020D01*
X032776Y016020D01*
X032645Y016151D01*
X032441Y016235D01*
X032221Y016235D01*
X032017Y016151D01*
X031886Y016020D01*
X026972Y016020D01*
X026832Y016160D01*
X027046Y016160D01*
X027226Y016340D01*
X031399Y016340D01*
X031524Y016392D01*
X031619Y016487D01*
X032388Y017257D01*
X032361Y017218D01*
X032321Y017141D01*
X032295Y017059D01*
X032281Y016973D01*
X032281Y016968D01*
X032793Y016968D01*
X032793Y017480D01*
X032788Y017480D01*
X032702Y017466D01*
X032620Y017440D01*
X032543Y017400D01*
X032504Y017372D01*
X032972Y017840D01*
X042788Y017840D01*
X042812Y017834D01*
X042855Y017840D01*
X042899Y017840D01*
X042921Y017849D01*
X042946Y017853D01*
X042983Y017875D01*
X043024Y017892D01*
X043041Y017909D01*
X043062Y017922D01*
X043088Y017957D01*
X043119Y017987D01*
X043129Y018010D01*
X044283Y019550D01*
X044456Y019550D01*
X044688Y019646D01*
X044865Y019823D01*
X044961Y020055D01*
X044961Y020305D01*
X044954Y020322D01*
X045972Y021340D01*
X058899Y021340D01*
X059024Y021392D01*
X064185Y026553D01*
X064205Y026545D01*
X064457Y026545D01*
X064477Y026553D01*
X065543Y025487D01*
X065638Y025392D01*
X065763Y025340D01*
X070190Y025340D01*
X073383Y022147D01*
X073265Y022028D01*
X073131Y021705D01*
X073131Y021355D01*
X073265Y021032D01*
X073512Y020784D01*
X073836Y020650D01*
X075426Y020650D01*
X075749Y020784D01*
X075997Y021032D01*
X076125Y021340D01*
X077867Y021340D01*
X077841Y021277D01*
X077841Y021083D01*
X077916Y020902D01*
X078053Y020765D01*
X078234Y020690D01*
X078428Y020690D01*
X078609Y020765D01*
X078684Y020840D01*
X080978Y020840D01*
X081053Y020765D01*
X081234Y020690D01*
X081428Y020690D01*
X081609Y020765D01*
X081684Y020840D01*
X084690Y020840D01*
X085138Y020392D01*
X085263Y020340D01*
X098290Y020340D01*
X098297Y020323D01*
X098474Y020146D01*
X098706Y020050D01*
X098956Y020050D01*
X099188Y020146D01*
X099365Y020323D01*
X099461Y020555D01*
X099461Y020805D01*
X099365Y021037D01*
X099188Y021214D01*
X098956Y021310D01*
X098706Y021310D01*
X098474Y021214D01*
X098297Y021037D01*
X098290Y021020D01*
X085472Y021020D01*
X085152Y021340D01*
X112079Y021340D01*
X112214Y021205D01*
X112420Y021120D01*
X113242Y021120D01*
X113448Y021205D01*
X113606Y021363D01*
X113691Y021569D01*
X113691Y021791D01*
X113606Y021997D01*
X113448Y022155D01*
X113281Y022224D01*
X113315Y022235D01*
X113383Y022269D01*
X113444Y022314D01*
X113497Y022367D01*
X113542Y022428D01*
X113576Y022496D01*
X113599Y022568D01*
X113611Y022642D01*
X113611Y022660D01*
X112851Y022660D01*
X112851Y022700D01*
X113611Y022700D01*
X113611Y022718D01*
X113599Y022792D01*
X113576Y022864D01*
X113542Y022932D01*
X113497Y022993D01*
X113444Y023046D01*
X113383Y023091D01*
X113315Y023125D01*
X113281Y023136D01*
X113448Y023205D01*
X113606Y023363D01*
X113691Y023569D01*
X113691Y023791D01*
X113606Y023997D01*
X113448Y024155D01*
X113242Y024240D01*
X112420Y024240D01*
X112214Y024155D01*
X112056Y023997D01*
X111971Y023791D01*
X111971Y023569D01*
X112056Y023363D01*
X112214Y023205D01*
X112381Y023136D01*
X112347Y023125D01*
X112279Y023091D01*
X112218Y023046D01*
X112165Y022993D01*
X112120Y022932D01*
X112086Y022864D01*
X112063Y022792D01*
X112051Y022718D01*
X112051Y022700D01*
X112811Y022700D01*
X112811Y022660D01*
X112051Y022660D01*
X112051Y022642D01*
X112063Y022568D01*
X112086Y022496D01*
X112120Y022428D01*
X112165Y022367D01*
X112218Y022314D01*
X112279Y022269D01*
X112347Y022235D01*
X112381Y022224D01*
X112214Y022155D01*
X112079Y022020D01*
X110295Y022020D01*
X110321Y022083D01*
X110321Y022277D01*
X110246Y022458D01*
X110109Y022595D01*
X109928Y022670D01*
X109734Y022670D01*
X109553Y022595D01*
X109478Y022520D01*
X096684Y022520D01*
X096609Y022595D01*
X096428Y022670D01*
X096302Y022670D01*
X096689Y023057D01*
X096706Y023050D01*
X096956Y023050D01*
X097188Y023146D01*
X097365Y023323D01*
X097461Y023555D01*
X097461Y023805D01*
X097365Y024037D01*
X097188Y024214D01*
X096956Y024310D01*
X096706Y024310D01*
X096474Y024214D01*
X096297Y024037D01*
X096201Y023805D01*
X096201Y023555D01*
X096208Y023538D01*
X095190Y022520D01*
X087233Y022520D01*
X087321Y022733D01*
X087321Y023627D01*
X087231Y023844D01*
X087065Y024010D01*
X086848Y024100D01*
X086614Y024100D01*
X086397Y024010D01*
X086281Y023894D01*
X086165Y024010D01*
X085948Y024100D01*
X085714Y024100D01*
X085497Y024010D01*
X085381Y023894D01*
X085265Y024010D01*
X085048Y024100D01*
X084814Y024100D01*
X084597Y024010D01*
X084431Y023844D01*
X084341Y023627D01*
X084341Y022733D01*
X084431Y022516D01*
X084597Y022350D01*
X084814Y022260D01*
X085048Y022260D01*
X085265Y022350D01*
X085381Y022466D01*
X085491Y022356D01*
X085491Y022112D01*
X085529Y022020D01*
X076001Y022020D01*
X075997Y022028D01*
X075749Y022276D01*
X075426Y022410D01*
X074082Y022410D01*
X070524Y025968D01*
X070399Y026020D01*
X065972Y026020D01*
X064958Y027034D01*
X064966Y027054D01*
X064966Y027306D01*
X064869Y027540D01*
X064691Y027718D01*
X064457Y027815D01*
X064205Y027815D01*
X063971Y027718D01*
X063793Y027540D01*
X063696Y027306D01*
X063696Y027054D01*
X063704Y027034D01*
X058690Y022020D01*
X047152Y022020D01*
X048472Y023340D01*
X049390Y023340D01*
X049367Y023283D01*
X049367Y023092D01*
X049440Y022916D01*
X049575Y022781D01*
X049751Y022708D01*
X049942Y022708D01*
X050119Y022781D01*
X050254Y022916D01*
X050327Y023092D01*
X050327Y023283D01*
X050303Y023340D01*
X051359Y023340D01*
X051335Y023283D01*
X051335Y023092D01*
X051408Y022916D01*
X051543Y022781D01*
X051720Y022708D01*
X051911Y022708D01*
X052087Y022781D01*
X052222Y022916D01*
X052295Y023092D01*
X052295Y023283D01*
X052222Y023460D01*
X052157Y023525D01*
X055237Y026605D01*
X055569Y026605D01*
X055906Y026942D01*
X055906Y027418D01*
X055569Y027755D01*
X055093Y027755D01*
X054756Y027418D01*
X054756Y027086D01*
X051690Y024020D01*
X051288Y024020D01*
X051311Y024077D01*
X051311Y024268D01*
X051238Y024444D01*
X051103Y024579D01*
X050926Y024652D01*
X050735Y024652D01*
X050559Y024579D01*
X050424Y024444D01*
X050351Y024268D01*
X050351Y024077D01*
X050374Y024020D01*
X048263Y024020D01*
X048138Y023968D01*
X047386Y023216D01*
X047386Y023290D01*
X047301Y023494D01*
X047145Y023651D01*
X046941Y023735D01*
X046721Y023735D01*
X046517Y023651D01*
X046386Y023520D01*
X046386Y023527D01*
X046346Y023622D01*
X046344Y023625D01*
X046441Y023625D01*
X046645Y023709D01*
X046801Y023866D01*
X046886Y024070D01*
X046886Y024254D01*
X049472Y026840D01*
X052858Y026840D01*
X053093Y026605D01*
X053569Y026605D01*
X053906Y026942D01*
X053906Y027274D01*
X054472Y027840D01*
X056690Y027840D01*
X057108Y027422D01*
X057051Y027283D01*
X057051Y027077D01*
X057130Y026885D01*
X057276Y026739D01*
X057468Y026660D01*
X058194Y026660D01*
X058386Y026739D01*
X058532Y026885D01*
X058611Y027077D01*
X058611Y027283D01*
X058532Y027475D01*
X058386Y027621D01*
X058194Y027700D01*
X057792Y027700D01*
X057119Y028373D01*
X057024Y028468D01*
X056899Y028520D01*
X054263Y028520D01*
X054138Y028468D01*
X053425Y027755D01*
X053093Y027755D01*
X052858Y027520D01*
X049263Y027520D01*
X049181Y027486D01*
X049221Y027583D01*
X049221Y027777D01*
X049146Y027958D01*
X049009Y028095D01*
X048828Y028170D01*
X048634Y028170D01*
X048453Y028095D01*
X048316Y027958D01*
X048241Y027777D01*
X048241Y027671D01*
X043090Y022520D01*
X041972Y022520D01*
X041942Y022550D01*
X041956Y022550D01*
X042188Y022646D01*
X042365Y022823D01*
X042461Y023055D01*
X042461Y023305D01*
X042365Y023537D01*
X042188Y023714D01*
X041956Y023810D01*
X041706Y023810D01*
X041474Y023714D01*
X041297Y023537D01*
X041201Y023305D01*
X041201Y023291D01*
X038442Y026050D01*
X038456Y026050D01*
X038688Y026146D01*
X038865Y026323D01*
X038961Y026555D01*
X038961Y026805D01*
X038865Y027037D01*
X038688Y027214D01*
X038456Y027310D01*
X038206Y027310D01*
X037974Y027214D01*
X037797Y027037D01*
X037701Y026805D01*
X037701Y026791D01*
X036119Y028373D01*
X036024Y028468D01*
X035899Y028520D01*
X010763Y028520D01*
X010753Y028516D01*
X009311Y028516D01*
X009311Y028570D01*
X085079Y028570D01*
X084861Y028444D01*
X084567Y028150D01*
X084359Y027790D01*
X084251Y027388D01*
X084251Y026972D01*
X084359Y026570D01*
X084567Y026210D01*
X084861Y025916D01*
X085221Y025708D01*
X085623Y025600D01*
X086039Y025600D01*
X086441Y025708D01*
X086801Y025916D01*
X087095Y026210D01*
X087303Y026570D01*
X087411Y026972D01*
X087411Y027388D01*
X087303Y027790D01*
X087095Y028150D01*
X086801Y028444D01*
X086583Y028570D01*
X116843Y028570D01*
X116843Y010660D01*
X075526Y010660D01*
X075645Y010709D01*
X075801Y010866D01*
X075886Y011070D01*
X075886Y011226D02*
X094085Y011226D01*
X094126Y011185D02*
X094331Y011185D01*
X094536Y011185D01*
X094826Y011475D01*
X094826Y011680D01*
X094826Y011885D01*
X094536Y012175D01*
X094331Y012175D01*
X094331Y011680D01*
X094826Y011680D01*
X094331Y011680D01*
X094331Y011680D01*
X094331Y011185D01*
X094331Y011680D01*
X094331Y011680D01*
X094331Y011680D01*
X094331Y012175D01*
X094126Y012175D01*
X093836Y011885D01*
X093836Y011680D01*
X093836Y011475D01*
X094126Y011185D01*
X094331Y011226D02*
X094331Y011226D01*
X094331Y011385D02*
X094331Y011385D01*
X094331Y011543D02*
X094331Y011543D01*
X094331Y011680D02*
X093836Y011680D01*
X094331Y011680D01*
X094331Y011680D01*
X094331Y011702D02*
X094331Y011702D01*
X094331Y011860D02*
X094331Y011860D01*
X094331Y012019D02*
X094331Y012019D01*
X094692Y012019D02*
X095856Y012019D01*
X095756Y011918D02*
X095756Y011442D01*
X096093Y011105D01*
X096569Y011105D01*
X096906Y011442D01*
X096906Y011918D01*
X096569Y012255D01*
X096093Y012255D01*
X095756Y011918D01*
X095756Y011860D02*
X094826Y011860D01*
X094826Y011702D02*
X095756Y011702D01*
X095756Y011543D02*
X094826Y011543D01*
X094736Y011385D02*
X095813Y011385D01*
X095972Y011226D02*
X094577Y011226D01*
X093926Y011385D02*
X075847Y011385D01*
X075753Y011543D02*
X093836Y011543D01*
X093836Y011702D02*
X086743Y011702D01*
X086688Y011646D02*
X086865Y011823D01*
X086961Y012055D01*
X086961Y012305D01*
X086865Y012537D01*
X086688Y012714D01*
X086456Y012810D01*
X086206Y012810D01*
X086189Y012803D01*
X084152Y014840D01*
X088137Y014840D01*
X088265Y014532D01*
X088512Y014284D01*
X088836Y014150D01*
X090426Y014150D01*
X090749Y014284D01*
X090997Y014532D01*
X091131Y014855D01*
X091131Y015205D01*
X090997Y015528D01*
X090749Y015776D01*
X090426Y015910D01*
X088836Y015910D01*
X088512Y015776D01*
X088265Y015528D01*
X088261Y015520D01*
X081472Y015520D01*
X081454Y015538D01*
X081461Y015555D01*
X081461Y015805D01*
X081365Y016037D01*
X081188Y016214D01*
X080956Y016310D01*
X080942Y016310D01*
X081472Y016840D01*
X082883Y016840D01*
X082951Y016588D01*
X083153Y016237D01*
X083438Y015952D01*
X083788Y015750D01*
X084179Y015645D01*
X084583Y015645D01*
X084973Y015750D01*
X085323Y015952D01*
X085609Y016237D01*
X085811Y016588D01*
X085916Y016978D01*
X085916Y017382D01*
X085811Y017772D01*
X085609Y018123D01*
X085323Y018408D01*
X084973Y018610D01*
X084583Y018715D01*
X084179Y018715D01*
X083788Y018610D01*
X083438Y018408D01*
X083153Y018123D01*
X082951Y017772D01*
X082883Y017520D01*
X081263Y017520D01*
X081138Y017468D01*
X081043Y017373D01*
X080190Y016520D01*
X074684Y016520D01*
X074609Y016595D01*
X074428Y016670D01*
X074234Y016670D01*
X074053Y016595D01*
X073916Y016458D01*
X073841Y016277D01*
X073841Y016151D01*
X073024Y016968D01*
X072899Y017020D01*
X064263Y017020D01*
X064138Y016968D01*
X064043Y016873D01*
X063473Y016303D01*
X063456Y016310D01*
X063206Y016310D01*
X062974Y016214D01*
X062797Y016037D01*
X062701Y015805D01*
X062701Y015555D01*
X062797Y015323D01*
X062974Y015146D01*
X063206Y015050D01*
X063456Y015050D01*
X063688Y015146D01*
X063865Y015323D01*
X063961Y015555D01*
X063961Y015805D01*
X063954Y015822D01*
X064472Y016340D01*
X072690Y016340D01*
X072720Y016310D01*
X072706Y016310D01*
X072474Y016214D01*
X072297Y016037D01*
X072201Y015805D01*
X072201Y015555D01*
X072297Y015323D01*
X072474Y015146D01*
X072706Y015050D01*
X072956Y015050D01*
X072973Y015057D01*
X073494Y014536D01*
X073478Y014520D01*
X044184Y014520D01*
X044109Y014595D01*
X043928Y014670D01*
X043734Y014670D01*
X043553Y014595D01*
X043416Y014458D01*
X043341Y014277D01*
X043341Y014083D01*
X043416Y013902D01*
X043553Y013765D01*
X043734Y013690D01*
X043928Y013690D01*
X044109Y013765D01*
X044184Y013840D01*
X073478Y013840D01*
X073553Y013765D01*
X073734Y013690D01*
X073928Y013690D01*
X074109Y013765D01*
X074246Y013902D01*
X074321Y014083D01*
X074321Y014277D01*
X074295Y014340D01*
X083690Y014340D01*
X085708Y012322D01*
X085701Y012305D01*
X085701Y012055D01*
X085797Y011823D01*
X085974Y011646D01*
X086206Y011550D01*
X086456Y011550D01*
X086688Y011646D01*
X086880Y011860D02*
X093836Y011860D01*
X093969Y012019D02*
X086946Y012019D01*
X086961Y012177D02*
X096015Y012177D01*
X096647Y012177D02*
X099430Y012177D01*
X099284Y012019D02*
X096806Y012019D01*
X096906Y011860D02*
X099218Y011860D01*
X099196Y011702D02*
X096906Y011702D01*
X096906Y011543D02*
X099200Y011543D01*
X099266Y011385D02*
X096849Y011385D01*
X096690Y011226D02*
X099387Y011226D01*
X100275Y011226D02*
X101500Y011226D01*
X101342Y011385D02*
X100396Y011385D01*
X100462Y011543D02*
X101276Y011543D01*
X101276Y011702D02*
X100466Y011702D01*
X100444Y011860D02*
X101276Y011860D01*
X101385Y012019D02*
X100378Y012019D01*
X100232Y012177D02*
X101543Y012177D01*
X101831Y011543D02*
X101831Y011543D01*
X101831Y011385D02*
X101831Y011385D01*
X101831Y011226D02*
X101831Y011226D01*
X100109Y013265D02*
X100246Y013402D01*
X100321Y013583D01*
X100321Y013777D01*
X100246Y013958D01*
X100109Y014095D01*
X099928Y014170D01*
X099734Y014170D01*
X099553Y014095D01*
X099478Y014020D01*
X096684Y014020D01*
X096609Y014095D01*
X096428Y014170D01*
X096234Y014170D01*
X096053Y014095D01*
X095916Y013958D01*
X095841Y013777D01*
X095841Y013583D01*
X095916Y013402D01*
X096053Y013265D01*
X096234Y013190D01*
X096428Y013190D01*
X096609Y013265D01*
X096684Y013340D01*
X099478Y013340D01*
X099553Y013265D01*
X099734Y013190D01*
X099928Y013190D01*
X100109Y013265D01*
X100130Y013287D02*
X111971Y013287D01*
X111971Y013128D02*
X085864Y013128D01*
X086022Y012970D02*
X112012Y012970D01*
X112108Y012811D02*
X086181Y012811D01*
X086749Y012653D02*
X112212Y012653D01*
X112055Y012494D02*
X086883Y012494D01*
X086948Y012336D02*
X111989Y012336D01*
X113450Y012653D02*
X116843Y012653D01*
X116843Y012811D02*
X113554Y012811D01*
X113650Y012970D02*
X116843Y012970D01*
X116843Y013128D02*
X113691Y013128D01*
X113691Y013287D02*
X116843Y013287D01*
X116843Y013445D02*
X113627Y013445D01*
X113499Y013604D02*
X116843Y013604D01*
X116843Y013762D02*
X112730Y013762D01*
X112571Y013921D02*
X116843Y013921D01*
X116843Y014079D02*
X112413Y014079D01*
X112254Y014238D02*
X116843Y014238D01*
X116843Y014396D02*
X112096Y014396D01*
X111937Y014555D02*
X116843Y014555D01*
X116843Y014713D02*
X111779Y014713D01*
X111620Y014872D02*
X116843Y014872D01*
X116843Y015030D02*
X111462Y015030D01*
X111303Y015189D02*
X116843Y015189D01*
X116843Y015347D02*
X111145Y015347D01*
X110934Y015506D02*
X116843Y015506D01*
X116843Y015664D02*
X107238Y015664D01*
X106831Y015180D02*
X110831Y015180D01*
X112831Y013180D01*
X112035Y013445D02*
X100264Y013445D01*
X100321Y013604D02*
X111927Y013604D01*
X111768Y013762D02*
X100321Y013762D01*
X100262Y013921D02*
X111610Y013921D01*
X111451Y014079D02*
X100125Y014079D01*
X099831Y013680D02*
X096331Y013680D01*
X095898Y013445D02*
X085547Y013445D01*
X085705Y013287D02*
X096031Y013287D01*
X095841Y013604D02*
X085388Y013604D01*
X085230Y013762D02*
X095841Y013762D01*
X095900Y013921D02*
X085071Y013921D01*
X084913Y014079D02*
X096037Y014079D01*
X096625Y014079D02*
X099537Y014079D01*
X099188Y014646D02*
X099365Y014823D01*
X099461Y015055D01*
X099461Y015305D01*
X099454Y015322D01*
X100972Y016840D01*
X112079Y016840D01*
X112214Y016705D01*
X112381Y016636D01*
X112347Y016625D01*
X112279Y016591D01*
X112218Y016546D01*
X112165Y016493D01*
X112120Y016432D01*
X112086Y016364D01*
X112063Y016292D01*
X112051Y016218D01*
X112051Y016200D01*
X112811Y016200D01*
X112811Y016160D01*
X112851Y016160D01*
X112851Y016200D01*
X113611Y016200D01*
X113611Y016218D01*
X113599Y016292D01*
X113576Y016364D01*
X113542Y016432D01*
X113497Y016493D01*
X113444Y016546D01*
X113383Y016591D01*
X113315Y016625D01*
X113281Y016636D01*
X113448Y016705D01*
X113606Y016863D01*
X113691Y017069D01*
X113691Y017291D01*
X113606Y017497D01*
X113448Y017655D01*
X113242Y017740D01*
X112420Y017740D01*
X112214Y017655D01*
X112079Y017520D01*
X100763Y017520D01*
X100638Y017468D01*
X100543Y017373D01*
X100543Y017373D01*
X098973Y015803D01*
X098956Y015810D01*
X098706Y015810D01*
X098474Y015714D01*
X098297Y015537D01*
X098201Y015305D01*
X098201Y015055D01*
X098297Y014823D01*
X098474Y014646D01*
X098706Y014550D01*
X098956Y014550D01*
X099188Y014646D01*
X099255Y014713D02*
X106407Y014713D01*
X106277Y014872D02*
X099385Y014872D01*
X099451Y015030D02*
X106211Y015030D01*
X106201Y015189D02*
X099461Y015189D01*
X099479Y015347D02*
X106218Y015347D01*
X106284Y015506D02*
X099637Y015506D01*
X099796Y015664D02*
X106424Y015664D01*
X106695Y014555D02*
X098967Y014555D01*
X098695Y014555D02*
X091007Y014555D01*
X091072Y014713D02*
X098407Y014713D01*
X098277Y014872D02*
X091131Y014872D01*
X091131Y015030D02*
X098211Y015030D01*
X098201Y015189D02*
X091131Y015189D01*
X091072Y015347D02*
X098218Y015347D01*
X098284Y015506D02*
X091007Y015506D01*
X090861Y015664D02*
X096008Y015664D01*
X096079Y015645D02*
X095688Y015750D01*
X095338Y015952D01*
X095053Y016237D01*
X094851Y016588D01*
X094746Y016978D01*
X094746Y017382D01*
X094851Y017772D01*
X095053Y018123D01*
X095338Y018408D01*
X095688Y018610D01*
X096079Y018715D01*
X096483Y018715D01*
X096873Y018610D01*
X097223Y018408D01*
X097509Y018123D01*
X097711Y017772D01*
X097816Y017382D01*
X097816Y016978D01*
X097711Y016588D01*
X097509Y016237D01*
X097223Y015952D01*
X096873Y015750D01*
X096483Y015645D01*
X096079Y015645D01*
X096554Y015664D02*
X098424Y015664D01*
X098993Y015823D02*
X097000Y015823D01*
X097253Y015981D02*
X099151Y015981D01*
X099310Y016140D02*
X097411Y016140D01*
X097544Y016298D02*
X099468Y016298D01*
X099627Y016457D02*
X097636Y016457D01*
X097719Y016615D02*
X099785Y016615D01*
X099944Y016774D02*
X097761Y016774D01*
X097804Y016932D02*
X100102Y016932D01*
X100261Y017091D02*
X097816Y017091D01*
X097816Y017249D02*
X100419Y017249D01*
X100578Y017408D02*
X097809Y017408D01*
X097767Y017566D02*
X098667Y017566D01*
X098706Y017550D02*
X098956Y017550D01*
X099188Y017646D01*
X099365Y017823D01*
X099461Y018055D01*
X099461Y018305D01*
X099365Y018537D01*
X099188Y018714D01*
X098956Y018810D01*
X098706Y018810D01*
X098474Y018714D01*
X098297Y018537D01*
X098201Y018305D01*
X098201Y018055D01*
X098297Y017823D01*
X098474Y017646D01*
X098706Y017550D01*
X098995Y017566D02*
X106667Y017566D01*
X106706Y017550D02*
X106956Y017550D01*
X107188Y017646D01*
X107365Y017823D01*
X107461Y018055D01*
X107461Y018305D01*
X107365Y018537D01*
X107188Y018714D01*
X106956Y018810D01*
X106706Y018810D01*
X106474Y018714D01*
X106297Y018537D01*
X106201Y018305D01*
X106201Y018055D01*
X106297Y017823D01*
X106474Y017646D01*
X106706Y017550D01*
X106995Y017566D02*
X112125Y017566D01*
X112382Y017725D02*
X107266Y017725D01*
X107390Y017883D02*
X116843Y017883D01*
X116843Y017725D02*
X113280Y017725D01*
X113537Y017566D02*
X116843Y017566D01*
X116843Y017408D02*
X113643Y017408D01*
X113691Y017249D02*
X116843Y017249D01*
X116843Y017091D02*
X113691Y017091D01*
X113634Y016932D02*
X116843Y016932D01*
X116843Y016774D02*
X113516Y016774D01*
X113334Y016615D02*
X116843Y016615D01*
X116843Y016457D02*
X113523Y016457D01*
X113597Y016298D02*
X116843Y016298D01*
X116843Y016140D02*
X113611Y016140D01*
X113611Y016142D02*
X113599Y016068D01*
X113576Y015996D01*
X113542Y015928D01*
X113497Y015867D01*
X113444Y015814D01*
X113383Y015769D01*
X113315Y015735D01*
X113243Y015712D01*
X113169Y015700D01*
X112851Y015700D01*
X112851Y016160D01*
X113611Y016160D01*
X113611Y016142D01*
X113568Y015981D02*
X116843Y015981D01*
X116843Y015823D02*
X113452Y015823D01*
X112851Y015823D02*
X112811Y015823D01*
X112811Y015700D02*
X112493Y015700D01*
X112419Y015712D01*
X112347Y015735D01*
X112279Y015769D01*
X112218Y015814D01*
X112165Y015867D01*
X112120Y015928D01*
X112086Y015996D01*
X112063Y016068D01*
X112051Y016142D01*
X112051Y016160D01*
X112811Y016160D01*
X112811Y015700D01*
X112811Y015981D02*
X112851Y015981D01*
X112851Y016140D02*
X112811Y016140D01*
X112210Y015823D02*
X099954Y015823D01*
X100113Y015981D02*
X112094Y015981D01*
X112051Y016140D02*
X100271Y016140D01*
X100430Y016298D02*
X112065Y016298D01*
X112139Y016457D02*
X100588Y016457D01*
X100747Y016615D02*
X112327Y016615D01*
X112145Y016774D02*
X100905Y016774D01*
X100831Y017180D02*
X112831Y017180D01*
X113459Y018584D02*
X113694Y018487D01*
X113949Y018487D01*
X114184Y018584D01*
X114364Y018764D01*
X114462Y018999D01*
X114462Y019222D01*
X114664Y019139D01*
X114948Y019139D01*
X115212Y019248D01*
X115332Y019368D01*
X115388Y019312D01*
X115624Y019215D01*
X115878Y019215D01*
X116113Y019312D01*
X116293Y019492D01*
X116391Y019728D01*
X116391Y019982D01*
X116293Y020218D01*
X116113Y020398D01*
X115878Y020495D01*
X115624Y020495D01*
X115388Y020398D01*
X115332Y020342D01*
X115212Y020462D01*
X114948Y020571D01*
X114664Y020571D01*
X114400Y020462D01*
X114357Y020419D01*
X114368Y020452D01*
X114382Y020539D01*
X114382Y020555D01*
X113850Y020555D01*
X113850Y020023D01*
X113866Y020023D01*
X113953Y020037D01*
X114037Y020064D01*
X114115Y020104D01*
X114142Y020124D01*
X114090Y019997D01*
X114090Y019713D01*
X114092Y019707D01*
X113949Y019767D01*
X113694Y019767D01*
X113674Y019758D01*
X113674Y019982D01*
X113646Y020052D01*
X113691Y020037D01*
X113778Y020023D01*
X113793Y020023D01*
X113793Y020555D01*
X113262Y020555D01*
X113262Y020539D01*
X113276Y020452D01*
X113277Y020447D01*
X113162Y020495D01*
X112907Y020495D01*
X112672Y020398D01*
X112492Y020218D01*
X112394Y019982D01*
X112394Y019728D01*
X112492Y019492D01*
X112672Y019312D01*
X112907Y019215D01*
X113162Y019215D01*
X113182Y019223D01*
X113182Y018999D01*
X113279Y018764D01*
X113459Y018584D01*
X113368Y018676D02*
X107226Y018676D01*
X107373Y018517D02*
X113621Y018517D01*
X114022Y018517D02*
X116843Y018517D01*
X116843Y018359D02*
X107439Y018359D01*
X107461Y018200D02*
X116843Y018200D01*
X116843Y018042D02*
X107456Y018042D01*
X106395Y017725D02*
X099266Y017725D01*
X099390Y017883D02*
X106272Y017883D01*
X106206Y018042D02*
X099456Y018042D01*
X099461Y018200D02*
X106201Y018200D01*
X106223Y018359D02*
X099439Y018359D01*
X099373Y018517D02*
X106289Y018517D01*
X106436Y018676D02*
X099226Y018676D01*
X098436Y018676D02*
X096630Y018676D01*
X097035Y018517D02*
X098289Y018517D01*
X098223Y018359D02*
X097273Y018359D01*
X097432Y018200D02*
X098201Y018200D01*
X098206Y018042D02*
X097556Y018042D01*
X097648Y017883D02*
X098272Y017883D01*
X098395Y017725D02*
X097724Y017725D01*
X095527Y018517D02*
X090588Y018517D01*
X090749Y018584D02*
X090426Y018450D01*
X088836Y018450D01*
X088512Y018584D01*
X088265Y018832D01*
X088131Y019155D01*
X088131Y019505D01*
X088265Y019828D01*
X088512Y020076D01*
X088836Y020210D01*
X090426Y020210D01*
X090749Y020076D01*
X090997Y019828D01*
X091131Y019505D01*
X091131Y019155D01*
X090997Y018832D01*
X090749Y018584D01*
X090841Y018676D02*
X095932Y018676D01*
X095289Y018359D02*
X085373Y018359D01*
X085532Y018200D02*
X095130Y018200D01*
X095006Y018042D02*
X085656Y018042D01*
X085748Y017883D02*
X094914Y017883D01*
X094838Y017725D02*
X085824Y017725D01*
X085867Y017566D02*
X094795Y017566D01*
X094753Y017408D02*
X085909Y017408D01*
X085916Y017249D02*
X094746Y017249D01*
X094746Y017091D02*
X085916Y017091D01*
X085904Y016932D02*
X094758Y016932D01*
X094801Y016774D02*
X085861Y016774D01*
X085819Y016615D02*
X094843Y016615D01*
X094926Y016457D02*
X085736Y016457D01*
X085644Y016298D02*
X095018Y016298D01*
X095151Y016140D02*
X085511Y016140D01*
X085353Y015981D02*
X095309Y015981D01*
X095562Y015823D02*
X090637Y015823D01*
X089631Y015030D02*
X089331Y015180D01*
X081331Y015180D01*
X080831Y015680D01*
X073831Y015680D01*
X072831Y016680D01*
X064331Y016680D01*
X063331Y015680D01*
X063961Y015664D02*
X070701Y015664D01*
X070701Y015555D02*
X070797Y015323D01*
X070974Y015146D01*
X071206Y015050D01*
X071456Y015050D01*
X071688Y015146D01*
X071865Y015323D01*
X071961Y015555D01*
X071961Y015805D01*
X071865Y016037D01*
X071688Y016214D01*
X071456Y016310D01*
X071206Y016310D01*
X070974Y016214D01*
X070797Y016037D01*
X070701Y015805D01*
X070701Y015555D01*
X070721Y015506D02*
X063941Y015506D01*
X063875Y015347D02*
X070787Y015347D01*
X070931Y015189D02*
X063730Y015189D01*
X062931Y015189D02*
X033054Y015189D01*
X033266Y015030D02*
X073000Y015030D01*
X073159Y014872D02*
X033352Y014872D01*
X033386Y014713D02*
X073317Y014713D01*
X073476Y014555D02*
X044149Y014555D01*
X043831Y014180D02*
X073831Y014180D01*
X074321Y014238D02*
X083793Y014238D01*
X083951Y014079D02*
X074320Y014079D01*
X074254Y013921D02*
X084110Y013921D01*
X084268Y013762D02*
X074102Y013762D01*
X073560Y013762D02*
X044102Y013762D01*
X043560Y013762D02*
X022875Y013762D01*
X022881Y013723D02*
X022867Y013809D01*
X022841Y013891D01*
X022801Y013968D01*
X022750Y014038D01*
X022689Y014100D01*
X022619Y014150D01*
X022542Y014190D01*
X022460Y014216D01*
X022374Y014230D01*
X022369Y014230D01*
X022369Y013718D01*
X022881Y013718D01*
X022881Y013723D01*
X022881Y013642D02*
X022369Y013642D01*
X022369Y013718D01*
X022293Y013718D01*
X022293Y014230D01*
X022288Y014230D01*
X022202Y014216D01*
X022120Y014190D01*
X022043Y014150D01*
X021973Y014100D01*
X021911Y014038D01*
X021861Y013968D01*
X021821Y013891D01*
X021795Y013809D01*
X021781Y013723D01*
X021781Y013718D01*
X022293Y013718D01*
X022293Y013642D01*
X022369Y013642D01*
X022369Y013130D01*
X022374Y013130D01*
X022460Y013144D01*
X022542Y013170D01*
X022619Y013210D01*
X022689Y013260D01*
X022750Y013322D01*
X022801Y013392D01*
X022841Y013469D01*
X022867Y013551D01*
X022881Y013637D01*
X022881Y013642D01*
X022876Y013604D02*
X071573Y013604D01*
X071410Y013445D02*
X049547Y013445D01*
X049705Y013287D02*
X071345Y013287D01*
X071341Y013128D02*
X062030Y013128D01*
X061632Y013128D02*
X054668Y013128D01*
X054812Y012970D02*
X055641Y012970D01*
X055481Y012811D02*
X054877Y012811D01*
X054886Y012653D02*
X055323Y012653D01*
X055164Y012494D02*
X054855Y012494D01*
X054771Y012336D02*
X055006Y012336D01*
X054581Y012177D02*
X054567Y012177D01*
X054831Y011680D02*
X055831Y012680D01*
X060831Y012680D01*
X061831Y011680D01*
X061831Y012680D02*
X074331Y012680D01*
X074831Y012180D01*
X075386Y012177D02*
X076353Y012177D01*
X076195Y012336D02*
X075367Y012336D01*
X075302Y012494D02*
X076036Y012494D01*
X075878Y012653D02*
X075140Y012653D01*
X074681Y012811D02*
X075719Y012811D01*
X075831Y013180D02*
X076831Y012180D01*
X078331Y012180D01*
X078961Y012177D02*
X085701Y012177D01*
X085695Y012336D02*
X078948Y012336D01*
X078883Y012494D02*
X085536Y012494D01*
X085378Y012653D02*
X078749Y012653D01*
X077913Y012653D02*
X076839Y012653D01*
X076681Y012811D02*
X085219Y012811D01*
X085061Y012970D02*
X076522Y012970D01*
X076364Y013128D02*
X084902Y013128D01*
X084744Y013287D02*
X076205Y013287D01*
X076047Y013445D02*
X084585Y013445D01*
X084427Y013604D02*
X072089Y013604D01*
X071831Y013180D02*
X075831Y013180D01*
X075365Y012019D02*
X076512Y012019D01*
X076715Y011860D02*
X075296Y011860D01*
X075140Y011702D02*
X075126Y011702D01*
X074909Y011543D02*
X074879Y011543D01*
X075522Y011702D02*
X077918Y011702D01*
X078743Y011702D02*
X085918Y011702D01*
X085782Y011860D02*
X078880Y011860D01*
X078946Y012019D02*
X085716Y012019D01*
X086331Y012180D02*
X083831Y014680D01*
X073831Y014680D01*
X072831Y015680D01*
X072201Y015664D02*
X071961Y015664D01*
X071954Y015823D02*
X072208Y015823D01*
X072274Y015981D02*
X071888Y015981D01*
X071762Y016140D02*
X072400Y016140D01*
X072677Y016298D02*
X071485Y016298D01*
X071177Y016298D02*
X064430Y016298D01*
X064271Y016140D02*
X070900Y016140D01*
X070774Y015981D02*
X064113Y015981D01*
X063954Y015823D02*
X070708Y015823D01*
X071941Y015506D02*
X072221Y015506D01*
X072287Y015347D02*
X071875Y015347D01*
X071730Y015189D02*
X072431Y015189D01*
X073694Y016298D02*
X073849Y016298D01*
X073915Y016457D02*
X073535Y016457D01*
X073377Y016615D02*
X074101Y016615D01*
X074561Y016615D02*
X080285Y016615D01*
X080444Y016774D02*
X073218Y016774D01*
X073060Y016932D02*
X080602Y016932D01*
X080761Y017091D02*
X058816Y017091D01*
X058821Y017077D02*
X058746Y017258D01*
X058664Y017340D01*
X063978Y017340D01*
X064053Y017265D01*
X064234Y017190D01*
X064428Y017190D01*
X064609Y017265D01*
X064684Y017340D01*
X068978Y017340D01*
X069053Y017265D01*
X069234Y017190D01*
X069428Y017190D01*
X069609Y017265D01*
X069746Y017402D01*
X069821Y017583D01*
X069821Y017777D01*
X069746Y017958D01*
X069609Y018095D01*
X069428Y018170D01*
X069234Y018170D01*
X069053Y018095D01*
X068978Y018020D01*
X064684Y018020D01*
X064609Y018095D01*
X064428Y018170D01*
X064234Y018170D01*
X064053Y018095D01*
X063978Y018020D01*
X056263Y018020D01*
X056138Y017968D01*
X056043Y017873D01*
X055190Y017020D01*
X052986Y017020D01*
X052886Y017121D01*
X052694Y017200D01*
X051968Y017200D01*
X051776Y017121D01*
X051630Y016975D01*
X051551Y016783D01*
X051551Y016577D01*
X051616Y016420D01*
X049072Y016420D01*
X048906Y016586D01*
X048906Y016918D01*
X048569Y017255D01*
X048093Y017255D01*
X047756Y016918D01*
X047756Y016442D01*
X048093Y016105D01*
X048425Y016105D01*
X048738Y015792D01*
X048863Y015740D01*
X057499Y015740D01*
X057624Y015792D01*
X057719Y015887D01*
X058322Y016490D01*
X058428Y016490D01*
X058609Y016565D01*
X058746Y016702D01*
X058821Y016883D01*
X058821Y017077D01*
X058821Y016932D02*
X064102Y016932D01*
X063944Y016774D02*
X058776Y016774D01*
X058659Y016615D02*
X063785Y016615D01*
X063627Y016457D02*
X058288Y016457D01*
X058130Y016298D02*
X063177Y016298D01*
X062900Y016140D02*
X057971Y016140D01*
X057813Y015981D02*
X062774Y015981D01*
X062708Y015823D02*
X057654Y015823D01*
X057431Y016080D02*
X048931Y016080D01*
X048331Y016680D01*
X048734Y017091D02*
X051746Y017091D01*
X051613Y016932D02*
X048892Y016932D01*
X048906Y016774D02*
X051551Y016774D01*
X051551Y016615D02*
X048906Y016615D01*
X049035Y016457D02*
X051601Y016457D01*
X052331Y016680D02*
X055331Y016680D01*
X056331Y017680D01*
X064331Y017680D01*
X069331Y017680D01*
X069777Y017883D02*
X083014Y017883D01*
X082938Y017725D02*
X069821Y017725D01*
X069814Y017566D02*
X082895Y017566D01*
X083106Y018042D02*
X069662Y018042D01*
X069000Y018042D02*
X064662Y018042D01*
X064448Y018260D02*
X064665Y018350D01*
X064781Y018466D01*
X064897Y018350D01*
X065114Y018260D01*
X065348Y018260D01*
X065565Y018350D01*
X065731Y018516D01*
X065821Y018733D01*
X065821Y019627D01*
X065731Y019844D01*
X065565Y020010D01*
X065348Y020100D01*
X065114Y020100D01*
X064897Y020010D01*
X064781Y019894D01*
X064665Y020010D01*
X064448Y020100D01*
X064214Y020100D01*
X063997Y020010D01*
X063881Y019894D01*
X063765Y020010D01*
X063548Y020100D01*
X063314Y020100D01*
X063097Y020010D01*
X062931Y019844D01*
X062841Y019627D01*
X062841Y018733D01*
X062931Y018516D01*
X063097Y018350D01*
X063314Y018260D01*
X063548Y018260D01*
X063765Y018350D01*
X063881Y018466D01*
X063997Y018350D01*
X064214Y018260D01*
X064448Y018260D01*
X064674Y018359D02*
X064888Y018359D01*
X065574Y018359D02*
X083389Y018359D01*
X083230Y018200D02*
X043271Y018200D01*
X043152Y018042D02*
X064000Y018042D01*
X063988Y018359D02*
X063774Y018359D01*
X063088Y018359D02*
X043390Y018359D01*
X043509Y018517D02*
X062930Y018517D01*
X062865Y018676D02*
X043628Y018676D01*
X043746Y018834D02*
X062841Y018834D01*
X062841Y018993D02*
X043865Y018993D01*
X043984Y019151D02*
X062841Y019151D01*
X062841Y019310D02*
X044103Y019310D01*
X044222Y019468D02*
X062841Y019468D01*
X062841Y019627D02*
X062641Y019627D01*
X062688Y019646D02*
X062865Y019823D01*
X062961Y020055D01*
X062961Y020305D01*
X062865Y020537D01*
X062688Y020714D01*
X062456Y020810D01*
X062206Y020810D01*
X061974Y020714D01*
X061797Y020537D01*
X061701Y020305D01*
X061701Y020055D01*
X061797Y019823D01*
X061974Y019646D01*
X062206Y019550D01*
X062456Y019550D01*
X062688Y019646D01*
X062827Y019785D02*
X062906Y019785D01*
X062915Y019944D02*
X063030Y019944D01*
X062961Y020102D02*
X088575Y020102D01*
X088380Y019944D02*
X065632Y019944D01*
X065756Y019785D02*
X088247Y019785D01*
X088181Y019627D02*
X065821Y019627D01*
X065821Y019468D02*
X088131Y019468D01*
X088131Y019310D02*
X065821Y019310D01*
X065821Y019151D02*
X088133Y019151D01*
X088198Y018993D02*
X065821Y018993D01*
X065821Y018834D02*
X088264Y018834D01*
X088421Y018676D02*
X084730Y018676D01*
X085135Y018517D02*
X088674Y018517D01*
X090998Y018834D02*
X113250Y018834D01*
X113185Y018993D02*
X091064Y018993D01*
X091129Y019151D02*
X113182Y019151D01*
X112679Y019310D02*
X091131Y019310D01*
X091131Y019468D02*
X112516Y019468D01*
X112436Y019627D02*
X091081Y019627D01*
X091015Y019785D02*
X112394Y019785D01*
X112394Y019944D02*
X090882Y019944D01*
X090687Y020102D02*
X098580Y020102D01*
X098359Y020261D02*
X062961Y020261D01*
X062914Y020419D02*
X085111Y020419D01*
X084953Y020578D02*
X062824Y020578D01*
X062635Y020736D02*
X073628Y020736D01*
X073402Y020895D02*
X045526Y020895D01*
X045685Y021053D02*
X073256Y021053D01*
X073190Y021212D02*
X045843Y021212D01*
X045368Y020736D02*
X052027Y020736D01*
X051974Y020714D02*
X051797Y020537D01*
X051701Y020305D01*
X051701Y020055D01*
X051797Y019823D01*
X051974Y019646D01*
X052206Y019550D01*
X052456Y019550D01*
X052688Y019646D01*
X052865Y019823D01*
X052961Y020055D01*
X052961Y020305D01*
X052865Y020537D01*
X052688Y020714D01*
X052456Y020810D01*
X052206Y020810D01*
X051974Y020714D01*
X051838Y020578D02*
X045209Y020578D01*
X045051Y020419D02*
X051748Y020419D01*
X051701Y020261D02*
X044961Y020261D01*
X044961Y020102D02*
X051701Y020102D01*
X051747Y019944D02*
X044915Y019944D01*
X044827Y019785D02*
X051835Y019785D01*
X052021Y019627D02*
X044641Y019627D01*
X044331Y020180D02*
X045831Y021680D01*
X058831Y021680D01*
X064331Y027180D01*
X065831Y025680D01*
X070331Y025680D01*
X074331Y021680D01*
X074631Y021530D01*
X074831Y021680D01*
X112831Y021680D01*
X113429Y022163D02*
X116843Y022163D01*
X116843Y022321D02*
X113451Y022321D01*
X113568Y022480D02*
X116843Y022480D01*
X116843Y022638D02*
X113610Y022638D01*
X113598Y022797D02*
X116843Y022797D01*
X116843Y022955D02*
X113524Y022955D01*
X113337Y023114D02*
X116843Y023114D01*
X116843Y023272D02*
X113515Y023272D01*
X113634Y023431D02*
X116843Y023431D01*
X116843Y023589D02*
X113691Y023589D01*
X113691Y023748D02*
X116843Y023748D01*
X116843Y023906D02*
X113643Y023906D01*
X113538Y024065D02*
X116843Y024065D01*
X116843Y024223D02*
X113283Y024223D01*
X112379Y024223D02*
X107166Y024223D01*
X107188Y024214D02*
X106956Y024310D01*
X106706Y024310D01*
X106474Y024214D01*
X106297Y024037D01*
X106201Y023805D01*
X106201Y023555D01*
X106297Y023323D01*
X106474Y023146D01*
X106706Y023050D01*
X106956Y023050D01*
X107188Y023146D01*
X107365Y023323D01*
X107461Y023555D01*
X107461Y023805D01*
X107365Y024037D01*
X107188Y024214D01*
X107337Y024065D02*
X112124Y024065D01*
X112018Y023906D02*
X107419Y023906D01*
X107461Y023748D02*
X111971Y023748D01*
X111971Y023589D02*
X107461Y023589D01*
X107410Y023431D02*
X112028Y023431D01*
X112147Y023272D02*
X107314Y023272D01*
X107110Y023114D02*
X112325Y023114D01*
X112137Y022955D02*
X096587Y022955D01*
X096428Y022797D02*
X112064Y022797D01*
X112052Y022638D02*
X110006Y022638D01*
X110224Y022480D02*
X112094Y022480D01*
X112211Y022321D02*
X110303Y022321D01*
X110321Y022163D02*
X112233Y022163D01*
X113599Y022004D02*
X116843Y022004D01*
X116843Y021846D02*
X113669Y021846D01*
X113691Y021687D02*
X116843Y021687D01*
X116843Y021529D02*
X113674Y021529D01*
X113609Y021370D02*
X116843Y021370D01*
X116843Y021212D02*
X113454Y021212D01*
X113528Y021062D02*
X113457Y021010D01*
X113395Y020948D01*
X113343Y020877D01*
X113303Y020798D01*
X113276Y020714D01*
X113262Y020627D01*
X113262Y020612D01*
X113793Y020612D01*
X113793Y020555D01*
X113850Y020555D01*
X113850Y020612D01*
X113793Y020612D01*
X113793Y021143D01*
X113778Y021143D01*
X113691Y021130D01*
X113607Y021102D01*
X113528Y021062D01*
X113515Y021053D02*
X107349Y021053D01*
X107365Y021037D02*
X107188Y021214D01*
X106956Y021310D01*
X106706Y021310D01*
X106474Y021214D01*
X106297Y021037D01*
X106201Y020805D01*
X106201Y020555D01*
X106297Y020323D01*
X106474Y020146D01*
X106706Y020050D01*
X106956Y020050D01*
X107188Y020146D01*
X107365Y020323D01*
X107461Y020555D01*
X107461Y020805D01*
X107365Y021037D01*
X107424Y020895D02*
X113356Y020895D01*
X113283Y020736D02*
X107461Y020736D01*
X107461Y020578D02*
X113793Y020578D01*
X113850Y020578D02*
X116843Y020578D01*
X116843Y020736D02*
X114361Y020736D01*
X114368Y020714D02*
X114341Y020798D01*
X114301Y020877D01*
X114249Y020948D01*
X114187Y021010D01*
X114115Y021062D01*
X114037Y021102D01*
X113953Y021130D01*
X113866Y021143D01*
X113850Y021143D01*
X113850Y020612D01*
X114382Y020612D01*
X114382Y020627D01*
X114368Y020714D01*
X114288Y020895D02*
X116843Y020895D01*
X116843Y021053D02*
X114128Y021053D01*
X113850Y021053D02*
X113793Y021053D01*
X113793Y020895D02*
X113850Y020895D01*
X113850Y020736D02*
X113793Y020736D01*
X113793Y020419D02*
X113850Y020419D01*
X113850Y020261D02*
X113793Y020261D01*
X113793Y020102D02*
X113850Y020102D01*
X113674Y019944D02*
X114090Y019944D01*
X114090Y019785D02*
X113674Y019785D01*
X114111Y020102D02*
X114133Y020102D01*
X115255Y020419D02*
X115440Y020419D01*
X116062Y020419D02*
X116843Y020419D01*
X116843Y020261D02*
X116250Y020261D01*
X116341Y020102D02*
X116843Y020102D01*
X116843Y019944D02*
X116391Y019944D01*
X116391Y019785D02*
X116843Y019785D01*
X116843Y019627D02*
X116349Y019627D01*
X116269Y019468D02*
X116843Y019468D01*
X116843Y019310D02*
X116106Y019310D01*
X115395Y019310D02*
X115273Y019310D01*
X114978Y019151D02*
X116843Y019151D01*
X116843Y018993D02*
X114459Y018993D01*
X114462Y019151D02*
X114634Y019151D01*
X114393Y018834D02*
X116843Y018834D01*
X116843Y018676D02*
X114276Y018676D01*
X112444Y020102D02*
X107082Y020102D01*
X107302Y020261D02*
X112535Y020261D01*
X112724Y020419D02*
X107405Y020419D01*
X106580Y020102D02*
X099082Y020102D01*
X099302Y020261D02*
X106359Y020261D01*
X106257Y020419D02*
X099405Y020419D01*
X099461Y020578D02*
X106201Y020578D01*
X106201Y020736D02*
X099461Y020736D01*
X099424Y020895D02*
X106238Y020895D01*
X106313Y021053D02*
X099349Y021053D01*
X099190Y021212D02*
X106472Y021212D01*
X107190Y021212D02*
X112207Y021212D01*
X109831Y022180D02*
X096331Y022180D01*
X096506Y022638D02*
X109656Y022638D01*
X106552Y023114D02*
X099110Y023114D01*
X099188Y023146D02*
X099365Y023323D01*
X099461Y023555D01*
X099461Y023805D01*
X099365Y024037D01*
X099188Y024214D01*
X098956Y024310D01*
X098706Y024310D01*
X098474Y024214D01*
X098297Y024037D01*
X098201Y023805D01*
X098201Y023555D01*
X098297Y023323D01*
X098474Y023146D01*
X098706Y023050D01*
X098956Y023050D01*
X099188Y023146D01*
X099314Y023272D02*
X106348Y023272D01*
X106252Y023431D02*
X099410Y023431D01*
X099461Y023589D02*
X106201Y023589D01*
X106201Y023748D02*
X099461Y023748D01*
X099419Y023906D02*
X106243Y023906D01*
X106325Y024065D02*
X099337Y024065D01*
X099166Y024223D02*
X106496Y024223D01*
X105524Y025892D02*
X105619Y025987D01*
X106189Y026557D01*
X106206Y026550D01*
X106456Y026550D01*
X106688Y026646D01*
X106865Y026823D01*
X106961Y027055D01*
X106961Y027305D01*
X106865Y027537D01*
X106688Y027714D01*
X106456Y027810D01*
X106206Y027810D01*
X105974Y027714D01*
X105797Y027537D01*
X105701Y027305D01*
X105701Y027055D01*
X105708Y027038D01*
X105190Y026520D01*
X092152Y026520D01*
X092472Y026840D01*
X096290Y026840D01*
X096297Y026823D01*
X096474Y026646D01*
X096706Y026550D01*
X096956Y026550D01*
X097188Y026646D01*
X097365Y026823D01*
X097461Y027055D01*
X097461Y027305D01*
X097365Y027537D01*
X097188Y027714D01*
X096956Y027810D01*
X096706Y027810D01*
X096474Y027714D01*
X096297Y027537D01*
X096290Y027520D01*
X092263Y027520D01*
X092138Y027468D01*
X092043Y027373D01*
X091138Y026468D01*
X091043Y026373D01*
X088973Y024303D01*
X088956Y024310D01*
X088706Y024310D01*
X088474Y024214D01*
X088297Y024037D01*
X088201Y023805D01*
X088201Y023555D01*
X088297Y023323D01*
X088474Y023146D01*
X088706Y023050D01*
X088956Y023050D01*
X089188Y023146D01*
X089365Y023323D01*
X089461Y023555D01*
X089461Y023805D01*
X089454Y023822D01*
X091472Y025840D01*
X105399Y025840D01*
X105524Y025892D01*
X105598Y025967D02*
X116843Y025967D01*
X116843Y026125D02*
X105757Y026125D01*
X105915Y026284D02*
X116843Y026284D01*
X116843Y026442D02*
X106074Y026442D01*
X106578Y026601D02*
X109153Y026601D01*
X109161Y026583D02*
X109234Y026510D01*
X109329Y026470D01*
X110333Y026470D01*
X110428Y026510D01*
X110501Y026583D01*
X110541Y026678D01*
X110541Y027682D01*
X110501Y027777D01*
X110428Y027850D01*
X110333Y027890D01*
X109329Y027890D01*
X109234Y027850D01*
X109161Y027777D01*
X109121Y027682D01*
X109121Y026678D01*
X109161Y026583D01*
X109121Y026759D02*
X106801Y026759D01*
X106904Y026918D02*
X109121Y026918D01*
X109121Y027076D02*
X106961Y027076D01*
X106961Y027235D02*
X109121Y027235D01*
X109121Y027393D02*
X106925Y027393D01*
X106850Y027552D02*
X109121Y027552D01*
X109133Y027710D02*
X106692Y027710D01*
X106331Y027180D02*
X105331Y026180D01*
X091331Y026180D01*
X088831Y023680D01*
X089410Y023431D02*
X096101Y023431D01*
X096201Y023589D02*
X089461Y023589D01*
X089461Y023748D02*
X096201Y023748D01*
X096243Y023906D02*
X089538Y023906D01*
X089696Y024065D02*
X096325Y024065D01*
X096496Y024223D02*
X089855Y024223D01*
X090013Y024382D02*
X116843Y024382D01*
X116843Y024540D02*
X090172Y024540D01*
X090330Y024699D02*
X116843Y024699D01*
X116843Y024857D02*
X090489Y024857D01*
X090647Y025016D02*
X116843Y025016D01*
X116843Y025174D02*
X090806Y025174D01*
X090964Y025333D02*
X116843Y025333D01*
X116843Y025491D02*
X091123Y025491D01*
X091281Y025650D02*
X116843Y025650D01*
X116843Y025808D02*
X091440Y025808D01*
X091331Y026180D02*
X092331Y027180D01*
X096831Y027180D01*
X097404Y026918D02*
X097758Y026918D01*
X097797Y026823D02*
X097974Y026646D01*
X098206Y026550D01*
X098456Y026550D01*
X098688Y026646D01*
X098865Y026823D01*
X098961Y027055D01*
X098961Y027305D01*
X098865Y027537D01*
X098688Y027714D01*
X098456Y027810D01*
X098206Y027810D01*
X098189Y027803D01*
X097524Y028468D01*
X097399Y028520D01*
X089763Y028520D01*
X089638Y028468D01*
X089543Y028373D01*
X088973Y027803D01*
X088956Y027810D01*
X088706Y027810D01*
X088474Y027714D01*
X088297Y027537D01*
X088201Y027305D01*
X088201Y027055D01*
X088297Y026823D01*
X088474Y026646D01*
X088706Y026550D01*
X088956Y026550D01*
X089188Y026646D01*
X089365Y026823D01*
X089461Y027055D01*
X089461Y027305D01*
X089454Y027322D01*
X089972Y027840D01*
X097190Y027840D01*
X097708Y027322D01*
X097701Y027305D01*
X097701Y027055D01*
X097797Y026823D01*
X097861Y026759D02*
X097301Y026759D01*
X097078Y026601D02*
X098084Y026601D01*
X098578Y026601D02*
X105271Y026601D01*
X105429Y026759D02*
X098801Y026759D01*
X098904Y026918D02*
X105588Y026918D01*
X105701Y027076D02*
X098961Y027076D01*
X098961Y027235D02*
X105701Y027235D01*
X105737Y027393D02*
X098925Y027393D01*
X098850Y027552D02*
X105812Y027552D01*
X105970Y027710D02*
X098692Y027710D01*
X098123Y027869D02*
X109277Y027869D01*
X110384Y027869D02*
X115277Y027869D01*
X115234Y027850D02*
X115161Y027777D01*
X115121Y027682D01*
X115121Y026678D01*
X115161Y026583D01*
X115234Y026510D01*
X115329Y026470D01*
X116333Y026470D01*
X116428Y026510D01*
X116501Y026583D01*
X116541Y026678D01*
X116541Y027682D01*
X116501Y027777D01*
X116428Y027850D01*
X116333Y027890D01*
X115329Y027890D01*
X115234Y027850D01*
X115133Y027710D02*
X110529Y027710D01*
X110541Y027552D02*
X115121Y027552D01*
X115121Y027393D02*
X110541Y027393D01*
X110541Y027235D02*
X115121Y027235D01*
X115121Y027076D02*
X110541Y027076D01*
X110541Y026918D02*
X115121Y026918D01*
X115121Y026759D02*
X110541Y026759D01*
X110509Y026601D02*
X115153Y026601D01*
X116509Y026601D02*
X116843Y026601D01*
X116843Y026759D02*
X116541Y026759D01*
X116541Y026918D02*
X116843Y026918D01*
X116843Y027076D02*
X116541Y027076D01*
X116541Y027235D02*
X116843Y027235D01*
X116843Y027393D02*
X116541Y027393D01*
X116541Y027552D02*
X116843Y027552D01*
X116843Y027710D02*
X116529Y027710D01*
X116384Y027869D02*
X116843Y027869D01*
X116843Y028027D02*
X097965Y028027D01*
X097806Y028186D02*
X116843Y028186D01*
X116843Y028344D02*
X097648Y028344D01*
X097441Y028503D02*
X116843Y028503D01*
X098496Y024223D02*
X097166Y024223D01*
X097337Y024065D02*
X098325Y024065D01*
X098243Y023906D02*
X097419Y023906D01*
X097461Y023748D02*
X098201Y023748D01*
X098201Y023589D02*
X097461Y023589D01*
X097410Y023431D02*
X098252Y023431D01*
X098348Y023272D02*
X097314Y023272D01*
X097110Y023114D02*
X098552Y023114D01*
X096831Y023680D02*
X095331Y022180D01*
X085831Y022180D01*
X085831Y023180D01*
X087321Y023114D02*
X088552Y023114D01*
X088348Y023272D02*
X087321Y023272D01*
X087321Y023431D02*
X088252Y023431D01*
X088201Y023589D02*
X087321Y023589D01*
X087271Y023748D02*
X088201Y023748D01*
X088243Y023906D02*
X087169Y023906D01*
X086934Y024065D02*
X088325Y024065D01*
X088496Y024223D02*
X082725Y024223D01*
X082711Y024272D02*
X082509Y024623D01*
X082223Y024908D01*
X081873Y025110D01*
X081483Y025215D01*
X081079Y025215D01*
X080688Y025110D01*
X080338Y024908D01*
X080053Y024623D01*
X079851Y024272D01*
X079746Y023882D01*
X079746Y023478D01*
X079851Y023088D01*
X080053Y022737D01*
X080338Y022452D01*
X080688Y022250D01*
X081079Y022145D01*
X081483Y022145D01*
X081873Y022250D01*
X082223Y022452D01*
X082509Y022737D01*
X082711Y023088D01*
X082816Y023478D01*
X082816Y023882D01*
X082711Y024272D01*
X082648Y024382D02*
X089052Y024382D01*
X089210Y024540D02*
X082557Y024540D01*
X082433Y024699D02*
X089369Y024699D01*
X089527Y024857D02*
X082275Y024857D01*
X082038Y025016D02*
X089686Y025016D01*
X089844Y025174D02*
X081636Y025174D01*
X080926Y025174D02*
X075840Y025174D01*
X075749Y025084D02*
X075997Y025332D01*
X076131Y025655D01*
X076131Y026005D01*
X075997Y026328D01*
X075749Y026576D01*
X075426Y026710D01*
X073836Y026710D01*
X073512Y026576D01*
X073265Y026328D01*
X073131Y026005D01*
X073131Y025655D01*
X073265Y025332D01*
X073512Y025084D01*
X073836Y024950D01*
X075426Y024950D01*
X075749Y025084D01*
X075584Y025016D02*
X080524Y025016D01*
X080287Y024857D02*
X071635Y024857D01*
X071793Y024699D02*
X080129Y024699D01*
X080005Y024540D02*
X071952Y024540D01*
X072110Y024382D02*
X079914Y024382D01*
X079837Y024223D02*
X072269Y024223D01*
X072427Y024065D02*
X079795Y024065D01*
X079752Y023906D02*
X072586Y023906D01*
X072744Y023748D02*
X079746Y023748D01*
X079746Y023589D02*
X072903Y023589D01*
X073061Y023431D02*
X079759Y023431D01*
X079801Y023272D02*
X073220Y023272D01*
X073378Y023114D02*
X079844Y023114D01*
X079927Y022955D02*
X073537Y022955D01*
X073695Y022797D02*
X080019Y022797D01*
X080152Y022638D02*
X073854Y022638D01*
X074012Y022480D02*
X080311Y022480D01*
X080565Y022321D02*
X075641Y022321D01*
X075863Y022163D02*
X081013Y022163D01*
X081549Y022163D02*
X085491Y022163D01*
X085491Y022321D02*
X085196Y022321D01*
X084666Y022321D02*
X081997Y022321D01*
X082251Y022480D02*
X084467Y022480D01*
X084380Y022638D02*
X082410Y022638D01*
X082543Y022797D02*
X084341Y022797D01*
X084341Y022955D02*
X082635Y022955D01*
X082718Y023114D02*
X084341Y023114D01*
X084341Y023272D02*
X082761Y023272D01*
X082803Y023431D02*
X084341Y023431D01*
X084341Y023589D02*
X082816Y023589D01*
X082816Y023748D02*
X084391Y023748D01*
X084493Y023906D02*
X082810Y023906D01*
X082767Y024065D02*
X084728Y024065D01*
X085134Y024065D02*
X085628Y024065D01*
X085393Y023906D02*
X085369Y023906D01*
X086034Y024065D02*
X086528Y024065D01*
X086293Y023906D02*
X086269Y023906D01*
X087321Y022955D02*
X095625Y022955D01*
X095467Y022797D02*
X087321Y022797D01*
X087282Y022638D02*
X095308Y022638D01*
X095784Y023114D02*
X089110Y023114D01*
X089314Y023272D02*
X095942Y023272D01*
X098313Y021053D02*
X085439Y021053D01*
X085280Y021212D02*
X098472Y021212D01*
X098831Y020680D02*
X085331Y020680D01*
X084831Y021180D01*
X081331Y021180D01*
X078331Y021180D01*
X078540Y020736D02*
X081122Y020736D01*
X081540Y020736D02*
X084794Y020736D01*
X078122Y020736D02*
X075634Y020736D01*
X075860Y020895D02*
X077923Y020895D01*
X077853Y021053D02*
X076006Y021053D01*
X076072Y021212D02*
X077841Y021212D01*
X073368Y022163D02*
X069649Y022163D01*
X069583Y022145D02*
X069973Y022250D01*
X070323Y022452D01*
X070609Y022737D01*
X070811Y023088D01*
X070916Y023478D01*
X070916Y023882D01*
X070811Y024272D01*
X070609Y024623D01*
X070323Y024908D01*
X069973Y025110D01*
X069583Y025215D01*
X069179Y025215D01*
X068788Y025110D01*
X068438Y024908D01*
X068153Y024623D01*
X067951Y024272D01*
X067846Y023882D01*
X067846Y023478D01*
X067951Y023088D01*
X068153Y022737D01*
X068438Y022452D01*
X068788Y022250D01*
X069179Y022145D01*
X069583Y022145D01*
X069113Y022163D02*
X065548Y022163D01*
X065595Y022210D02*
X065803Y022570D01*
X065911Y022972D01*
X065911Y023388D01*
X065803Y023790D01*
X065595Y024150D01*
X065301Y024444D01*
X064941Y024652D01*
X064539Y024760D01*
X064123Y024760D01*
X063721Y024652D01*
X063361Y024444D01*
X063067Y024150D01*
X062859Y023790D01*
X062751Y023388D01*
X062751Y022972D01*
X062859Y022570D01*
X063067Y022210D01*
X063361Y021916D01*
X063721Y021708D01*
X064123Y021600D01*
X064539Y021600D01*
X064941Y021708D01*
X065301Y021916D01*
X065595Y022210D01*
X065659Y022321D02*
X068665Y022321D01*
X068411Y022480D02*
X065751Y022480D01*
X065821Y022638D02*
X068252Y022638D01*
X068119Y022797D02*
X065864Y022797D01*
X065906Y022955D02*
X068027Y022955D01*
X067944Y023114D02*
X065911Y023114D01*
X065911Y023272D02*
X067901Y023272D01*
X067859Y023431D02*
X065900Y023431D01*
X065857Y023589D02*
X067846Y023589D01*
X067846Y023748D02*
X065815Y023748D01*
X065736Y023906D02*
X067852Y023906D01*
X067895Y024065D02*
X065645Y024065D01*
X065522Y024223D02*
X067937Y024223D01*
X068014Y024382D02*
X065364Y024382D01*
X065135Y024540D02*
X068105Y024540D01*
X068229Y024699D02*
X064768Y024699D01*
X063894Y024699D02*
X062330Y024699D01*
X062489Y024857D02*
X068387Y024857D01*
X068624Y025016D02*
X062647Y025016D01*
X062806Y025174D02*
X069026Y025174D01*
X069736Y025174D02*
X070356Y025174D01*
X070198Y025333D02*
X062964Y025333D01*
X063123Y025491D02*
X065539Y025491D01*
X065381Y025650D02*
X063281Y025650D01*
X063440Y025808D02*
X065222Y025808D01*
X065064Y025967D02*
X063598Y025967D01*
X063757Y026125D02*
X064905Y026125D01*
X064747Y026284D02*
X063915Y026284D01*
X064074Y026442D02*
X064588Y026442D01*
X065233Y026759D02*
X065967Y026759D01*
X066101Y026625D02*
X065776Y026950D01*
X065776Y027180D01*
X066331Y027180D01*
X066886Y027180D01*
X066886Y027410D01*
X066561Y027735D01*
X066331Y027735D01*
X066331Y027180D01*
X066331Y027180D01*
X066886Y027180D01*
X066886Y026950D01*
X066561Y026625D01*
X066331Y026625D01*
X066331Y027180D01*
X066331Y027180D01*
X066331Y027180D01*
X066331Y026625D01*
X066101Y026625D01*
X066331Y026759D02*
X066331Y026759D01*
X066331Y026918D02*
X066331Y026918D01*
X066331Y027076D02*
X066331Y027076D01*
X066331Y027180D02*
X066331Y027180D01*
X066331Y027735D01*
X066101Y027735D01*
X065776Y027410D01*
X065776Y027180D01*
X066331Y027180D01*
X066331Y027235D02*
X066331Y027235D01*
X066331Y027393D02*
X066331Y027393D01*
X066331Y027552D02*
X066331Y027552D01*
X066331Y027710D02*
X066331Y027710D01*
X066586Y027710D02*
X084337Y027710D01*
X084295Y027552D02*
X066744Y027552D01*
X066886Y027393D02*
X084252Y027393D01*
X084251Y027235D02*
X066886Y027235D01*
X066886Y027076D02*
X084251Y027076D01*
X084266Y026918D02*
X066853Y026918D01*
X066695Y026759D02*
X084308Y026759D01*
X084350Y026601D02*
X075690Y026601D01*
X075883Y026442D02*
X084433Y026442D01*
X084524Y026284D02*
X076016Y026284D01*
X076081Y026125D02*
X084651Y026125D01*
X084810Y025967D02*
X076131Y025967D01*
X076131Y025808D02*
X085047Y025808D01*
X085438Y025650D02*
X076129Y025650D01*
X076063Y025491D02*
X090161Y025491D01*
X090003Y025333D02*
X075997Y025333D01*
X073678Y025016D02*
X071476Y025016D01*
X071318Y025174D02*
X073422Y025174D01*
X073265Y025333D02*
X071159Y025333D01*
X071001Y025491D02*
X073199Y025491D01*
X073133Y025650D02*
X070842Y025650D01*
X070684Y025808D02*
X073131Y025808D01*
X073131Y025967D02*
X070525Y025967D01*
X073181Y026125D02*
X065867Y026125D01*
X065708Y026284D02*
X073246Y026284D01*
X073379Y026442D02*
X065550Y026442D01*
X065391Y026601D02*
X073572Y026601D01*
X070673Y024857D02*
X070375Y024857D01*
X070515Y025016D02*
X070138Y025016D01*
X070533Y024699D02*
X070832Y024699D01*
X070990Y024540D02*
X070657Y024540D01*
X070748Y024382D02*
X071149Y024382D01*
X071307Y024223D02*
X070825Y024223D01*
X070867Y024065D02*
X071466Y024065D01*
X071624Y023906D02*
X070910Y023906D01*
X070916Y023748D02*
X071783Y023748D01*
X071941Y023589D02*
X070916Y023589D01*
X070903Y023431D02*
X072100Y023431D01*
X072258Y023272D02*
X070861Y023272D01*
X070818Y023114D02*
X072417Y023114D01*
X072575Y022955D02*
X070735Y022955D01*
X070643Y022797D02*
X072734Y022797D01*
X072892Y022638D02*
X070510Y022638D01*
X070351Y022480D02*
X073051Y022480D01*
X073209Y022321D02*
X070097Y022321D01*
X073131Y021687D02*
X064864Y021687D01*
X065180Y021846D02*
X073189Y021846D01*
X073255Y022004D02*
X065389Y022004D01*
X063798Y021687D02*
X059319Y021687D01*
X059477Y021846D02*
X063482Y021846D01*
X063272Y022004D02*
X059636Y022004D01*
X059794Y022163D02*
X063114Y022163D01*
X063002Y022321D02*
X059953Y022321D01*
X060111Y022480D02*
X062911Y022480D01*
X062840Y022638D02*
X060270Y022638D01*
X060428Y022797D02*
X062798Y022797D01*
X062756Y022955D02*
X060587Y022955D01*
X060745Y023114D02*
X062751Y023114D01*
X062751Y023272D02*
X060904Y023272D01*
X061062Y023431D02*
X062762Y023431D01*
X062805Y023589D02*
X061221Y023589D01*
X061379Y023748D02*
X062847Y023748D01*
X062926Y023906D02*
X061538Y023906D01*
X061696Y024065D02*
X063017Y024065D01*
X063140Y024223D02*
X061855Y024223D01*
X062013Y024382D02*
X063298Y024382D01*
X063527Y024540D02*
X062172Y024540D01*
X061686Y025016D02*
X056647Y025016D01*
X056806Y025174D02*
X061844Y025174D01*
X062003Y025333D02*
X056964Y025333D01*
X057123Y025491D02*
X062161Y025491D01*
X062320Y025650D02*
X057281Y025650D01*
X057440Y025808D02*
X062478Y025808D01*
X062637Y025967D02*
X061098Y025967D01*
X061024Y025892D02*
X061792Y026660D01*
X062194Y026660D01*
X062386Y026739D01*
X062532Y026885D01*
X062611Y027077D01*
X062611Y027283D01*
X062532Y027475D01*
X062386Y027621D01*
X062194Y027700D01*
X061468Y027700D01*
X061276Y027621D01*
X061130Y027475D01*
X061051Y027283D01*
X061051Y027077D01*
X061108Y026938D01*
X060690Y026520D01*
X057263Y026520D01*
X057138Y026468D01*
X057043Y026373D01*
X054870Y024200D01*
X054468Y024200D01*
X054276Y024121D01*
X054130Y023975D01*
X054051Y023783D01*
X054051Y023577D01*
X054130Y023385D01*
X054276Y023239D01*
X054468Y023160D01*
X055194Y023160D01*
X055386Y023239D01*
X055532Y023385D01*
X055611Y023577D01*
X055611Y023783D01*
X055554Y023922D01*
X057472Y025840D01*
X060899Y025840D01*
X061024Y025892D01*
X061257Y026125D02*
X062795Y026125D01*
X062954Y026284D02*
X061415Y026284D01*
X061574Y026442D02*
X063112Y026442D01*
X063271Y026601D02*
X061732Y026601D01*
X061831Y027180D02*
X060831Y026180D01*
X057331Y026180D01*
X054831Y023680D01*
X055418Y023272D02*
X058244Y023272D01*
X058276Y023239D02*
X058468Y023160D01*
X059194Y023160D01*
X059386Y023239D01*
X059532Y023385D01*
X059611Y023577D01*
X059611Y023783D01*
X059532Y023975D01*
X059386Y024121D01*
X059194Y024200D01*
X058468Y024200D01*
X058276Y024121D01*
X058130Y023975D01*
X058051Y023783D01*
X058051Y023577D01*
X058130Y023385D01*
X058276Y023239D01*
X058111Y023431D02*
X055550Y023431D01*
X055611Y023589D02*
X058051Y023589D01*
X058051Y023748D02*
X055611Y023748D01*
X055560Y023906D02*
X058102Y023906D01*
X058220Y024065D02*
X055696Y024065D01*
X055855Y024223D02*
X060893Y024223D01*
X060735Y024065D02*
X059442Y024065D01*
X059560Y023906D02*
X060576Y023906D01*
X060418Y023748D02*
X059611Y023748D01*
X059611Y023589D02*
X060259Y023589D01*
X060101Y023431D02*
X059550Y023431D01*
X059418Y023272D02*
X059942Y023272D01*
X059784Y023114D02*
X052295Y023114D01*
X052295Y023272D02*
X054244Y023272D01*
X054111Y023431D02*
X052234Y023431D01*
X052221Y023589D02*
X054051Y023589D01*
X054051Y023748D02*
X052379Y023748D01*
X052538Y023906D02*
X054102Y023906D01*
X054220Y024065D02*
X052696Y024065D01*
X052855Y024223D02*
X054893Y024223D01*
X055052Y024382D02*
X053013Y024382D01*
X053172Y024540D02*
X055210Y024540D01*
X055369Y024699D02*
X053330Y024699D01*
X053489Y024857D02*
X055527Y024857D01*
X055686Y025016D02*
X053647Y025016D01*
X053806Y025174D02*
X055844Y025174D01*
X056003Y025333D02*
X053964Y025333D01*
X054123Y025491D02*
X056161Y025491D01*
X056320Y025650D02*
X054281Y025650D01*
X054440Y025808D02*
X056478Y025808D01*
X056637Y025967D02*
X054598Y025967D01*
X054757Y026125D02*
X056795Y026125D01*
X056954Y026284D02*
X054915Y026284D01*
X055074Y026442D02*
X057112Y026442D01*
X057257Y026759D02*
X055723Y026759D01*
X055882Y026918D02*
X057117Y026918D01*
X057051Y027076D02*
X055906Y027076D01*
X055906Y027235D02*
X057051Y027235D01*
X057096Y027393D02*
X055906Y027393D01*
X055773Y027552D02*
X056979Y027552D01*
X056820Y027710D02*
X055614Y027710D01*
X055048Y027710D02*
X054342Y027710D01*
X054183Y027552D02*
X054889Y027552D01*
X054756Y027393D02*
X054025Y027393D01*
X053906Y027235D02*
X054756Y027235D01*
X054746Y027076D02*
X053906Y027076D01*
X053882Y026918D02*
X054588Y026918D01*
X054429Y026759D02*
X053723Y026759D01*
X054112Y026442D02*
X049074Y026442D01*
X049232Y026601D02*
X054271Y026601D01*
X053954Y026284D02*
X048915Y026284D01*
X048757Y026125D02*
X053795Y026125D01*
X053637Y025967D02*
X048598Y025967D01*
X048440Y025808D02*
X053478Y025808D01*
X053320Y025650D02*
X048281Y025650D01*
X048123Y025491D02*
X053161Y025491D01*
X053003Y025333D02*
X047964Y025333D01*
X047806Y025174D02*
X052844Y025174D01*
X052686Y025016D02*
X047647Y025016D01*
X047489Y024857D02*
X052527Y024857D01*
X052369Y024699D02*
X047330Y024699D01*
X047172Y024540D02*
X050520Y024540D01*
X050398Y024382D02*
X047013Y024382D01*
X046886Y024223D02*
X050351Y024223D01*
X050356Y024065D02*
X046884Y024065D01*
X046818Y023906D02*
X048076Y023906D01*
X047918Y023748D02*
X046683Y023748D01*
X046455Y023589D02*
X046360Y023589D01*
X047207Y023589D02*
X047759Y023589D01*
X047601Y023431D02*
X047328Y023431D01*
X047386Y023272D02*
X047442Y023272D01*
X047928Y022797D02*
X049559Y022797D01*
X049424Y022955D02*
X048087Y022955D01*
X048245Y023114D02*
X049367Y023114D01*
X049367Y023272D02*
X048404Y023272D01*
X048331Y023680D02*
X046831Y022180D01*
X043231Y022180D01*
X048731Y027680D01*
X049183Y027869D02*
X053539Y027869D01*
X053697Y028027D02*
X049077Y028027D01*
X049221Y027710D02*
X053048Y027710D01*
X052889Y027552D02*
X049208Y027552D01*
X049331Y027180D02*
X053331Y027180D01*
X054331Y028180D01*
X056831Y028180D01*
X057831Y027180D01*
X057782Y027710D02*
X063963Y027710D01*
X063804Y027552D02*
X062455Y027552D01*
X062566Y027393D02*
X063732Y027393D01*
X063696Y027235D02*
X062611Y027235D01*
X062611Y027076D02*
X063696Y027076D01*
X063588Y026918D02*
X062545Y026918D01*
X062405Y026759D02*
X063429Y026759D01*
X064966Y027076D02*
X065776Y027076D01*
X065776Y027235D02*
X064966Y027235D01*
X064930Y027393D02*
X065776Y027393D01*
X065918Y027552D02*
X064857Y027552D01*
X064699Y027710D02*
X066076Y027710D01*
X065809Y026918D02*
X065074Y026918D01*
X061207Y027552D02*
X058455Y027552D01*
X058566Y027393D02*
X061096Y027393D01*
X061051Y027235D02*
X058611Y027235D01*
X058611Y027076D02*
X061051Y027076D01*
X061088Y026918D02*
X058545Y026918D01*
X058405Y026759D02*
X060929Y026759D01*
X060771Y026601D02*
X055232Y026601D01*
X055331Y027180D02*
X051831Y023680D01*
X048331Y023680D01*
X050327Y023272D02*
X051335Y023272D01*
X051335Y023114D02*
X050327Y023114D01*
X050270Y022955D02*
X051392Y022955D01*
X051528Y022797D02*
X050134Y022797D01*
X052103Y022797D02*
X059467Y022797D01*
X059625Y022955D02*
X052238Y022955D01*
X051735Y024065D02*
X051306Y024065D01*
X051311Y024223D02*
X051893Y024223D01*
X052052Y024382D02*
X051264Y024382D01*
X051142Y024540D02*
X052210Y024540D01*
X056013Y024382D02*
X061052Y024382D01*
X061210Y024540D02*
X056172Y024540D01*
X056330Y024699D02*
X061369Y024699D01*
X061527Y024857D02*
X056489Y024857D01*
X052939Y026759D02*
X049391Y026759D01*
X049331Y027180D02*
X046331Y024180D01*
X045269Y024699D02*
X039793Y024699D01*
X039635Y024857D02*
X045427Y024857D01*
X045586Y025016D02*
X039476Y025016D01*
X039318Y025174D02*
X045744Y025174D01*
X045903Y025333D02*
X039159Y025333D01*
X039001Y025491D02*
X046061Y025491D01*
X046220Y025650D02*
X038842Y025650D01*
X038684Y025808D02*
X046378Y025808D01*
X046537Y025967D02*
X038525Y025967D01*
X038637Y026125D02*
X046695Y026125D01*
X046619Y026210D02*
X046689Y026260D01*
X046750Y026322D01*
X046801Y026392D01*
X046841Y026469D01*
X046867Y026551D01*
X046881Y026637D01*
X046881Y026642D01*
X046369Y026642D01*
X046369Y026718D01*
X046881Y026718D01*
X046881Y026723D01*
X046867Y026809D01*
X046841Y026891D01*
X046801Y026968D01*
X046750Y027038D01*
X046689Y027100D01*
X046619Y027150D01*
X046542Y027190D01*
X046460Y027216D01*
X046374Y027230D01*
X046369Y027230D01*
X046369Y026718D01*
X046293Y026718D01*
X046293Y027230D01*
X046288Y027230D01*
X046202Y027216D01*
X046120Y027190D01*
X046043Y027150D01*
X045973Y027100D01*
X045911Y027038D01*
X045861Y026968D01*
X045821Y026891D01*
X045795Y026809D01*
X045781Y026723D01*
X045781Y026718D01*
X046293Y026718D01*
X046293Y026642D01*
X046369Y026642D01*
X046369Y026130D01*
X046374Y026130D01*
X046460Y026144D01*
X046542Y026170D01*
X046619Y026210D01*
X046712Y026284D02*
X046854Y026284D01*
X046827Y026442D02*
X047012Y026442D01*
X046875Y026601D02*
X047171Y026601D01*
X047329Y026759D02*
X046875Y026759D01*
X046827Y026918D02*
X047488Y026918D01*
X047646Y027076D02*
X046713Y027076D01*
X046369Y027076D02*
X046293Y027076D01*
X046293Y026918D02*
X046369Y026918D01*
X046369Y026759D02*
X046293Y026759D01*
X046293Y026642D02*
X045781Y026642D01*
X045781Y026637D01*
X045795Y026551D01*
X045821Y026469D01*
X045861Y026392D01*
X045911Y026322D01*
X045973Y026260D01*
X046043Y026210D01*
X046120Y026170D01*
X046202Y026144D01*
X046288Y026130D01*
X046293Y026130D01*
X046293Y026642D01*
X046293Y026601D02*
X046369Y026601D01*
X046369Y026442D02*
X046293Y026442D01*
X046293Y026284D02*
X046369Y026284D01*
X045950Y026284D02*
X038825Y026284D01*
X038914Y026442D02*
X045835Y026442D01*
X045787Y026601D02*
X038961Y026601D01*
X038961Y026759D02*
X045787Y026759D01*
X045835Y026918D02*
X038914Y026918D01*
X038826Y027076D02*
X045949Y027076D01*
X047805Y027235D02*
X038638Y027235D01*
X038023Y027235D02*
X037257Y027235D01*
X037099Y027393D02*
X047963Y027393D01*
X048122Y027552D02*
X036940Y027552D01*
X036782Y027710D02*
X048241Y027710D01*
X048279Y027869D02*
X036623Y027869D01*
X036465Y028027D02*
X048385Y028027D01*
X053856Y028186D02*
X036306Y028186D01*
X036148Y028344D02*
X054014Y028344D01*
X054221Y028503D02*
X035941Y028503D01*
X035831Y028180D02*
X016831Y028180D01*
X018331Y026680D01*
X017331Y026180D02*
X016331Y025180D01*
X013831Y025180D01*
X012831Y026180D01*
X012418Y025808D02*
X012376Y025808D01*
X012386Y025833D02*
X012386Y025840D01*
X012517Y025709D01*
X012721Y025625D01*
X012905Y025625D01*
X013543Y024987D01*
X013638Y024892D01*
X013763Y024840D01*
X016399Y024840D01*
X016524Y024892D01*
X016841Y025209D01*
X016841Y025083D01*
X016916Y024902D01*
X017053Y024765D01*
X017234Y024690D01*
X017428Y024690D01*
X017609Y024765D01*
X017746Y024902D01*
X017821Y025083D01*
X017821Y025189D01*
X017972Y025340D01*
X027399Y025340D01*
X027524Y025392D01*
X028189Y026057D01*
X028206Y026050D01*
X028456Y026050D01*
X028688Y026146D01*
X028865Y026323D01*
X028961Y026555D01*
X028961Y026569D01*
X029043Y026487D01*
X029138Y026392D01*
X029263Y026340D01*
X035790Y026340D01*
X035797Y026323D01*
X035974Y026146D01*
X036206Y026050D01*
X036456Y026050D01*
X036688Y026146D01*
X036865Y026323D01*
X036961Y026555D01*
X036961Y026569D01*
X041638Y021892D01*
X041763Y021840D01*
X045510Y021840D01*
X044473Y020803D01*
X044456Y020810D01*
X044206Y020810D01*
X043974Y020714D01*
X043797Y020537D01*
X043755Y020436D01*
X043746Y020458D01*
X043609Y020595D01*
X043428Y020670D01*
X043234Y020670D01*
X043053Y020595D01*
X042978Y020520D01*
X042872Y020520D01*
X042865Y020537D01*
X042688Y020714D01*
X042456Y020810D01*
X042206Y020810D01*
X041974Y020714D01*
X041797Y020537D01*
X041790Y020520D01*
X035472Y020520D01*
X034619Y021373D01*
X034524Y021468D01*
X034399Y021520D01*
X026763Y021520D01*
X026638Y021468D01*
X025870Y020700D01*
X025616Y020700D01*
X025311Y020395D01*
X025311Y019965D01*
X025616Y019660D01*
X026046Y019660D01*
X026331Y019945D01*
X026616Y019660D01*
X026870Y019660D01*
X027043Y019487D01*
X027138Y019392D01*
X027263Y019340D01*
X031386Y019340D01*
X031491Y019235D01*
X030984Y019235D01*
X030889Y019195D01*
X030816Y019122D01*
X030776Y019027D01*
X030776Y018606D01*
X030190Y018020D01*
X021763Y018020D01*
X021638Y017968D01*
X016405Y012735D01*
X016221Y012735D01*
X016017Y012651D01*
X015886Y012520D01*
X015886Y012527D01*
X015846Y012622D01*
X015844Y012625D01*
X015941Y012625D01*
X016145Y012709D01*
X016301Y012866D01*
X016386Y013070D01*
X016386Y013290D01*
X016301Y013494D01*
X016145Y013651D01*
X015941Y013735D01*
X015721Y013735D01*
X015517Y013651D01*
X015360Y013494D01*
X015276Y013290D01*
X015276Y013070D01*
X015360Y012866D01*
X015491Y012735D01*
X014984Y012735D01*
X014889Y012695D01*
X014816Y012622D01*
X014776Y012527D01*
X014776Y011833D01*
X014816Y011738D01*
X014889Y011665D01*
X014984Y011625D01*
X015295Y011625D01*
X015190Y011520D01*
X012972Y011520D01*
X011886Y012606D01*
X011886Y012790D01*
X011801Y012994D01*
X011645Y013151D01*
X011441Y013235D01*
X011221Y013235D01*
X011017Y013151D01*
X010886Y013020D01*
X010886Y013027D01*
X010846Y013122D01*
X010844Y013125D01*
X010941Y013125D01*
X011145Y013209D01*
X011301Y013366D01*
X011386Y013570D01*
X011386Y013754D01*
X011972Y014340D01*
X016399Y014340D01*
X016524Y014392D01*
X017227Y015095D01*
X017432Y015095D01*
X017647Y015184D01*
X017811Y015349D01*
X017900Y015564D01*
X017900Y015796D01*
X017811Y016011D01*
X017647Y016176D01*
X017432Y016265D01*
X017397Y016265D01*
X022189Y021057D01*
X022206Y021050D01*
X022456Y021050D01*
X022688Y021146D01*
X022865Y021323D01*
X022961Y021555D01*
X022961Y021805D01*
X022865Y022037D01*
X022688Y022214D01*
X022456Y022310D01*
X022206Y022310D01*
X021974Y022214D01*
X021797Y022037D01*
X021701Y021805D01*
X021701Y021555D01*
X021708Y021538D01*
X015852Y015682D01*
X015852Y015720D01*
X015839Y015798D01*
X015815Y015874D01*
X015779Y015945D01*
X015732Y016009D01*
X015676Y016065D01*
X015611Y016112D01*
X015541Y016148D01*
X015465Y016173D01*
X015386Y016185D01*
X015347Y016185D01*
X015347Y015680D01*
X015347Y015680D01*
X015347Y016185D01*
X015307Y016185D01*
X015228Y016173D01*
X015153Y016148D01*
X015082Y016112D01*
X015018Y016065D01*
X014962Y016009D01*
X014915Y015945D01*
X014879Y015874D01*
X014854Y015798D01*
X014842Y015720D01*
X014842Y015680D01*
X014842Y015640D01*
X014854Y015562D01*
X014879Y015486D01*
X014915Y015415D01*
X014962Y015351D01*
X015018Y015295D01*
X015082Y015248D01*
X015153Y015212D01*
X015228Y015187D01*
X015307Y015175D01*
X015345Y015175D01*
X015190Y015020D01*
X011763Y015020D01*
X011638Y014968D01*
X011543Y014873D01*
X010905Y014235D01*
X010721Y014235D01*
X010517Y014151D01*
X010360Y013994D01*
X010276Y013790D01*
X010276Y013570D01*
X010360Y013366D01*
X010491Y013235D01*
X009984Y013235D01*
X009889Y013195D01*
X009816Y013122D01*
X009776Y013027D01*
X009776Y012333D01*
X009816Y012238D01*
X009889Y012165D01*
X009984Y012125D01*
X010405Y012125D01*
X011870Y010660D01*
X009448Y010660D01*
X009448Y015730D01*
X009451Y015735D01*
X009463Y015758D01*
X009473Y015781D01*
X009480Y015806D01*
X009485Y015831D01*
X009488Y015856D01*
X009488Y021734D01*
X009485Y021759D01*
X009480Y021785D01*
X009473Y021809D01*
X009463Y021833D01*
X009451Y021855D01*
X009448Y021860D01*
X009448Y026964D01*
X009449Y026964D01*
X009462Y026977D01*
X009478Y026986D01*
X009502Y027017D01*
X009530Y027045D01*
X009537Y027061D01*
X009548Y027075D01*
X009558Y027113D01*
X009573Y027150D01*
X009573Y027168D01*
X009578Y027185D01*
X009573Y027224D01*
X009573Y027263D01*
X009566Y027280D01*
X009485Y027944D01*
X010491Y027944D01*
X010491Y027112D01*
X010543Y026987D01*
X010638Y026892D01*
X011276Y026254D01*
X011276Y025833D01*
X011316Y025738D01*
X011389Y025665D01*
X011484Y025625D01*
X012178Y025625D01*
X012273Y025665D01*
X012346Y025738D01*
X012386Y025833D01*
X012237Y025650D02*
X012661Y025650D01*
X013039Y025491D02*
X009448Y025491D01*
X009448Y025333D02*
X013198Y025333D01*
X013356Y025174D02*
X009448Y025174D01*
X009448Y025016D02*
X013515Y025016D01*
X013722Y024857D02*
X009448Y024857D01*
X009448Y024699D02*
X017213Y024699D01*
X017449Y024699D02*
X038832Y024699D01*
X038673Y024857D02*
X017701Y024857D01*
X017793Y025016D02*
X038515Y025016D01*
X038356Y025174D02*
X017821Y025174D01*
X017964Y025333D02*
X038198Y025333D01*
X038039Y025491D02*
X027623Y025491D01*
X027781Y025650D02*
X037881Y025650D01*
X037722Y025808D02*
X027940Y025808D01*
X028098Y025967D02*
X037564Y025967D01*
X037405Y026125D02*
X036637Y026125D01*
X036825Y026284D02*
X037247Y026284D01*
X037088Y026442D02*
X036914Y026442D01*
X036331Y026680D02*
X029331Y026680D01*
X028331Y027680D01*
X027831Y027680D01*
X026831Y026680D01*
X026331Y026680D01*
X027331Y025680D02*
X028331Y026680D01*
X028914Y026442D02*
X029088Y026442D01*
X029043Y026487D02*
X029043Y026487D01*
X028825Y026284D02*
X035836Y026284D01*
X036024Y026125D02*
X028637Y026125D01*
X027331Y025680D02*
X017831Y025680D01*
X017331Y025180D01*
X016841Y025174D02*
X016806Y025174D01*
X016869Y025016D02*
X016647Y025016D01*
X016440Y024857D02*
X016961Y024857D01*
X014542Y023690D02*
X014460Y023716D01*
X014374Y023730D01*
X014369Y023730D01*
X014369Y023218D01*
X014881Y023218D01*
X014881Y023223D01*
X014867Y023309D01*
X014841Y023391D01*
X014801Y023468D01*
X014750Y023538D01*
X014689Y023600D01*
X014619Y023650D01*
X014542Y023690D01*
X014700Y023589D02*
X021849Y023589D01*
X021797Y023537D02*
X021701Y023305D01*
X021701Y023055D01*
X021708Y023038D01*
X021190Y022520D01*
X013565Y022520D01*
X013261Y022581D01*
X013186Y022761D01*
X013022Y022926D01*
X012807Y023015D01*
X012574Y023015D01*
X012359Y022926D01*
X012194Y022761D01*
X012105Y022546D01*
X012105Y022314D01*
X012194Y022099D01*
X012359Y021934D01*
X012574Y021845D01*
X012807Y021845D01*
X013022Y021934D01*
X013023Y021935D01*
X013062Y021927D01*
X013100Y021913D01*
X013128Y021914D01*
X013432Y021853D01*
X013463Y021840D01*
X013497Y021840D01*
X013531Y021833D01*
X013564Y021840D01*
X021399Y021840D01*
X021524Y021892D01*
X022189Y022557D01*
X022206Y022550D01*
X022456Y022550D01*
X022688Y022646D01*
X022865Y022823D01*
X022961Y023055D01*
X022961Y023305D01*
X022954Y023322D01*
X023472Y023840D01*
X030690Y023840D01*
X031208Y023322D01*
X031201Y023305D01*
X031201Y023055D01*
X031297Y022823D01*
X031474Y022646D01*
X031706Y022550D01*
X031956Y022550D01*
X032188Y022646D01*
X032365Y022823D01*
X032461Y023055D01*
X032461Y023305D01*
X032365Y023537D01*
X032188Y023714D01*
X031956Y023810D01*
X031706Y023810D01*
X031689Y023803D01*
X031119Y024373D01*
X031024Y024468D01*
X030899Y024520D01*
X023263Y024520D01*
X023138Y024468D01*
X022473Y023803D01*
X022456Y023810D01*
X022206Y023810D01*
X021974Y023714D01*
X021797Y023537D01*
X021753Y023431D02*
X014821Y023431D01*
X014873Y023272D02*
X021701Y023272D01*
X021701Y023114D02*
X014877Y023114D01*
X014881Y023137D02*
X014881Y023142D01*
X014369Y023142D01*
X014369Y023218D01*
X014293Y023218D01*
X014293Y023730D01*
X014288Y023730D01*
X014202Y023716D01*
X014120Y023690D01*
X014043Y023650D01*
X013973Y023600D01*
X013911Y023538D01*
X013861Y023468D01*
X013821Y023391D01*
X013795Y023309D01*
X013781Y023223D01*
X013781Y023218D01*
X014293Y023218D01*
X014293Y023142D01*
X014369Y023142D01*
X014369Y022630D01*
X014374Y022630D01*
X014460Y022644D01*
X014542Y022670D01*
X014619Y022710D01*
X014689Y022760D01*
X014750Y022822D01*
X014801Y022892D01*
X014841Y022969D01*
X014867Y023051D01*
X014881Y023137D01*
X014834Y022955D02*
X021625Y022955D01*
X021467Y022797D02*
X014725Y022797D01*
X014425Y022638D02*
X021308Y022638D01*
X021331Y022180D02*
X022331Y023180D01*
X023331Y024180D01*
X030831Y024180D01*
X031831Y023180D01*
X032409Y023431D02*
X033253Y023431D01*
X033297Y023537D02*
X033201Y023305D01*
X033201Y023055D01*
X033297Y022823D01*
X033474Y022646D01*
X033706Y022550D01*
X033956Y022550D01*
X034188Y022646D01*
X034365Y022823D01*
X034461Y023055D01*
X034461Y023305D01*
X034365Y023537D01*
X034188Y023714D01*
X033956Y023810D01*
X033706Y023810D01*
X033474Y023714D01*
X033297Y023537D01*
X033349Y023589D02*
X032313Y023589D01*
X032107Y023748D02*
X033555Y023748D01*
X034107Y023748D02*
X039783Y023748D01*
X039624Y023906D02*
X031586Y023906D01*
X031427Y024065D02*
X039466Y024065D01*
X039307Y024223D02*
X031269Y024223D01*
X031110Y024382D02*
X039149Y024382D01*
X038990Y024540D02*
X009448Y024540D01*
X009448Y024382D02*
X023052Y024382D01*
X022893Y024223D02*
X009448Y024223D01*
X009448Y024065D02*
X022735Y024065D01*
X022576Y023906D02*
X009448Y023906D01*
X009448Y023748D02*
X022055Y023748D01*
X023062Y023431D02*
X023253Y023431D01*
X023297Y023537D02*
X023201Y023305D01*
X023201Y023055D01*
X023297Y022823D01*
X023474Y022646D01*
X023706Y022550D01*
X023956Y022550D01*
X024188Y022646D01*
X024365Y022823D01*
X024461Y023055D01*
X024461Y023305D01*
X024365Y023537D01*
X024188Y023714D01*
X023956Y023810D01*
X023706Y023810D01*
X023474Y023714D01*
X023297Y023537D01*
X023349Y023589D02*
X023221Y023589D01*
X023379Y023748D02*
X023555Y023748D01*
X024107Y023748D02*
X030783Y023748D01*
X030941Y023589D02*
X024313Y023589D01*
X024409Y023431D02*
X031100Y023431D01*
X031201Y023272D02*
X024461Y023272D01*
X024461Y023114D02*
X031201Y023114D01*
X031242Y022955D02*
X024420Y022955D01*
X024338Y022797D02*
X031323Y022797D01*
X031493Y022638D02*
X024169Y022638D01*
X023493Y022638D02*
X022669Y022638D01*
X022838Y022797D02*
X023323Y022797D01*
X023242Y022955D02*
X022920Y022955D01*
X022961Y023114D02*
X023201Y023114D01*
X023201Y023272D02*
X022961Y023272D01*
X022111Y022480D02*
X041051Y022480D01*
X040892Y022638D02*
X034169Y022638D01*
X034338Y022797D02*
X040734Y022797D01*
X040575Y022955D02*
X034420Y022955D01*
X034461Y023114D02*
X040417Y023114D01*
X040258Y023272D02*
X034461Y023272D01*
X034409Y023431D02*
X040100Y023431D01*
X039941Y023589D02*
X034313Y023589D01*
X033201Y023272D02*
X032461Y023272D01*
X032461Y023114D02*
X033201Y023114D01*
X033242Y022955D02*
X032420Y022955D01*
X032338Y022797D02*
X033323Y022797D01*
X033493Y022638D02*
X032169Y022638D01*
X034622Y021370D02*
X045040Y021370D01*
X044882Y021212D02*
X034780Y021212D01*
X034939Y021053D02*
X044723Y021053D01*
X044565Y020895D02*
X035097Y020895D01*
X035256Y020736D02*
X042027Y020736D01*
X041838Y020578D02*
X035414Y020578D01*
X035331Y020180D02*
X034331Y021180D01*
X026831Y021180D01*
X025831Y020180D01*
X026171Y019785D02*
X026491Y019785D01*
X026332Y019944D02*
X026330Y019944D01*
X026831Y020180D02*
X027331Y019680D01*
X031831Y019680D01*
X031417Y019310D02*
X020441Y019310D01*
X020600Y019468D02*
X027062Y019468D01*
X026904Y019627D02*
X020758Y019627D01*
X020917Y019785D02*
X025491Y019785D01*
X025332Y019944D02*
X021075Y019944D01*
X021234Y020102D02*
X025311Y020102D01*
X025311Y020261D02*
X021392Y020261D01*
X021551Y020419D02*
X025335Y020419D01*
X025493Y020578D02*
X021709Y020578D01*
X021868Y020736D02*
X025906Y020736D01*
X026065Y020895D02*
X022026Y020895D01*
X022185Y021053D02*
X022198Y021053D01*
X022464Y021053D02*
X026223Y021053D01*
X026382Y021212D02*
X022753Y021212D01*
X022884Y021370D02*
X026540Y021370D01*
X022961Y021687D02*
X045357Y021687D01*
X045199Y021529D02*
X022950Y021529D01*
X022944Y021846D02*
X041750Y021846D01*
X041526Y022004D02*
X022879Y022004D01*
X022739Y022163D02*
X041368Y022163D01*
X041209Y022321D02*
X021953Y022321D01*
X021923Y022163D02*
X021794Y022163D01*
X021783Y022004D02*
X021636Y022004D01*
X021718Y021846D02*
X021412Y021846D01*
X021701Y021687D02*
X011510Y021687D01*
X011512Y021682D02*
X011491Y021721D01*
X011476Y021763D01*
X011459Y021780D01*
X011248Y022171D01*
X011307Y022314D01*
X011307Y022546D01*
X011218Y022761D01*
X011053Y022926D01*
X010838Y023015D01*
X010605Y023015D01*
X010390Y022926D01*
X010226Y022761D01*
X010137Y022546D01*
X010137Y022314D01*
X010226Y022099D01*
X010390Y021934D01*
X010605Y021845D01*
X010651Y021845D01*
X010871Y021439D01*
X010991Y021118D01*
X010991Y021112D01*
X011015Y021055D01*
X011036Y020997D01*
X011040Y020993D01*
X011043Y020987D01*
X011086Y020944D01*
X011129Y020898D01*
X011134Y020896D01*
X011138Y020892D01*
X011196Y020868D01*
X011252Y020842D01*
X011258Y020842D01*
X011263Y020840D01*
X011325Y020840D01*
X011387Y020838D01*
X011393Y020840D01*
X011529Y020840D01*
X011527Y020834D01*
X010835Y019695D01*
X010784Y019695D01*
X010549Y019598D01*
X010369Y019418D01*
X010271Y019182D01*
X010271Y018928D01*
X010369Y018692D01*
X010549Y018512D01*
X010784Y018415D01*
X011038Y018415D01*
X011274Y018512D01*
X011330Y018568D01*
X011450Y018448D01*
X011714Y018339D01*
X011998Y018339D01*
X012200Y018422D01*
X012200Y018199D01*
X012298Y017964D01*
X012478Y017784D01*
X012713Y017687D01*
X012968Y017687D01*
X013203Y017784D01*
X013383Y017964D01*
X013480Y018199D01*
X013480Y018423D01*
X013500Y018415D01*
X013755Y018415D01*
X013990Y018512D01*
X014170Y018692D01*
X014268Y018928D01*
X014268Y019182D01*
X014170Y019418D01*
X013990Y019598D01*
X013755Y019695D01*
X013500Y019695D01*
X013480Y019687D01*
X013480Y019911D01*
X013383Y020146D01*
X013203Y020326D01*
X013169Y020340D01*
X014276Y020340D01*
X014521Y020258D01*
X014521Y020198D01*
X014789Y019930D01*
X014521Y019662D01*
X014521Y019198D01*
X014789Y018930D01*
X014521Y018662D01*
X014521Y018198D01*
X014849Y017870D01*
X015313Y017870D01*
X015638Y018195D01*
X015882Y017950D01*
X016061Y017950D01*
X016061Y018410D01*
X016101Y018410D01*
X016101Y018450D01*
X016561Y018450D01*
X016561Y018629D01*
X016316Y018873D01*
X016641Y019198D01*
X016641Y019662D01*
X016373Y019930D01*
X016641Y020198D01*
X016641Y020662D01*
X016313Y020990D01*
X016002Y020990D01*
X015524Y021468D01*
X015399Y021520D01*
X011567Y021520D01*
X011515Y021658D01*
X011512Y021682D01*
X011563Y021529D02*
X021699Y021529D01*
X021540Y021370D02*
X015622Y021370D01*
X015780Y021212D02*
X021382Y021212D01*
X021223Y021053D02*
X015939Y021053D01*
X016408Y020895D02*
X021065Y020895D01*
X020906Y020736D02*
X016567Y020736D01*
X016641Y020578D02*
X020748Y020578D01*
X020589Y020419D02*
X016641Y020419D01*
X016641Y020261D02*
X020431Y020261D01*
X020272Y020102D02*
X016545Y020102D01*
X016386Y019944D02*
X020114Y019944D01*
X019955Y019785D02*
X016518Y019785D01*
X016641Y019627D02*
X019797Y019627D01*
X019638Y019468D02*
X016641Y019468D01*
X016641Y019310D02*
X019480Y019310D01*
X019321Y019151D02*
X016594Y019151D01*
X016435Y018993D02*
X019163Y018993D01*
X019004Y018834D02*
X016356Y018834D01*
X016514Y018676D02*
X018846Y018676D01*
X018687Y018517D02*
X016561Y018517D01*
X016561Y018410D02*
X016101Y018410D01*
X016101Y017950D01*
X016280Y017950D01*
X016561Y018231D01*
X016561Y018410D01*
X016561Y018359D02*
X018529Y018359D01*
X018370Y018200D02*
X016530Y018200D01*
X016371Y018042D02*
X018212Y018042D01*
X018053Y017883D02*
X015326Y017883D01*
X015484Y018042D02*
X015791Y018042D01*
X016061Y018042D02*
X016101Y018042D01*
X016101Y018200D02*
X016061Y018200D01*
X016061Y018359D02*
X016101Y018359D01*
X014836Y017883D02*
X013302Y017883D01*
X013415Y018042D02*
X014677Y018042D01*
X014521Y018200D02*
X013480Y018200D01*
X013480Y018359D02*
X014521Y018359D01*
X014521Y018517D02*
X013995Y018517D01*
X014153Y018676D02*
X014535Y018676D01*
X014693Y018834D02*
X014229Y018834D01*
X014268Y018993D02*
X014726Y018993D01*
X014568Y019151D02*
X014268Y019151D01*
X014215Y019310D02*
X014521Y019310D01*
X014521Y019468D02*
X014120Y019468D01*
X013920Y019627D02*
X014521Y019627D01*
X014644Y019785D02*
X013480Y019785D01*
X013467Y019944D02*
X014775Y019944D01*
X014617Y020102D02*
X013401Y020102D01*
X013268Y020261D02*
X014514Y020261D01*
X014331Y020680D02*
X015081Y020430D01*
X015331Y021180D02*
X016081Y020430D01*
X015331Y021180D02*
X011331Y021180D01*
X011181Y021580D01*
X010722Y022430D01*
X011269Y022638D02*
X012143Y022638D01*
X012105Y022480D02*
X011307Y022480D01*
X011307Y022321D02*
X012105Y022321D01*
X012168Y022163D02*
X011253Y022163D01*
X011338Y022004D02*
X012289Y022004D01*
X012573Y021846D02*
X011424Y021846D01*
X010822Y021529D02*
X009488Y021529D01*
X009488Y021687D02*
X010737Y021687D01*
X010604Y021846D02*
X009456Y021846D01*
X009448Y022004D02*
X010320Y022004D01*
X010199Y022163D02*
X009448Y022163D01*
X009448Y022321D02*
X010137Y022321D01*
X010137Y022480D02*
X009448Y022480D01*
X009448Y022638D02*
X010175Y022638D01*
X010261Y022797D02*
X009448Y022797D01*
X009448Y022955D02*
X010461Y022955D01*
X010983Y022955D02*
X012429Y022955D01*
X012229Y022797D02*
X011182Y022797D01*
X012690Y022430D02*
X013156Y022255D01*
X013531Y022180D01*
X021331Y022180D01*
X022331Y021680D02*
X015331Y014680D01*
X011831Y014680D01*
X010831Y013680D01*
X011222Y013287D02*
X015276Y013287D01*
X015276Y013128D02*
X011668Y013128D01*
X011812Y012970D02*
X015317Y012970D01*
X015415Y012811D02*
X011877Y012811D01*
X011886Y012653D02*
X014846Y012653D01*
X014776Y012494D02*
X011998Y012494D01*
X012156Y012336D02*
X014776Y012336D01*
X014776Y012177D02*
X012315Y012177D01*
X012473Y012019D02*
X014776Y012019D01*
X014776Y011860D02*
X012632Y011860D01*
X012790Y011702D02*
X014852Y011702D01*
X015213Y011543D02*
X012949Y011543D01*
X012831Y011180D02*
X015331Y011180D01*
X016331Y012180D01*
X021831Y017680D01*
X030331Y017680D01*
X031331Y018680D01*
X030776Y018676D02*
X019807Y018676D01*
X019966Y018834D02*
X030776Y018834D01*
X030776Y018993D02*
X020124Y018993D01*
X020283Y019151D02*
X030844Y019151D01*
X030687Y018517D02*
X019649Y018517D01*
X019490Y018359D02*
X030529Y018359D01*
X030370Y018200D02*
X019332Y018200D01*
X019173Y018042D02*
X030212Y018042D01*
X030698Y017566D02*
X031736Y017566D01*
X031578Y017408D02*
X030539Y017408D01*
X030856Y017725D02*
X031895Y017725D01*
X032053Y017883D02*
X031015Y017883D01*
X031173Y018042D02*
X032212Y018042D01*
X032039Y018200D02*
X031809Y018200D01*
X032831Y018180D02*
X031331Y016680D01*
X026831Y016680D01*
X027184Y016298D02*
X040718Y016298D01*
X040781Y016140D02*
X032656Y016140D01*
X032702Y016394D02*
X032788Y016380D01*
X032793Y016380D01*
X032793Y016892D01*
X032869Y016892D01*
X032869Y016968D01*
X033381Y016968D01*
X033381Y016973D01*
X033367Y017059D01*
X033341Y017141D01*
X033301Y017218D01*
X033250Y017288D01*
X033189Y017350D01*
X033119Y017400D01*
X033042Y017440D01*
X032960Y017466D01*
X032874Y017480D01*
X032869Y017480D01*
X032869Y016968D01*
X032793Y016968D01*
X032793Y016892D01*
X032281Y016892D01*
X032281Y016887D01*
X032295Y016801D01*
X032321Y016719D01*
X032361Y016642D01*
X032411Y016572D01*
X032473Y016510D01*
X032543Y016460D01*
X032620Y016420D01*
X032702Y016394D01*
X032793Y016457D02*
X032869Y016457D01*
X032869Y016380D02*
X032874Y016380D01*
X032960Y016394D01*
X033042Y016420D01*
X033119Y016460D01*
X033189Y016510D01*
X033250Y016572D01*
X033301Y016642D01*
X033341Y016719D01*
X033367Y016801D01*
X033381Y016887D01*
X033381Y016892D01*
X032869Y016892D01*
X032869Y016380D01*
X032869Y016615D02*
X032793Y016615D01*
X032793Y016774D02*
X032869Y016774D01*
X032869Y016932D02*
X040201Y016932D01*
X040214Y016774D02*
X033358Y016774D01*
X033282Y016615D02*
X040280Y016615D01*
X040413Y016457D02*
X033113Y016457D01*
X032549Y016457D02*
X031588Y016457D01*
X031747Y016615D02*
X032380Y016615D01*
X032304Y016774D02*
X031905Y016774D01*
X032064Y016932D02*
X032793Y016932D01*
X032793Y017091D02*
X032869Y017091D01*
X032869Y017249D02*
X032793Y017249D01*
X032793Y017408D02*
X032869Y017408D01*
X032698Y017566D02*
X055736Y017566D01*
X055578Y017408D02*
X041244Y017408D01*
X041381Y017249D02*
X046087Y017249D01*
X046093Y017255D02*
X045756Y016918D01*
X045756Y016442D01*
X046093Y016105D01*
X046569Y016105D01*
X046906Y016442D01*
X046906Y016918D01*
X046569Y017255D01*
X046093Y017255D01*
X045928Y017091D02*
X041446Y017091D01*
X041461Y016932D02*
X045770Y016932D01*
X045756Y016774D02*
X041448Y016774D01*
X041382Y016615D02*
X045756Y016615D01*
X045756Y016457D02*
X041387Y016457D01*
X041450Y016298D02*
X045900Y016298D01*
X046058Y016140D02*
X041513Y016140D01*
X041577Y015981D02*
X048549Y015981D01*
X048708Y015823D02*
X041640Y015823D01*
X041671Y015664D02*
X062701Y015664D01*
X062721Y015506D02*
X041627Y015506D01*
X041416Y015347D02*
X062787Y015347D01*
X058331Y016980D02*
X057431Y016080D01*
X055261Y017091D02*
X052916Y017091D01*
X055419Y017249D02*
X048575Y017249D01*
X048087Y017249D02*
X046575Y017249D01*
X046734Y017091D02*
X047928Y017091D01*
X047770Y016932D02*
X046892Y016932D01*
X046906Y016774D02*
X047756Y016774D01*
X047756Y016615D02*
X046906Y016615D01*
X046906Y016457D02*
X047756Y016457D01*
X047900Y016298D02*
X046762Y016298D01*
X046604Y016140D02*
X048058Y016140D01*
X044831Y015930D02*
X042831Y015930D01*
X042581Y016930D01*
X040831Y016930D02*
X041331Y015680D01*
X032331Y015680D01*
X026831Y015680D01*
X025831Y016680D01*
X025478Y016298D02*
X020930Y016298D01*
X021088Y016457D02*
X025319Y016457D01*
X025311Y016615D02*
X021247Y016615D01*
X021405Y016774D02*
X025311Y016774D01*
X025348Y016932D02*
X021564Y016932D01*
X021722Y017091D02*
X025506Y017091D01*
X026156Y017091D02*
X026506Y017091D01*
X026348Y016932D02*
X026314Y016932D01*
X027156Y017091D02*
X031261Y017091D01*
X031419Y017249D02*
X021881Y017249D01*
X021395Y017725D02*
X018856Y017725D01*
X019015Y017883D02*
X021553Y017883D01*
X021236Y017566D02*
X018698Y017566D01*
X018539Y017408D02*
X021078Y017408D01*
X020919Y017249D02*
X018381Y017249D01*
X018222Y017091D02*
X020761Y017091D01*
X020602Y016932D02*
X018064Y016932D01*
X017905Y016774D02*
X020444Y016774D01*
X020285Y016615D02*
X017747Y016615D01*
X017588Y016457D02*
X020127Y016457D01*
X019968Y016298D02*
X017430Y016298D01*
X017683Y016140D02*
X019810Y016140D01*
X019651Y015981D02*
X017824Y015981D01*
X017889Y015823D02*
X019493Y015823D01*
X019334Y015664D02*
X017900Y015664D01*
X017876Y015506D02*
X019176Y015506D01*
X019017Y015347D02*
X017810Y015347D01*
X017651Y015189D02*
X018859Y015189D01*
X018700Y015030D02*
X017162Y015030D01*
X017003Y014872D02*
X018542Y014872D01*
X018383Y014713D02*
X016845Y014713D01*
X016686Y014555D02*
X018225Y014555D01*
X018066Y014396D02*
X016528Y014396D01*
X016331Y014680D02*
X015331Y014680D01*
X015200Y015030D02*
X009448Y015030D01*
X009448Y014872D02*
X011542Y014872D01*
X011383Y014713D02*
X009448Y014713D01*
X009448Y014555D02*
X011225Y014555D01*
X011066Y014396D02*
X009448Y014396D01*
X009448Y014238D02*
X010908Y014238D01*
X010445Y014079D02*
X009448Y014079D01*
X009448Y013921D02*
X010330Y013921D01*
X010276Y013762D02*
X009448Y013762D01*
X009448Y013604D02*
X010276Y013604D01*
X010328Y013445D02*
X009448Y013445D01*
X009448Y013287D02*
X010440Y013287D01*
X010949Y013128D02*
X010994Y013128D01*
X011334Y013445D02*
X015340Y013445D01*
X015470Y013604D02*
X011386Y013604D01*
X011394Y013762D02*
X017432Y013762D01*
X017274Y013604D02*
X016192Y013604D01*
X016322Y013445D02*
X017115Y013445D01*
X016957Y013287D02*
X016386Y013287D01*
X016386Y013128D02*
X016798Y013128D01*
X016640Y012970D02*
X016345Y012970D01*
X016247Y012811D02*
X016481Y012811D01*
X016021Y012653D02*
X016008Y012653D01*
X016886Y012177D02*
X018437Y012177D01*
X018474Y012214D02*
X018297Y012037D01*
X018201Y011805D01*
X018201Y011555D01*
X018297Y011323D01*
X018474Y011146D01*
X018706Y011050D01*
X018956Y011050D01*
X019188Y011146D01*
X019365Y011323D01*
X019461Y011555D01*
X019461Y011805D01*
X019365Y012037D01*
X019188Y012214D01*
X018956Y012310D01*
X018706Y012310D01*
X018474Y012214D01*
X018289Y012019D02*
X016865Y012019D01*
X016796Y011860D02*
X018224Y011860D01*
X018201Y011702D02*
X016626Y011702D01*
X016175Y011543D02*
X018206Y011543D01*
X018271Y011385D02*
X016016Y011385D01*
X015858Y011226D02*
X018394Y011226D01*
X018663Y011068D02*
X015699Y011068D01*
X018999Y011068D02*
X025738Y011068D01*
X025896Y011226D02*
X019268Y011226D01*
X019390Y011385D02*
X026055Y011385D01*
X026206Y011543D02*
X019456Y011543D01*
X019461Y011702D02*
X026201Y011702D01*
X026224Y011860D02*
X019438Y011860D01*
X019373Y012019D02*
X026289Y012019D01*
X026437Y012177D02*
X019225Y012177D01*
X017601Y012970D02*
X027640Y012970D01*
X027798Y013128D02*
X017760Y013128D01*
X017918Y013287D02*
X021947Y013287D01*
X021973Y013260D02*
X022043Y013210D01*
X022120Y013170D01*
X022202Y013144D01*
X022288Y013130D01*
X022293Y013130D01*
X022293Y013642D01*
X021781Y013642D01*
X021781Y013637D01*
X021795Y013551D01*
X021821Y013469D01*
X021861Y013392D01*
X021911Y013322D01*
X021973Y013260D01*
X021833Y013445D02*
X018077Y013445D01*
X018235Y013604D02*
X021786Y013604D01*
X021787Y013762D02*
X018394Y013762D01*
X018552Y013921D02*
X021836Y013921D01*
X021952Y014079D02*
X018711Y014079D01*
X018869Y014238D02*
X031316Y014238D01*
X031276Y014396D02*
X019028Y014396D01*
X019186Y014555D02*
X031276Y014555D01*
X031276Y014713D02*
X019345Y014713D01*
X019503Y014872D02*
X031276Y014872D01*
X031277Y015030D02*
X019662Y015030D01*
X019820Y015189D02*
X031382Y015189D01*
X032385Y015030D02*
X032396Y015030D01*
X032595Y015189D02*
X032608Y015189D01*
X033380Y014555D02*
X043513Y014555D01*
X043390Y014396D02*
X033314Y014396D01*
X033173Y014238D02*
X043341Y014238D01*
X043342Y014079D02*
X022710Y014079D01*
X022826Y013921D02*
X043408Y013921D01*
X038331Y012180D02*
X037831Y011680D01*
X036831Y011680D01*
X028331Y013180D02*
X026831Y011680D01*
X025831Y010680D01*
X012331Y010680D01*
X010331Y012680D01*
X009776Y012653D02*
X009448Y012653D01*
X009448Y012811D02*
X009776Y012811D01*
X009776Y012970D02*
X009448Y012970D01*
X009448Y013128D02*
X009821Y013128D01*
X009776Y012494D02*
X009448Y012494D01*
X009448Y012336D02*
X009776Y012336D01*
X009876Y012177D02*
X009448Y012177D01*
X009448Y012019D02*
X010512Y012019D01*
X010670Y011860D02*
X009448Y011860D01*
X009448Y011702D02*
X010829Y011702D01*
X010987Y011543D02*
X009448Y011543D01*
X009448Y011385D02*
X011146Y011385D01*
X011304Y011226D02*
X009448Y011226D01*
X009448Y011068D02*
X011463Y011068D01*
X011621Y010909D02*
X009448Y010909D01*
X009448Y010751D02*
X011780Y010751D01*
X012831Y011180D02*
X011331Y012680D01*
X011552Y013921D02*
X017591Y013921D01*
X017749Y014079D02*
X011711Y014079D01*
X011869Y014238D02*
X017908Y014238D01*
X017331Y015680D02*
X016331Y014680D01*
X015225Y015189D02*
X009448Y015189D01*
X009448Y015347D02*
X014966Y015347D01*
X014872Y015506D02*
X009448Y015506D01*
X009448Y015664D02*
X014842Y015664D01*
X014842Y015680D02*
X015347Y015680D01*
X015347Y015680D01*
X014842Y015680D01*
X014862Y015823D02*
X009483Y015823D01*
X009488Y015981D02*
X014941Y015981D01*
X015136Y016140D02*
X009488Y016140D01*
X009488Y016298D02*
X016468Y016298D01*
X016310Y016140D02*
X015557Y016140D01*
X015347Y016140D02*
X015347Y016140D01*
X015347Y015981D02*
X015347Y015981D01*
X015347Y015823D02*
X015347Y015823D01*
X015752Y015981D02*
X016151Y015981D01*
X015993Y015823D02*
X015831Y015823D01*
X016627Y016457D02*
X009488Y016457D01*
X009488Y016615D02*
X016785Y016615D01*
X016944Y016774D02*
X009488Y016774D01*
X009488Y016932D02*
X017102Y016932D01*
X017261Y017091D02*
X009488Y017091D01*
X009488Y017249D02*
X017419Y017249D01*
X017578Y017408D02*
X009488Y017408D01*
X009488Y017566D02*
X017736Y017566D01*
X017895Y017725D02*
X013059Y017725D01*
X012621Y017725D02*
X009488Y017725D01*
X009488Y017883D02*
X012379Y017883D01*
X012266Y018042D02*
X009488Y018042D01*
X009488Y018200D02*
X012200Y018200D01*
X012200Y018359D02*
X012046Y018359D01*
X011666Y018359D02*
X009488Y018359D01*
X009488Y018517D02*
X010544Y018517D01*
X010385Y018676D02*
X009488Y018676D01*
X009488Y018834D02*
X010310Y018834D01*
X010271Y018993D02*
X009488Y018993D01*
X009488Y019151D02*
X010271Y019151D01*
X010324Y019310D02*
X009488Y019310D01*
X009488Y019468D02*
X010419Y019468D01*
X010618Y019627D02*
X009488Y019627D01*
X009488Y019785D02*
X010890Y019785D01*
X010986Y019944D02*
X009488Y019944D01*
X009488Y020102D02*
X011082Y020102D01*
X011179Y020261D02*
X009488Y020261D01*
X009488Y020419D02*
X011275Y020419D01*
X011371Y020578D02*
X009488Y020578D01*
X009488Y020736D02*
X011467Y020736D01*
X011136Y020895D02*
X009488Y020895D01*
X009488Y021053D02*
X011015Y021053D01*
X010956Y021212D02*
X009488Y021212D01*
X009488Y021370D02*
X010897Y021370D01*
X012808Y021846D02*
X013450Y021846D01*
X013023Y021935D02*
X013023Y021935D01*
X013237Y022638D02*
X014237Y022638D01*
X014202Y022644D02*
X014288Y022630D01*
X014293Y022630D01*
X014293Y023142D01*
X013781Y023142D01*
X013781Y023137D01*
X013795Y023051D01*
X013821Y022969D01*
X013861Y022892D01*
X013911Y022822D01*
X013973Y022760D01*
X014043Y022710D01*
X014120Y022670D01*
X014202Y022644D01*
X014293Y022638D02*
X014369Y022638D01*
X014369Y022797D02*
X014293Y022797D01*
X014293Y022955D02*
X014369Y022955D01*
X014369Y023114D02*
X014293Y023114D01*
X014293Y023272D02*
X014369Y023272D01*
X014369Y023431D02*
X014293Y023431D01*
X014293Y023589D02*
X014369Y023589D01*
X013962Y023589D02*
X009448Y023589D01*
X009448Y023431D02*
X013841Y023431D01*
X013789Y023272D02*
X009448Y023272D01*
X009448Y023114D02*
X013785Y023114D01*
X013828Y022955D02*
X012951Y022955D01*
X013151Y022797D02*
X013937Y022797D01*
X014331Y020680D02*
X011831Y020680D01*
X010981Y019280D01*
X010911Y019055D01*
X011278Y018517D02*
X011381Y018517D01*
X017315Y015680D02*
X017331Y015680D01*
X019979Y015347D02*
X026746Y015347D01*
X026525Y015506D02*
X020137Y015506D01*
X020296Y015664D02*
X026366Y015664D01*
X026208Y015823D02*
X020454Y015823D01*
X020613Y015981D02*
X026049Y015981D01*
X025891Y016140D02*
X020771Y016140D01*
X026852Y016140D02*
X032006Y016140D01*
X032222Y017091D02*
X032305Y017091D01*
X032381Y017249D02*
X032383Y017249D01*
X032539Y017408D02*
X032557Y017408D01*
X032856Y017725D02*
X055895Y017725D01*
X056053Y017883D02*
X043002Y017883D01*
X042831Y018180D02*
X032831Y018180D01*
X033105Y017408D02*
X040418Y017408D01*
X040281Y017249D02*
X033279Y017249D01*
X033357Y017091D02*
X040216Y017091D01*
X042831Y018180D02*
X044331Y020180D01*
X043838Y020578D02*
X043626Y020578D01*
X044027Y020736D02*
X042635Y020736D01*
X042824Y020578D02*
X043036Y020578D01*
X043331Y020180D02*
X042331Y020180D01*
X035331Y020180D01*
X041831Y022180D02*
X035831Y028180D01*
X037416Y027076D02*
X037836Y027076D01*
X037747Y026918D02*
X037574Y026918D01*
X039952Y024540D02*
X045110Y024540D01*
X044952Y024382D02*
X040110Y024382D01*
X040269Y024223D02*
X044793Y024223D01*
X044635Y024065D02*
X040427Y024065D01*
X040586Y023906D02*
X044476Y023906D01*
X044318Y023748D02*
X042107Y023748D01*
X042313Y023589D02*
X044159Y023589D01*
X044001Y023431D02*
X042409Y023431D01*
X042461Y023272D02*
X043842Y023272D01*
X043684Y023114D02*
X042461Y023114D01*
X042420Y022955D02*
X043525Y022955D01*
X043367Y022797D02*
X042338Y022797D01*
X042169Y022638D02*
X043208Y022638D01*
X043231Y022180D02*
X041831Y022180D01*
X041253Y023431D02*
X041061Y023431D01*
X040903Y023589D02*
X041349Y023589D01*
X041555Y023748D02*
X040744Y023748D01*
X047294Y022163D02*
X058833Y022163D01*
X058991Y022321D02*
X047453Y022321D01*
X047611Y022480D02*
X059150Y022480D01*
X059308Y022638D02*
X047770Y022638D01*
X052635Y020736D02*
X054027Y020736D01*
X053974Y020714D02*
X054206Y020810D01*
X054456Y020810D01*
X054688Y020714D01*
X054865Y020537D01*
X054961Y020305D01*
X054961Y020055D01*
X054865Y019823D01*
X054688Y019646D01*
X054456Y019550D01*
X054206Y019550D01*
X053974Y019646D01*
X053797Y019823D01*
X053701Y020055D01*
X053701Y020305D01*
X053797Y020537D01*
X053974Y020714D01*
X053838Y020578D02*
X052824Y020578D01*
X052914Y020419D02*
X053748Y020419D01*
X053701Y020261D02*
X052961Y020261D01*
X052961Y020102D02*
X053701Y020102D01*
X053747Y019944D02*
X052915Y019944D01*
X052827Y019785D02*
X053835Y019785D01*
X054021Y019627D02*
X052641Y019627D01*
X054641Y019627D02*
X062021Y019627D01*
X061835Y019785D02*
X054827Y019785D01*
X054915Y019944D02*
X061747Y019944D01*
X061701Y020102D02*
X054961Y020102D01*
X054961Y020261D02*
X061701Y020261D01*
X061748Y020419D02*
X054914Y020419D01*
X054824Y020578D02*
X061838Y020578D01*
X062027Y020736D02*
X054635Y020736D01*
X058971Y021370D02*
X073131Y021370D01*
X073131Y021529D02*
X059160Y021529D01*
X063832Y019944D02*
X063930Y019944D01*
X064732Y019944D02*
X064830Y019944D01*
X065797Y018676D02*
X084032Y018676D01*
X083627Y018517D02*
X065732Y018517D01*
X064571Y017249D02*
X069091Y017249D01*
X069571Y017249D02*
X080919Y017249D01*
X081078Y017408D02*
X069748Y017408D01*
X074331Y016180D02*
X080331Y016180D01*
X081331Y017180D01*
X084381Y017180D01*
X082901Y016774D02*
X081405Y016774D01*
X081247Y016615D02*
X082943Y016615D01*
X083026Y016457D02*
X081088Y016457D01*
X080985Y016298D02*
X083118Y016298D01*
X083251Y016140D02*
X081262Y016140D01*
X081388Y015981D02*
X083409Y015981D01*
X083662Y015823D02*
X081454Y015823D01*
X081461Y015664D02*
X084108Y015664D01*
X084654Y015664D02*
X088400Y015664D01*
X088625Y015823D02*
X085100Y015823D01*
X084279Y014713D02*
X088190Y014713D01*
X088255Y014555D02*
X084437Y014555D01*
X084596Y014396D02*
X088400Y014396D01*
X088625Y014238D02*
X084754Y014238D01*
X090637Y014238D02*
X111293Y014238D01*
X111134Y014396D02*
X090862Y014396D01*
X096630Y013287D02*
X099531Y013287D01*
X098831Y015180D02*
X100831Y017180D01*
X106967Y014555D02*
X110976Y014555D01*
X110817Y014713D02*
X107255Y014713D01*
X113607Y012494D02*
X116843Y012494D01*
X116843Y012336D02*
X113673Y012336D01*
X113691Y012177D02*
X116843Y012177D01*
X116843Y012019D02*
X113670Y012019D01*
X113603Y011860D02*
X116843Y011860D01*
X116843Y011702D02*
X113439Y011702D01*
X116843Y010909D02*
X075819Y010909D01*
X075686Y010751D02*
X116843Y010751D01*
X090320Y025650D02*
X086224Y025650D01*
X086615Y025808D02*
X090478Y025808D01*
X090637Y025967D02*
X086852Y025967D01*
X087010Y026125D02*
X090795Y026125D01*
X090954Y026284D02*
X087138Y026284D01*
X087229Y026442D02*
X091112Y026442D01*
X091271Y026601D02*
X089078Y026601D01*
X089301Y026759D02*
X091429Y026759D01*
X091588Y026918D02*
X089404Y026918D01*
X089461Y027076D02*
X091746Y027076D01*
X091905Y027235D02*
X089461Y027235D01*
X089525Y027393D02*
X092063Y027393D01*
X092391Y026759D02*
X096361Y026759D01*
X096584Y026601D02*
X092232Y026601D01*
X089831Y028180D02*
X088831Y027180D01*
X088258Y026918D02*
X087396Y026918D01*
X087411Y027076D02*
X088201Y027076D01*
X088201Y027235D02*
X087411Y027235D01*
X087410Y027393D02*
X088237Y027393D01*
X088312Y027552D02*
X087367Y027552D01*
X087325Y027710D02*
X088470Y027710D01*
X089039Y027869D02*
X087258Y027869D01*
X087166Y028027D02*
X089197Y028027D01*
X089356Y028186D02*
X087060Y028186D01*
X086901Y028344D02*
X089514Y028344D01*
X089721Y028503D02*
X086700Y028503D01*
X084962Y028503D02*
X056941Y028503D01*
X057119Y028373D02*
X057119Y028373D01*
X057148Y028344D02*
X084761Y028344D01*
X084602Y028186D02*
X057306Y028186D01*
X057465Y028027D02*
X084496Y028027D01*
X084404Y027869D02*
X057623Y027869D01*
X048831Y019680D02*
X045581Y019680D01*
X044831Y018930D01*
X044831Y015930D01*
X049331Y013180D02*
X028331Y013180D01*
X028115Y013445D02*
X022829Y013445D01*
X022715Y013287D02*
X027957Y013287D01*
X027481Y012811D02*
X017443Y012811D01*
X017284Y012653D02*
X027323Y012653D01*
X027164Y012494D02*
X017126Y012494D01*
X016967Y012336D02*
X027006Y012336D01*
X022369Y013287D02*
X022293Y013287D01*
X022293Y013445D02*
X022369Y013445D01*
X022369Y013604D02*
X022293Y013604D01*
X022293Y013762D02*
X022369Y013762D01*
X022369Y013921D02*
X022293Y013921D01*
X022293Y014079D02*
X022369Y014079D01*
X032346Y014238D02*
X032489Y014238D01*
X049331Y013180D02*
X049831Y012680D01*
X050067Y012177D02*
X050081Y012177D01*
X050271Y012336D02*
X053891Y012336D01*
X053807Y012494D02*
X050355Y012494D01*
X050386Y012653D02*
X053776Y012653D01*
X053785Y012811D02*
X050377Y012811D01*
X050312Y012970D02*
X053850Y012970D01*
X053994Y013128D02*
X050168Y013128D01*
X050581Y012177D02*
X053370Y012177D01*
X053276Y012019D02*
X050777Y012019D01*
X050857Y011860D02*
X053276Y011860D01*
X053276Y011702D02*
X050886Y011702D01*
X050875Y011543D02*
X053276Y011543D01*
X053276Y011385D02*
X050809Y011385D01*
X050662Y011226D02*
X053327Y011226D01*
X053738Y011068D02*
X050424Y011068D01*
X050331Y010680D02*
X053831Y010680D01*
X054831Y011680D01*
X050331Y010680D02*
X049331Y011680D01*
X061020Y012970D02*
X061428Y012970D01*
X061355Y012811D02*
X061181Y012811D01*
X061339Y012653D02*
X061341Y012653D01*
X058750Y017249D02*
X064091Y017249D01*
X087311Y026601D02*
X088584Y026601D01*
X088361Y026759D02*
X087354Y026759D01*
X089683Y027552D02*
X096312Y027552D01*
X096470Y027710D02*
X089842Y027710D01*
X089831Y028180D02*
X097331Y028180D01*
X098331Y027180D01*
X097701Y027235D02*
X097461Y027235D01*
X097461Y027076D02*
X097701Y027076D01*
X097637Y027393D02*
X097425Y027393D01*
X097479Y027552D02*
X097350Y027552D01*
X097320Y027710D02*
X097192Y027710D01*
X016831Y028180D02*
X010831Y028180D01*
X010831Y027180D01*
X011831Y026180D01*
X011276Y026125D02*
X009448Y026125D01*
X009448Y025967D02*
X011276Y025967D01*
X011286Y025808D02*
X009448Y025808D01*
X009448Y025650D02*
X011425Y025650D01*
X011247Y026284D02*
X009448Y026284D01*
X009448Y026442D02*
X011088Y026442D01*
X010930Y026601D02*
X009448Y026601D01*
X009448Y026759D02*
X010771Y026759D01*
X010613Y026918D02*
X009448Y026918D01*
X009548Y027076D02*
X010506Y027076D01*
X010491Y027235D02*
X009573Y027235D01*
X009552Y027393D02*
X010491Y027393D01*
X010491Y027552D02*
X009533Y027552D01*
X009514Y027710D02*
X010491Y027710D01*
X010491Y027869D02*
X009494Y027869D01*
D30*
X017331Y025180D03*
X043331Y020180D03*
X058331Y016980D03*
X064331Y017680D03*
X069331Y017680D03*
X074331Y016180D03*
X073831Y014180D03*
X071831Y013180D03*
X061831Y012680D03*
X043831Y014180D03*
X078331Y021180D03*
X081331Y021180D03*
X096331Y022180D03*
X109831Y022180D03*
X099831Y013680D03*
X096331Y013680D03*
X048731Y027680D03*
D31*
X042331Y026680D03*
X039331Y021680D03*
X037081Y021930D03*
X048831Y019680D03*
X052831Y018680D03*
X042581Y016930D03*
X024831Y014180D03*
X022831Y015680D03*
X013331Y016180D03*
X019581Y023930D03*
X012831Y024180D03*
X072331Y018180D03*
X107831Y012680D03*
M02*
