G75*
G70*
%OFA0B0*%
%FSLAX24Y24*%
%IPPOS*%
%LPD*%
%AMOC8*
5,1,8,0,0,1.08239X$1,22.5*
%
%ADD10R,0.0670X0.0670*%
%ADD11C,0.0670*%
%ADD12OC8,0.0600*%
%ADD13R,0.0600X0.0300*%
%ADD14C,0.0600*%
%ADD15C,0.0740*%
%ADD16C,0.1380*%
%ADD17C,0.1320*%
%ADD18C,0.2630*%
%ADD19R,0.0980X0.0980*%
%ADD20C,0.0820*%
%ADD21C,0.0680*%
%ADD22C,0.0840*%
%ADD23C,0.0552*%
%ADD24C,0.0520*%
%ADD25OC8,0.0680*%
%ADD26C,0.0730*%
%ADD27OC8,0.0710*%
%ADD28C,0.0830*%
%ADD29OC8,0.0830*%
%ADD30C,0.0540*%
%ADD31C,0.1346*%
D10*
X015331Y012180D03*
X010331Y012680D03*
X031831Y014680D03*
X031331Y018680D03*
X045831Y023180D03*
X016331Y026180D03*
X011831Y026180D03*
X049331Y011680D03*
X053831Y011680D03*
X074331Y011180D03*
D11*
X075331Y011180D03*
X074831Y012180D03*
X054831Y011680D03*
X054331Y012680D03*
X050331Y011680D03*
X049831Y012680D03*
X032831Y014680D03*
X032331Y015680D03*
X032331Y018680D03*
X031831Y019680D03*
X046331Y024180D03*
X046831Y023180D03*
X017331Y026180D03*
X016831Y027180D03*
X012831Y026180D03*
X012331Y027180D03*
X010831Y013680D03*
X011331Y012680D03*
X015831Y013180D03*
X016331Y012180D03*
D12*
X025831Y016680D03*
X026831Y016680D03*
X026831Y020180D03*
X025831Y020180D03*
D13*
X049431Y026800D03*
X050231Y027180D03*
X049431Y027560D03*
X059431Y017060D03*
X060231Y016680D03*
X059431Y016300D03*
D14*
X056591Y016680D02*
X056071Y016680D01*
X052591Y016680D02*
X052071Y016680D01*
X057571Y011680D02*
X058091Y011680D01*
X061571Y011680D02*
X062091Y011680D01*
X059091Y023680D02*
X058571Y023680D01*
X055091Y023680D02*
X054571Y023680D01*
X057571Y027180D02*
X058091Y027180D01*
X061571Y027180D02*
X062091Y027180D01*
D15*
X084931Y023510D02*
X084931Y022850D01*
X085831Y022850D02*
X085831Y023510D01*
X086731Y023510D02*
X086731Y022850D01*
X065231Y019510D02*
X065231Y018850D01*
X064331Y018850D02*
X064331Y019510D01*
X063431Y019510D02*
X063431Y018850D01*
D16*
X064331Y023180D03*
X085831Y027180D03*
D17*
X075251Y025830D02*
X074011Y025830D01*
X074011Y021530D02*
X075251Y021530D01*
X089011Y019330D02*
X090251Y019330D01*
X090251Y015030D02*
X089011Y015030D01*
D18*
X084381Y017180D03*
X096281Y017180D03*
X081281Y023680D03*
X069381Y023680D03*
D19*
X109831Y027180D03*
X115831Y027180D03*
D20*
X018831Y011680D03*
X022331Y013680D03*
X026831Y011680D03*
X028831Y011680D03*
X036831Y011680D03*
X038331Y012180D03*
X046331Y012180D03*
X040831Y016930D03*
X032831Y016930D03*
X034331Y020180D03*
X042331Y020180D03*
X044331Y020180D03*
X052331Y020180D03*
X054331Y020180D03*
X062331Y020180D03*
X063331Y015680D03*
X071331Y015680D03*
X072831Y015680D03*
X080831Y015680D03*
X078331Y012180D03*
X071831Y011680D03*
X063831Y011680D03*
X086331Y012180D03*
X098831Y015180D03*
X106831Y015180D03*
X106831Y018180D03*
X098831Y018180D03*
X098831Y020680D03*
X106831Y020680D03*
X106831Y023680D03*
X098831Y023680D03*
X096831Y023680D03*
X088831Y023680D03*
X088831Y027180D03*
X096831Y027180D03*
X098331Y027180D03*
X106331Y027180D03*
X046331Y026680D03*
X038331Y026680D03*
X036331Y026680D03*
X028331Y026680D03*
X026331Y026680D03*
X018331Y026680D03*
X022331Y023180D03*
X023831Y023180D03*
X022331Y021680D03*
X014331Y023180D03*
X031831Y023180D03*
X033831Y023180D03*
X041831Y023180D03*
D21*
X112531Y022680D02*
X113131Y022680D01*
X113131Y023680D02*
X112531Y023680D01*
X112531Y021680D02*
X113131Y021680D01*
X113131Y017180D02*
X112531Y017180D01*
X112531Y016180D02*
X113131Y016180D01*
X113131Y013180D02*
X112531Y013180D01*
X112531Y012180D02*
X113131Y012180D01*
D22*
X113822Y019127D03*
X113034Y019855D03*
X113822Y020583D03*
X115751Y019855D03*
X013628Y019055D03*
X012840Y018327D03*
X010911Y019055D03*
X012840Y019783D03*
D23*
X011856Y019055D03*
X114806Y019855D03*
D24*
X051815Y023188D03*
X049847Y023188D03*
X050831Y024172D03*
D25*
X016081Y020430D03*
X015081Y020430D03*
X015081Y019430D03*
X016081Y019430D03*
X016081Y018430D03*
X015081Y018430D03*
D26*
X015347Y015680D03*
X017315Y015680D03*
X012690Y022430D03*
X010722Y022430D03*
D27*
X046331Y016680D03*
X048331Y016680D03*
X053331Y027180D03*
X055331Y027180D03*
X094331Y011680D03*
X096331Y011680D03*
D28*
X099831Y011680D03*
X064331Y027180D03*
D29*
X066331Y027180D03*
X101831Y011680D03*
D30*
X099831Y013680D03*
X096331Y013680D03*
X074331Y016180D03*
X069331Y017680D03*
X064331Y017680D03*
X058331Y016980D03*
X071831Y013180D03*
X073831Y014180D03*
X061831Y012680D03*
X043831Y014180D03*
X043331Y020180D03*
X048731Y027680D03*
X078331Y021180D03*
X081331Y021180D03*
X096331Y022180D03*
X109831Y022180D03*
X017331Y025180D03*
D31*
X019581Y023930D03*
X012831Y024180D03*
X037081Y021930D03*
X039331Y021680D03*
X048831Y019680D03*
X052831Y018680D03*
X042581Y016930D03*
X024831Y014180D03*
X022831Y015680D03*
X013331Y016180D03*
X042331Y026680D03*
X072331Y018180D03*
X107831Y012680D03*
M02*
